<?xml version="1.0" encoding="utf-8"?>
<!-- Generator: Adobe Illustrator 25.4.1, SVG Export Plug-In . SVG Version: 6.00 Build 0)  -->
<svg version="1.1" id="Capa_1" xmlns="http://www.w3.org/2000/svg" xmlns:xlink="http://www.w3.org/1999/xlink" x="0px" y="0px"
	 viewBox="0 0 1242 1298" style="enable-background:new 0 0 1242 1298;" xml:space="preserve">
<style type="text/css">
	.st0{fill:#62381A;}
</style>
<g>
	<path class="st0" d="M440.1,866.4c-20.4,2.8-51.7,13.6-58.4,41.7c3.4-26.9,32.5-39.2,53.6-42.7c5-0.8,10.4-1.4,15.8-1.8
		c15.8-17.8,34.7-25.3,44.2-27.3c29-6.2,42.1,9.1,26,21c-10.9,8-38.2,6.7-62.9,7.7c-14.8,16.7-20.7,33.7-21,51.5
		c-0.3,18.2,7.6,30.8,29,16.2c26.2-17.6,41.2-57.7,44.5-62.7c2.1-3.1,7.3,2,6,4.8c-2.5,5-9.9,20-14,33.7c-12.2,41.3,11.9,60.2,47,51
		c12.2-3.2,27.6-15.1,27.6-15.1c-22.7,22.3-65.2,28-79.8-0.3c-6.9-13.4-5.7-29.7,0.6-45.8c-7.3,17.1-24.4,34.4-37.7,40.2
		c-19.5,8.3-26.9-1.1-29.5-14.3c-1.1-5.5-4.3-18.5,8.5-44.9c2.9-5.2,6.3-9.8,9.8-13.9C446.3,865.6,443.2,866,440.1,866.4z
		 M464.6,858.8c-1.5,1.4-2.8,2.8-4.2,4.2c21.7-1,43.3-0.3,51.9-3.5c22.1-8.3,13.7-20.7-0.3-22.1C496.8,836,476.5,847.4,464.6,858.8z
		"/>
	<path class="st0" d="M533.2,902c-0.6,2-0.6,4.9,1.3,8c2.5,4.3,5.2,8,6.3,11.3c14-6.9,17.4-10.9,24.5-20.3
		c-3.1,9.5-12.9,16.4-24.1,21.7c2.1,6.6,1.8,11.9-2.4,18.5c-7.1,11.3-22.4,15-27.3,9c-6.7-8.4,3.9-17.5,19.5-24.5
		c2.2-1,4.1-2,5.9-2.8c-0.4-2.7-1.5-5.3-3.4-8.3c-6.7-10.5-5.6-11.8-5.5-14.1c0.3-4.5,5.6-9.1,5.6-9.1c3.1-2.2,3.9,2.2,3.2,4.9
		C535.3,898,533.8,900.1,533.2,902z M535,925.1c-13,5.6-24.5,13-23.5,20.2c0.7,4.9,4.9,6.4,10.1,3.5c5.3-2.9,16.7-12.2,15.5-24.4
		C536.4,924.6,535.7,924.8,535,925.1z"/>
	<path class="st0" d="M576.1,917.5c-6.4,8.5-11.5,13.9-16.9,12.2c-8.7-2.8-1.4-24.5,4.8-28.6c2.8-1.4,4.2,0.1,3.8,2.4
		c-0.6,3.5-4.3,8.7-5.9,14.8c-1.1,4.6-2.5,9.9,1,9.5c4.3-0.4,12.3-12.7,17.9-19.6c4.6-5.7,6-7.4,9-7.4
		C585.4,902.9,581.9,909.8,576.1,917.5z M569.3,895.2c-1.7-0.6-1.8-1.5-0.6-3.9c1.4-2.7,0.6-3.2,2.8-4.5c1.5-0.8,6.6-0.3,4.9,3.2
		C574.7,893.8,571.3,895.8,569.3,895.2z"/>
	<path class="st0" d="M590.2,902c-0.6,2-0.6,4.9,1.3,8c2.5,4.3,5.2,8,6.3,11.3c14-6.9,17.4-10.9,24.5-20.3
		c-3.1,9.5-12.9,16.4-24.1,21.7c2.1,6.6,1.8,11.9-2.4,18.5c-7.1,11.3-22.4,15-27.3,9c-6.7-8.4,3.9-17.5,19.5-24.5
		c2.2-1,4.1-2,5.9-2.8c-0.4-2.7-1.5-5.3-3.4-8.3c-6.7-10.5-5.6-11.8-5.5-14.1c0.3-4.5,5.6-9.1,5.6-9.1c3.1-2.2,3.9,2.2,3.2,4.9
		C592.3,898,590.8,900.1,590.2,902z M592,925.1c-13,5.6-24.5,13-23.5,20.2c0.7,4.9,4.9,6.4,10.1,3.5c5.3-2.9,16.7-12.2,15.5-24.4
		C593.4,924.6,592.7,924.8,592,925.1z"/>
	<path class="st0" d="M588.9,846.7c-3.5,2.4-6.4,7-2.7,10.8c6.7,6.7,26,6,49,3.6c5.9-10.9,9.1-13.9,9.1-13.9c1.4-2.2,6,2.8,4.6,5.2
		c-1.5,2.5-3.1,5-4.6,7.7c31.9-3.8,68-9.7,86-4.2c6.7,2.1,9.2,4.5,8.5,7.8c-0.3,1.8-2.2,2.9-3.1,1.1c-0.7-1.5,2.9-5.2-6.3-7.8
		c-18.5-5.2-54.3,0.8-86.1,4.6c-9.2,15.8-18.9,35.8-26.9,64.1c-5.7,20.3-0.6,29.5,8.7,17.9c10.4-13,20.3-41,31.4-42.8
		c-8.8,7.8-11.9,13.7-20.2,29.1c-11.6,21.8-18.2,23.1-22.8,19.3c-5.9-4.8-9-16.9,6.3-54.7c5.9-14.4,10.8-24.8,14.6-31.9
		c-23.1,2.4-42.6,2.8-49.6-4.6c-3.5-3.8-2.1-10.4,2.5-13.4C588.8,843.6,592.6,844.3,588.9,846.7z"/>
	<path class="st0" d="M650.1,915c-2.2,10.8,3.6,15,9.8,12.5c10.4-4.1,20.2-26.7,27.4-26.6c-7.1,6.6-7.7,8.7-12.6,15
		c-6.4,8.3-13.2,15.4-21.1,14.6c-10.5-1.1-11.8-14.3-9.1-20.4c2.8-6.4,8.4-13.7,17.2-14.3c7.3-0.4,10.1,6.4,3.1,12.3
		c-4.2,3.5-10.4,5.2-14.4,5.9C650.4,914.1,650.1,914.7,650.1,915z M656.1,910.9c11.3-3.8,13.3-12.3,7.4-10.9c0,0-9.2,1.1-12.7,12.3
		C652.2,912,654.2,911.6,656.1,910.9z"/>
	<path class="st0" d="M693,905.3c0.1,4.6-1.4,6.9-3.9,12.2c5.9-8.4,19.5-21.8,28.7-24.4c5.3-1.4,7.7,3.5,7.3,7.1
		c-0.7,5.5-16.2,26.7-18.2,34.6c-2.8,11.6,4.5,7.8,6.7,6.2c6.7-5,19.3-27.7,25.1-34.3c7-8.1,9.7-5.5,9.7-5.5
		c-11.1,2.7-24.5,38.4-36.8,43.3c-3.6,1.5-9.2,0.6-10.9-5.3c-3.2-11.8,18.1-38.9,18.8-43c0.7-4.6-12.9,3.6-22.4,14.6
		c-6.4,7.4-9.8,13-12.6,17.4c-0.6,1-3.8,1-5.2-1.4c-0.6-1-2.2-3.2,2.9-13.9c5.7-11.6,3.4-11.2,3.4-11.2
		C686.7,899.9,692.8,900.8,693,905.3z"/>
	<path class="st0" d="M743.6,911.8c-3.6,4.9-6.3,10.9-4.6,17.9c0.7,3.4,5.9,5.7,11.9,1.8c11.6-7.6,22.1-26.2,31.1-30.7
		c-6.4,5.3-13.3,16.5-23.4,26.3c-9.2,9-16.1,11.2-21.8,6.4c-6.7-5.6-4.5-19.3,1.1-26.2c6.4-8,14.3-12.2,21.6-10.1
		c7.7,2.1,4.9,8.5,2.7,11.8c-2.2,3.2-5.5,6.2-8.5,3.6c-3.1-2.5,1.1-5.2,2-4.9c0.8,0.3,3.6,0,5.6-2.2c2.7-2.9,0.4-5.3-2.9-4.8
		C756.1,901.1,750.2,902.9,743.6,911.8z"/>
	<path class="st0" d="M791.1,917.5c-6.4,8.5-11.5,13.9-16.9,12.2c-8.7-2.8-1.4-24.5,4.8-28.6c2.8-1.4,4.2,0.1,3.8,2.4
		c-0.6,3.5-4.3,8.7-5.9,14.8c-1.1,4.6-2.5,9.9,1,9.5c4.3-0.4,12.3-12.7,17.9-19.6c4.6-5.7,6-7.4,9-7.4
		C800.5,902.9,797,909.8,791.1,917.5z M784.4,895.2c-1.7-0.6-1.8-1.5-0.6-3.9c1.4-2.7,0.6-3.2,2.8-4.5c1.5-0.8,6.6-0.3,4.9,3.2
		C789.7,893.8,786.3,895.8,784.4,895.2z"/>
	<path class="st0" d="M820.9,934c8-11.8,17.8-31.8,24.6-33.3c-7,8-8.8,11.6-12.9,18.1c-7.7,12.5-11.9,20.9-16.4,20.2
		c-5-0.8-9.7-7.4-4.5-21.6c0.1-0.6,0.4-1.1,0.6-1.7c-5.7,7-11.2,13.7-16.5,7.7c-5.5-6.2-0.1-17.2,4.9-21.8
		c3.6-3.4,10.5-6.3,17.8-4.5c8.1,2.1,2,2.1,2,2.1s-10.4-2.2-17.8,9.7c-5.5,8.8-2.4,16.8,2,12.7c2.4-2.2,7.6-8.8,11.6-14
		c2.1-3.4,4.3-7.4,6.4-7.4c2.1-0.1,7.3,0.6,2.7,6.4C812.7,923.1,812.4,946.5,820.9,934z"/>
</g>
<g id="XMLID_6662_">
	<path class="st0" d="M247.4,1092.5h17.8l2.8-9.5c0.5-1.9,0.8-3.3,0.8-4.3c0-0.5-0.1-0.9-0.4-1.3c-0.2-0.3-0.6-0.6-1.1-0.8
		s-1.5-0.3-2.9-0.3l0.3-1.1h15.5l-0.4,1.1c-1.3,0-2.3,0.1-2.9,0.4c-0.9,0.4-1.6,0.9-2.1,1.6c-0.6,0.9-1.2,2.5-1.9,4.7l-6.8,23.3
		c-0.6,1.9-0.8,3.3-0.8,4.2c0,0.7,0.3,1.2,0.8,1.6c0.5,0.4,1.7,0.6,3.6,0.7l-0.3,1.1h-15l0.4-1.1c1.5,0,2.5-0.2,3-0.4
		c0.8-0.4,1.3-0.8,1.7-1.3c0.5-0.7,1.1-2.3,1.8-4.8l3.5-11.8h-17.9l-3.5,11.8c-0.5,1.9-0.8,3.3-0.8,4.2c0,0.7,0.2,1.2,0.7,1.6
		c0.5,0.4,1.7,0.6,3.6,0.7l-0.2,1.1h-15.1l0.4-1.1c1.5,0,2.5-0.2,3-0.4c0.8-0.4,1.3-0.8,1.7-1.3c0.5-0.8,1.1-2.4,1.8-4.8l6.8-23.3
		c0.5-1.9,0.8-3.4,0.8-4.3c0-0.5-0.1-0.9-0.4-1.3c-0.2-0.3-0.6-0.6-1.1-0.8c-0.5-0.2-1.5-0.3-3-0.3l0.4-1.1h15.2l-0.3,1.1
		c-1.3,0-2.2,0.1-2.8,0.4c-0.9,0.4-1.5,0.9-1.9,1.5c-0.6,0.8-1.2,2.4-1.9,4.7L247.4,1092.5z"/>
	<path class="st0" d="M300.7,1088.2l-5.6,19.3l-0.6,2.6c0,0.2-0.1,0.4-0.1,0.6c0,0.3,0.1,0.6,0.3,0.8c0.1,0.2,0.3,0.2,0.6,0.2
		s0.6-0.2,1-0.5c0.7-0.5,1.7-1.7,3-3.4l1,0.7c-1.3,2-2.6,3.5-4,4.5s-2.7,1.5-3.9,1.5c-0.8,0-1.4-0.2-1.8-0.6c-0.4-0.4-0.6-1-0.6-1.8
		c0-0.9,0.2-2.2,0.6-3.7l0.6-2.2c-2.5,3.3-4.8,5.5-6.9,6.8c-1.5,0.9-3,1.4-4.4,1.4c-1.4,0-2.6-0.6-3.6-1.7c-1-1.1-1.5-2.7-1.5-4.7
		c0-3,0.9-6.2,2.7-9.6c1.8-3.4,4.1-6,6.9-8c2.2-1.6,4.2-2.4,6.2-2.4c1.2,0,2.2,0.3,2.9,0.9c0.8,0.6,1.3,1.6,1.8,3l1-3.3
		L300.7,1088.2z M290.5,1089.6c-1.2,0-2.5,0.6-3.9,1.7c-2,1.6-3.7,4-5.2,7.2c-1.5,3.2-2.3,6-2.3,8.6c0,1.3,0.3,2.3,1,3
		s1.4,1.1,2.2,1.1c2.1,0,4.3-1.5,6.7-4.6c3.3-4.1,4.9-8.2,4.9-12.5c0-1.6-0.3-2.8-0.9-3.5S291.6,1089.6,290.5,1089.6z"/>
	<path class="st0" d="M305.5,1088.9h18.1v0.7l-19.7,20.5h8.3c2,0,3.2-0.1,3.8-0.2s1-0.5,1.5-1c0.4-0.5,0.9-1.4,1.5-2.7h1.1l-2.5,7.7
		H299v-0.8l19.7-20.5h-8.2c-1.7,0-2.8,0-3.1,0.1c-0.5,0.1-1.1,0.4-1.6,0.9c-0.5,0.5-1,1.3-1.6,2.4h-1.1L305.5,1088.9z"/>
	<path class="st0" d="M356.8,1107.8c-2,2.4-4,4.1-6,5.2c-2,1.1-4.1,1.7-6.4,1.7c-2.7,0-4.8-0.8-6.3-2.3s-2.3-3.5-2.3-6.1
		c0-2.9,0.8-5.8,2.4-8.6c1.6-2.8,3.8-5.1,6.5-6.9c2.7-1.8,5.4-2.6,8.1-2.6c2.1,0,3.6,0.4,4.7,1.3c1,0.9,1.5,1.9,1.5,3.2
		c0,1.2-0.4,2.2-1.1,3c-0.5,0.7-1.2,1-1.9,1c-0.6,0-1.1-0.2-1.5-0.6c-0.4-0.4-0.6-0.9-0.6-1.4c0-0.4,0.1-0.7,0.2-1
		c0.1-0.3,0.4-0.7,0.9-1.1c0.4-0.4,0.7-0.7,0.8-0.9c0.1-0.2,0.1-0.4,0.1-0.6c0-0.4-0.2-0.7-0.5-1c-0.6-0.4-1.3-0.6-2.3-0.6
		c-1.9,0-3.7,0.7-5.5,2s-3.4,3.2-4.7,5.6c-1.6,2.9-2.3,5.8-2.3,8.8c0,1.9,0.6,3.5,1.7,4.6c1.1,1.1,2.6,1.7,4.5,1.7
		c1.5,0,2.9-0.4,4.3-1.1c1.4-0.7,3-2.1,4.8-4L356.8,1107.8z"/>
	<path class="st0" d="M375.7,1073.4l-9.7,33.9c-0.5,1.7-0.7,2.7-0.7,3.1c0,0.3,0.1,0.5,0.3,0.7c0.2,0.2,0.4,0.3,0.7,0.3
		c0.4,0,0.8-0.2,1.2-0.5c1-0.8,2-2,3.1-3.6l0.8,0.9c-1.8,2.5-3.5,4.3-5,5.3c-1.1,0.7-2.2,1.1-3.2,1.1c-0.7,0-1.3-0.2-1.8-0.7
		s-0.7-1.1-0.7-1.7c0-0.7,0.3-2.1,0.9-4.2l7.7-26.7c0.6-2.2,0.9-3.4,0.9-3.7c0-0.5-0.2-0.9-0.5-1.1s-0.9-0.4-1.7-0.4
		c-0.4,0-1.1,0.1-2,0.2v-1.1L375.7,1073.4z"/>
	<path class="st0" d="M386.2,1088.2l-5.6,20c-0.4,1.3-0.6,2.1-0.6,2.4c0,0.3,0.1,0.6,0.3,0.7c0.2,0.2,0.4,0.3,0.6,0.3
		c0.3,0,0.6-0.2,1-0.5c1.1-0.8,2.2-2.1,3.3-3.6l1,0.7c-1.3,2-2.8,3.6-4.6,5c-1.3,1-2.5,1.5-3.7,1.5c-0.8,0-1.4-0.2-1.9-0.7
		s-0.7-1-0.7-1.8c0-0.7,0.2-1.9,0.7-3.5l3.7-12.8c0.6-2.1,0.9-3.4,0.9-3.9c0-0.4-0.1-0.7-0.4-1c-0.3-0.3-0.7-0.4-1.2-0.4
		c-0.4,0-1.3,0.1-2.6,0.3v-1.1L386.2,1088.2z M385.8,1076.9c0.8,0,1.5,0.3,2,0.8c0.5,0.6,0.8,1.2,0.8,2s-0.3,1.5-0.8,2
		s-1.2,0.8-2,0.8c-0.8,0-1.5-0.3-2-0.8c-0.6-0.6-0.8-1.2-0.8-2s0.3-1.4,0.8-2C384.3,1077.2,385,1076.9,385.8,1076.9z"/>
	<path class="st0" d="M409.7,1107.8c-2,2.4-4,4.1-6,5.2c-2,1.1-4.1,1.7-6.4,1.7c-2.7,0-4.8-0.8-6.3-2.3c-1.5-1.5-2.3-3.5-2.3-6.1
		c0-2.9,0.8-5.8,2.4-8.6c1.6-2.8,3.8-5.1,6.5-6.9c2.7-1.8,5.4-2.6,8.1-2.6c2.1,0,3.6,0.4,4.7,1.3c1,0.9,1.5,1.9,1.5,3.2
		c0,1.2-0.4,2.2-1.1,3c-0.5,0.7-1.2,1-1.9,1c-0.6,0-1.1-0.2-1.5-0.6c-0.4-0.4-0.6-0.9-0.6-1.4c0-0.4,0.1-0.7,0.2-1
		c0.1-0.3,0.4-0.7,0.9-1.1c0.4-0.4,0.7-0.7,0.8-0.9c0.1-0.2,0.1-0.4,0.1-0.6c0-0.4-0.2-0.7-0.5-1c-0.6-0.4-1.3-0.6-2.3-0.6
		c-1.9,0-3.7,0.7-5.5,2c-1.8,1.3-3.4,3.2-4.7,5.6c-1.6,2.9-2.3,5.8-2.3,8.8c0,1.9,0.6,3.5,1.7,4.6c1.1,1.1,2.6,1.7,4.5,1.7
		c1.5,0,2.9-0.4,4.3-1.1c1.4-0.7,3-2.1,4.8-4L409.7,1107.8z"/>
	<path class="st0" d="M430.9,1103.2c-0.1,0.9-0.2,1.7-0.2,2.3c0,1.7,0.6,3.1,1.8,4.3c1.2,1.2,2.6,1.8,4.4,1.8c1.4,0,2.7-0.3,3.9-0.8
		c1.3-0.6,3.1-1.8,5.6-3.7l0.6,0.8c-4.5,4.5-8.8,6.7-12.9,6.7c-2.8,0-4.8-0.9-6.2-2.6c-1.4-1.7-2.1-3.7-2.1-5.8
		c0-2.8,0.9-5.7,2.6-8.7c1.7-3,3.9-5.3,6.6-6.9c2.6-1.6,5.3-2.5,8.2-2.5c2,0,3.5,0.4,4.5,1.2c1,0.8,1.4,1.8,1.4,2.9
		c0,1.6-0.6,3.1-1.9,4.5c-1.7,1.9-4.1,3.4-7.3,4.6C437.8,1102.2,434.8,1102.8,430.9,1103.2z M431.1,1101.8c2.8-0.3,5.1-0.9,6.9-1.7
		c2.3-1,4.1-2.3,5.3-3.7c1.2-1.5,1.8-2.8,1.8-4.2c0-0.8-0.3-1.4-0.8-1.9s-1.2-0.7-2.1-0.7c-1.9,0-4,1-6.2,3.1
		C433.8,1094.7,432.2,1097.8,431.1,1101.8z"/>
	<path class="st0" d="M460.9,1088.2l-3.8,13c3.5-5.3,6.3-8.8,8.2-10.5c1.9-1.7,3.7-2.5,5.5-2.5c0.9,0,1.7,0.3,2.3,1
		c0.6,0.6,0.9,1.5,0.9,2.4c0,1.2-0.3,2.7-0.8,4.6l-3.5,12c-0.4,1.4-0.6,2.2-0.6,2.5c0,0.3,0.1,0.5,0.2,0.7c0.2,0.2,0.3,0.3,0.5,0.3
		c0.2,0,0.5-0.1,0.8-0.4c1-0.8,2.1-2,3.3-3.6l0.9,0.5c-1.8,2.5-3.4,4.3-5,5.4c-1.1,0.7-2.1,1.1-3,1.1c-0.7,0-1.3-0.2-1.7-0.6
		c-0.4-0.4-0.6-1-0.6-1.7c0-0.9,0.3-2.5,1-4.7l3.3-11.5c0.4-1.4,0.6-2.5,0.6-3.3c0-0.4-0.1-0.7-0.4-0.9c-0.2-0.2-0.5-0.4-0.9-0.4
		c-0.5,0-1.2,0.2-1.9,0.7c-1.4,0.8-2.8,2.3-4.4,4.2c-1.5,2-3.1,4.5-4.8,7.5c-0.9,1.6-1.6,3.4-2.2,5.3l-1.4,4.7h-4.3l5.2-17.8
		c0.6-2.1,0.9-3.4,0.9-3.9c0-0.4-0.2-0.8-0.5-1.1c-0.3-0.3-0.7-0.5-1.2-0.5c-0.2,0-0.6,0-1.2,0.1l-1.1,0.1l-0.2-1L460.9,1088.2z"/>
	<path class="st0" d="M505.5,1073.4l-9.7,33.9c-0.5,1.7-0.7,2.7-0.7,3.1c0,0.3,0.1,0.5,0.3,0.7c0.2,0.2,0.4,0.3,0.7,0.3
		c0.4,0,0.8-0.2,1.2-0.5c1-0.8,2-2,3.1-3.6l0.8,0.9c-1.8,2.5-3.5,4.3-5,5.3c-1.1,0.7-2.2,1.1-3.2,1.1c-0.7,0-1.3-0.2-1.8-0.7
		s-0.7-1.1-0.7-1.7c0-0.7,0.3-2.1,0.9-4.2l7.7-26.7c0.6-2.2,0.9-3.4,0.9-3.7c0-0.5-0.2-0.9-0.5-1.1s-0.9-0.4-1.7-0.4
		c-0.4,0-1.1,0.1-2,0.2v-1.1L505.5,1073.4z"/>
	<path class="st0" d="M529.9,1088.2l-5.6,19.3l-0.6,2.6c0,0.2-0.1,0.4-0.1,0.6c0,0.3,0.1,0.6,0.3,0.8c0.1,0.2,0.3,0.2,0.6,0.2
		s0.6-0.2,1-0.5c0.7-0.5,1.7-1.7,3-3.4l1,0.7c-1.3,2-2.6,3.5-4,4.5s-2.7,1.5-3.9,1.5c-0.8,0-1.4-0.2-1.8-0.6c-0.4-0.4-0.6-1-0.6-1.8
		c0-0.9,0.2-2.2,0.6-3.7l0.6-2.2c-2.5,3.3-4.8,5.5-6.9,6.8c-1.5,0.9-3,1.4-4.4,1.4c-1.4,0-2.6-0.6-3.6-1.7c-1-1.1-1.5-2.7-1.5-4.7
		c0-3,0.9-6.2,2.7-9.6c1.8-3.4,4.1-6,6.9-8c2.2-1.6,4.2-2.4,6.2-2.4c1.2,0,2.2,0.3,2.9,0.9c0.8,0.6,1.3,1.6,1.8,3l1-3.3
		L529.9,1088.2z M519.7,1089.6c-1.2,0-2.5,0.6-3.9,1.7c-2,1.6-3.7,4-5.2,7.2c-1.5,3.2-2.3,6-2.3,8.6c0,1.3,0.3,2.3,1,3
		s1.4,1.1,2.2,1.1c2.1,0,4.3-1.5,6.7-4.6c3.3-4.1,4.9-8.2,4.9-12.5c0-1.6-0.3-2.8-0.9-3.5S520.8,1089.6,519.7,1089.6z"/>
	<path class="st0" d="M556,1088.2l-5.6,20c-0.4,1.3-0.6,2.1-0.6,2.4c0,0.3,0.1,0.6,0.3,0.7c0.2,0.2,0.4,0.3,0.6,0.3
		c0.3,0,0.6-0.2,1-0.5c1.1-0.8,2.2-2.1,3.3-3.6l1,0.7c-1.3,2-2.8,3.6-4.6,5c-1.3,1-2.5,1.5-3.7,1.5c-0.8,0-1.4-0.2-1.9-0.7
		s-0.7-1-0.7-1.8c0-0.7,0.2-1.9,0.7-3.5l3.7-12.8c0.6-2.1,0.9-3.4,0.9-3.9c0-0.4-0.1-0.7-0.4-1c-0.3-0.3-0.7-0.4-1.2-0.4
		c-0.4,0-1.3,0.1-2.6,0.3v-1.1L556,1088.2z M555.7,1076.9c0.8,0,1.5,0.3,2,0.8c0.5,0.6,0.8,1.2,0.8,2s-0.3,1.5-0.8,2
		c-0.6,0.6-1.2,0.8-2,0.8c-0.8,0-1.5-0.3-2-0.8c-0.6-0.6-0.8-1.2-0.8-2s0.3-1.4,0.8-2C554.2,1077.2,554.9,1076.9,555.7,1076.9z"/>
	<path class="st0" d="M569.6,1088.2l-3.7,12.9c1.7-3,3.1-5.3,4.2-6.8c1.8-2.4,3.5-4.1,5.3-5.1c1-0.6,2.1-0.9,3.1-0.9
		c0.9,0,1.7,0.3,2.4,0.9c0.6,0.6,1,1.4,1,2.3s-0.2,2.2-0.7,3.6l-2,7.2c3.1-5.8,6-9.9,8.8-12.2c1.5-1.3,3-1.9,4.5-1.9
		c0.9,0,1.6,0.3,2.2,0.9c0.6,0.6,0.8,1.5,0.8,2.8c0,1.1-0.2,2.3-0.5,3.5l-3.1,11.1c-0.7,2.4-1,3.8-1,4c0,0.3,0.1,0.5,0.2,0.7
		c0.1,0.1,0.3,0.2,0.5,0.2s0.5-0.2,1-0.5c1.1-0.8,2.1-2,3-3.3l1,0.6c-0.5,0.8-1.3,1.8-2.5,3.1s-2.2,2.2-3.1,2.7
		c-0.9,0.5-1.6,0.7-2.4,0.7c-0.7,0-1.2-0.2-1.7-0.7s-0.7-1-0.7-1.7c0-0.9,0.4-2.8,1.2-5.5l2.6-9.1c0.6-2.1,0.9-3.3,0.9-3.5
		c0.1-0.4,0.1-0.7,0.1-1.1c0-0.5-0.1-0.8-0.3-1.1c-0.2-0.3-0.5-0.4-0.8-0.4c-0.8,0-1.6,0.4-2.5,1.2c-2.6,2.4-5.1,5.8-7.4,10.1
		c-1.5,2.9-2.9,6.6-4.2,11h-4.3l4.9-17.2c0.5-1.9,0.8-3.1,0.8-3.7c0-0.5-0.1-0.9-0.3-1.1c-0.2-0.2-0.5-0.4-0.8-0.4
		c-0.6,0-1.3,0.2-2,0.7c-1.1,0.8-2.6,2.3-4.4,4.8c-1.8,2.4-3.2,4.8-4.2,7c-0.5,1-1.6,4.4-3.4,10H558l5.3-18.5l0.7-2.4
		c0.1-0.4,0.2-0.6,0.2-0.8c0-0.4-0.2-0.8-0.6-1.1c-0.4-0.3-0.9-0.5-1.4-0.5c-0.3,0-0.9,0.1-2.1,0.4l-0.2-1.1L569.6,1088.2z"/>
	<path class="st0" d="M624.7,1088.2l-5.6,19.3l-0.6,2.6c0,0.2-0.1,0.4-0.1,0.6c0,0.3,0.1,0.6,0.3,0.8c0.1,0.2,0.3,0.2,0.6,0.2
		c0.2,0,0.6-0.2,1-0.5c0.7-0.5,1.7-1.7,3-3.4l1,0.7c-1.3,2-2.6,3.5-4,4.5c-1.4,1-2.7,1.5-3.9,1.5c-0.8,0-1.4-0.2-1.8-0.6
		c-0.4-0.4-0.6-1-0.6-1.8c0-0.9,0.2-2.2,0.6-3.7l0.6-2.2c-2.5,3.3-4.8,5.5-6.9,6.8c-1.5,0.9-3,1.4-4.4,1.4c-1.4,0-2.6-0.6-3.6-1.7
		c-1-1.1-1.5-2.7-1.5-4.7c0-3,0.9-6.2,2.7-9.6c1.8-3.4,4.1-6,6.9-8c2.2-1.6,4.2-2.4,6.2-2.4c1.2,0,2.2,0.3,2.9,0.9
		c0.8,0.6,1.3,1.6,1.8,3l1-3.3L624.7,1088.2z M614.5,1089.6c-1.2,0-2.5,0.6-3.9,1.7c-2,1.6-3.7,4-5.2,7.2c-1.5,3.2-2.3,6-2.3,8.6
		c0,1.3,0.3,2.3,1,3s1.4,1.1,2.2,1.1c2.1,0,4.3-1.5,6.7-4.6c3.3-4.1,4.9-8.2,4.9-12.5c0-1.6-0.3-2.8-0.9-3.5
		C616.5,1090,615.6,1089.6,614.5,1089.6z"/>
	<path class="st0" d="M655,1089.9l-0.8,3h-4.8c0.4,1,0.5,2,0.5,2.9c0,2.5-1.1,4.8-3.2,6.7c-2.1,1.9-5.1,3-8.8,3.2
		c-2,0.6-3.5,1.3-4.5,2.2c-0.4,0.3-0.6,0.6-0.6,0.9c0,0.4,0.2,0.7,0.5,1s1.2,0.6,2.6,0.9l5.6,1.3c3,0.7,5.1,1.6,6,2.5
		c1,1,1.4,2.2,1.4,3.5c0,1.6-0.6,3-1.7,4.3s-2.8,2.3-5,3c-2.2,0.7-4.7,1.1-7.3,1.1c-2.4,0-4.5-0.3-6.4-0.8c-1.9-0.6-3.3-1.3-4.2-2.3
		c-0.8-0.9-1.3-1.9-1.3-2.9c0-0.8,0.3-1.6,0.8-2.5s1.2-1.6,2-2.2c0.5-0.4,2-1.2,4.3-2.6c-0.9-0.7-1.3-1.4-1.3-2.3
		c0-0.8,0.4-1.6,1.2-2.4c0.8-0.8,2.4-1.8,4.9-2.8c-2.1-0.4-3.8-1.3-5-2.6s-1.8-2.8-1.8-4.5c0-2.7,1.2-5.1,3.5-7.2
		c2.4-2.1,5.5-3.2,9.4-3.2c1.4,0,2.6,0.1,3.5,0.4s1.8,0.7,2.7,1.3H655z M631.5,1113.9c-1.5,0.7-2.7,1.6-3.5,2.7
		c-0.8,1.1-1.2,2.2-1.2,3.2c0,1.2,0.6,2.3,1.7,3.1c1.7,1.2,4,1.8,7.2,1.8c2.7,0,5-0.5,7-1.4c1.9-0.9,2.9-2.1,2.9-3.6
		c0-0.8-0.4-1.5-1.1-2.1s-2.1-1.2-4.2-1.6C639.2,1115.8,636.3,1115.1,631.5,1113.9z M645.1,1094.4c0-1.5-0.4-2.7-1.3-3.6
		c-0.8-0.9-2-1.3-3.3-1.3c-2.1,0-3.9,1.1-5.3,3.2c-1.4,2.2-2.1,4.4-2.1,6.7c0,1.5,0.4,2.7,1.3,3.6c0.9,0.9,2,1.4,3.2,1.4
		c1,0,2-0.3,2.9-0.8c0.9-0.6,1.7-1.3,2.4-2.3c0.6-1,1.1-2.2,1.5-3.7C644.9,1096.2,645.1,1095.1,645.1,1094.4z"/>
	<path class="st0" d="M658.9,1103.2c-0.1,0.9-0.2,1.7-0.2,2.3c0,1.7,0.6,3.1,1.8,4.3s2.6,1.8,4.4,1.8c1.4,0,2.7-0.3,3.9-0.8
		c1.3-0.6,3.1-1.8,5.6-3.7l0.6,0.8c-4.5,4.5-8.8,6.7-12.9,6.7c-2.8,0-4.8-0.9-6.2-2.6c-1.4-1.7-2.1-3.7-2.1-5.8
		c0-2.8,0.9-5.7,2.6-8.7c1.7-3,3.9-5.3,6.6-6.9c2.6-1.6,5.3-2.5,8.2-2.5c2,0,3.5,0.4,4.5,1.2c1,0.8,1.4,1.8,1.4,2.9
		c0,1.6-0.6,3.1-1.9,4.5c-1.7,1.9-4.1,3.4-7.3,4.6C665.7,1102.2,662.8,1102.8,658.9,1103.2z M659.1,1101.8c2.8-0.3,5.1-0.9,6.9-1.7
		c2.3-1,4.1-2.3,5.3-3.7c1.2-1.5,1.8-2.8,1.8-4.2c0-0.8-0.3-1.4-0.8-1.9c-0.5-0.5-1.2-0.7-2.1-0.7c-1.9,0-4,1-6.2,3.1
		C661.7,1094.7,660.1,1097.8,659.1,1101.8z"/>
	<path class="st0" d="M688.9,1088.2l-3.8,13c3.5-5.3,6.3-8.8,8.2-10.5c1.9-1.7,3.7-2.5,5.5-2.5c0.9,0,1.7,0.3,2.3,1s0.9,1.5,0.9,2.4
		c0,1.2-0.3,2.7-0.8,4.6l-3.5,12c-0.4,1.4-0.6,2.2-0.6,2.5c0,0.3,0.1,0.5,0.2,0.7s0.3,0.3,0.5,0.3c0.2,0,0.5-0.1,0.8-0.4
		c1-0.8,2.1-2,3.3-3.6l0.9,0.5c-1.8,2.5-3.4,4.3-5,5.4c-1.1,0.7-2.1,1.1-3,1.1c-0.7,0-1.3-0.2-1.7-0.6c-0.4-0.4-0.6-1-0.6-1.7
		c0-0.9,0.3-2.5,1-4.7l3.3-11.5c0.4-1.4,0.6-2.5,0.6-3.3c0-0.4-0.1-0.7-0.4-0.9c-0.2-0.2-0.5-0.4-0.9-0.4c-0.5,0-1.2,0.2-1.9,0.7
		c-1.4,0.8-2.8,2.3-4.4,4.2c-1.5,2-3.1,4.5-4.8,7.5c-0.9,1.6-1.6,3.4-2.2,5.3l-1.4,4.7h-4.3l5.2-17.8c0.6-2.1,0.9-3.4,0.9-3.9
		c0-0.4-0.2-0.8-0.5-1.1s-0.7-0.5-1.2-0.5c-0.2,0-0.6,0-1.2,0.1l-1.1,0.1l-0.2-1L688.9,1088.2z"/>
	<path class="st0" d="M747.7,1073.4l-9.8,33.6c-0.5,1.8-0.8,3-0.8,3.6c0,0.2,0.1,0.4,0.2,0.5s0.3,0.2,0.5,0.2c0.3,0,0.6-0.1,0.9-0.4
		c0.7-0.5,1.7-1.6,3.3-3.4l1,0.6c-1.4,1.9-2.8,3.4-4.2,4.6c-1.4,1.2-2.7,1.8-3.9,1.8c-0.7,0-1.2-0.2-1.6-0.7
		c-0.4-0.4-0.6-1.1-0.6-1.9c0-1.1,0.3-2.5,0.8-4.3l1.1-3.5c-2.7,4.3-5.2,7.2-7.5,8.8c-1.6,1.1-3,1.7-4.5,1.7c-1.5,0-2.7-0.6-3.8-1.9
		c-1.1-1.3-1.6-3-1.6-5.2c0-2.8,0.9-5.8,2.7-9.1c1.8-3.2,4.2-5.8,7.2-7.8c2.3-1.6,4.5-2.4,6.4-2.4c1,0,1.9,0.2,2.6,0.6
		c0.7,0.4,1.5,1.1,2.2,2.1l2.8-9.9c0.2-0.7,0.4-1.3,0.5-1.7c0.2-0.8,0.4-1.4,0.4-1.9c0-0.4-0.1-0.7-0.4-1c-0.4-0.3-0.9-0.5-1.6-0.5
		c-0.4,0-1.1,0.1-2.2,0.2v-1.1L747.7,1073.4z M737.1,1093.7c0-1.2-0.3-2.2-1-2.9c-0.7-0.7-1.6-1.1-2.7-1.1c-2.4,0-4.9,2-7.5,5.9
		c-2.6,3.9-3.9,7.7-3.9,11.3c0,1.4,0.3,2.5,0.9,3.3c0.6,0.7,1.4,1.1,2.2,1.1c2,0,4.5-2.1,7.4-6.4
		C735.6,1100.6,737.1,1096.9,737.1,1093.7z"/>
	<path class="st0" d="M750.4,1103.2c-0.1,0.9-0.2,1.7-0.2,2.3c0,1.7,0.6,3.1,1.8,4.3s2.6,1.8,4.4,1.8c1.4,0,2.7-0.3,3.9-0.8
		c1.3-0.6,3.1-1.8,5.6-3.7l0.6,0.8c-4.5,4.5-8.8,6.7-12.9,6.7c-2.8,0-4.8-0.9-6.2-2.6c-1.4-1.7-2.1-3.7-2.1-5.8
		c0-2.8,0.9-5.7,2.6-8.7c1.7-3,3.9-5.3,6.6-6.9c2.6-1.6,5.3-2.5,8.2-2.5c2,0,3.5,0.4,4.5,1.2c1,0.8,1.4,1.8,1.4,2.9
		c0,1.6-0.6,3.1-1.9,4.5c-1.7,1.9-4.1,3.4-7.3,4.6C757.2,1102.2,754.2,1102.8,750.4,1103.2z M750.6,1101.8c2.8-0.3,5.1-0.9,6.9-1.7
		c2.3-1,4.1-2.3,5.3-3.7c1.2-1.5,1.8-2.8,1.8-4.2c0-0.8-0.3-1.4-0.8-1.9c-0.5-0.5-1.2-0.7-2.1-0.7c-1.9,0-4,1-6.2,3.1
		C753.2,1094.7,751.6,1097.8,750.6,1101.8z"/>
	<path class="st0" d="M784.8,1073.4l-9.7,33.9c-0.5,1.7-0.7,2.7-0.7,3.1c0,0.3,0.1,0.5,0.3,0.7c0.2,0.2,0.4,0.3,0.7,0.3
		c0.4,0,0.8-0.2,1.2-0.5c1-0.8,2-2,3.1-3.6l0.8,0.9c-1.8,2.5-3.5,4.3-5,5.3c-1.1,0.7-2.2,1.1-3.2,1.1c-0.7,0-1.3-0.2-1.8-0.7
		c-0.5-0.5-0.7-1.1-0.7-1.7c0-0.7,0.3-2.1,0.9-4.2l7.7-26.7c0.6-2.2,0.9-3.4,0.9-3.7c0-0.5-0.2-0.9-0.5-1.1s-0.9-0.4-1.7-0.4
		c-0.4,0-1.1,0.1-2,0.2v-1.1L784.8,1073.4z"/>
	<path class="st0" d="M807.6,1088.2l-2,6.6c2.1-2.4,3.9-4.1,5.6-5.1c1.6-1,3.3-1.5,5-1.5c1.7,0,3.1,0.7,4.3,2
		c1.2,1.3,1.8,3.1,1.8,5.2c0,4.2-1.7,8.4-5.1,12.7c-3.4,4.3-7.4,6.5-11.9,6.5c-0.9,0-1.8-0.1-2.5-0.3s-1.5-0.6-2.4-1.1l-2.1,7.4
		c-0.4,1.4-0.6,2.4-0.6,2.8c0,0.4,0.1,0.8,0.3,1.1s0.6,0.5,1.1,0.7c0.5,0.2,1.5,0.2,2.9,0.2l-0.2,1.1h-13.4l0.3-1.1
		c1.8-0.1,3-0.4,3.6-0.9s1.3-2,1.9-4.4l7.2-24.9c0.4-1.6,0.6-2.6,0.6-2.9c0-0.5-0.1-0.9-0.4-1.2c-0.3-0.3-0.7-0.4-1.3-0.4
		c-0.6,0-1.3,0.1-2.3,0.2v-1.1L807.6,1088.2z M800.9,1110.9c1.2,1.4,2.8,2.1,4.8,2.1c1,0,2-0.3,3-0.8c1-0.6,2-1.4,3-2.4
		c1-1.1,1.9-2.3,2.6-3.7c0.8-1.4,1.5-3.1,2.1-5c0.6-1.9,0.9-3.8,0.9-5.7c0-1.5-0.3-2.7-1-3.5c-0.7-0.8-1.5-1.2-2.5-1.2
		c-2.1,0-4.1,1.2-6.1,3.5c-2,2.3-3.5,5.1-4.4,8.3L800.9,1110.9z"/>
	<path class="st0" d="M849.4,1088.2l-5.6,19.3l-0.6,2.6c0,0.2-0.1,0.4-0.1,0.6c0,0.3,0.1,0.6,0.3,0.8c0.1,0.2,0.3,0.2,0.6,0.2
		c0.2,0,0.6-0.2,1-0.5c0.7-0.5,1.7-1.7,3-3.4l1,0.7c-1.3,2-2.6,3.5-4,4.5c-1.4,1-2.7,1.5-3.9,1.5c-0.8,0-1.4-0.2-1.8-0.6
		c-0.4-0.4-0.6-1-0.6-1.8c0-0.9,0.2-2.2,0.6-3.7l0.6-2.2c-2.5,3.3-4.8,5.5-6.9,6.8c-1.5,0.9-3,1.4-4.4,1.4c-1.4,0-2.6-0.6-3.6-1.7
		c-1-1.1-1.5-2.7-1.5-4.7c0-3,0.9-6.2,2.7-9.6c1.8-3.4,4.1-6,6.9-8c2.2-1.6,4.2-2.4,6.2-2.4c1.2,0,2.2,0.3,2.9,0.9
		c0.8,0.6,1.3,1.6,1.8,3l1-3.3L849.4,1088.2z M839.2,1089.6c-1.2,0-2.5,0.6-3.9,1.7c-2,1.6-3.7,4-5.2,7.2c-1.5,3.2-2.3,6-2.3,8.6
		c0,1.3,0.3,2.3,1,3s1.4,1.1,2.2,1.1c2.1,0,4.3-1.5,6.7-4.6c3.3-4.1,4.9-8.2,4.9-12.5c0-1.6-0.3-2.8-0.9-3.5
		C841.2,1090,840.3,1089.6,839.2,1089.6z"/>
	<path class="st0" d="M870.5,1088.2l-1.7,8.8h-1.1c-0.1-2.5-0.6-4.4-1.6-5.6s-2.2-1.7-3.7-1.7c-1.2,0-2.1,0.3-2.8,1s-1,1.4-1,2.3
		c0,0.6,0.1,1.2,0.4,1.8c0.3,0.6,0.9,1.4,1.8,2.4c2.5,2.7,4,4.7,4.8,6.1c0.7,1.4,1.1,2.6,1.1,3.9c0,2-0.8,3.7-2.5,5.3
		s-3.7,2.3-6.2,2.3c-1.4,0-2.9-0.3-4.7-1c-0.6-0.2-1.1-0.4-1.4-0.4c-0.8,0-1.5,0.4-1.9,1.3h-1l1.7-9.2h1.1c0.1,2.9,0.7,4.9,1.8,6.1
		c1.1,1.2,2.6,1.8,4.5,1.8c1.4,0,2.6-0.4,3.4-1.2c0.8-0.8,1.3-1.8,1.3-3c0-0.8-0.2-1.5-0.5-2.1c-0.5-1.1-1.7-2.7-3.4-4.7
		s-2.8-3.5-3.3-4.5s-0.7-2-0.7-3c0-1.8,0.7-3.4,2-4.7c1.3-1.3,3.1-1.9,5.2-1.9c0.6,0,1.2,0,1.7,0.1c0.3,0.1,0.9,0.3,1.9,0.7
		c1,0.4,1.6,0.5,2,0.5c0.8,0,1.5-0.4,2.1-1.3H870.5z"/>
	<path class="st0" d="M897.6,1088.2l-5.6,19.3l-0.6,2.6c0,0.2-0.1,0.4-0.1,0.6c0,0.3,0.1,0.6,0.3,0.8c0.1,0.2,0.3,0.2,0.6,0.2
		c0.2,0,0.6-0.2,1-0.5c0.7-0.5,1.7-1.7,3-3.4l1,0.7c-1.3,2-2.6,3.5-4,4.5c-1.4,1-2.7,1.5-3.9,1.5c-0.8,0-1.4-0.2-1.8-0.6
		c-0.4-0.4-0.6-1-0.6-1.8c0-0.9,0.2-2.2,0.6-3.7l0.6-2.2c-2.5,3.3-4.8,5.5-6.9,6.8c-1.5,0.9-3,1.4-4.4,1.4c-1.4,0-2.6-0.6-3.6-1.7
		c-1-1.1-1.5-2.7-1.5-4.7c0-3,0.9-6.2,2.7-9.6c1.8-3.4,4.1-6,6.9-8c2.2-1.6,4.2-2.4,6.2-2.4c1.2,0,2.2,0.3,2.9,0.9
		c0.8,0.6,1.3,1.6,1.8,3l1-3.3L897.6,1088.2z M887.4,1089.6c-1.2,0-2.5,0.6-3.9,1.7c-2,1.6-3.7,4-5.2,7.2c-1.5,3.2-2.3,6-2.3,8.6
		c0,1.3,0.3,2.3,1,3s1.4,1.1,2.2,1.1c2.1,0,4.3-1.5,6.7-4.6c3.3-4.1,4.9-8.2,4.9-12.5c0-1.6-0.3-2.8-0.9-3.5
		C889.4,1090,888.5,1089.6,887.4,1089.6z"/>
	<path class="st0" d="M910.4,1088.2l-2,6.6c2.1-2.4,3.9-4.1,5.6-5.1c1.6-1,3.3-1.5,5-1.5c1.7,0,3.1,0.7,4.3,2
		c1.2,1.3,1.8,3.1,1.8,5.2c0,4.2-1.7,8.4-5.1,12.7c-3.4,4.3-7.4,6.5-11.9,6.5c-0.9,0-1.8-0.1-2.5-0.3s-1.5-0.6-2.4-1.1l-2.1,7.4
		c-0.4,1.4-0.6,2.4-0.6,2.8c0,0.4,0.1,0.8,0.3,1.1s0.6,0.5,1.1,0.7c0.5,0.2,1.5,0.2,2.9,0.2l-0.2,1.1h-13.4l0.3-1.1
		c1.8-0.1,3-0.4,3.6-0.9s1.3-2,1.9-4.4l7.2-24.9c0.4-1.6,0.6-2.6,0.6-2.9c0-0.5-0.1-0.9-0.4-1.2c-0.3-0.3-0.7-0.4-1.3-0.4
		c-0.6,0-1.3,0.1-2.3,0.2v-1.1L910.4,1088.2z M903.8,1110.9c1.2,1.4,2.8,2.1,4.8,2.1c1,0,2-0.3,3-0.8c1-0.6,2-1.4,3-2.4
		c1-1.1,1.9-2.3,2.6-3.7c0.8-1.4,1.5-3.1,2.1-5c0.6-1.9,0.9-3.8,0.9-5.7c0-1.5-0.3-2.7-1-3.5c-0.7-0.8-1.5-1.2-2.5-1.2
		c-2.1,0-4.1,1.2-6.1,3.5c-2,2.3-3.5,5.1-4.4,8.3L903.8,1110.9z"/>
	<path class="st0" d="M951.8,1097.1c0,2.9-0.8,5.7-2.3,8.5s-3.6,5-6.3,6.6c-2.7,1.6-5.3,2.4-7.9,2.4c-2.6,0-4.7-0.8-6.4-2.5
		c-1.7-1.7-2.5-3.8-2.5-6.4c0-2.8,0.8-5.6,2.4-8.4c1.6-2.8,3.7-5,6.4-6.7s5.3-2.5,7.8-2.5c2.5,0,4.6,0.8,6.2,2.5
		C951,1092.3,951.8,1094.5,951.8,1097.1z M947.1,1095.1c0-1.8-0.4-3.1-1.3-4.1c-0.9-0.9-2-1.4-3.4-1.4c-2.8,0-5.3,2-7.7,6
		s-3.5,8-3.5,11.9c0,1.8,0.5,3.2,1.4,4.2c0.9,1,2.1,1.5,3.4,1.5c2.7,0,5.2-2,7.5-6C945.9,1103.3,947.1,1099.2,947.1,1095.1z"/>
	<path class="st0" d="M955.2,1089.8l9.8-1.6L961,1102c3.3-5.7,6.3-9.7,9.1-11.9c1.5-1.3,2.8-1.9,3.7-1.9c0.6,0,1.1,0.2,1.5,0.6
		c0.4,0.4,0.5,0.9,0.5,1.6c0,1.2-0.3,2.4-1,3.6c-0.4,0.8-1.1,1.3-2,1.3c-0.4,0-0.8-0.1-1.1-0.4c-0.3-0.3-0.5-0.7-0.6-1.3
		c0-0.4-0.1-0.6-0.2-0.7c-0.2-0.1-0.3-0.2-0.5-0.2c-0.3,0-0.6,0.1-0.9,0.2c-0.5,0.3-1.2,1-2.3,2.2c-1.6,1.9-3.3,4.3-5.1,7.2
		c-0.8,1.2-1.5,2.7-2.1,4.2c-0.8,2.2-1.2,3.5-1.3,3.9l-0.9,3.6h-4.3l5.3-17.7c0.6-2.1,0.9-3.5,0.9-4.4c0-0.3-0.1-0.6-0.4-0.8
		c-0.4-0.3-0.9-0.5-1.5-0.5c-0.4,0-1.1,0.1-2.2,0.2L955.2,1089.8z"/>
	<path class="st0" d="M988.2,1081.1l-2.2,7.7h4.5l-0.5,1.8h-4.4l-4.9,16.8c-0.5,1.8-0.8,3-0.8,3.5c0,0.3,0.1,0.6,0.2,0.8
		s0.3,0.3,0.5,0.3c0.5,0,1.1-0.3,1.9-1c0.5-0.4,1.5-1.5,3.1-3.5l0.9,0.7c-1.7,2.5-3.4,4.3-5,5.4c-1.1,0.7-2.1,1.1-3.2,1.1
		c-0.8,0-1.5-0.3-2-0.8c-0.5-0.5-0.8-1.2-0.8-2c0-1,0.3-2.6,0.9-4.7l4.8-16.5h-4.3l0.3-1.1c2.1-0.6,3.8-1.4,5.2-2.5
		c1.4-1.1,2.9-3.1,4.7-5.9H988.2z"/>
	<path class="st0" d="M994.4,1103.2c-0.1,0.9-0.2,1.7-0.2,2.3c0,1.7,0.6,3.1,1.8,4.3s2.6,1.8,4.4,1.8c1.4,0,2.7-0.3,3.9-0.8
		c1.3-0.6,3.1-1.8,5.6-3.7l0.6,0.8c-4.5,4.5-8.8,6.7-12.9,6.7c-2.8,0-4.8-0.9-6.2-2.6c-1.4-1.7-2.1-3.7-2.1-5.8
		c0-2.8,0.9-5.7,2.6-8.7c1.7-3,3.9-5.3,6.6-6.9c2.6-1.6,5.3-2.5,8.2-2.5c2,0,3.5,0.4,4.5,1.2c1,0.8,1.4,1.8,1.4,2.9
		c0,1.6-0.6,3.1-1.9,4.5c-1.7,1.9-4.1,3.4-7.3,4.6C1001.3,1102.2,998.3,1102.8,994.4,1103.2z M994.6,1101.8c2.8-0.3,5.1-0.9,6.9-1.7
		c2.3-1,4.1-2.3,5.3-3.7c1.2-1.5,1.8-2.8,1.8-4.2c0-0.8-0.3-1.4-0.8-1.9c-0.5-0.5-1.2-0.7-2.1-0.7c-1.9,0-4,1-6.2,3.1
		C997.3,1094.7,995.7,1097.8,994.6,1101.8z"/>
	<path class="st0" d="M330.1,1175.1l-2,6.6c2.1-2.4,3.9-4.1,5.6-5.1c1.6-1,3.3-1.5,5-1.5c1.7,0,3.1,0.7,4.3,2s1.8,3.1,1.8,5.2
		c0,4.2-1.7,8.4-5.1,12.7c-3.4,4.3-7.4,6.5-11.9,6.5c-0.9,0-1.8-0.1-2.5-0.3s-1.5-0.6-2.4-1.1l-2.1,7.4c-0.4,1.4-0.6,2.4-0.6,2.8
		c0,0.4,0.1,0.8,0.3,1.1c0.2,0.3,0.6,0.5,1.1,0.7c0.5,0.2,1.5,0.2,2.9,0.2l-0.2,1.1h-13.4l0.3-1.1c1.8-0.1,3-0.4,3.6-0.9
		s1.3-2,1.9-4.4l7.2-24.9c0.4-1.6,0.6-2.6,0.6-2.9c0-0.5-0.1-0.9-0.4-1.2c-0.3-0.3-0.7-0.4-1.3-0.4c-0.6,0-1.3,0.1-2.3,0.2v-1.1
		L330.1,1175.1z M323.5,1197.8c1.2,1.4,2.8,2.1,4.8,2.1c1,0,2-0.3,3-0.8s2-1.4,3-2.4c1-1.1,1.9-2.3,2.6-3.7c0.8-1.4,1.5-3.1,2.1-5
		c0.6-1.9,0.9-3.8,0.9-5.7c0-1.5-0.3-2.7-1-3.5c-0.7-0.8-1.5-1.2-2.5-1.2c-2.1,0-4.1,1.2-6.1,3.5c-2,2.3-3.5,5.1-4.4,8.3
		L323.5,1197.8z"/>
	<path class="st0" d="M371.9,1175.1l-5.6,19.3l-0.6,2.6c0,0.2-0.1,0.4-0.1,0.6c0,0.3,0.1,0.6,0.3,0.8c0.1,0.2,0.3,0.2,0.6,0.2
		c0.2,0,0.6-0.2,1-0.5c0.7-0.5,1.7-1.7,3-3.4l1,0.7c-1.3,2-2.6,3.5-4,4.5c-1.4,1-2.7,1.5-3.9,1.5c-0.8,0-1.4-0.2-1.8-0.6
		c-0.4-0.4-0.6-1-0.6-1.8c0-0.9,0.2-2.2,0.6-3.7l0.6-2.2c-2.5,3.3-4.8,5.5-6.9,6.8c-1.5,0.9-3,1.4-4.4,1.4c-1.4,0-2.6-0.6-3.6-1.7
		c-1-1.1-1.5-2.7-1.5-4.7c0-3,0.9-6.2,2.7-9.6s4.1-6,6.9-8c2.2-1.6,4.2-2.4,6.2-2.4c1.2,0,2.2,0.3,2.9,0.9c0.8,0.6,1.3,1.6,1.8,3
		l1-3.3L371.9,1175.1z M361.8,1176.6c-1.2,0-2.5,0.6-3.9,1.7c-2,1.6-3.7,4-5.2,7.2c-1.5,3.2-2.3,6-2.3,8.6c0,1.3,0.3,2.3,1,3
		c0.6,0.8,1.4,1.1,2.2,1.1c2.1,0,4.3-1.5,6.7-4.6c3.3-4.1,4.9-8.2,4.9-12.5c0-1.6-0.3-2.8-0.9-3.5
		C363.7,1176.9,362.8,1176.6,361.8,1176.6z"/>
	<path class="st0" d="M374.9,1176.7l9.8-1.6l-4.1,13.9c3.3-5.7,6.3-9.7,9.1-11.9c1.5-1.3,2.8-1.9,3.7-1.9c0.6,0,1.1,0.2,1.5,0.6
		s0.5,0.9,0.5,1.6c0,1.2-0.3,2.4-1,3.6c-0.4,0.8-1.1,1.3-2,1.3c-0.4,0-0.8-0.1-1.1-0.4c-0.3-0.3-0.5-0.7-0.6-1.3
		c0-0.4-0.1-0.6-0.2-0.7c-0.2-0.1-0.3-0.2-0.5-0.2c-0.3,0-0.6,0.1-0.9,0.2c-0.5,0.3-1.2,1-2.3,2.2c-1.6,1.9-3.3,4.3-5.1,7.2
		c-0.8,1.2-1.5,2.7-2.1,4.2c-0.8,2.2-1.2,3.5-1.3,3.9l-0.9,3.6h-4.3l5.3-17.7c0.6-2.1,0.9-3.5,0.9-4.4c0-0.3-0.1-0.6-0.4-0.8
		c-0.4-0.3-0.9-0.5-1.5-0.5c-0.4,0-1.1,0.1-2.2,0.2L374.9,1176.7z"/>
	<path class="st0" d="M420.1,1175.1l-5.6,19.3l-0.6,2.6c0,0.2-0.1,0.4-0.1,0.6c0,0.3,0.1,0.6,0.3,0.8c0.1,0.2,0.3,0.2,0.6,0.2
		c0.2,0,0.6-0.2,1-0.5c0.7-0.5,1.7-1.7,3-3.4l1,0.7c-1.3,2-2.6,3.5-4,4.5c-1.4,1-2.7,1.5-3.9,1.5c-0.8,0-1.4-0.2-1.8-0.6
		c-0.4-0.4-0.6-1-0.6-1.8c0-0.9,0.2-2.2,0.6-3.7l0.6-2.2c-2.5,3.3-4.8,5.5-6.9,6.8c-1.5,0.9-3,1.4-4.4,1.4c-1.4,0-2.6-0.6-3.6-1.7
		c-1-1.1-1.5-2.7-1.5-4.7c0-3,0.9-6.2,2.7-9.6s4.1-6,6.9-8c2.2-1.6,4.2-2.4,6.2-2.4c1.2,0,2.2,0.3,2.9,0.9c0.8,0.6,1.3,1.6,1.8,3
		l1-3.3L420.1,1175.1z M410,1176.6c-1.2,0-2.5,0.6-3.9,1.7c-2,1.6-3.7,4-5.2,7.2c-1.5,3.2-2.3,6-2.3,8.6c0,1.3,0.3,2.3,1,3
		c0.6,0.8,1.4,1.1,2.2,1.1c2.1,0,4.3-1.5,6.7-4.6c3.3-4.1,4.9-8.2,4.9-12.5c0-1.6-0.3-2.8-0.9-3.5
		C411.9,1176.9,411.1,1176.6,410,1176.6z"/>
	<path class="st0" d="M455.4,1194.7c-2,2.4-4,4.1-6,5.2c-2,1.1-4.1,1.7-6.4,1.7c-2.7,0-4.8-0.8-6.3-2.3c-1.5-1.5-2.3-3.5-2.3-6.1
		c0-2.9,0.8-5.8,2.4-8.6c1.6-2.8,3.8-5.1,6.5-6.9c2.7-1.8,5.4-2.6,8.1-2.6c2.1,0,3.6,0.4,4.7,1.3c1,0.9,1.5,1.9,1.5,3.2
		c0,1.2-0.4,2.2-1.1,3c-0.5,0.7-1.2,1-1.9,1c-0.6,0-1.1-0.2-1.5-0.6c-0.4-0.4-0.6-0.9-0.6-1.4c0-0.4,0.1-0.7,0.2-1
		c0.1-0.3,0.4-0.7,0.9-1.1c0.4-0.4,0.7-0.7,0.8-0.9c0.1-0.2,0.1-0.4,0.1-0.6c0-0.4-0.2-0.7-0.5-1c-0.6-0.4-1.3-0.6-2.3-0.6
		c-1.9,0-3.7,0.7-5.5,2c-1.8,1.3-3.4,3.2-4.7,5.6c-1.6,2.9-2.3,5.8-2.3,8.8c0,1.9,0.6,3.5,1.7,4.6c1.1,1.1,2.6,1.7,4.5,1.7
		c1.5,0,2.9-0.4,4.3-1.1c1.4-0.7,3-2.1,4.8-4L455.4,1194.7z"/>
	<path class="st0" d="M483.9,1184c0,2.9-0.8,5.7-2.3,8.5c-1.5,2.8-3.6,5-6.3,6.6c-2.7,1.6-5.3,2.4-7.8,2.4c-2.6,0-4.7-0.8-6.4-2.5
		c-1.7-1.7-2.5-3.8-2.5-6.4c0-2.8,0.8-5.6,2.4-8.4s3.7-5,6.4-6.7s5.3-2.5,7.8-2.5c2.5,0,4.6,0.8,6.2,2.5
		C483,1179.2,483.9,1181.4,483.9,1184z M479.2,1182c0-1.8-0.4-3.1-1.3-4.1c-0.9-0.9-2-1.4-3.4-1.4c-2.8,0-5.3,2-7.7,6
		c-2.3,4-3.5,8-3.5,11.9c0,1.8,0.5,3.2,1.4,4.2c0.9,1,2.1,1.5,3.4,1.5c2.7,0,5.2-2,7.5-6C478,1190.2,479.2,1186.1,479.2,1182z"/>
	<path class="st0" d="M497.1,1175.1l-3.8,13c3.5-5.3,6.3-8.8,8.2-10.5c1.9-1.7,3.7-2.5,5.5-2.5c0.9,0,1.7,0.3,2.3,1s0.9,1.5,0.9,2.4
		c0,1.2-0.3,2.7-0.8,4.6l-3.5,12c-0.4,1.4-0.6,2.2-0.6,2.5c0,0.3,0.1,0.5,0.2,0.7s0.3,0.3,0.5,0.3c0.2,0,0.5-0.1,0.8-0.4
		c1-0.8,2.1-2,3.3-3.6l0.9,0.5c-1.8,2.5-3.4,4.3-5,5.4c-1.1,0.7-2.1,1.1-3,1.1c-0.7,0-1.3-0.2-1.7-0.6c-0.4-0.4-0.6-1-0.6-1.7
		c0-0.9,0.3-2.5,1-4.7l3.3-11.5c0.4-1.4,0.6-2.5,0.6-3.3c0-0.4-0.1-0.7-0.4-0.9c-0.2-0.2-0.5-0.4-0.9-0.4c-0.5,0-1.2,0.2-1.9,0.7
		c-1.4,0.8-2.8,2.3-4.4,4.2c-1.5,2-3.1,4.5-4.8,7.5c-0.9,1.6-1.6,3.4-2.2,5.3l-1.4,4.7h-4.3l5.2-17.8c0.6-2.1,0.9-3.4,0.9-3.9
		c0-0.4-0.2-0.8-0.5-1.1s-0.7-0.5-1.2-0.5c-0.2,0-0.6,0-1.2,0.1l-1.1,0.1l-0.2-1L497.1,1175.1z"/>
	<path class="st0" d="M528.9,1175.8l-0.5,1.9h-4.1l-3.1,12.4c-1.4,5.5-2.8,9.7-4.2,12.7c-2,4.2-4.1,7.1-6.4,8.7
		c-1.7,1.2-3.5,1.9-5.2,1.9c-1.2,0-2.1-0.3-2.9-1c-0.6-0.5-0.9-1.1-0.9-1.8c0-0.6,0.2-1.1,0.7-1.6c0.5-0.4,1.1-0.7,1.8-0.7
		c0.5,0,1,0.2,1.3,0.5s0.5,0.7,0.5,1.1c0,0.4-0.2,0.8-0.6,1.2c-0.3,0.3-0.5,0.5-0.5,0.6c0,0.2,0.1,0.3,0.2,0.4
		c0.2,0.1,0.4,0.2,0.8,0.2c0.8,0,1.7-0.3,2.6-0.8c0.9-0.5,1.7-1.3,2.4-2.3c0.7-1,1.4-2.5,2-4.4c0.3-0.8,1-3.4,2.1-7.9l5-19.3h-5
		l0.4-1.9c1.6,0,2.7-0.1,3.3-0.3c0.6-0.2,1.2-0.6,1.7-1.3c0.5-0.6,1.2-1.8,2.1-3.5c1.1-2.3,2.2-4,3.2-5.3c1.4-1.7,2.9-3,4.4-3.8
		c1.6-0.8,3-1.3,4.4-1.3c1.4,0,2.6,0.4,3.5,1.1c0.9,0.7,1.3,1.5,1.3,2.4c0,0.7-0.2,1.2-0.7,1.7c-0.4,0.4-1,0.7-1.7,0.7
		c-0.6,0-1.1-0.2-1.5-0.5c-0.4-0.3-0.6-0.7-0.6-1.2c0-0.3,0.1-0.7,0.4-1.1c0.2-0.4,0.4-0.7,0.4-0.9c0-0.3-0.1-0.5-0.2-0.6
		c-0.2-0.2-0.6-0.3-1.1-0.3c-1.2,0-2.3,0.4-3.2,1.1c-1.3,1-2.4,2.6-3.4,4.7c-0.5,1.1-1.5,3.9-2.8,8.3H528.9z"/>
	<path class="st0" d="M539.4,1175.1l-5.6,20c-0.4,1.3-0.6,2.1-0.6,2.4c0,0.3,0.1,0.6,0.3,0.7c0.2,0.2,0.4,0.3,0.6,0.3
		c0.3,0,0.6-0.2,1-0.5c1.1-0.8,2.2-2.1,3.3-3.6l1,0.7c-1.3,2-2.8,3.6-4.6,5c-1.3,1-2.5,1.5-3.7,1.5c-0.8,0-1.4-0.2-1.9-0.7
		s-0.7-1-0.7-1.8c0-0.7,0.2-1.9,0.7-3.5l3.7-12.8c0.6-2.1,0.9-3.4,0.9-3.9c0-0.4-0.1-0.7-0.4-1c-0.3-0.3-0.7-0.4-1.2-0.4
		c-0.4,0-1.3,0.1-2.6,0.3v-1.1L539.4,1175.1z M539,1163.8c0.8,0,1.5,0.3,2,0.8c0.5,0.6,0.8,1.2,0.8,2s-0.3,1.5-0.8,2s-1.2,0.8-2,0.8
		s-1.4-0.3-2-0.8s-0.8-1.2-0.8-2s0.3-1.4,0.8-2C537.5,1164.1,538.2,1163.8,539,1163.8z"/>
	<path class="st0" d="M543.4,1176.7l9.8-1.6l-4.1,13.9c3.3-5.7,6.3-9.7,9.1-11.9c1.5-1.3,2.8-1.9,3.7-1.9c0.6,0,1.1,0.2,1.5,0.6
		c0.4,0.4,0.5,0.9,0.5,1.6c0,1.2-0.3,2.4-1,3.6c-0.4,0.8-1.1,1.3-2,1.3c-0.4,0-0.8-0.1-1.1-0.4c-0.3-0.3-0.5-0.7-0.6-1.3
		c0-0.4-0.1-0.6-0.2-0.7c-0.2-0.1-0.3-0.2-0.5-0.2c-0.3,0-0.6,0.1-0.9,0.2c-0.5,0.3-1.2,1-2.3,2.2c-1.6,1.9-3.3,4.3-5.1,7.2
		c-0.8,1.2-1.5,2.7-2.1,4.2c-0.8,2.2-1.2,3.5-1.3,3.9l-0.9,3.6h-4.3l5.3-17.7c0.6-2.1,0.9-3.5,0.9-4.4c0-0.3-0.1-0.6-0.4-0.8
		c-0.4-0.3-0.9-0.5-1.5-0.5c-0.4,0-1.1,0.1-2.2,0.2L543.4,1176.7z"/>
	<path class="st0" d="M573.9,1175.1l-3.7,12.9c1.7-3,3.1-5.3,4.2-6.8c1.8-2.4,3.5-4.1,5.3-5.1c1-0.6,2.1-0.9,3.1-0.9
		c0.9,0,1.7,0.3,2.4,0.9c0.6,0.6,1,1.4,1,2.3s-0.2,2.2-0.7,3.6l-2,7.2c3.1-5.8,6-9.9,8.8-12.2c1.5-1.3,3-1.9,4.5-1.9
		c0.9,0,1.6,0.3,2.2,0.9c0.6,0.6,0.8,1.5,0.8,2.8c0,1.1-0.2,2.3-0.5,3.5l-3.1,11.1c-0.7,2.4-1,3.8-1,4c0,0.3,0.1,0.5,0.2,0.7
		c0.1,0.1,0.3,0.2,0.5,0.2s0.5-0.2,1-0.5c1.1-0.8,2.1-2,3-3.3l1,0.6c-0.5,0.8-1.3,1.8-2.5,3.1s-2.2,2.2-3.1,2.7
		c-0.9,0.5-1.6,0.7-2.4,0.7c-0.7,0-1.2-0.2-1.7-0.7s-0.7-1-0.7-1.7c0-0.9,0.4-2.8,1.2-5.5l2.6-9.1c0.6-2.1,0.9-3.3,0.9-3.5
		c0.1-0.4,0.1-0.7,0.1-1.1c0-0.5-0.1-0.8-0.3-1.1c-0.2-0.3-0.5-0.4-0.8-0.4c-0.8,0-1.6,0.4-2.5,1.2c-2.6,2.4-5.1,5.8-7.4,10.1
		c-1.5,2.9-2.9,6.6-4.2,11h-4.3l4.9-17.2c0.5-1.9,0.8-3.1,0.8-3.7c0-0.5-0.1-0.9-0.3-1.1c-0.2-0.2-0.5-0.4-0.8-0.4
		c-0.6,0-1.3,0.2-2,0.7c-1.1,0.8-2.6,2.3-4.4,4.8c-1.8,2.4-3.2,4.8-4.2,7c-0.5,1-1.6,4.4-3.4,10h-4.2l5.3-18.5l0.7-2.4
		c0.1-0.4,0.2-0.6,0.2-0.8c0-0.4-0.2-0.8-0.6-1.1c-0.4-0.3-0.9-0.5-1.4-0.5c-0.3,0-0.9,0.1-2.1,0.4l-0.2-1.1L573.9,1175.1z"/>
	<path class="st0" d="M628.9,1175.1l-5.6,19.3l-0.6,2.6c0,0.2-0.1,0.4-0.1,0.6c0,0.3,0.1,0.6,0.3,0.8c0.1,0.2,0.3,0.2,0.6,0.2
		c0.2,0,0.6-0.2,1-0.5c0.7-0.5,1.7-1.7,3-3.4l1,0.7c-1.3,2-2.6,3.5-4,4.5c-1.4,1-2.7,1.5-3.9,1.5c-0.8,0-1.4-0.2-1.8-0.6
		c-0.4-0.4-0.6-1-0.6-1.8c0-0.9,0.2-2.2,0.6-3.7l0.6-2.2c-2.5,3.3-4.8,5.5-6.9,6.8c-1.5,0.9-3,1.4-4.4,1.4c-1.4,0-2.6-0.6-3.6-1.7
		c-1-1.1-1.5-2.7-1.5-4.7c0-3,0.9-6.2,2.7-9.6c1.8-3.4,4.1-6,6.9-8c2.2-1.6,4.2-2.4,6.2-2.4c1.2,0,2.2,0.3,2.9,0.9
		c0.8,0.6,1.3,1.6,1.8,3l1-3.3L628.9,1175.1z M618.8,1176.6c-1.2,0-2.5,0.6-3.9,1.7c-2,1.6-3.7,4-5.2,7.2c-1.5,3.2-2.3,6-2.3,8.6
		c0,1.3,0.3,2.3,1,3s1.4,1.1,2.2,1.1c2.1,0,4.3-1.5,6.7-4.6c3.3-4.1,4.9-8.2,4.9-12.5c0-1.6-0.3-2.8-0.9-3.5
		C620.7,1176.9,619.8,1176.6,618.8,1176.6z"/>
	<path class="st0" d="M631.9,1176.7l9.8-1.6l-4.1,13.9c3.3-5.7,6.3-9.7,9.1-11.9c1.5-1.3,2.8-1.9,3.7-1.9c0.6,0,1.1,0.2,1.5,0.6
		c0.4,0.4,0.5,0.9,0.5,1.6c0,1.2-0.3,2.4-1,3.6c-0.4,0.8-1.1,1.3-2,1.3c-0.4,0-0.8-0.1-1.1-0.4c-0.3-0.3-0.5-0.7-0.6-1.3
		c0-0.4-0.1-0.6-0.2-0.7c-0.2-0.1-0.3-0.2-0.5-0.2c-0.3,0-0.6,0.1-0.9,0.2c-0.5,0.3-1.2,1-2.3,2.2c-1.6,1.9-3.3,4.3-5.1,7.2
		c-0.8,1.2-1.5,2.7-2.1,4.2c-0.8,2.2-1.2,3.5-1.3,3.9l-0.9,3.6h-4.3l5.3-17.7c0.6-2.1,0.9-3.5,0.9-4.4c0-0.3-0.1-0.6-0.4-0.8
		c-0.4-0.3-0.9-0.5-1.5-0.5c-0.4,0-1.1,0.1-2.2,0.2L631.9,1176.7z"/>
	<path class="st0" d="M677.6,1168l-2.2,7.7h4.5l-0.5,1.8H675l-4.9,16.8c-0.5,1.8-0.8,3-0.8,3.5c0,0.3,0.1,0.6,0.2,0.8
		s0.3,0.3,0.5,0.3c0.5,0,1.1-0.3,1.9-1c0.5-0.4,1.5-1.5,3.1-3.5l0.9,0.7c-1.7,2.5-3.4,4.3-5,5.4c-1.1,0.7-2.1,1.1-3.2,1.1
		c-0.8,0-1.5-0.3-2-0.8c-0.5-0.5-0.8-1.2-0.8-2c0-1,0.3-2.6,0.9-4.7l4.8-16.5h-4.3l0.3-1.1c2.1-0.6,3.8-1.4,5.2-2.5
		c1.4-1.1,2.9-3.1,4.7-5.9H677.6z"/>
	<path class="st0" d="M704.3,1175.8l-5,17c-0.7,2.5-1.1,4.1-1.1,4.8c0,0.3,0.1,0.6,0.2,0.7c0.1,0.2,0.3,0.2,0.5,0.2
		c0.3,0,0.7-0.1,1.1-0.4c0.4-0.3,1.4-1.5,2.9-3.5l0.9,0.7c-1.5,2.4-3.1,4.1-4.6,5.2c-1,0.7-2,1.1-3,1.1c-0.8,0-1.3-0.2-1.8-0.6
		c-0.4-0.4-0.6-0.9-0.6-1.6s0.1-1.5,0.4-2.6c0.3-1.4,1.2-4.4,2.6-9.2c-3.2,5.3-5.9,9-8.1,11c-2.2,2-4.2,3-6,3
		c-0.9,0-1.6-0.3-2.2-0.9c-0.6-0.6-0.9-1.4-0.9-2.3c0-1.4,0.4-3.6,1.2-6.5l2.5-8.8c0.6-2.1,0.9-3.4,0.9-3.9c0-0.2-0.1-0.4-0.2-0.6
		s-0.3-0.2-0.5-0.2c-0.4,0-0.8,0.1-1.2,0.4c-0.4,0.3-1.3,1.3-2.7,3.1l-0.9-0.6c1.4-2.2,2.9-3.8,4.5-4.9c1.2-0.8,2.3-1.2,3.4-1.2
		c0.7,0,1.3,0.2,1.7,0.7c0.4,0.4,0.7,1,0.7,1.7c0,1-0.4,2.9-1.1,5.5l-2.7,9.2c-0.7,2.5-1.1,4.1-1.1,4.8c0,0.4,0.1,0.6,0.4,0.9
		s0.6,0.3,1,0.3c0.6,0,1.4-0.3,2.4-0.9c1-0.6,2.4-2,4-4.2c1.7-2.2,3.1-4.2,4.2-6.1c1.1-1.9,2.3-4.9,3.5-9l0.6-2.2H704.3z"/>
	<path class="st0" d="M729.9,1175.1l-2,6.6c2.1-2.4,3.9-4.1,5.6-5.1c1.6-1,3.3-1.5,5-1.5c1.7,0,3.1,0.7,4.3,2
		c1.2,1.3,1.8,3.1,1.8,5.2c0,4.2-1.7,8.4-5.1,12.7c-3.4,4.3-7.4,6.5-11.9,6.5c-0.9,0-1.8-0.1-2.5-0.3s-1.5-0.6-2.4-1.1l-2.1,7.4
		c-0.4,1.4-0.6,2.4-0.6,2.8c0,0.4,0.1,0.8,0.3,1.1s0.6,0.5,1.1,0.7c0.5,0.2,1.5,0.2,2.9,0.2l-0.2,1.1h-13.4l0.3-1.1
		c1.8-0.1,3-0.4,3.6-0.9s1.3-2,1.9-4.4l7.2-24.9c0.4-1.6,0.6-2.6,0.6-2.9c0-0.5-0.1-0.9-0.4-1.2c-0.3-0.3-0.7-0.4-1.3-0.4
		c-0.6,0-1.3,0.1-2.3,0.2v-1.1L729.9,1175.1z M723.2,1197.8c1.2,1.4,2.8,2.1,4.8,2.1c1,0,2-0.3,3-0.8c1-0.6,2-1.4,3-2.4
		c1-1.1,1.9-2.3,2.6-3.7c0.8-1.4,1.5-3.1,2.1-5c0.6-1.9,0.9-3.8,0.9-5.7c0-1.5-0.3-2.7-1-3.5c-0.7-0.8-1.5-1.2-2.5-1.2
		c-2.1,0-4.1,1.2-6.1,3.5c-2,2.3-3.5,5.1-4.4,8.3L723.2,1197.8z"/>
	<path class="st0" d="M747.4,1176.7l9.8-1.6l-4.1,13.9c3.3-5.7,6.3-9.7,9.1-11.9c1.5-1.3,2.8-1.9,3.7-1.9c0.6,0,1.1,0.2,1.5,0.6
		c0.4,0.4,0.5,0.9,0.5,1.6c0,1.2-0.3,2.4-1,3.6c-0.4,0.8-1.1,1.3-2,1.3c-0.4,0-0.8-0.1-1.1-0.4c-0.3-0.3-0.5-0.7-0.6-1.3
		c0-0.4-0.1-0.6-0.2-0.7c-0.2-0.1-0.3-0.2-0.5-0.2c-0.3,0-0.6,0.1-0.9,0.2c-0.5,0.3-1.2,1-2.3,2.2c-1.6,1.9-3.3,4.3-5.1,7.2
		c-0.8,1.2-1.5,2.7-2.1,4.2c-0.8,2.2-1.2,3.5-1.3,3.9l-0.9,3.6h-4.3l5.3-17.7c0.6-2.1,0.9-3.5,0.9-4.4c0-0.3-0.1-0.6-0.4-0.8
		c-0.4-0.3-0.9-0.5-1.5-0.5c-0.4,0-1.1,0.1-2.2,0.2L747.4,1176.7z"/>
	<path class="st0" d="M772.1,1190.1c-0.1,0.9-0.2,1.7-0.2,2.3c0,1.7,0.6,3.1,1.8,4.3s2.6,1.8,4.4,1.8c1.4,0,2.7-0.3,3.9-0.8
		c1.3-0.6,3.1-1.8,5.6-3.7l0.6,0.8c-4.5,4.5-8.8,6.7-12.9,6.7c-2.8,0-4.8-0.9-6.2-2.6c-1.4-1.7-2.1-3.7-2.1-5.8
		c0-2.8,0.9-5.7,2.6-8.7c1.7-3,3.9-5.3,6.6-6.9c2.6-1.6,5.3-2.5,8.2-2.5c2,0,3.5,0.4,4.5,1.2c1,0.8,1.4,1.8,1.4,2.9
		c0,1.6-0.6,3.1-1.9,4.5c-1.7,1.9-4.1,3.4-7.3,4.6C779,1189.1,776,1189.7,772.1,1190.1z M772.3,1188.7c2.8-0.3,5.1-0.9,6.9-1.7
		c2.3-1,4.1-2.3,5.3-3.7c1.2-1.5,1.8-2.8,1.8-4.2c0-0.8-0.3-1.4-0.8-1.9c-0.5-0.5-1.2-0.7-2.1-0.7c-1.9,0-4,1-6.2,3.1
		C775,1181.6,773.4,1184.7,772.3,1188.7z"/>
	<path class="st0" d="M810.4,1175.1l-1.7,8.8h-1.1c-0.1-2.5-0.6-4.4-1.6-5.6s-2.2-1.7-3.7-1.7c-1.2,0-2.1,0.3-2.8,1s-1,1.4-1,2.3
		c0,0.6,0.1,1.2,0.4,1.8c0.3,0.6,0.9,1.4,1.8,2.4c2.5,2.7,4,4.7,4.8,6.1c0.7,1.4,1.1,2.6,1.1,3.9c0,2-0.8,3.7-2.5,5.3
		s-3.7,2.3-6.2,2.3c-1.4,0-2.9-0.3-4.7-1c-0.6-0.2-1.1-0.4-1.4-0.4c-0.8,0-1.5,0.4-1.9,1.3h-1l1.7-9.2h1.1c0.1,2.9,0.7,4.9,1.8,6.1
		c1.1,1.2,2.6,1.8,4.5,1.8c1.4,0,2.6-0.4,3.4-1.2c0.8-0.8,1.3-1.8,1.3-3c0-0.8-0.2-1.5-0.5-2.1c-0.5-1.1-1.7-2.7-3.4-4.7
		s-2.8-3.5-3.3-4.5s-0.7-2-0.7-3c0-1.8,0.7-3.4,2-4.7c1.3-1.3,3.1-1.9,5.2-1.9c0.6,0,1.2,0,1.7,0.1c0.3,0.1,0.9,0.3,1.9,0.7
		c1,0.4,1.6,0.5,2,0.5c0.8,0,1.5-0.4,2.1-1.3H810.4z"/>
	<path class="st0" d="M817.1,1190.1c-0.1,0.9-0.2,1.7-0.2,2.3c0,1.7,0.6,3.1,1.8,4.3s2.6,1.8,4.4,1.8c1.4,0,2.7-0.3,3.9-0.8
		c1.3-0.6,3.1-1.8,5.6-3.7l0.6,0.8c-4.5,4.5-8.8,6.7-12.9,6.7c-2.8,0-4.8-0.9-6.2-2.6c-1.4-1.7-2.1-3.7-2.1-5.8
		c0-2.8,0.9-5.7,2.6-8.7c1.7-3,3.9-5.3,6.6-6.9c2.6-1.6,5.3-2.5,8.2-2.5c2,0,3.5,0.4,4.5,1.2c1,0.8,1.4,1.8,1.4,2.9
		c0,1.6-0.6,3.1-1.9,4.5c-1.7,1.9-4.1,3.4-7.3,4.6C824,1189.1,821,1189.7,817.1,1190.1z M817.3,1188.7c2.8-0.3,5.1-0.9,6.9-1.7
		c2.3-1,4.1-2.3,5.3-3.7c1.2-1.5,1.8-2.8,1.8-4.2c0-0.8-0.3-1.4-0.8-1.9c-0.5-0.5-1.2-0.7-2.1-0.7c-1.9,0-4,1-6.2,3.1
		C820,1181.6,818.4,1184.7,817.3,1188.7z"/>
	<path class="st0" d="M847.1,1175.1l-3.8,13c3.5-5.3,6.3-8.8,8.2-10.5c1.9-1.7,3.7-2.5,5.5-2.5c0.9,0,1.7,0.3,2.3,1s0.9,1.5,0.9,2.4
		c0,1.2-0.3,2.7-0.8,4.6l-3.5,12c-0.4,1.4-0.6,2.2-0.6,2.5c0,0.3,0.1,0.5,0.2,0.7s0.3,0.3,0.5,0.3c0.2,0,0.5-0.1,0.8-0.4
		c1-0.8,2.1-2,3.3-3.6l0.9,0.5c-1.8,2.5-3.4,4.3-5,5.4c-1.1,0.7-2.1,1.1-3,1.1c-0.7,0-1.3-0.2-1.7-0.6c-0.4-0.4-0.6-1-0.6-1.7
		c0-0.9,0.3-2.5,1-4.7l3.3-11.5c0.4-1.4,0.6-2.5,0.6-3.3c0-0.4-0.1-0.7-0.4-0.9c-0.2-0.2-0.5-0.4-0.9-0.4c-0.5,0-1.2,0.2-1.9,0.7
		c-1.4,0.8-2.8,2.3-4.4,4.2c-1.5,2-3.1,4.5-4.8,7.5c-0.9,1.6-1.6,3.4-2.2,5.3l-1.4,4.7h-4.3l5.2-17.8c0.6-2.1,0.9-3.4,0.9-3.9
		c0-0.4-0.2-0.8-0.5-1.1s-0.7-0.5-1.2-0.5c-0.2,0-0.6,0-1.2,0.1l-1.1,0.1l-0.2-1L847.1,1175.1z"/>
	<path class="st0" d="M884.1,1194.7c-2,2.4-4,4.1-6,5.2c-2,1.1-4.1,1.7-6.4,1.7c-2.7,0-4.8-0.8-6.3-2.3s-2.3-3.5-2.3-6.1
		c0-2.9,0.8-5.8,2.4-8.6c1.6-2.8,3.8-5.1,6.5-6.9c2.7-1.8,5.4-2.6,8.1-2.6c2.1,0,3.6,0.4,4.7,1.3c1,0.9,1.5,1.9,1.5,3.2
		c0,1.2-0.4,2.2-1.1,3c-0.5,0.7-1.2,1-1.9,1c-0.6,0-1.1-0.2-1.5-0.6c-0.4-0.4-0.6-0.9-0.6-1.4c0-0.4,0.1-0.7,0.2-1
		c0.1-0.3,0.4-0.7,0.9-1.1c0.4-0.4,0.7-0.7,0.8-0.9c0.1-0.2,0.1-0.4,0.1-0.6c0-0.4-0.2-0.7-0.5-1c-0.6-0.4-1.3-0.6-2.3-0.6
		c-1.9,0-3.7,0.7-5.5,2c-1.8,1.3-3.4,3.2-4.7,5.6c-1.6,2.9-2.3,5.8-2.3,8.8c0,1.9,0.6,3.5,1.7,4.6c1.1,1.1,2.6,1.7,4.5,1.7
		c1.5,0,2.9-0.4,4.3-1.1c1.4-0.7,3-2.1,4.8-4L884.1,1194.7z"/>
	<path class="st0" d="M899.1,1175.1l-5.6,20c-0.4,1.3-0.6,2.1-0.6,2.4c0,0.3,0.1,0.6,0.3,0.7c0.2,0.2,0.4,0.3,0.6,0.3
		c0.3,0,0.6-0.2,1-0.5c1.1-0.8,2.2-2.1,3.3-3.6l1,0.7c-1.3,2-2.8,3.6-4.6,5c-1.3,1-2.5,1.5-3.7,1.5c-0.8,0-1.4-0.2-1.9-0.7
		s-0.7-1-0.7-1.8c0-0.7,0.2-1.9,0.7-3.5l3.7-12.8c0.6-2.1,0.9-3.4,0.9-3.9c0-0.4-0.1-0.7-0.4-1c-0.3-0.3-0.7-0.4-1.2-0.4
		c-0.4,0-1.3,0.1-2.6,0.3v-1.1L899.1,1175.1z M898.7,1163.8c0.8,0,1.5,0.3,2,0.8c0.5,0.6,0.8,1.2,0.8,2s-0.3,1.5-0.8,2
		c-0.6,0.6-1.2,0.8-2,0.8c-0.8,0-1.5-0.3-2-0.8c-0.6-0.6-0.8-1.2-0.8-2s0.3-1.4,0.8-2C897.2,1164.1,897.9,1163.8,898.7,1163.8z"/>
	<path class="st0" d="M927.4,1175.1l-5.6,19.3l-0.6,2.6c0,0.2-0.1,0.4-0.1,0.6c0,0.3,0.1,0.6,0.3,0.8c0.1,0.2,0.3,0.2,0.6,0.2
		c0.2,0,0.6-0.2,1-0.5c0.7-0.5,1.7-1.7,3-3.4l1,0.7c-1.3,2-2.6,3.5-4,4.5c-1.4,1-2.7,1.5-3.9,1.5c-0.8,0-1.4-0.2-1.8-0.6
		c-0.4-0.4-0.6-1-0.6-1.8c0-0.9,0.2-2.2,0.6-3.7l0.6-2.2c-2.5,3.3-4.8,5.5-6.9,6.8c-1.5,0.9-3,1.4-4.4,1.4c-1.4,0-2.6-0.6-3.6-1.7
		c-1-1.1-1.5-2.7-1.5-4.7c0-3,0.9-6.2,2.7-9.6c1.8-3.4,4.1-6,6.9-8c2.2-1.6,4.2-2.4,6.2-2.4c1.2,0,2.2,0.3,2.9,0.9
		c0.8,0.6,1.3,1.6,1.8,3l1-3.3L927.4,1175.1z M917.3,1176.6c-1.2,0-2.5,0.6-3.9,1.7c-2,1.6-3.7,4-5.2,7.2c-1.5,3.2-2.3,6-2.3,8.6
		c0,1.3,0.3,2.3,1,3s1.4,1.1,2.2,1.1c2.1,0,4.3-1.5,6.7-4.6c3.3-4.1,4.9-8.2,4.9-12.5c0-1.6-0.3-2.8-0.9-3.5
		C919.2,1176.9,918.3,1176.6,917.3,1176.6z"/>
</g>
</svg>
