<?xml version="1.0" encoding="utf-8"?>
<!-- Generator: Adobe Illustrator 25.4.1, SVG Export Plug-In . SVG Version: 6.00 Build 0)  -->
<svg version="1.1" id="ok" xmlns="http://www.w3.org/2000/svg" xmlns:xlink="http://www.w3.org/1999/xlink" x="0px" y="0px"
	 viewBox="0 0 263 383" style="enable-background:new 0 0 263 383;" xml:space="preserve">
<style type="text/css">
	.st0{fill:#62391B;}
</style>
<g>
	<path class="st0" d="M239.8,91.7c0.2,0.4,0.4,0.8,0.7,1c3.3,2.8,2.8,8.1,1.2,11.3c-3,5.9-6.1,11.8-9.3,17.6
		c-4.3,7.9-8.7,15.7-13.1,23.5c-6.4,11.3-13,22.4-20.2,33.1c-5.7,8.4-11.2,16.9-16.7,25.4c-1.5,2.3-3,4.6-4.6,6.8
		c-4.7,6.4-8.7,13.3-12.8,20.2c-3.6,6.2-7.3,12.4-11.4,18.2c-7.2,10.3-14.4,20.7-21,31.4c-0.9,1.5-2.2,2.8-3.4,3.9
		c-1.6,1.4-3.7,1.3-5,0.1c-1.4-1.3-1.7-3.1-1.2-5c0.3-1.1,0.7-2.1,1-3.1c-3.7-1.3-3.9-1.3-7-4.8c-9-9.8-18-19.3-27.6-27.9
		c-8.3-7.4-16.8-14.5-25.7-20.8c-13.9-9.9-27.8-19.6-41.8-29.4c-1.5-1.1-3.2-1.9-4.7-2.8c-1.4-0.8-2.1-2.1-1.8-3.3
		c0.4-1.5,1.3-2.6,2.7-2.7c1.2-0.1,2.6,0,3.8,0.4c2.2,0.8,4.3,1.8,6.3,3c10.8,6.2,21.3,13,31.6,20.1c18.6,12.7,35.7,27.4,51.8,43.7
		c4.6,4.7,9,9.6,13.4,14.6c1.1,1.3,1.8,3,2.9,4.7c0.8-1.1,1.6-2.1,2.4-3.2c5.1-7.3,10.2-14.5,15.3-21.8c5-7.2,9.8-14.5,14.3-22.1
		c2.6-4.4,5.3-8.7,8.2-12.8c5.2-7.4,10-15.1,14.7-22.8c4.2-6.8,8.5-13.5,12.8-20.1c8-12.4,15.7-25.1,23-38.2c5.1-9.1,10.7-18,16-27
		c0.3-0.6,0.6-1.2,1-1.8c-0.4-0.5-0.7-1-1.1-1.3c-9.9-9.3-20.2-17.9-30.7-26.2c-23.1-18.4-47.2-35-72-50.2c-1.2-0.7-2.5-1.4-3.9-2.1
		c-0.7,0.7-1.3,1.3-1.9,2c-5.8,7.4-10.8,15.5-15.7,23.6C101.9,60.5,93.5,74,84.6,87.2c-11.2,16.5-22.3,33.2-32.5,50.5
		c-6.5,11-13.2,21.9-19.8,32.9c-1.3,2.1-2.7,4.2-4.1,6.2c-0.7,1-1.5,2-2.3,2.8c-1.7,1.7-3.7,2-5.2,0.9c-1.5-1.1-2-3.4-1.1-5.8
		c0.6-1.6,1.3-3.1,2.2-4.5c2.5-4.3,5.2-8.4,7.7-12.7c6.4-10.6,12.7-21.3,19.2-31.8c5.7-9.2,11.5-18.4,17.4-27.5
		c7.9-12.1,16-23.9,23.9-36c5.1-7.9,10-16.1,14.9-24.2c3.8-6.2,7.8-12.3,12.7-17.5c2.1-2.2,4.5-4.2,6.7-6.3c0.6-0.5,1.4-0.9,1.7-1.6
		c0.8-1.6,2.1-2.1,3.5-2c2.3,0.1,4.6,0.2,6.9,0.7c4,0.9,8,1.9,11.9,3.3c19.7,7.1,39.2,14.9,58.2,24.1c10.9,5.3,21.3,11.8,31,19.4
		c3.3,2.6,6.4,5.6,9.5,8.5c1,1,1.9,2.3,2.6,3.6c0.7,1.4,0.4,2.8-1,3.6c-1.1,0.6-1.7,1.6-2.4,2.6C243,80.9,241,85.8,239.8,91.7z
		 M163.9,29.5c0.6,0.7,1.2,1.6,2.2,1.2c0.7,0.5,1.2,1.5,2.2,0.9c0.9,0.6,1.7,1.2,2.6,1.7c4.9,2.5,9.8,4.9,14.6,7.4
		c9.4,5,18.8,10.1,28.3,15.1c3.1,1.7,6.3,3.1,9.4,4.9c1.3,0.8,2.6,1.9,3.7,3c0.8,0.8,0.9,2.1,0.4,3.2c-0.5,1.2-1.5,1.7-2.5,1.5
		c-1.4-0.3-2.7-0.7-4-1.4c-8.5-4.5-17-9.2-25.5-13.7c-1-0.5-2-1.3-3.8-1.3c1.7,1.3,2.9,2.4,4.1,3.3c4,3.1,7.9,6.2,12,9.2
		c2.3,1.7,4.7,3.3,7.2,4.9c4.4,2.8,8.9,5.5,13.3,8.3c1,0.6,2,1.5,2.5,2.5s0.3,2.4,0.4,3.6c0.5,0.5,1.1,1.1,1.7,1.6
		c0.6,0.5,1,1.3,1.7,1c1.1-2.7,2-5.4,3.3-7.7c1.4-2.5,3.2-4.6,5-7.1c-0.8-0.9-1.5-1.7-2.3-2.4c-7.4-6.9-15.5-12.4-24.1-17.2
		c-15.1-8.5-31.1-14.4-47-20.5c-0.3-0.1-0.7,0.1-1,0.2c-0.6-0.7-1.2-1.5-2.2-0.9c-0.6-0.8-1.3-1.3-2.3-1.2c-0.6-0.3-1.1-0.9-1.8-0.5
		c-2.9-2.1-6.3-2.7-9.4-4.1c-0.3-0.1-0.7,0-1.1,0.1c-0.1-0.2-0.3-0.3-0.4-0.5c0.1,0,0.2,0,0.3,0.1s0,0.3,0.1,0.4
		c1.6,1,3.2,2.1,4.8,3.1c0.6,0.4,1.4,0.5,2.1,0.6c1.2,0.1,2.4,0.1,3.7,0.2C162.6,29.4,163.1,30.3,163.9,29.5z"/>
	<path class="st0" d="M176.6,151.1c-1.9,2.7-4.3,5.3-7,7.5c-3.5,2.8-6.9,5.9-10.9,7.9c-3.2,1.6-6.3,3-9.9,3.2
		c-1.3,0.1-2.5,0.3-3.8,0.6c-7.6,1.9-15,0.7-22.3-2c-2.5-1-4.9-2.3-7.4-3.5c-1.9-0.9-3.5-2.4-4.8-4.1c-1.8-2.2-3.5-4.5-5.2-6.8
		c-3.6-4.9-6.1-10.5-7.8-16.4c-1.4-4.8-1.5-9.8-1.1-14.7c0.6-7.5,2.2-14.8,5-21.7c3.1-7.9,8.2-13.9,14.3-19
		c5.6-4.7,11.8-7.8,18.6-9.5c5.3-1.3,10.6-1.4,16-0.3c6.6,1.4,12.9,3.4,18.7,7.3c2,1.3,3.8,2.8,5.2,4.9c1.8,2.6,3.7,5.1,5.5,7.7
		c1.7,2.5,3,5.3,3.6,8.4c2,10.2,3.1,20.3,1.6,30.8c-0.9,6.3-2.8,12-6.3,17.1C177.9,149.1,177.4,150.1,176.6,151.1z M154.6,136.8
		c5.3-5.2,11.7-16.7,12.7-22.9c-1.2-1.5-2.4-3.2-3.7-4.7c-1.4-1.6-2.4-3.7-4.4-4.7c-2.4,1.6-4.3,3.6-6.2,5.7c-1.8,2-3.7,3.9-5.5,5.9
		c-1.8,2.1-4.1,3.7-5.5,6.6C146,127.7,150.1,132.3,154.6,136.8z M137.8,127.4c-3.9,3.3-10.8,11.7-12.2,15c1.1,1.5,2.3,3.2,3.6,4.8
		c4.3,5.1,4.6,5.1,10.5,2.5c4.1-1.8,7.6-4.5,10.6-8C148.6,139,141,130.3,137.8,127.4z M169.8,150.4c0.6-0.4,1.1-0.6,1.4-1
		c3.6-4.7,6.2-10,6.8-16.2c0.1-1.1-0.1-2.3-0.5-3.3c-1.4-3.8-3.4-7.3-6.1-10.1c-0.1-0.2-0.5-0.1-0.7-0.2c-1.8,3.7-3.6,7.5-5.5,11.1
		c-2,3.6-4.2,6.9-6.4,10.5C162.4,144.6,165.6,148.2,169.8,150.4z M125.9,109.5c-0.7,0.8-1.5,1.5-2.1,2.4c-1.6,2.4-3.3,4.7-4.6,7.3
		c-4.2,8-4.2,6,0.2,13.8c0.5,0.9,0.9,2.1,2.3,2.2c3.3-4.2,6.6-8.4,10-12.7c0.4-0.5,0.7-1.1,1.1-1.6
		C131.6,118.1,127.7,111.5,125.9,109.5z M130.7,105c2.1,5,4.2,8.4,6.5,10.4c2.7-2.7,5.4-5.5,8-8.3c2.7-2.9,6.1-5,8.7-8.3
		c-1.5-2.1-3.1-3.6-5-4.8C142.3,96.5,136.4,100.1,130.7,105z M140,157.1c1.6,2.2,3.6,3.6,5.6,5c0.5,0.3,1.2,0.3,1.9,0.3
		c6.5-0.1,12.2-2.8,17-7.5c0.2-0.1,0.1-0.5,0.2-0.7c-3.3-2.8-6.6-5.7-10-8.6c-2.3,2.1-4.4,4.3-6.8,6.2
		C145.4,153.7,142.7,155.2,140,157.1z M121.5,91.2c2.1,3.2,4,6.1,6.2,8.9c2.7-2,5.3-3.8,7.8-5.7c2.5-1.9,5.5-2.7,8.1-4.8
		c-0.5-0.6-0.7-1.1-1.1-1.4c-2-1.7-4-3.4-5.9-5C130.5,83.5,125.9,86.4,121.5,91.2z M123.3,103.7c-1.6-3.1-3.2-6-5.1-8.7
		c-1.7,0.8-2.7,2.4-3.9,3.6c-2.1,1.9-3.5,4.5-4.7,7.1c-0.4,1-0.8,2.2-0.6,3.2c0.7,3.6,2.2,6.7,4.2,10c1.6-2.8,3-5.3,4.6-7.7
		C119.5,108.7,121.3,106.4,123.3,103.7z M106.5,116.2c-3.3,7.1-3.1,18,0.1,21.9c0.5-1.9,0.9-3.8,1.5-5.7c0.5-1.9,1.3-3.7,1.8-5.6
		c0.2-0.8,0.3-1.7,0-2.4C109,121.7,108,119.1,106.5,116.2z M162.4,86.3c-7.5-4.7-15.5-6.2-20.5-4.1c1,1.4,2.3,2.1,3.5,3
		c1.3,0.9,2.5,1.8,3.6,2.6c2.4-0.5,4.5-1,6.6-1.3C157.8,86.4,159.9,86.4,162.4,86.3z M111.4,150.7c2.8-3.5,4.9-6.7,6.5-10.2
		c-1.1-1.9-2.1-3.7-3.2-5.4c-0.3-0.5-0.9-0.8-1.4-1.2c-1.6,4.4-2.9,11.1-2.7,14.3C110.6,148.8,111,149.4,111.4,150.7z M163.1,101
		c2.3,2.3,3.8,4.8,5.9,6.5c0.3-0.3,0.6-0.4,0.7-0.6c0.7-3.4,1.3-6.9,1.9-10.3c0.1-0.4-0.3-0.9-0.6-1.6
		C168.3,96.9,166,98.8,163.1,101z M116.2,154.1c2.7,0.4,6.6-0.3,10.1-1.8c-1-2.4-2.9-3.8-4.4-6C119.9,148.8,118.2,151.2,116.2,154.1
		z M178,119.1c-0.5-5.7-1.4-10.8-2.9-15.7c0-0.1-0.4-0.1-0.8-0.2c-0.5,2.6-1.1,5.2-1.5,7.8c-0.1,0.6,0,1.5,0.3,2
		C174.6,114.9,175.7,117.2,178,119.1z M158.1,95.9c2.4-1.5,4.7-3,7.3-4.6c-4.7-0.3-8.3,0.2-10.8,1.4
		C155.8,93.7,156.8,94.7,158.1,95.9z M127,159.2c3,1.7,6.7,2.3,9.2,1.6C133.5,157.5,130.4,158.6,127,159.2z"/>
	<path class="st0" d="M127.7,204c0.5,1,1.1,1.6,1.2,2.3c0.2,1.1,0.2,2.3,0,3.3c-1.1,5.4-4.7,11.3-11.4,12.8
		c-2.3,0.5-4.6,0.4-6.6-1.2c-3-2.3-3.9-6.4-1.9-10.1c1.1-2,2.5-3.9,4.2-5.5c2.8-2.7,6-4.8,9.6-6c1.2-0.4,2.5-0.8,3.7,0.1
		c0.4,0.3,0.8,0.8,0.8,1.3c0,0.4-0.6,1-0.9,1.1c-4.3,0.8-7.7,3.7-11,6.5c-1.4,1.2-2.6,2.7-3.3,4.6c-1.4,3.6,0.4,6.4,3.9,6
		s6.3-2.3,8-5.8C125.2,210.6,126.3,207.6,127.7,204z"/>
	<path class="st0" d="M103.5,198c-1.3,2.6-2.6,5.1-3.8,7.5c-0.4,0.8-1,1.7-1.6,2.3c-0.4,0.4-1.3,0.5-1.7,0.3
		c-0.4-0.2-0.9-1.2-0.8-1.7c0.3-1.5,0.7-3,1.3-4.4c1.9-3.7,4-7.2,6.1-10.8c0.7-1.2,1.7-2.2,2.2-3.5c0.8-2,2.2-2.6,3.9-2.7
		c3.1-0.2,6.1,0,9,1.4c1,0.5,1.8,1.1,2.3,2.1c1,2,0.9,3.9-0.6,5.4c-1.2,1.3-2.4,2.6-3.7,3.6c-3.1,2.4-6.4,3.4-10,1.5
		C105.3,198.7,104.5,198.4,103.5,198z M104.5,195.8c4.9,2.6,9.7,1.7,12.6-2c1.2-1.5,0.9-2.9-0.7-3.6c-2.8-1.2-5.6-1.6-8.8-1.4
		C106.6,191,105.6,193.3,104.5,195.8z"/>
	<path class="st0" d="M135,210.4c1.1,3-1.7,4.7-1.5,7.4c1.8,0.3,3.3-0.1,4.8-1.1c1.5-1.1,1.6-2,0.6-3.8c-0.2-0.4-0.5-0.9-0.7-1.3
		c1-1.1,2-0.9,2.9-0.2c1.3,0.9,2,2.2,1.9,3.9c-0.1,2.1-0.9,3.8-2.4,5.1c-1.9,1.7-4,2.3-6.4,2.4c-1.2,0-2.5,0.1-3.9,0.1
		c0.3,3.6,2.6,5.2,4.6,7c-2.3,2.5-3,2.4-7.1-0.3c-0.6,0.3-1.3,0.8-2,1c-1.2,0.3-2.3-0.9-2.1-2.2c0.1-0.4,0.2-0.9,0.4-1.2
		c1-1.5,1.5-3.2,1.5-5.1c0-1.2,0.7-2.3,1.6-2.7c2.1-1,3-3,4.1-4.8c0.7-1,1.2-2.2,2-3.1C133.7,210.8,134.4,210.7,135,210.4z"/>
	<path class="st0" d="M56.5,151.8c1.8,0.7,2.9,1.2,4.1,1.5c1.5,0.3,3,0.7,4.2,1.8c3.1,2.4,3.2,6.2,0.3,8.9c-1.4,1.3-3,2.2-4.8,2.5
		c-2.3,0.3-4.6,0.4-6.8,0.4c-0.7,0-1.5-0.1-2.4-0.2c-0.8,1.3-1.6,2.5-2.4,3.8c-0.8,1.3-1.6,2.5-2.5,3.8c-0.3,0.5-0.5,1.1-0.8,1.4
		c-0.5,0.4-1.1,0.7-1.6,0.8c-0.6,0-0.9-1.2-0.5-2.1c0.6-1.4,1.1-2.9,1.9-4.2c3-5.1,6-10.1,9.1-15.2
		C54.9,153.7,55.8,152.7,56.5,151.8z M53.3,163.4c3.4,0.3,5.9,0,7.8-0.8c0.9-0.4,1.8-1,2.6-1.7c1.1-1,1-2.6-0.2-3.6
		c-1.9-1.7-4.2-1.9-6.6-1.5c-1.1,2.1-2.2,4.1-3.3,6.2C53.4,162.3,53.4,162.7,53.3,163.4z"/>
	<path class="st0" d="M66.4,176.8c-1.5-1.2-2.8-2.3-4.2-3.5c-1.8,0.6-3,2-4.5,3c-1.4,1-2.4,2.8-4.8,3.4c0.5-1.1,0.6-1.7,1-2.2
		c1.1-1.3,2.2-2.8,3.5-3.8c4.2-3.2,8.4-6.3,12.7-9.4c0.7-0.5,1.6-0.9,2.4-1.2c1.9-0.6,3.3,0.7,2.9,3c-0.1,0.8-0.4,1.6-0.6,2.4
		c-1,3.2-3.2,5.8-3.6,9.2c-2,1.9-2.5,4.9-4,7.2c-0.3,0.5-0.6,1-1,1.3s-1,0.4-1.4,0.3c-0.4-0.2-0.8-0.8-0.8-1.3
		c0.1-1.2,0.2-2.5,0.6-3.7C65.1,180,65.7,178.6,66.4,176.8z M71.1,168.1c-2.9,0.4-5,2-7.2,3.8c1.1,1.3,2.3,2.1,3.8,2.3
		C68.9,172.1,70,170.1,71.1,168.1z"/>
	<path class="st0" d="M155.6,221.1c-2.1,0.7-3.9-0.7-6.1-0.9c-0.4,0.7-0.7,1.4-1.1,2.1c-2.6,4.9-5.1,9.8-7.7,14.7
		c-0.4,0.7-0.8,1.4-1.4,2c-0.3,0.3-1,0.6-1.4,0.4c-0.5-0.3-1.2-0.9-1.2-1.5c0-1.1,0.1-2.3,0.5-3.3c1.3-2.9,2.8-5.7,4.4-8.4
		c1.5-2.5,3.2-4.7,4.9-7.2c-0.7-0.9-1.5-1.7-2-2.6c-0.3-0.5-0.4-1.4-0.2-2c0.1-0.3,1-0.9,1.1-0.8c3.2,2.6,7.1,3.9,10,6.9
		C155.6,220.6,155.6,220.8,155.6,221.1z"/>
	<path class="st0" d="M101.7,183.7c-2,0.1-4-0.2-5.9,1.2c0.3,1.4,0.7,2.9,0.9,4.4c0.6,3.3-0.2,6.2-2.5,8.5
		c-3.2,3.2-9.2,2.3-11.4-1.9c-0.3-0.5-0.1-1.3-0.2-2.3c1.6,0.4,2.9,0.8,4.2,1.1c1.9,0.4,3.5,0,4.9-1.6c1.1-1.3,1.7-2.8,1.5-4.6
		c-0.1-1-0.4-1.9-0.4-2.9c-0.1-2,0.5-3.1,2.3-3.9c1.8-0.8,3.7-1,5.6-0.3C101.6,181.6,101.9,182.2,101.7,183.7z"/>
	<path class="st0" d="M87.8,172.9c-1.9,2.2-4.6,1.5-6.2,3.7c0.3,0.9,0.7,1.9,1.1,2.9c0.6,1.4,1.3,2.8,1.7,4.2
		c0.9,3.2-0.3,6.8-2.6,8.7c-2.3,1.9-6.3,2-8.7,0.3c-1.2-0.8-1.8-1.9-1.2-3.5c1.5,0.4,2.9,0.9,4.4,1c3.2,0.2,6.8-3.8,5-8.3
		c-0.5-1.3-1.1-2.5-1.5-3.9c-0.6-1.9-0.2-3.3,1.4-4.3C83.1,172.6,85.2,172,87.8,172.9z"/>
</g>
<g>
	<path class="st0" d="M89.1,367.7v1.1c-2.9-1.5-5.3-3.2-7.2-5.1c-2.7-2.7-4.8-6-6.3-9.7c-1.5-3.7-2.2-7.6-2.2-11.6
		c0-5.9,1.4-11.3,4.3-16.1c2.9-4.8,6.7-8.3,11.4-10.4v1.2c-2.3,1.3-4.2,3.1-5.7,5.3c-1.5,2.2-2.6,5.1-3.4,8.5
		c-0.7,3.4-1.1,7-1.1,10.8c0,4.1,0.3,7.7,1,11.1c0.5,2.6,1.1,4.7,1.8,6.3c0.7,1.6,1.7,3.1,2.8,4.6S87.1,366.4,89.1,367.7z"/>
	<path class="st0" d="M112.5,346.4c-0.7,3.4-2.1,6.1-4.1,7.9c-2.1,1.9-4.3,2.8-6.8,2.8c-3,0-5.6-1.2-7.8-3.7
		c-2.2-2.5-3.3-5.9-3.3-10.1c0-4.1,1.2-7.4,3.7-10c2.4-2.6,5.4-3.8,8.8-3.8c2.6,0,4.7,0.7,6.3,2c1.6,1.4,2.5,2.8,2.5,4.2
		c0,0.7-0.2,1.3-0.7,1.8c-0.5,0.4-1.1,0.7-1.9,0.7c-1.1,0-2-0.4-2.5-1.1c-0.3-0.4-0.5-1.2-0.6-2.3c-0.1-1.1-0.5-2-1.1-2.6
		c-0.7-0.6-1.6-0.8-2.8-0.8c-1.9,0-3.4,0.7-4.6,2.1c-1.5,1.9-2.3,4.3-2.3,7.4s0.8,5.9,2.3,8.2c1.5,2.4,3.6,3.6,6.2,3.6
		c1.9,0,3.5-0.6,5-1.9c1.1-0.9,2.1-2.5,3-4.7L112.5,346.4z"/>
	<path class="st0" d="M123.4,315.8v34.6c0,1.7,0.1,2.7,0.4,3.3c0.2,0.5,0.6,0.9,1.1,1.2c0.5,0.3,1.4,0.4,2.8,0.4v1h-12.8v-1
		c1.2,0,2-0.1,2.5-0.4c0.4-0.2,0.8-0.7,1-1.2c0.2-0.6,0.4-1.7,0.4-3.3v-23.7c0-2.9-0.1-4.8-0.2-5.4c-0.1-0.7-0.3-1.1-0.6-1.4
		c-0.3-0.2-0.7-0.4-1.1-0.4c-0.5,0-1.1,0.2-1.9,0.5l-0.5-1l7.8-3.2H123.4z"/>
	<path class="st0" d="M137.8,329.4v20.9c0,1.7,0.1,2.7,0.4,3.3c0.2,0.5,0.6,0.9,1,1.2c0.5,0.3,1.3,0.4,2.6,0.4v1h-12.7v-1
		c1.3,0,2.1-0.1,2.6-0.4c0.4-0.2,0.8-0.7,1-1.2c0.2-0.6,0.4-1.7,0.4-3.3v-10c0-2.8-0.1-4.7-0.2-5.5c-0.1-0.6-0.4-1-0.6-1.3
		c-0.2-0.3-0.7-0.4-1.2-0.4s-1.2,0.1-1.9,0.4l-0.4-1l7.9-3.2h1.1V329.4z M135.5,315.8c0.8,0,1.5,0.3,2,0.8c0.6,0.6,0.8,1.2,0.8,2.1
		c0,0.8-0.3,1.5-0.8,2c-0.6,0.6-1.2,0.9-2,0.9s-1.5-0.3-2.1-0.9c-0.6-0.6-0.8-1.3-0.8-2c0-0.8,0.3-1.5,0.8-2.1
		C134,316.1,134.6,315.8,135.5,315.8z"/>
	<path class="st0" d="M165.4,346.4c-0.7,3.4-2.1,6.1-4.1,7.9c-2.1,1.9-4.3,2.8-6.8,2.8c-3,0-5.6-1.2-7.8-3.7s-3.3-5.9-3.3-10.1
		c0-4.1,1.2-7.4,3.7-10c2.4-2.6,5.4-3.8,8.8-3.8c2.6,0,4.7,0.7,6.3,2c1.6,1.4,2.5,2.8,2.5,4.2c0,0.7-0.2,1.3-0.7,1.8
		c-0.5,0.4-1.1,0.7-1.9,0.7c-1.1,0-2-0.4-2.5-1.1c-0.3-0.4-0.5-1.2-0.6-2.3s-0.5-2-1.1-2.6c-0.7-0.6-1.6-0.8-2.8-0.8
		c-1.9,0-3.4,0.7-4.6,2.1c-1.5,1.9-2.3,4.3-2.3,7.4s0.8,5.9,2.3,8.2c1.5,2.4,3.6,3.6,6.2,3.6c1.9,0,3.5-0.6,5-1.9
		c1.1-0.9,2.1-2.5,3-4.7L165.4,346.4z"/>
	<path class="st0" d="M167.1,317v-1.2c2.9,1.4,5.3,3.1,7.2,5.1c2.7,2.8,4.8,6,6.3,9.7s2.2,7.6,2.2,11.7c0,5.9-1.4,11.3-4.3,16.1
		c-2.9,4.8-6.7,8.3-11.4,10.4v-1.1c2.3-1.3,4.3-3.1,5.8-5.3c1.5-2.2,2.6-5.1,3.4-8.5c0.7-3.4,1.1-7,1.1-10.8c0-4-0.3-7.7-1-11.1
		c-0.5-2.6-1.1-4.7-1.8-6.3c-0.7-1.6-1.7-3.1-2.8-4.6C170.6,319.7,169,318.3,167.1,317z"/>
</g>
</svg>
