<?xml version="1.0" encoding="utf-8"?>
<!-- Generator: Adobe Illustrator 25.4.1, SVG Export Plug-In . SVG Version: 6.00 Build 0)  -->
<svg version="1.1" id="Capa_1" xmlns="http://www.w3.org/2000/svg" xmlns:xlink="http://www.w3.org/1999/xlink" x="0px" y="0px"
	 viewBox="0 0 1242 1414.6" style="enable-background:new 0 0 1242 1414.6;" xml:space="preserve">
<style type="text/css">
	.st0{fill:#A63434;stroke:#A63434;stroke-miterlimit:10;}
	.st1{fill:#FFFFFF;}
	.st2{fill:#62391B;}
	.st3{fill:#D96F6F;}
</style>
<path class="st0" d="M1420.4,725.2c-6.8-1.5-14.2,1.5-18.8,7.7c-4.7-6.2-12-9.3-18.8-7.7c-7.5,1.7-12.4,8.3-12.6,16.6
	c-0.4,23.5,30.8,42.7,31.1,42.8c0.1,0,0.2,0.1,0.4,0.1c0.1,0,0.2,0,0.4-0.1c0.3-0.1,31.5-19.4,31.1-42.8
	C1432.9,733.4,1427.9,726.9,1420.4,725.2z"/>
<path class="st1" d="M701.3,759.9c0-0.4,0-0.8,0-1.2c-0.1-0.9-0.2-1.8-0.3-2.7c-1.9-13.4-8.5-23.7-20.4-30.4
	c-0.9-0.5-2.1-0.7-3.1-0.5c-1.6,0.3-2.6,1.5-2.8,3.1c-0.3,1.7,0.5,3,1.9,4c2.4,1.7,5,3.3,7.2,5.3c6.4,6.2,9.5,14,9.8,22.9
	c0.1,2.7,1.2,4.2,3.3,4.6C699.5,765.5,701.4,763.3,701.3,759.9z M662.4,720.9c-2.3,0-4,1.7-3.9,3.9c0.1,2.1,1.8,3.8,3.9,3.8
	c2.2,0,4-1.7,4-3.9S664.7,720.9,662.4,720.9z"/>
<path class="st2" d="M634.8,854.3c0,0.2,9.9-6.6,10.5-7.1c3.6-2.9,7.3-5.7,10.8-8.7c14.8-12.2,28.7-25.3,40.3-40.6
	c6.8-9,12.7-18.6,15.6-29.7c6.5-25.5-10.3-51.8-36.2-56c-14.7-2.4-27.4,2.3-38,12.9c-0.8,0.8-1.7,1.7-2.8,2
	c-1.9,0.7-3.3-0.5-4.6-1.8c-6.6-6.9-14.6-11.4-24.1-13c-9.9-1.7-19.2,0-28.1,4.7c-0.7,0.4-1.3,0.8-2,1.2c-2.1,1.1-4.3,0.5-5.4-1.5
	c-1-1.9-0.5-4,1.5-5.2c4.9-3.1,10.3-5.3,16-6.5c7.2-1.5,14.8-1.4,22,0.2c5.9,1.3,11.5,3.6,16.5,6.9c2.5,1.7,4.9,3.6,7.2,5.7
	c0.5-0.5,1-0.9,1.5-1.3c5.3-4.7,11.6-8.2,18.3-10.4c7.8-2.4,15.8-2.8,23.8-1.4c3.5,0.6,7,1.5,10.2,2.8c26.1,10.3,41.3,42,28.9,71.1
	c-5.8,13.5-14.2,25.1-23.9,35.9c-13.2,14.8-28.1,27.6-43.8,39.6c-1.4,1-12.8,8-14.3,8.1"/>
<path class="st2" d="M521.6,755.8c0.9-3.7,1.9-7.3,4.3-10.4c3.8-5.1,8.9-8.1,15.2-8.9c1.3-0.2,2.2-0.6,2.9-1.8
	c9.9-16.1,33-16.2,43-0.3c0.9,1.4,1.8,1.9,3.3,2.1c10.6,1.2,19,10.6,19.1,21.3c0,3.1-1.4,4.6-4.5,4.6c-26.3,0-52.5,0-78.8,0
	c-2.2,0-3.5-1-4.5-2.8C521.6,758.4,521.6,757.1,521.6,755.8z M530.2,754.5c23.6,0,47.1,0,70.7,0c-1.2-5.9-7.4-10.6-13.9-10.3
	c-2.8,0.1-4.4-0.9-5.6-3.5c-3.2-6.7-8.7-10.4-16.1-10.3c-7.4,0.1-12.7,3.9-15.9,10.6c-1.2,2.6-2.1,3.1-5,3.1c-1.3,0-2.6,0.1-3.9,0.3
	C535.5,745.5,530.8,750.1,530.2,754.5z"/>
<path class="st2" d="M657.7,903.9c-6.4-4.5-7.3-14.9-1.9-21.3c3.7-4.4,8.5-6.1,14.2-5.5c0.6,0.1,1.6-0.3,2-0.8
	c8.8-12.6,25.6-12.7,34.8-0.2c0.5,0.6,1.4,1.1,2.2,1.3c10.5,2.4,15.6,14.4,9.8,23.5c-0.8,1.2-2,2.1-3,3.2
	C696.4,903.9,677.1,903.9,657.7,903.9z M686.7,896.1c8.1,0,16.2,0,24.4,0c1.3,0,1.8-0.4,2.1-1.6c1.2-4.7-2.1-9.6-6.9-9.7
	c-2.7-0.1-4.2-1.2-5.5-3.5c-2.6-4.7-6.8-7-12.1-6.7c-5.2,0.3-8.9,3-11.1,7.7c-1.9,4-2.8,4.4-7.1,2.9c-2.9-1.1-5.7-0.6-8,1.5
	c-2.2,2-3,4.6-2.3,7.6c0.3,1.3,0.9,1.8,2.2,1.7C670.6,896,678.6,896.1,686.7,896.1z"/>
<path class="st2" d="M701.3,759.9c0.1,3.5-1.8,5.6-4.5,5.1c-2.1-0.4-3.2-1.9-3.3-4.6c-0.3-8.9-3.4-16.7-9.8-22.9
	c-2.1-2.1-4.7-3.6-7.2-5.3c-1.4-1-2.2-2.3-1.9-4c0.3-1.6,1.2-2.8,2.8-3.1c1-0.2,2.3,0,3.1,0.5c11.8,6.7,18.5,17,20.4,30.4
	c0.1,0.9,0.2,1.8,0.3,2.7C701.3,759.1,701.3,759.5,701.3,759.9z"/>
<path class="st2" d="M662.4,720.9c2.3,0,4,1.6,4,3.9c0,2.2-1.8,3.9-4,3.9c-2.1,0-3.8-1.7-3.9-3.8
	C658.4,722.6,660.2,720.9,662.4,720.9z"/>
<path d="M601.3,820.1"/>
<g>
	<g>
		<g>
			<path class="st2" d="M427.5,1022.6l-3.6,15.6h-1.3l-0.1-3.9c-0.1-1.4-0.4-2.7-0.9-3.8c-0.4-1.1-1.1-2.1-1.9-2.9s-1.9-1.4-3.2-1.9
				c-1.3-0.5-2.7-0.7-4.3-0.7c-4.2,0-7.9,1.2-11.1,3.5c-4,3-7.2,7.1-9.5,12.5c-1.9,4.5-2.8,9-2.8,13.5c0,4.7,1.4,8.4,4.1,11.1
				c2.7,2.8,6.2,4.2,10.6,4.2c3.3,0,6.2-0.7,8.8-2.2c2.6-1.5,4.9-3.7,7.1-6.8h1.6c-2.6,4.1-5.4,7.2-8.6,9.1s-6.9,2.9-11.3,2.9
				c-3.9,0-7.4-0.8-10.4-2.5c-3-1.6-5.3-3.9-6.9-6.9s-2.4-6.2-2.4-9.6c0-5.2,1.4-10.3,4.2-15.2s6.7-8.8,11.6-11.7
				c4.9-2.8,9.8-4.3,14.8-4.3c2.3,0,4.9,0.6,7.8,1.7c1.3,0.5,2.2,0.7,2.8,0.7c0.6,0,1-0.1,1.5-0.4c0.4-0.2,1.1-0.9,2.1-2
				L427.5,1022.6L427.5,1022.6z"/>
			<path class="st2" d="M458.9,1040.5l-6.2,21.1c-0.9,3.1-1.4,5.1-1.4,5.9c0,0.4,0.1,0.7,0.2,0.9c0.1,0.2,0.4,0.3,0.6,0.3
				c0.4,0,0.9-0.2,1.3-0.5s1.7-1.8,3.6-4.4l1.1,0.8c-1.9,2.9-3.8,5.1-5.8,6.5c-1.3,0.9-2.5,1.3-3.7,1.3c-0.9,0-1.7-0.3-2.2-0.8
				s-0.8-1.2-0.8-2s0.1-1.9,0.4-3.2c0.4-1.7,1.5-5.5,3.3-11.4c-4,6.6-7.4,11.1-10.1,13.6s-5.2,3.7-7.5,3.7c-1.1,0-2-0.4-2.8-1.1
				s-1.1-1.7-1.1-2.9c0-1.8,0.5-4.5,1.5-8.1l3.1-10.9c0.7-2.6,1.1-4.2,1.1-4.9c0-0.3-0.1-0.5-0.3-0.7c-0.2-0.2-0.4-0.3-0.6-0.3
				c-0.5,0-1,0.2-1.5,0.5c-0.5,0.4-1.6,1.7-3.4,3.9l-1.1-0.7c1.8-2.8,3.7-4.8,5.6-6.1c1.5-1,2.9-1.5,4.2-1.5c0.9,0,1.6,0.3,2.2,0.8
				c0.6,0.6,0.8,1.3,0.8,2.2c0,1.3-0.5,3.6-1.4,6.8l-3.3,11.4c-0.9,3.1-1.4,5.1-1.4,5.9c0,0.4,0.1,0.8,0.4,1.1
				c0.3,0.3,0.7,0.4,1.2,0.4c0.8,0,1.8-0.4,3-1.2c1.3-0.8,2.9-2.5,5-5.2s3.8-5.2,5.2-7.5s2.8-6.1,4.3-11.2l0.8-2.7h5.7L458.9,1040.5
				L458.9,1040.5z"/>
			<path class="st2" d="M469.6,1058.4c-0.1,1.2-0.2,2.1-0.2,2.9c0,2.1,0.7,3.9,2.2,5.4s3.3,2.2,5.4,2.2c1.7,0,3.3-0.4,4.9-1.1
				s3.9-2.2,7-4.6l0.7,1c-5.6,5.5-10.9,8.3-16,8.3c-3.4,0-6-1.1-7.8-3.3c-1.7-2.2-2.6-4.6-2.6-7.2c0-3.5,1.1-7.1,3.3-10.8
				c2.2-3.7,4.9-6.5,8.2-8.6c3.3-2.1,6.6-3.1,10.1-3.1c2.5,0,4.3,0.5,5.5,1.5s1.8,2.2,1.8,3.6c0,2-0.8,3.8-2.3,5.6
				c-2.1,2.3-5.1,4.2-9.1,5.7C478.2,1057.1,474.4,1057.8,469.6,1058.4z M469.9,1056.6c3.5-0.4,6.3-1.1,8.5-2.1
				c2.9-1.3,5.1-2.8,6.5-4.6c1.5-1.8,2.2-3.5,2.2-5.2c0-1-0.3-1.8-0.9-2.4s-1.5-0.9-2.7-0.9c-2.4,0-5,1.3-7.6,3.8
				C473.2,1047.8,471.2,1051.6,469.9,1056.6z"/>
			<path class="st2" d="M509.2,1039.7l-4.7,16.1c4.4-6.6,7.8-10.9,10.1-13c2.4-2.1,4.6-3.1,6.8-3.1c1.2,0,2.1,0.4,2.9,1.2
				c0.8,0.8,1.1,1.8,1.1,3c0,1.4-0.3,3.3-1,5.7l-4.3,14.9c-0.5,1.7-0.7,2.8-0.7,3.2c0,0.3,0.1,0.6,0.3,0.8c0.2,0.2,0.4,0.3,0.6,0.3
				c0.3,0,0.6-0.1,1-0.4c1.3-1,2.6-2.5,4.1-4.5l1.1,0.7c-2.2,3.1-4.3,5.4-6.2,6.7c-1.4,0.9-2.6,1.4-3.7,1.4c-0.9,0-1.6-0.3-2.1-0.8
				s-0.8-1.2-0.8-2.1c0-1.1,0.4-3.1,1.2-5.8l4.1-14.2c0.5-1.8,0.7-3.1,0.7-4.1c0-0.5-0.2-0.8-0.5-1.1s-0.7-0.4-1.1-0.4
				c-0.6,0-1.4,0.3-2.4,0.8c-1.7,1.1-3.5,2.8-5.4,5.3c-1.9,2.4-3.9,5.6-6,9.3c-1.1,2-2,4.2-2.8,6.6l-1.8,5.8h-5.3l6.5-22.1
				c0.8-2.7,1.1-4.3,1.1-4.8s-0.2-1-0.6-1.4s-0.9-0.6-1.5-0.6c-0.3,0-0.8,0.1-1.5,0.2l-1.4,0.2l-0.2-1.3L509.2,1039.7z"/>
			<path class="st2" d="M548.2,1030.9l-2.8,9.6h5.6l-0.6,2.2h-5.5l-6.1,20.8c-0.6,2.3-1,3.7-1,4.4c0,0.4,0.1,0.7,0.3,0.9
				c0.2,0.2,0.4,0.3,0.7,0.3c0.6,0,1.4-0.4,2.3-1.3c0.6-0.5,1.9-1.9,3.8-4.4l1.1,0.9c-2.2,3.1-4.2,5.4-6.2,6.7
				c-1.3,0.9-2.7,1.3-4,1.3c-1,0-1.9-0.3-2.5-1s-1-1.5-1-2.5c0-1.3,0.4-3.2,1.1-5.8l5.9-20.5h-5.4l0.4-1.4c2.6-0.7,4.8-1.8,6.5-3.2
				s3.6-3.8,5.8-7.3h1.6L548.2,1030.9L548.2,1030.9z"/>
			<path class="st2" d="M583.5,1039.7l-6.9,24l-0.8,3.3c-0.1,0.3-0.1,0.5-0.1,0.7c0,0.4,0.1,0.7,0.4,1c0.2,0.2,0.4,0.3,0.7,0.3
				s0.7-0.2,1.2-0.6c0.9-0.7,2.1-2.1,3.7-4.2l1.2,0.8c-1.6,2.5-3.3,4.3-5,5.6c-1.7,1.3-3.3,1.9-4.8,1.9c-1,0-1.8-0.2-2.3-0.7
				s-0.8-1.2-0.8-2.2c0-1.2,0.3-2.7,0.8-4.6l0.7-2.7c-3.1,4-5.9,6.9-8.5,8.5c-1.9,1.1-3.7,1.7-5.5,1.7c-1.7,0-3.2-0.7-4.5-2.1
				c-1.2-1.4-1.9-3.4-1.9-5.9c0-3.8,1.1-7.7,3.4-11.9c2.2-4.2,5.1-7.5,8.6-10c2.7-2,5.2-3,7.6-3c1.5,0,2.7,0.4,3.6,1.1
				c1,0.8,1.7,2,2.2,3.8l1.3-4L583.5,1039.7z M570.9,1041.5c-1.5,0-3.1,0.7-4.8,2.2c-2.4,2-4.6,5-6.5,8.9s-2.8,7.5-2.8,10.7
				c0,1.6,0.4,2.8,1.2,3.8c0.8,0.9,1.7,1.4,2.8,1.4c2.5,0,5.3-1.9,8.3-5.7c4-5,6.1-10.2,6.1-15.5c0-2-0.4-3.4-1.2-4.4
				C573.3,1042,572.3,1041.5,570.9,1041.5z"/>
			<path class="st2" d="M607.6,1041.7l12.2-2l-5.1,17.2c4.1-7.1,7.9-12,11.2-14.8c1.9-1.6,3.5-2.4,4.7-2.4c0.8,0,1.4,0.2,1.8,0.7
				s0.7,1.1,0.7,2c0,1.6-0.4,3-1.2,4.4c-0.6,1.1-1.4,1.6-2.5,1.6c-0.5,0-1-0.2-1.4-0.5s-0.6-0.9-0.7-1.6c0-0.4-0.1-0.7-0.3-0.9
				c-0.2-0.2-0.4-0.3-0.7-0.3c-0.4,0-0.8,0.1-1.1,0.3c-0.6,0.3-1.6,1.2-2.8,2.8c-2,2.3-4.1,5.3-6.4,9c-1,1.6-1.8,3.3-2.5,5.3
				c-1,2.7-1.5,4.3-1.7,4.9l-1.1,4.4h-5.4l6.5-22c0.7-2.5,1.1-4.4,1.1-5.4c0-0.4-0.2-0.8-0.5-1.1c-0.5-0.4-1.1-0.6-1.8-0.6
				c-0.5,0-1.4,0.1-2.7,0.3L607.6,1041.7z"/>
			<path class="st2" d="M640.7,1058.4c-0.1,1.2-0.2,2.1-0.2,2.9c0,2.1,0.7,3.9,2.2,5.4s3.3,2.2,5.4,2.2c1.7,0,3.3-0.4,4.9-1.1
				s3.9-2.2,7-4.6l0.7,1c-5.6,5.5-10.9,8.3-16,8.3c-3.4,0-6-1.1-7.8-3.3c-1.7-2.2-2.6-4.6-2.6-7.2c0-3.5,1.1-7.1,3.3-10.8
				c2.2-3.7,4.9-6.5,8.2-8.6s6.6-3.1,10.1-3.1c2.5,0,4.3,0.5,5.5,1.5s1.8,2.2,1.8,3.6c0,2-0.8,3.8-2.3,5.6c-2.1,2.3-5.1,4.2-9.1,5.7
				C649.2,1057.1,645.5,1057.8,640.7,1058.4z M640.9,1056.6c3.5-0.4,6.3-1.1,8.5-2.1c2.9-1.3,5.1-2.8,6.5-4.6
				c1.5-1.8,2.2-3.5,2.2-5.2c0-1-0.3-1.8-0.9-2.4s-1.5-0.9-2.7-0.9c-2.4,0-5,1.3-7.6,3.8S642.2,1051.6,640.9,1056.6z"/>
			<path class="st2" d="M702,1041.9l-1,3.7h-6c0.4,1.3,0.7,2.5,0.7,3.6c0,3.1-1.3,5.9-4,8.3s-6.3,3.7-10.9,4
				c-2.5,0.8-4.4,1.7-5.6,2.7c-0.5,0.4-0.7,0.7-0.7,1.1c0,0.5,0.2,0.9,0.6,1.3c0.4,0.4,1.5,0.8,3.2,1.2l6.9,1.6
				c3.8,0.9,6.3,1.9,7.5,3.2c1.2,1.3,1.8,2.7,1.8,4.3c0,1.9-0.7,3.7-2.1,5.3s-3.5,2.9-6.3,3.8s-5.8,1.4-9.1,1.4
				c-2.9,0-5.6-0.4-8-1.1s-4.1-1.6-5.2-2.8c-1-1.2-1.6-2.4-1.6-3.6c0-1,0.3-2,1-3.1s1.5-2,2.5-2.7c0.6-0.5,2.4-1.5,5.4-3.2
				c-1.1-0.8-1.6-1.8-1.6-2.8c0-0.9,0.5-1.9,1.5-3s3-2.2,6.1-3.5c-2.6-0.5-4.7-1.6-6.2-3.3s-2.3-3.5-2.3-5.6c0-3.3,1.5-6.3,4.4-9
				s6.8-4,11.7-4c1.8,0,3.2,0.2,4.3,0.5s2.2,0.9,3.3,1.6L702,1041.9L702,1041.9z M672.8,1071.7c-1.9,0.9-3.3,2-4.3,3.4
				s-1.5,2.7-1.5,4c0,1.6,0.7,2.8,2.1,3.9c2.1,1.5,5,2.2,8.9,2.2c3.4,0,6.3-0.6,8.7-1.7s3.6-2.6,3.6-4.4c0-0.9-0.4-1.8-1.3-2.6
				c-0.9-0.8-2.6-1.5-5.2-2C682.4,1074.1,678.7,1073.2,672.8,1071.7z M689.7,1047.4c0-1.9-0.5-3.4-1.6-4.5s-2.4-1.6-4.1-1.6
				c-2.7,0-4.9,1.3-6.6,4c-1.7,2.7-2.6,5.5-2.6,8.4c0,1.8,0.5,3.3,1.6,4.5s2.4,1.7,4,1.7c1.3,0,2.5-0.3,3.6-1
				c1.2-0.7,2.2-1.6,2.9-2.8s1.4-2.7,1.9-4.6C689.5,1049.6,689.7,1048.3,689.7,1047.4z"/>
			<path class="st2" d="M704.2,1041.7l12.2-2l-5.1,17.2c4.1-7.1,7.9-12,11.2-14.8c1.9-1.6,3.5-2.4,4.7-2.4c0.8,0,1.4,0.2,1.8,0.7
				s0.7,1.1,0.7,2c0,1.6-0.4,3-1.2,4.4c-0.6,1.1-1.4,1.6-2.5,1.6c-0.5,0-1-0.2-1.4-0.5c-0.4-0.4-0.6-0.9-0.7-1.6
				c0-0.4-0.1-0.7-0.3-0.9c-0.2-0.2-0.4-0.3-0.7-0.3c-0.4,0-0.8,0.1-1.1,0.3c-0.6,0.3-1.6,1.2-2.8,2.8c-2,2.3-4.1,5.3-6.4,9
				c-1,1.6-1.8,3.3-2.5,5.3c-1,2.7-1.5,4.3-1.7,4.9l-1.1,4.4h-5.4l6.5-22c0.7-2.5,1.1-4.4,1.1-5.4c0-0.4-0.2-0.8-0.5-1.1
				c-0.5-0.4-1.1-0.6-1.8-0.6c-0.5,0-1.4,0.1-2.7,0.3L704.2,1041.7z"/>
			<path class="st2" d="M737.3,1058.4c-0.1,1.2-0.2,2.1-0.2,2.9c0,2.1,0.7,3.9,2.2,5.4s3.3,2.2,5.4,2.2c1.7,0,3.3-0.4,4.9-1.1
				s3.9-2.2,7-4.6l0.7,1c-5.6,5.5-10.9,8.3-16,8.3c-3.4,0-6-1.1-7.8-3.3c-1.7-2.2-2.6-4.6-2.6-7.2c0-3.5,1.1-7.1,3.3-10.8
				c2.2-3.7,4.9-6.5,8.2-8.6s6.6-3.1,10.1-3.1c2.5,0,4.3,0.5,5.5,1.5s1.8,2.2,1.8,3.6c0,2-0.8,3.8-2.3,5.6c-2.1,2.3-5.1,4.2-9.1,5.7
				C745.8,1057.1,742.1,1057.8,737.3,1058.4z M737.5,1056.6c3.5-0.4,6.3-1.1,8.5-2.1c2.9-1.3,5.1-2.8,6.5-4.6
				c1.5-1.8,2.2-3.5,2.2-5.2c0-1-0.3-1.8-0.9-2.4s-1.5-0.9-2.7-0.9c-2.4,0-5,1.3-7.6,3.8S738.8,1051.6,737.5,1056.6z"/>
			<path class="st2" d="M787.1,1039.7l-2.2,10.9h-1.3c-0.1-3.2-0.8-5.5-2-6.9s-2.8-2.2-4.6-2.2c-1.4,0-2.6,0.4-3.5,1.2
				s-1.3,1.8-1.3,2.9c0,0.8,0.2,1.5,0.5,2.2s1.1,1.7,2.3,3c3,3.4,5,5.9,5.9,7.6s1.3,3.3,1.3,4.8c0,2.5-1,4.6-3.1,6.5
				c-2,1.9-4.6,2.8-7.7,2.8c-1.7,0-3.7-0.4-5.9-1.2c-0.8-0.3-1.4-0.4-1.8-0.4c-1.1,0-1.9,0.5-2.4,1.6H760l2.2-11.5h1.3
				c0.1,3.6,0.8,6.1,2.2,7.6s3.2,2.2,5.5,2.2c1.8,0,3.2-0.5,4.3-1.5s1.6-2.2,1.6-3.7c0-0.9-0.2-1.8-0.6-2.6
				c-0.7-1.4-2.1-3.4-4.2-5.9c-2.1-2.5-3.5-4.4-4.1-5.6s-0.9-2.5-0.9-3.8c0-2.3,0.8-4.2,2.5-5.8s3.8-2.4,6.4-2.4
				c0.8,0,1.5,0.1,2.1,0.2c0.3,0.1,1.1,0.4,2.3,0.8s2,0.7,2.4,0.7c1,0,1.8-0.6,2.5-1.7h1.6V1039.7z"/>
			<path class="st2" d="M805.7,1039.7l-7,24.8c-0.5,1.7-0.7,2.7-0.7,3c0,0.4,0.1,0.7,0.3,0.9c0.2,0.2,0.5,0.4,0.8,0.4
				c0.4,0,0.8-0.2,1.3-0.6c1.3-1.1,2.7-2.6,4.1-4.5l1.2,0.8c-1.6,2.4-3.5,4.5-5.7,6.2c-1.6,1.2-3.1,1.8-4.6,1.8
				c-1,0-1.8-0.3-2.4-0.9c-0.6-0.6-0.9-1.3-0.9-2.2s0.3-2.3,0.9-4.4l4.6-15.9c0.7-2.6,1.1-4.2,1.1-4.9c0-0.5-0.2-0.9-0.5-1.3
				c-0.4-0.3-0.9-0.5-1.5-0.5c-0.5,0-1.6,0.1-3.3,0.4v-1.4L805.7,1039.7z M805.3,1025.6c1,0,1.8,0.3,2.5,1s1,1.5,1,2.5
				s-0.3,1.8-1,2.5s-1.5,1.1-2.5,1.1s-1.8-0.4-2.5-1.1s-1.1-1.5-1.1-2.5s0.3-1.8,1-2.5C803.4,1026,804.3,1025.6,805.3,1025.6z"/>
			<path class="st2" d="M810.7,1041.9l10.2-2.2c0.7,1.8,1.3,3.5,1.8,5.4c0.6,2.7,1.2,5.8,1.6,9.5c0.2,1.8,0.4,5.7,0.7,11.6
				c3-3.3,4.7-5.3,5.3-6c3.1-4.2,4.9-6.7,5.4-7.4c0.8-1.3,1.3-2.4,1.6-3.3c0.3-0.7,0.4-1.4,0.4-2s-0.5-1.3-1.6-2.1
				c-1.1-0.8-1.6-1.7-1.6-2.7c0-0.7,0.3-1.4,0.9-2c0.6-0.6,1.3-0.9,2.1-0.9c1,0,1.9,0.4,2.6,1.2c0.7,0.8,1.1,1.8,1.1,3
				s-0.2,2.4-0.6,3.5c-0.6,1.8-1.7,4-3.4,6.5s-4.4,6-8.1,10.4c-0.5,0.5-3.1,3.3-7.9,8.2H820c-0.6-14.9-1.8-24.2-3.6-27.9
				c-0.6-1.2-1.6-1.8-2.9-1.8c-0.6,0-1.4,0.1-2.5,0.4L810.7,1041.9z"/>
			<path class="st2" d="M875.3,1039.7l-6.9,24l-0.8,3.3c-0.1,0.3-0.1,0.5-0.1,0.7c0,0.4,0.1,0.7,0.4,1c0.2,0.2,0.4,0.3,0.7,0.3
				s0.7-0.2,1.2-0.6c0.9-0.7,2.1-2.1,3.7-4.2l1.2,0.8c-1.6,2.5-3.3,4.3-5,5.6c-1.7,1.3-3.3,1.9-4.8,1.9c-1,0-1.8-0.2-2.3-0.7
				s-0.8-1.2-0.8-2.2c0-1.2,0.3-2.7,0.8-4.6l0.7-2.7c-3.1,4-5.9,6.9-8.5,8.5c-1.9,1.1-3.7,1.7-5.5,1.7c-1.7,0-3.2-0.7-4.5-2.1
				c-1.2-1.4-1.9-3.4-1.9-5.9c0-3.8,1.1-7.7,3.4-11.9c2.2-4.2,5.1-7.5,8.6-10c2.7-2,5.2-3,7.6-3c1.5,0,2.7,0.4,3.6,1.1
				c1,0.8,1.7,2,2.2,3.8l1.3-4L875.3,1039.7z M862.7,1041.5c-1.5,0-3.1,0.7-4.8,2.2c-2.4,2-4.6,5-6.5,8.9s-2.8,7.5-2.8,10.7
				c0,1.6,0.4,2.8,1.2,3.8s1.7,1.4,2.8,1.4c2.5,0,5.3-1.9,8.3-5.7c4-5,6.1-10.2,6.1-15.5c0-2-0.4-3.4-1.2-4.4
				C865.1,1042,864.1,1041.5,862.7,1041.5z"/>
			<path class="st2" d="M279.9,1147.7l-2.5,8.2c2.6-3,4.9-5.1,6.9-6.4c2-1.2,4.1-1.8,6.2-1.8s3.9,0.8,5.4,2.5s2.2,3.8,2.2,6.5
				c0,5.2-2.1,10.5-6.3,15.8s-9.1,8-14.8,8c-1.2,0-2.2-0.1-3.1-0.4c-0.9-0.2-1.9-0.7-3-1.4l-2.6,9.1c-0.5,1.8-0.8,2.9-0.8,3.5
				s0.1,1,0.4,1.3c0.3,0.4,0.7,0.7,1.3,0.9c0.6,0.2,1.8,0.3,3.6,0.3l-0.3,1.3h-16.7l0.4-1.3c2.2-0.1,3.7-0.5,4.4-1.1
				c0.8-0.7,1.6-2.5,2.4-5.5l9-31c0.5-2,0.8-3.2,0.8-3.6c0-0.6-0.2-1.1-0.5-1.5s-0.9-0.5-1.7-0.5c-0.7,0-1.7,0.1-2.9,0.3v-1.4
				L279.9,1147.7z M271.6,1176c1.5,1.8,3.4,2.6,5.9,2.6c1.2,0,2.4-0.3,3.7-1s2.5-1.7,3.7-3s2.3-2.9,3.3-4.6s1.8-3.8,2.6-6.2
				c0.8-2.4,1.2-4.8,1.2-7.1c0-1.9-0.4-3.3-1.3-4.3s-1.9-1.5-3.1-1.5c-2.5,0-5.1,1.5-7.5,4.4c-2.5,2.9-4.3,6.3-5.5,10.3L271.6,1176z
				"/>
			<path class="st2" d="M334.1,1147.7l-6.9,24l-0.8,3.3c-0.1,0.3-0.1,0.5-0.1,0.7c0,0.4,0.1,0.7,0.4,1c0.2,0.2,0.4,0.3,0.7,0.3
				c0.3,0,0.7-0.2,1.2-0.6c0.9-0.7,2.1-2.1,3.7-4.2l1.2,0.8c-1.6,2.5-3.3,4.3-5,5.6c-1.7,1.3-3.3,1.9-4.8,1.9c-1,0-1.8-0.2-2.3-0.7
				s-0.8-1.2-0.8-2.2c0-1.2,0.3-2.7,0.8-4.6l0.7-2.7c-3.1,4-5.9,6.9-8.5,8.5c-1.9,1.1-3.7,1.7-5.5,1.7c-1.7,0-3.2-0.7-4.5-2.1
				c-1.2-1.4-1.9-3.4-1.9-5.9c0-3.8,1.1-7.7,3.4-11.9c2.2-4.2,5.1-7.5,8.6-10c2.7-2,5.2-3,7.6-3c1.5,0,2.7,0.4,3.6,1.1
				c1,0.8,1.7,2,2.2,3.8l1.3-4L334.1,1147.7z M321.4,1149.5c-1.5,0-3.1,0.7-4.8,2.2c-2.4,2-4.6,5-6.5,8.9s-2.8,7.5-2.8,10.7
				c0,1.6,0.4,2.8,1.2,3.8c0.8,0.9,1.7,1.4,2.8,1.4c2.5,0,5.3-1.9,8.3-5.7c4-5,6.1-10.2,6.1-15.5c0-2-0.4-3.4-1.2-4.4
				C323.8,1150,322.8,1149.5,321.4,1149.5z"/>
			<path class="st2" d="M340,1149.7l12.2-2l-5.1,17.2c4.1-7.1,7.9-12,11.2-14.8c1.9-1.6,3.5-2.4,4.7-2.4c0.8,0,1.4,0.2,1.8,0.7
				s0.7,1.1,0.7,2c0,1.6-0.4,3-1.2,4.4c-0.6,1.1-1.4,1.6-2.5,1.6c-0.5,0-1-0.2-1.4-0.5s-0.6-0.9-0.7-1.6c0-0.4-0.1-0.7-0.3-0.9
				c-0.2-0.2-0.4-0.3-0.7-0.3c-0.4,0-0.8,0.1-1.1,0.3c-0.6,0.3-1.6,1.2-2.8,2.8c-2,2.3-4.1,5.3-6.4,9c-1,1.6-1.8,3.3-2.5,5.3
				c-1,2.7-1.5,4.3-1.7,4.9l-1.1,4.4h-5.4l6.5-22c0.7-2.5,1.1-4.4,1.1-5.4c0-0.4-0.2-0.8-0.5-1.1c-0.5-0.4-1.1-0.6-1.8-0.6
				c-0.5,0-1.4,0.1-2.7,0.3L340,1149.7z"/>
			<path class="st2" d="M398.5,1147.7l-6.9,24l-0.8,3.3c-0.1,0.3-0.1,0.5-0.1,0.7c0,0.4,0.1,0.7,0.4,1c0.2,0.2,0.4,0.3,0.7,0.3
				c0.3,0,0.7-0.2,1.2-0.6c0.9-0.7,2.1-2.1,3.7-4.2l1.2,0.8c-1.6,2.5-3.3,4.3-5,5.6c-1.7,1.3-3.3,1.9-4.8,1.9c-1,0-1.8-0.2-2.3-0.7
				s-0.8-1.2-0.8-2.2c0-1.2,0.3-2.7,0.8-4.6l0.7-2.7c-3.1,4-5.9,6.9-8.5,8.5c-1.9,1.1-3.7,1.7-5.5,1.7c-1.7,0-3.2-0.7-4.5-2.1
				c-1.2-1.4-1.9-3.4-1.9-5.9c0-3.8,1.1-7.7,3.4-11.9c2.2-4.2,5.1-7.5,8.6-10c2.7-2,5.2-3,7.6-3c1.5,0,2.7,0.4,3.6,1.1
				c1,0.8,1.7,2,2.2,3.8l1.3-4L398.5,1147.7z M385.9,1149.5c-1.5,0-3.1,0.7-4.8,2.2c-2.4,2-4.6,5-6.5,8.9s-2.8,7.5-2.8,10.7
				c0,1.6,0.4,2.8,1.2,3.8c0.8,0.9,1.7,1.4,2.8,1.4c2.5,0,5.3-1.9,8.3-5.7c4-5,6.1-10.2,6.1-15.5c0-2-0.4-3.4-1.2-4.4
				C388.3,1150,387.2,1149.5,385.9,1149.5z"/>
			<path class="st2" d="M435.4,1147.7l-7,24.8c-0.5,1.7-0.7,2.7-0.7,3c0,0.4,0.1,0.7,0.3,0.9s0.5,0.4,0.8,0.4c0.4,0,0.8-0.2,1.3-0.6
				c1.3-1.1,2.7-2.6,4.1-4.5l1.2,0.8c-1.6,2.4-3.5,4.5-5.7,6.2c-1.6,1.2-3.1,1.8-4.6,1.8c-1,0-1.8-0.3-2.4-0.9s-0.9-1.3-0.9-2.2
				s0.3-2.3,0.9-4.4l4.6-15.9c0.7-2.6,1.1-4.2,1.1-4.9c0-0.5-0.2-0.9-0.5-1.3c-0.4-0.3-0.9-0.5-1.5-0.5c-0.5,0-1.6,0.1-3.3,0.4v-1.4
				L435.4,1147.7z M435,1133.6c1,0,1.8,0.3,2.5,1s1,1.5,1,2.5s-0.3,1.8-1,2.5s-1.5,1.1-2.5,1.1s-1.8-0.4-2.5-1.1s-1.1-1.5-1.1-2.5
				s0.3-1.8,1-2.5C433.2,1134,434,1133.6,435,1133.6z"/>
			<path class="st2" d="M454.9,1147.7l-4.7,16.1c4.4-6.6,7.8-10.9,10.1-13c2.4-2.1,4.6-3.1,6.8-3.1c1.2,0,2.1,0.4,2.9,1.2
				c0.8,0.8,1.1,1.8,1.1,3c0,1.4-0.3,3.3-1,5.7l-4.3,14.9c-0.5,1.7-0.7,2.8-0.7,3.2c0,0.3,0.1,0.6,0.3,0.8c0.2,0.2,0.4,0.3,0.6,0.3
				c0.3,0,0.6-0.1,1-0.4c1.3-1,2.6-2.5,4.1-4.5l1.1,0.7c-2.2,3.1-4.3,5.4-6.2,6.7c-1.4,0.9-2.6,1.4-3.7,1.4c-0.9,0-1.6-0.3-2.1-0.8
				s-0.8-1.2-0.8-2.1c0-1.1,0.4-3.1,1.2-5.8l4.1-14.2c0.5-1.8,0.7-3.1,0.7-4.1c0-0.5-0.2-0.8-0.5-1.1s-0.7-0.4-1.1-0.4
				c-0.6,0-1.4,0.3-2.4,0.8c-1.7,1.1-3.5,2.8-5.4,5.3c-1.9,2.4-3.9,5.6-6,9.3c-1.1,2-2,4.2-2.8,6.6l-1.8,5.8h-5.3l6.5-22.1
				c0.8-2.7,1.1-4.3,1.1-4.8s-0.2-1-0.6-1.4s-0.9-0.6-1.5-0.6c-0.3,0-0.8,0.1-1.5,0.2l-1.4,0.2l-0.2-1.3L454.9,1147.7z"/>
			<path class="st2" d="M491.8,1147.7l-7,24.8c-0.5,1.7-0.7,2.7-0.7,3c0,0.4,0.1,0.7,0.3,0.9s0.5,0.4,0.8,0.4c0.4,0,0.8-0.2,1.3-0.6
				c1.3-1.1,2.7-2.6,4.1-4.5l1.2,0.8c-1.6,2.4-3.5,4.5-5.7,6.2c-1.6,1.2-3.1,1.8-4.6,1.8c-1,0-1.8-0.3-2.4-0.9s-0.9-1.3-0.9-2.2
				s0.3-2.3,0.9-4.4l4.6-15.9c0.7-2.6,1.1-4.2,1.1-4.9c0-0.5-0.2-0.9-0.5-1.3c-0.4-0.3-0.9-0.5-1.5-0.5c-0.5,0-1.6,0.1-3.3,0.4v-1.4
				L491.8,1147.7z M491.3,1133.6c1,0,1.8,0.3,2.5,1s1,1.5,1,2.5s-0.3,1.8-1,2.5s-1.5,1.1-2.5,1.1s-1.8-0.4-2.5-1.1s-1.1-1.5-1.1-2.5
				s0.3-1.8,1-2.5C489.5,1134,490.3,1133.6,491.3,1133.6z"/>
			<path class="st2" d="M523.2,1172c-2.5,2.9-4.9,5.1-7.4,6.5s-5.1,2.1-7.9,2.1c-3.3,0-5.9-0.9-7.8-2.8s-2.8-4.4-2.8-7.6
				c0-3.6,1-7.2,3-10.7s4.7-6.3,8.1-8.5s6.7-3.3,10-3.3c2.6,0,4.5,0.5,5.8,1.6s1.9,2.4,1.9,4c0,1.5-0.5,2.7-1.4,3.7
				c-0.6,0.8-1.5,1.2-2.4,1.2c-0.7,0-1.3-0.2-1.8-0.7s-0.7-1.1-0.7-1.8c0-0.4,0.1-0.8,0.3-1.2s0.5-0.8,1.1-1.4
				c0.6-0.5,0.9-0.9,1-1.1s0.2-0.5,0.2-0.7c0-0.5-0.2-0.9-0.7-1.2c-0.7-0.5-1.7-0.7-2.9-0.7c-2.3,0-4.6,0.8-6.9,2.4
				c-2.3,1.6-4.2,3.9-5.8,6.9c-1.9,3.6-2.9,7.3-2.9,10.9c0,2.4,0.7,4.3,2.1,5.7c1.4,1.4,3.2,2.1,5.6,2.1c1.8,0,3.6-0.5,5.4-1.4
				c1.8-0.9,3.8-2.5,6-4.9L523.2,1172z"/>
			<path class="st2" d="M544.1,1147.7l-7,24.8c-0.5,1.7-0.7,2.7-0.7,3c0,0.4,0.1,0.7,0.3,0.9s0.5,0.4,0.8,0.4c0.4,0,0.8-0.2,1.3-0.6
				c1.3-1.1,2.7-2.6,4.1-4.5l1.2,0.8c-1.6,2.4-3.5,4.5-5.7,6.2c-1.6,1.2-3.1,1.8-4.6,1.8c-1,0-1.8-0.3-2.4-0.9
				c-0.6-0.6-0.9-1.3-0.9-2.2s0.3-2.3,0.9-4.4l4.6-15.9c0.7-2.6,1.1-4.2,1.1-4.9c0-0.5-0.2-0.9-0.5-1.3c-0.4-0.3-0.9-0.5-1.5-0.5
				c-0.5,0-1.6,0.1-3.3,0.4v-1.4L544.1,1147.7z M543.6,1133.6c1,0,1.8,0.3,2.5,1s1,1.5,1,2.5s-0.3,1.8-1,2.5s-1.5,1.1-2.5,1.1
				s-1.8-0.4-2.5-1.1s-1.1-1.5-1.1-2.5s0.3-1.8,1-2.5C541.8,1134,542.6,1133.6,543.6,1133.6z"/>
			<path class="st2" d="M581.6,1147.7l-6.9,24l-0.8,3.3c-0.1,0.3-0.1,0.5-0.1,0.7c0,0.4,0.1,0.7,0.4,1c0.2,0.2,0.4,0.3,0.7,0.3
				s0.7-0.2,1.2-0.6c0.9-0.7,2.1-2.1,3.7-4.2l1.2,0.8c-1.6,2.5-3.3,4.3-5,5.6c-1.7,1.3-3.3,1.9-4.8,1.9c-1,0-1.8-0.2-2.3-0.7
				s-0.8-1.2-0.8-2.2c0-1.2,0.3-2.7,0.8-4.6l0.7-2.7c-3.1,4-5.9,6.9-8.5,8.5c-1.9,1.1-3.7,1.7-5.5,1.7c-1.7,0-3.2-0.7-4.5-2.1
				c-1.2-1.4-1.9-3.4-1.9-5.9c0-3.8,1.1-7.7,3.4-11.9c2.2-4.2,5.1-7.5,8.6-10c2.7-2,5.2-3,7.6-3c1.5,0,2.7,0.4,3.6,1.1
				c1,0.8,1.7,2,2.2,3.8l1.3-4L581.6,1147.7z M568.9,1149.5c-1.5,0-3.1,0.7-4.8,2.2c-2.4,2-4.6,5-6.5,8.9s-2.8,7.5-2.8,10.7
				c0,1.6,0.4,2.8,1.2,3.8c0.8,0.9,1.7,1.4,2.8,1.4c2.5,0,5.3-1.9,8.3-5.7c4-5,6.1-10.2,6.1-15.5c0-2-0.4-3.4-1.2-4.4
				C571.3,1150,570.3,1149.5,568.9,1149.5z"/>
			<path class="st2" d="M587.5,1149.7l12.2-2l-5.1,17.2c4.1-7.1,7.9-12,11.2-14.8c1.9-1.6,3.5-2.4,4.7-2.4c0.8,0,1.4,0.2,1.8,0.7
				s0.7,1.1,0.7,2c0,1.6-0.4,3-1.2,4.4c-0.6,1.1-1.4,1.6-2.5,1.6c-0.5,0-1-0.2-1.4-0.5s-0.6-0.9-0.7-1.6c0-0.4-0.1-0.7-0.3-0.9
				c-0.2-0.2-0.4-0.3-0.7-0.3c-0.4,0-0.8,0.1-1.1,0.3c-0.6,0.3-1.6,1.2-2.8,2.8c-2,2.3-4.1,5.3-6.4,9c-1,1.6-1.8,3.3-2.5,5.3
				c-1,2.7-1.5,4.3-1.7,4.9l-1.1,4.4h-5.4l6.5-22c0.7-2.5,1.1-4.4,1.1-5.4c0-0.4-0.2-0.8-0.5-1.1c-0.5-0.4-1.1-0.6-1.8-0.6
				c-0.5,0-1.4,0.1-2.7,0.3L587.5,1149.7z"/>
			<path class="st2" d="M638.7,1166.4c-0.1,1.2-0.2,2.1-0.2,2.9c0,2.1,0.7,3.9,2.2,5.4s3.3,2.2,5.4,2.2c1.7,0,3.3-0.4,4.9-1.1
				s3.9-2.2,7-4.6l0.7,1c-5.6,5.5-10.9,8.3-16,8.3c-3.4,0-6-1.1-7.8-3.3c-1.7-2.2-2.6-4.6-2.6-7.2c0-3.5,1.1-7.1,3.3-10.8
				c2.2-3.7,4.9-6.5,8.2-8.6s6.6-3.1,10.1-3.1c2.5,0,4.3,0.5,5.5,1.5s1.8,2.2,1.8,3.6c0,2-0.8,3.8-2.3,5.6c-2.1,2.3-5.1,4.2-9.1,5.7
				C647.2,1165.1,643.5,1165.8,638.7,1166.4z M638.9,1164.6c3.5-0.4,6.3-1.1,8.5-2.1c2.9-1.3,5.1-2.8,6.5-4.6
				c1.5-1.8,2.2-3.5,2.2-5.2c0-1-0.3-1.8-0.9-2.4s-1.5-0.9-2.7-0.9c-2.4,0-5,1.3-7.6,3.8S640.2,1159.6,638.9,1164.6z"/>
			<path class="st2" d="M683.8,1129.4l-12.1,42.1c-0.6,2.1-0.9,3.4-0.9,3.9c0,0.4,0.1,0.6,0.3,0.9c0.2,0.2,0.5,0.4,0.8,0.4
				c0.5,0,1-0.2,1.5-0.6c1.2-1,2.5-2.5,3.9-4.5l1.1,1.1c-2.2,3.2-4.3,5.4-6.2,6.6c-1.4,0.9-2.7,1.3-4,1.3c-0.9,0-1.6-0.3-2.2-0.9
				s-0.9-1.3-0.9-2.1c0-0.8,0.4-2.6,1.1-5.2l9.6-33.2c0.8-2.7,1.1-4.3,1.1-4.7c0-0.6-0.2-1.1-0.7-1.4s-1.1-0.5-2.1-0.5
				c-0.5,0-1.3,0.1-2.5,0.3v-1.3L683.8,1129.4z"/>
			<path class="st2" d="M709.1,1166.4c-0.1,1.2-0.2,2.1-0.2,2.9c0,2.1,0.7,3.9,2.2,5.4s3.3,2.2,5.4,2.2c1.7,0,3.3-0.4,4.9-1.1
				s3.9-2.2,7-4.6l0.7,1c-5.6,5.5-10.9,8.3-16,8.3c-3.4,0-6-1.1-7.8-3.3c-1.7-2.2-2.6-4.6-2.6-7.2c0-3.5,1.1-7.1,3.3-10.8
				c2.2-3.7,4.9-6.5,8.2-8.6s6.6-3.1,10.1-3.1c2.5,0,4.3,0.5,5.5,1.5s1.8,2.2,1.8,3.6c0,2-0.8,3.8-2.3,5.6c-2.1,2.3-5.1,4.2-9.1,5.7
				C717.6,1165.1,713.9,1165.8,709.1,1166.4z M709.3,1164.6c3.5-0.4,6.3-1.1,8.5-2.1c2.9-1.3,5.1-2.8,6.5-4.6
				c1.5-1.8,2.2-3.5,2.2-5.2c0-1-0.3-1.8-0.9-2.4s-1.5-0.9-2.7-0.9c-2.4,0-5,1.3-7.6,3.8S710.6,1159.6,709.3,1164.6z"/>
			<path class="st2" d="M748.3,1147.7l-4.6,16c2.1-3.8,3.8-6.6,5.2-8.5c2.2-2.9,4.4-5.1,6.5-6.4c1.3-0.8,2.6-1.1,3.9-1.1
				c1.2,0,2.2,0.4,2.9,1.1s1.2,1.7,1.2,2.9s-0.3,2.7-0.8,4.5l-2.5,9c3.8-7.2,7.5-12.3,10.9-15.2c1.9-1.6,3.8-2.4,5.6-2.4
				c1.1,0,2,0.4,2.7,1.1s1.1,1.9,1.1,3.5c0,1.4-0.2,2.8-0.7,4.4l-3.9,13.8c-0.8,3-1.3,4.7-1.3,5s0.1,0.6,0.3,0.8
				c0.1,0.2,0.3,0.3,0.6,0.3s0.6-0.2,1.2-0.7c1.3-1.1,2.6-2.4,3.8-4.1l1.2,0.7c-0.6,0.9-1.6,2.2-3.1,3.9c-1.5,1.7-2.8,2.8-3.8,3.4
				s-2,0.9-2.9,0.9c-0.8,0-1.5-0.3-2.1-0.8s-0.8-1.2-0.8-2.1c0-1.1,0.5-3.4,1.5-6.9l3.2-11.3c0.7-2.6,1.1-4.1,1.1-4.4
				c0.1-0.5,0.1-0.9,0.1-1.3c0-0.6-0.1-1-0.4-1.4c-0.3-0.4-0.6-0.5-1-0.5c-1,0-2,0.5-3.1,1.5c-3.3,3-6.3,7.2-9.1,12.6
				c-1.9,3.6-3.6,8.1-5.2,13.7h-5.4l6.1-21.4c0.6-2.3,1-3.9,1-4.6c0-0.6-0.1-1.1-0.4-1.4c-0.2-0.3-0.6-0.5-0.9-0.5
				c-0.8,0-1.6,0.3-2.5,0.8c-1.4,0.9-3.2,2.9-5.4,5.9s-4,5.9-5.2,8.7c-0.6,1.3-2,5.4-4.2,12.5h-5.2l6.5-22.9l0.8-2.9
				c0.2-0.5,0.3-0.8,0.3-1c0-0.5-0.2-1-0.7-1.4s-1.1-0.6-1.8-0.6c-0.3,0-1.2,0.1-2.5,0.4l-0.3-1.3L748.3,1147.7z"/>
			<path class="st2" d="M805.9,1129.4l-7,24.5c2.3-2.4,4.2-4,5.9-4.9s3.5-1.3,5.3-1.3c2.6,0,4.7,0.9,6.4,2.6s2.5,4.1,2.5,7
				c0,3.8-1.1,7.6-3.3,11.3c-2.2,3.8-4.9,6.7-8.2,8.8c-3.3,2.1-6.5,3.1-9.7,3.1c-3.6,0-7.2-1.3-11-4l10.8-37
				c0.8-2.9,1.2-4.6,1.2-5.1c0-0.6-0.2-1.1-0.6-1.4c-0.5-0.4-1.3-0.7-2.4-0.7c-0.5,0-1.3,0.1-2.3,0.3v-1.4L805.9,1129.4z
				 M792.2,1176.9c2.4,1.3,4.5,1.9,6.2,1.9c2.1,0,4.2-0.8,6.5-2.3s4.2-4.1,5.8-7.7s2.5-7.3,2.5-10.9c0-2.2-0.5-3.9-1.6-5.1
				s-2.3-1.8-3.8-1.8c-2.2,0-4.4,0.9-6.5,2.6s-3.6,4.2-4.5,7.3L792.2,1176.9z"/>
			<path class="st2" d="M855.2,1147.7l-6.9,24l-0.8,3.3c-0.1,0.3-0.1,0.5-0.1,0.7c0,0.4,0.1,0.7,0.4,1c0.2,0.2,0.4,0.3,0.7,0.3
				s0.7-0.2,1.2-0.6c0.9-0.7,2.1-2.1,3.7-4.2l1.2,0.8c-1.6,2.5-3.3,4.3-5,5.6c-1.7,1.3-3.3,1.9-4.8,1.9c-1,0-1.8-0.2-2.3-0.7
				s-0.8-1.2-0.8-2.2c0-1.2,0.3-2.7,0.8-4.6l0.7-2.7c-3.1,4-5.9,6.9-8.5,8.5c-1.9,1.1-3.7,1.7-5.5,1.7c-1.7,0-3.2-0.7-4.5-2.1
				c-1.2-1.4-1.9-3.4-1.9-5.9c0-3.8,1.1-7.7,3.4-11.9c2.2-4.2,5.1-7.5,8.6-10c2.7-2,5.2-3,7.6-3c1.5,0,2.7,0.4,3.6,1.1
				c1,0.8,1.7,2,2.2,3.8l1.3-4L855.2,1147.7z M842.6,1149.5c-1.5,0-3.1,0.7-4.8,2.2c-2.4,2-4.6,5-6.5,8.9s-2.8,7.5-2.8,10.7
				c0,1.6,0.4,2.8,1.2,3.8s1.7,1.4,2.8,1.4c2.5,0,5.3-1.9,8.3-5.7c4-5,6.1-10.2,6.1-15.5c0-2-0.4-3.4-1.2-4.4
				C845,1150,843.9,1149.5,842.6,1149.5z"/>
			<path class="st2" d="M861.2,1149.7l12.2-2l-5.1,17.2c4.1-7.1,7.9-12,11.2-14.8c1.9-1.6,3.5-2.4,4.7-2.4c0.8,0,1.4,0.2,1.8,0.7
				s0.7,1.1,0.7,2c0,1.6-0.4,3-1.2,4.4c-0.6,1.1-1.4,1.6-2.5,1.6c-0.5,0-1-0.2-1.4-0.5c-0.4-0.4-0.6-0.9-0.7-1.6
				c0-0.4-0.1-0.7-0.3-0.9c-0.2-0.2-0.4-0.3-0.7-0.3c-0.4,0-0.8,0.1-1.1,0.3c-0.6,0.3-1.6,1.2-2.8,2.8c-2,2.3-4.1,5.3-6.4,9
				c-1,1.6-1.8,3.3-2.5,5.3c-1,2.7-1.5,4.3-1.7,4.9l-1.1,4.4h-5.4l6.5-22c0.7-2.5,1.1-4.4,1.1-5.4c0-0.4-0.2-0.8-0.5-1.1
				c-0.5-0.4-1.1-0.6-1.8-0.6c-0.5,0-1.4,0.1-2.7,0.3L861.2,1149.7z"/>
			<path class="st2" d="M920,1147.7l-11.6,40c-0.5,1.8-0.7,3-0.7,3.6s0.1,1,0.4,1.4c0.3,0.4,0.6,0.7,1.1,0.9
				c0.7,0.3,1.7,0.4,2.9,0.4l-0.4,1.3h-16.9l0.4-1.3c2.3-0.2,3.8-0.4,4.3-0.6c0.9-0.4,1.6-0.9,2.2-1.7c0.6-0.8,1.2-2.5,1.9-5
				l4.9-17.4c-3.1,4.5-6,7.7-8.7,9.6c-1.9,1.3-3.7,1.9-5.3,1.9c-2.4,0-4.2-1-5.4-2.9s-1.8-4-1.8-6.3c0-3.5,1.1-7.3,3.3-11.2
				c2.2-3.9,5.1-7.1,8.7-9.6c2.8-2,5.3-2.9,7.6-2.9c1.7,0,3,0.4,4.1,1.2s1.9,2.1,2.4,3.9l1.1-4L920,1147.7z M911.9,1154.6
				c0-1.5-0.5-2.7-1.4-3.7s-2.1-1.5-3.4-1.5c-2.9,0-5.9,2.5-9.1,7.4s-4.8,9.6-4.8,14c0,1.8,0.4,3.1,1.2,4s1.7,1.4,2.9,1.4
				c1.5,0,3.1-0.8,4.9-2.4c2.8-2.4,5.1-5.6,6.9-9.4S911.9,1157.4,911.9,1154.6z"/>
			<path class="st2" d="M955.9,1148.5l-6.2,21.1c-0.9,3.1-1.4,5.1-1.4,5.9c0,0.4,0.1,0.7,0.2,0.9s0.4,0.3,0.6,0.3
				c0.4,0,0.9-0.2,1.3-0.5c0.5-0.4,1.7-1.8,3.6-4.4l1.1,0.8c-1.9,2.9-3.8,5.1-5.8,6.5c-1.3,0.9-2.5,1.3-3.7,1.3
				c-0.9,0-1.7-0.3-2.2-0.8s-0.8-1.2-0.8-2s0.1-1.9,0.4-3.2c0.4-1.7,1.5-5.5,3.3-11.4c-4,6.6-7.4,11.1-10.1,13.6s-5.2,3.7-7.5,3.7
				c-1.1,0-2-0.4-2.8-1.1s-1.1-1.7-1.1-2.9c0-1.8,0.5-4.5,1.5-8.1l3.1-10.9c0.7-2.6,1.1-4.2,1.1-4.9c0-0.3-0.1-0.5-0.3-0.7
				s-0.4-0.3-0.6-0.3c-0.5,0-1,0.2-1.5,0.5s-1.6,1.7-3.4,3.9l-1.1-0.7c1.8-2.8,3.7-4.8,5.6-6.1c1.5-1,2.9-1.5,4.2-1.5
				c0.9,0,1.6,0.3,2.2,0.8s0.8,1.3,0.8,2.2c0,1.3-0.5,3.6-1.4,6.8l-3.3,11.4c-0.9,3.1-1.4,5.1-1.4,5.9c0,0.4,0.1,0.8,0.4,1.1
				s0.7,0.4,1.2,0.4c0.8,0,1.8-0.4,3-1.2c1.3-0.8,2.9-2.5,5-5.2s3.8-5.2,5.2-7.5s2.8-6.1,4.3-11.2l0.8-2.7h5.7L955.9,1148.5
				L955.9,1148.5z"/>
			<path class="st2" d="M966.6,1166.4c-0.1,1.2-0.2,2.1-0.2,2.9c0,2.1,0.7,3.9,2.2,5.4s3.3,2.2,5.4,2.2c1.7,0,3.3-0.4,4.9-1.1
				s3.9-2.2,7-4.6l0.7,1c-5.6,5.5-10.9,8.3-16,8.3c-3.4,0-6-1.1-7.8-3.3c-1.7-2.2-2.6-4.6-2.6-7.2c0-3.5,1.1-7.1,3.3-10.8
				c2.2-3.7,4.9-6.5,8.2-8.6s6.6-3.1,10.1-3.1c2.5,0,4.3,0.5,5.5,1.5s1.8,2.2,1.8,3.6c0,2-0.8,3.8-2.3,5.6c-2.1,2.3-5.1,4.2-9.1,5.7
				C975.2,1165.1,971.4,1165.8,966.6,1166.4z M966.9,1164.6c3.5-0.4,6.3-1.1,8.5-2.1c2.9-1.3,5.1-2.8,6.5-4.6
				c1.5-1.8,2.2-3.5,2.2-5.2c0-1-0.3-1.8-0.9-2.4s-1.5-0.9-2.7-0.9c-2.4,0-5,1.3-7.6,3.8S968.2,1159.6,966.9,1164.6z"/>
			<path class="st2" d="M424.6,1255.7l-6.9,24l-0.8,3.3c-0.1,0.3-0.1,0.5-0.1,0.7c0,0.4,0.1,0.7,0.4,1c0.2,0.2,0.4,0.3,0.7,0.3
				c0.3,0,0.7-0.2,1.2-0.6c0.9-0.7,2.1-2.1,3.7-4.2l1.2,0.8c-1.6,2.5-3.3,4.3-5,5.6c-1.7,1.3-3.3,1.9-4.8,1.9c-1,0-1.8-0.2-2.3-0.7
				s-0.8-1.2-0.8-2.2c0-1.2,0.3-2.7,0.8-4.6l0.7-2.7c-3.1,4-5.9,6.9-8.5,8.5c-1.9,1.1-3.7,1.7-5.5,1.7c-1.7,0-3.2-0.7-4.5-2.1
				c-1.2-1.4-1.9-3.4-1.9-5.9c0-3.8,1.1-7.7,3.4-11.9c2.2-4.2,5.1-7.5,8.6-10c2.7-2,5.2-3,7.6-3c1.5,0,2.7,0.4,3.6,1.1
				c1,0.8,1.7,2,2.2,3.8l1.3-4L424.6,1255.7z M412,1257.5c-1.5,0-3.1,0.7-4.8,2.2c-2.4,2-4.6,5-6.5,8.9s-2.8,7.5-2.8,10.7
				c0,1.6,0.4,2.8,1.2,3.8c0.8,0.9,1.7,1.4,2.8,1.4c2.5,0,5.3-1.9,8.3-5.7c4-5,6.1-10.2,6.1-15.5c0-2-0.4-3.4-1.2-4.4
				C414.4,1258,413.3,1257.5,412,1257.5z"/>
			<path class="st2" d="M466.4,1237.4l-12.1,42.1c-0.6,2.1-0.9,3.4-0.9,3.9c0,0.4,0.1,0.6,0.3,0.9s0.5,0.4,0.8,0.4
				c0.5,0,1-0.2,1.5-0.6c1.2-1,2.5-2.5,3.9-4.5l1.1,1.1c-2.2,3.2-4.3,5.4-6.2,6.6c-1.4,0.9-2.7,1.3-4,1.3c-0.9,0-1.6-0.3-2.2-0.9
				s-0.9-1.3-0.9-2.1c0-0.8,0.4-2.6,1.1-5.2l9.6-33.2c0.8-2.7,1.1-4.3,1.1-4.7c0-0.6-0.2-1.1-0.7-1.4c-0.5-0.4-1.1-0.5-2.1-0.5
				c-0.5,0-1.3,0.1-2.5,0.3v-1.3L466.4,1237.4z"/>
			<path class="st2" d="M499,1255.7l-6.9,24l-0.8,3.3c-0.1,0.3-0.1,0.5-0.1,0.7c0,0.4,0.1,0.7,0.4,1c0.2,0.2,0.4,0.3,0.7,0.3
				c0.3,0,0.7-0.2,1.2-0.6c0.9-0.7,2.1-2.1,3.7-4.2l1.2,0.8c-1.6,2.5-3.3,4.3-5,5.6c-1.7,1.3-3.3,1.9-4.8,1.9c-1,0-1.8-0.2-2.3-0.7
				s-0.8-1.2-0.8-2.2c0-1.2,0.3-2.7,0.8-4.6l0.7-2.7c-3.1,4-5.9,6.9-8.5,8.5c-1.9,1.1-3.7,1.7-5.5,1.7c-1.7,0-3.2-0.7-4.5-2.1
				c-1.2-1.4-1.9-3.4-1.9-5.9c0-3.8,1.1-7.7,3.4-11.9c2.2-4.2,5.1-7.5,8.6-10c2.7-2,5.2-3,7.6-3c1.5,0,2.7,0.4,3.6,1.1
				c1,0.8,1.7,2,2.2,3.8l1.3-4L499,1255.7z M486.4,1257.5c-1.5,0-3.1,0.7-4.8,2.2c-2.4,2-4.6,5-6.5,8.9s-2.8,7.5-2.8,10.7
				c0,1.6,0.4,2.8,1.2,3.8c0.8,0.9,1.7,1.4,2.8,1.4c2.5,0,5.3-1.9,8.3-5.7c4-5,6.1-10.2,6.1-15.5c0-2-0.4-3.4-1.2-4.4
				C488.8,1258,487.8,1257.5,486.4,1257.5z"/>
			<path class="st2" d="M535,1255.7l-4.6,16c2.1-3.8,3.8-6.6,5.2-8.5c2.2-2.9,4.4-5.1,6.5-6.4c1.3-0.8,2.6-1.1,3.9-1.1
				c1.2,0,2.2,0.4,2.9,1.1s1.2,1.7,1.2,2.9s-0.3,2.7-0.8,4.5l-2.5,9c3.8-7.2,7.5-12.3,10.9-15.2c1.9-1.6,3.8-2.4,5.6-2.4
				c1.1,0,2,0.4,2.7,1.1s1.1,1.9,1.1,3.5c0,1.4-0.2,2.8-0.7,4.4l-3.9,13.8c-0.9,3-1.3,4.7-1.3,5s0.1,0.6,0.3,0.8
				c0.1,0.2,0.3,0.3,0.6,0.3c0.2,0,0.6-0.2,1.2-0.7c1.3-1.1,2.6-2.4,3.8-4.1l1.2,0.7c-0.6,0.9-1.6,2.2-3.1,3.9
				c-1.5,1.7-2.8,2.8-3.8,3.4c-1.1,0.6-2,0.9-2.9,0.9s-1.5-0.3-2.1-0.8c-0.5-0.6-0.8-1.2-0.8-2.1c0-1.1,0.5-3.4,1.5-6.9l3.2-11.3
				c0.7-2.6,1.1-4.1,1.1-4.4c0.1-0.5,0.1-0.9,0.1-1.3c0-0.6-0.1-1-0.4-1.4c-0.3-0.4-0.6-0.5-1-0.5c-1,0-2,0.5-3.1,1.5
				c-3.3,3-6.3,7.2-9.1,12.6c-1.9,3.6-3.6,8.1-5.2,13.7h-5.4l6.1-21.4c0.6-2.3,1-3.9,1-4.6c0-0.6-0.1-1.1-0.4-1.4
				c-0.2-0.3-0.6-0.5-0.9-0.5c-0.8,0-1.6,0.3-2.5,0.8c-1.4,0.9-3.2,2.9-5.4,5.9s-4,5.9-5.2,8.7c-0.6,1.3-2,5.4-4.2,12.5h-5.2
				l6.5-22.9l0.8-2.9c0.2-0.5,0.3-0.8,0.3-1c0-0.5-0.2-1-0.7-1.4s-1.1-0.6-1.8-0.6c-0.3,0-1.2,0.1-2.5,0.4l-0.3-1.3L535,1255.7z"/>
			<path class="st2" d="M580.3,1274.4c-0.1,1.2-0.2,2.1-0.2,2.9c0,2.1,0.7,3.9,2.2,5.4s3.3,2.2,5.4,2.2c1.7,0,3.3-0.4,4.9-1.1
				c1.6-0.7,3.9-2.2,7-4.6l0.7,1c-5.6,5.5-10.9,8.3-16,8.3c-3.4,0-6-1.1-7.8-3.3c-1.7-2.2-2.6-4.6-2.6-7.2c0-3.5,1.1-7.1,3.3-10.8
				c2.2-3.7,4.9-6.5,8.2-8.6s6.6-3.1,10.1-3.1c2.5,0,4.3,0.5,5.5,1.5s1.8,2.2,1.8,3.6c0,2-0.8,3.8-2.3,5.6c-2.1,2.3-5.1,4.2-9.1,5.7
				C588.8,1273.1,585.1,1273.8,580.3,1274.4z M580.5,1272.6c3.5-0.4,6.3-1.1,8.5-2.1c2.9-1.3,5.1-2.8,6.5-4.6
				c1.5-1.8,2.2-3.5,2.2-5.2c0-1-0.3-1.8-0.9-2.4c-0.6-0.6-1.5-0.9-2.7-0.9c-2.4,0-5,1.3-7.6,3.8
				C583.8,1263.8,581.8,1267.6,580.5,1272.6z"/>
			<path class="st2" d="M621,1255.7l-9.1,31.7c-1.6,5.7-3.9,9.7-6.7,12.2s-5.9,3.8-9.2,3.8c-1.5,0-2.6-0.3-3.4-1
				c-0.8-0.7-1.1-1.5-1.1-2.4c0-0.7,0.3-1.4,0.9-1.9s1.2-0.8,2-0.8c0.7,0,1.3,0.2,1.8,0.7c0.4,0.4,0.6,0.8,0.6,1.2
				c0,0.6-0.3,1.1-0.9,1.6c-0.3,0.3-0.5,0.5-0.5,0.7l0.1,0.2c0.1,0.1,0.2,0.2,0.3,0.2s0.4,0.1,0.6,0.1c1.9,0,3.6-0.6,4.9-1.8
				c1.3-1.2,2.5-3.6,3.6-7.3l8-27.2c0.8-2.7,1.1-4.1,1.1-4.4c0-0.6-0.2-1.1-0.7-1.5c-0.5-0.5-1.1-0.7-1.9-0.7c-0.3,0-0.6,0-1.1,0.1
				c-0.3,0-0.8,0.1-1.4,0.2v-1.3L621,1255.7z M620.4,1241.7c1,0,1.8,0.3,2.5,1s1.1,1.5,1.1,2.5s-0.4,1.8-1.1,2.5s-1.5,1-2.5,1
				s-1.8-0.3-2.5-1s-1.1-1.5-1.1-2.5s0.4-1.8,1.1-2.5S619.4,1241.7,620.4,1241.7z"/>
			<path class="st2" d="M657.4,1266.7c0,3.5-0.9,7.1-2.8,10.5c-1.9,3.5-4.5,6.2-7.8,8.2s-6.6,3-9.8,3s-5.9-1-7.9-3.1
				c-2.1-2.1-3.1-4.7-3.1-8c0-3.5,1-7,3-10.5s4.7-6.2,8-8.3c3.3-2,6.6-3.1,9.7-3.1c3.1,0,5.7,1,7.7,3.1
				C656.4,1260.8,657.4,1263.5,657.4,1266.7z M651.6,1264.3c0-2.2-0.5-3.9-1.6-5.1s-2.5-1.8-4.2-1.8c-3.5,0-6.6,2.5-9.6,7.4
				c-2.9,5-4.4,9.9-4.4,14.8c0,2.2,0.6,3.9,1.7,5.2s2.6,1.8,4.3,1.8c3.3,0,6.5-2.5,9.4-7.4C650.1,1274.4,651.6,1269.4,651.6,1264.3z
				"/>
			<path class="st2" d="M663.9,1257.7l12.2-2l-5.1,17.2c4.1-7.1,7.9-12,11.2-14.8c1.9-1.6,3.5-2.4,4.7-2.4c0.8,0,1.4,0.2,1.8,0.7
				s0.7,1.1,0.7,2c0,1.6-0.4,3-1.2,4.4c-0.6,1.1-1.4,1.6-2.5,1.6c-0.5,0-1-0.2-1.4-0.5c-0.4-0.4-0.6-0.9-0.7-1.6
				c0-0.4-0.1-0.7-0.3-0.9c-0.2-0.2-0.4-0.3-0.7-0.3c-0.4,0-0.8,0.1-1.1,0.3c-0.6,0.3-1.6,1.2-2.8,2.8c-2,2.3-4.1,5.3-6.4,9
				c-1,1.6-1.8,3.3-2.5,5.3c-1,2.7-1.5,4.3-1.7,4.9l-1.1,4.4h-5.4l6.5-22c0.7-2.5,1.1-4.4,1.1-5.4c0-0.4-0.2-0.8-0.5-1.1
				c-0.5-0.4-1.1-0.6-1.8-0.6c-0.5,0-1.4,0.1-2.7,0.3L663.9,1257.7z"/>
			<path class="st2" d="M728,1256.5l-0.7,2.3h-5.1l-3.9,15.5c-1.7,6.8-3.5,12.1-5.2,15.8c-2.5,5.2-5.2,8.9-8,10.9
				c-2.2,1.6-4.3,2.3-6.5,2.3c-1.4,0-2.6-0.4-3.6-1.3c-0.7-0.6-1.1-1.3-1.1-2.3c0-0.8,0.3-1.4,0.9-2s1.3-0.8,2.2-0.8
				c0.6,0,1.2,0.2,1.6,0.6c0.4,0.4,0.7,0.9,0.7,1.4s-0.2,1-0.7,1.5c-0.4,0.3-0.6,0.6-0.6,0.7c0,0.2,0.1,0.4,0.3,0.5
				c0.2,0.2,0.5,0.3,1,0.3c1,0,2.1-0.3,3.2-1s2.1-1.6,3-2.9s1.7-3.1,2.5-5.4c0.3-1,1.2-4.3,2.6-9.8l6.2-24h-6.2l0.5-2.3
				c2,0,3.3-0.1,4.1-0.4s1.5-0.8,2.1-1.6s1.5-2.2,2.5-4.3c1.4-2.8,2.7-5,4-6.5c1.7-2.1,3.6-3.7,5.5-4.7s3.8-1.6,5.4-1.6
				c1.8,0,3.2,0.5,4.3,1.4s1.6,1.9,1.6,2.9c0,0.8-0.3,1.6-0.8,2.1s-1.2,0.8-2.1,0.8c-0.7,0-1.3-0.2-1.8-0.6s-0.7-0.9-0.7-1.5
				c0-0.4,0.2-0.8,0.5-1.4s0.5-0.9,0.5-1.1c0-0.3-0.1-0.6-0.3-0.7c-0.3-0.2-0.7-0.4-1.3-0.4c-1.5,0-2.8,0.5-4,1.4
				c-1.6,1.3-3,3.2-4.3,5.9c-0.6,1.4-1.8,4.8-3.5,10.4h5.2L728,1256.5L728,1256.5z"/>
			<path class="st2" d="M743.3,1255.7l-7,24.8c-0.5,1.7-0.7,2.7-0.7,3c0,0.4,0.1,0.7,0.3,0.9c0.2,0.2,0.5,0.4,0.8,0.4
				c0.4,0,0.8-0.2,1.3-0.6c1.3-1.1,2.7-2.6,4.1-4.5l1.2,0.8c-1.6,2.4-3.5,4.5-5.7,6.2c-1.6,1.2-3.1,1.8-4.6,1.8
				c-1,0-1.8-0.3-2.4-0.9c-0.6-0.6-0.9-1.3-0.9-2.2s0.3-2.3,0.9-4.4l4.6-15.9c0.7-2.6,1.1-4.2,1.1-4.9c0-0.5-0.2-0.9-0.5-1.3
				c-0.4-0.3-0.9-0.5-1.5-0.5c-0.5,0-1.6,0.1-3.3,0.4v-1.4L743.3,1255.7z M742.8,1241.6c1,0,1.8,0.3,2.5,1s1,1.5,1,2.5
				s-0.3,1.8-1,2.5s-1.5,1.1-2.5,1.1s-1.8-0.4-2.5-1.1s-1.1-1.5-1.1-2.5s0.3-1.8,1-2.5C741,1242,741.8,1241.6,742.8,1241.6z"/>
			<path class="st2" d="M755.4,1274.4c-0.1,1.2-0.2,2.1-0.2,2.9c0,2.1,0.7,3.9,2.2,5.4s3.3,2.2,5.4,2.2c1.7,0,3.3-0.4,4.9-1.1
				s3.9-2.2,7-4.6l0.7,1c-5.6,5.5-10.9,8.3-16,8.3c-3.4,0-6-1.1-7.8-3.3c-1.7-2.2-2.6-4.6-2.6-7.2c0-3.5,1.1-7.1,3.3-10.8
				c2.2-3.7,4.9-6.5,8.2-8.6s6.6-3.1,10.1-3.1c2.5,0,4.3,0.5,5.5,1.5s1.8,2.2,1.8,3.6c0,2-0.8,3.8-2.3,5.6c-2.1,2.3-5.1,4.2-9.1,5.7
				C763.9,1273.1,760.2,1273.8,755.4,1274.4z M755.6,1272.6c3.5-0.4,6.3-1.1,8.5-2.1c2.9-1.3,5.1-2.8,6.5-4.6
				c1.5-1.8,2.2-3.5,2.2-5.2c0-1-0.3-1.8-0.9-2.4s-1.5-0.9-2.7-0.9c-2.4,0-5,1.3-7.6,3.8S756.9,1267.6,755.6,1272.6z"/>
			<path class="st2" d="M805.2,1255.7l-2.2,10.9h-1.3c-0.1-3.2-0.8-5.5-2-6.9s-2.8-2.2-4.6-2.2c-1.4,0-2.6,0.4-3.5,1.2
				s-1.3,1.8-1.3,2.9c0,0.8,0.2,1.5,0.5,2.2s1.1,1.7,2.3,3c3,3.4,5,5.9,5.9,7.6s1.3,3.3,1.3,4.8c0,2.5-1,4.6-3.1,6.5
				c-2,1.9-4.6,2.8-7.7,2.8c-1.7,0-3.7-0.4-5.9-1.2c-0.8-0.3-1.4-0.4-1.8-0.4c-1.1,0-1.9,0.5-2.4,1.6h-1.3l2.2-11.5h1.3
				c0.1,3.6,0.8,6.1,2.2,7.6s3.2,2.2,5.5,2.2c1.8,0,3.2-0.5,4.3-1.5s1.6-2.2,1.6-3.7c0-0.9-0.2-1.8-0.6-2.6
				c-0.7-1.4-2.1-3.4-4.2-5.9c-2.1-2.5-3.5-4.4-4.1-5.6s-0.9-2.5-0.9-3.8c0-2.3,0.8-4.2,2.5-5.8s3.8-2.4,6.4-2.4
				c0.8,0,1.5,0.1,2.1,0.2c0.3,0.1,1.1,0.4,2.3,0.8s2,0.7,2.4,0.7c1,0,1.8-0.6,2.5-1.7h1.6V1255.7z"/>
			<path class="st2" d="M825.9,1246.9l-2.8,9.6h5.6l-0.6,2.2h-5.5l-6.1,20.8c-0.6,2.3-1,3.7-1,4.4c0,0.4,0.1,0.7,0.3,0.9
				c0.2,0.2,0.4,0.3,0.7,0.3c0.6,0,1.4-0.4,2.3-1.3c0.6-0.5,1.9-1.9,3.8-4.4l1.1,0.9c-2.2,3.1-4.2,5.4-6.2,6.7
				c-1.3,0.9-2.7,1.3-4,1.3c-1,0-1.9-0.3-2.5-1c-0.7-0.6-1-1.5-1-2.5c0-1.3,0.4-3.2,1.1-5.8l5.9-20.5h-5.4l0.4-1.4
				c2.6-0.7,4.8-1.8,6.5-3.2c1.7-1.4,3.6-3.8,5.8-7.3h1.6L825.9,1246.9L825.9,1246.9z"/>
			<path class="st2" d="M861.3,1255.7l-6.9,24l-0.8,3.3c-0.1,0.3-0.1,0.5-0.1,0.7c0,0.4,0.1,0.7,0.4,1c0.2,0.2,0.4,0.3,0.7,0.3
				s0.7-0.2,1.2-0.6c0.9-0.7,2.1-2.1,3.7-4.2l1.2,0.8c-1.6,2.5-3.3,4.3-5,5.6c-1.7,1.3-3.3,1.9-4.8,1.9c-1,0-1.8-0.2-2.3-0.7
				s-0.8-1.2-0.8-2.2c0-1.2,0.3-2.7,0.8-4.6l0.7-2.7c-3.1,4-5.9,6.9-8.5,8.5c-1.9,1.1-3.7,1.7-5.5,1.7c-1.7,0-3.2-0.7-4.5-2.1
				c-1.2-1.4-1.9-3.4-1.9-5.9c0-3.8,1.1-7.7,3.4-11.9c2.2-4.2,5.1-7.5,8.6-10c2.7-2,5.2-3,7.6-3c1.5,0,2.7,0.4,3.6,1.1
				c1,0.8,1.7,2,2.2,3.8l1.3-4L861.3,1255.7z M848.6,1257.5c-1.5,0-3.1,0.7-4.8,2.2c-2.4,2-4.6,5-6.5,8.9s-2.8,7.5-2.8,10.7
				c0,1.6,0.4,2.8,1.2,3.8s1.7,1.4,2.8,1.4c2.5,0,5.3-1.9,8.3-5.7c4-5,6.1-10.2,6.1-15.5c0-2-0.4-3.4-1.2-4.4
				C851.1,1258,850,1257.5,848.6,1257.5z"/>
		</g>
	</g>
</g>
<g>
	<g>
		<text transform="matrix(1 0 0 1 1573.2731 1071.6948)" class="st2" style="font-family:'Vijaya'; font-size:90px;">Cuenta regresiva</text>
		<text transform="matrix(1 0 0 1 1460.5731 1179.6948)" class="st2" style="font-family:'Vijaya'; font-size:90px;">para iniciar el embarque</text>
		<text transform="matrix(1 0 0 1 1587.373 1287.6948)" class="st2" style="font-family:'Vijaya'; font-size:90px;">a la mejor fiesta</text>
	</g>
</g>
<path id="XMLID_147_" class="st3" d="M637.2,871.2c-0.8-5.6-1.5-11.1-2.3-16.7c-0.9-6.8-1.9-13.6-2.8-20.5c-1.2-8.3-2.3-16.7-3.5-25
	c-0.1-0.8,0.1-1.5,0.7-2.1c2.5-2.6,5-5.2,7.6-7.8c1.5-1.6,3-3.2,4.5-4.7c2.1-2.2,4.2-4.3,6.2-6.6c0.7-0.7,1.3-1.5,1.9-2.4
	c1.8-2.6,2.8-5.4,3.2-8.5c0.2-1.3,0.3-2.5-0.4-3.7c-0.2-0.2-0.5-0.4-0.7-0.7c-1.4-0.7-2.7-0.4-4.1-0.2c-3,0.5-5.7,1.7-8.1,3.5
	c-0.7,0.6-1.5,1.2-2.1,1.8c-3.8,3.9-7.5,7.7-11.3,11.6c-2,2-3.9,4-5.8,6.1c-0.5,0.5-0.9,1-1.4,1.5s-1.2,0.7-2,0.6
	c-3.2-0.3-6.4-0.6-9.5-1c-8.2-0.8-16.4-1.7-24.6-2.5c-7.5-0.8-15-1.5-22.4-2.3c-1.9-0.2-3.9-0.4-5.8-0.6c-0.5-0.1-1,0.2-1.4,0.4
	c-2.6,2.7-5.3,5.5-7.9,8.2c3.5,1.5,6.9,3,10.4,4.4c12.9,5.5,25.8,11,38.7,16.5c0.4,0.2,0.8,0.3,1.1,0.5c-0.1,0.1-0.1,0.1-0.1,0.2
	c-3.7,3.9-7.4,7.7-11.1,11.6c-1.1,1.1-2.2,2.3-3,3.7c-0.3,0.6-0.6,1.3-0.9,2c-0.3-0.1-0.7-0.1-1-0.2c-6-1.1-12-2.1-17.9-3.2
	c-0.7-0.1-1.3-0.2-2-0.3c-0.3,0-0.6,0-0.8,0.2c-0.6,0.6-1.2,1.2-1.8,1.8c-1.5,1.5-2.9,3-4.4,4.5c-0.1,0.1-0.1,0.2-0.2,0.3
	c0.5,0.2,1,0.5,1.4,0.7c7.2,2.9,14.3,5.8,21.5,8.8c0.8,0.3,1.4,0.9,1.8,1.7c3.1,6.8,6.2,13.6,9.3,20.4c0.3,0.7,0.7,1.4,1,2.2
	c0.1-0.1,0.2-0.2,0.2-0.2c1.9-2,3.8-3.9,5.7-5.9c0.6-0.6,0.8-1.3,0.6-2.2c-1.4-6.2-2.7-12.4-4.1-18.6c-0.1-0.4-0.2-0.9-0.3-1.3
	c0.3,0.3,0.5,0,0.7-0.2c0.3-0.2,0.6-0.4,0.9-0.7c1-0.8,2-1.6,2.9-2.4c1.3-1.2,2.5-2.4,3.7-3.6c1.9-1.9,3.7-3.8,5.5-5.8
	c1-1,1.9-2,2.9-3c0.1-0.1,0.1-0.1,0.2-0.2c7.8,16.5,15.5,32.9,23.3,49.4c0.1-0.1,0.2-0.2,0.3-0.3c2.5-2.6,5-5.2,7.6-7.8
	C637.1,872.3,637.2,871.8,637.2,871.2z"/>
<path class="st0" d="M1725.6,440.9c-17.7-4-36.9,3.8-49,20c-12.1-16.2-31.3-24.3-49-20c-19.5,4.5-32.3,21.5-32.8,43.2
	c-1,61.1,80.1,111.1,80.8,111.4c0.3,0,0.5,0.3,1,0.3c0.3,0,0.5,0,1-0.3c0.8-0.3,81.8-50.5,80.8-111.4
	C1757.9,462.3,1745.1,445.4,1725.6,440.9z"/>
<path class="st1" d="M1743.3,493.9c0-0.4,0-0.8,0-1.2c-0.1-0.9-0.2-1.8-0.3-2.7c-1.9-13.4-8.5-23.7-20.4-30.4
	c-0.9-0.5-2.1-0.7-3.1-0.5c-1.6,0.3-2.6,1.5-2.8,3.1c-0.3,1.7,0.5,3,1.9,4c2.4,1.7,5,3.3,7.2,5.3c6.4,6.2,9.5,14,9.8,22.9
	c0.1,2.7,1.2,4.2,3.3,4.6C1741.5,499.5,1743.4,497.3,1743.3,493.9z M1704.4,454.9c-2.3,0-4,1.7-3.9,3.9c0.1,2.1,1.8,3.8,3.9,3.8
	c2.2,0,4-1.7,4-3.9S1706.7,454.9,1704.4,454.9z"/>
<path class="st2" d="M1676.8,588.3c0,0.2,9.9-6.6,10.5-7.1c3.6-2.9,7.3-5.7,10.8-8.7c14.8-12.2,28.7-25.3,40.3-40.6
	c6.8-9,12.7-18.6,15.6-29.7c6.5-25.5-10.3-51.8-36.2-56c-14.7-2.4-27.4,2.3-38,12.9c-0.8,0.8-1.7,1.7-2.8,2
	c-1.9,0.7-3.3-0.5-4.6-1.8c-6.6-6.9-14.6-11.4-24.1-13c-9.9-1.7-19.2,0-28.1,4.7c-0.7,0.4-1.3,0.8-2,1.2c-2.1,1.1-4.3,0.5-5.4-1.5
	c-1-1.9-0.5-4,1.5-5.2c4.9-3.1,10.3-5.3,16-6.5c7.2-1.5,14.8-1.4,22,0.2c5.9,1.3,11.5,3.6,16.5,6.9c2.5,1.7,4.9,3.6,7.2,5.7
	c0.5-0.5,1-0.9,1.5-1.3c5.3-4.7,11.6-8.2,18.3-10.4c7.8-2.4,15.8-2.8,23.8-1.4c3.5,0.6,7,1.5,10.2,2.8c26.1,10.3,41.3,42,28.9,71.1
	c-5.8,13.5-14.2,25.1-23.9,35.9c-13.2,14.8-28.1,27.6-43.8,39.6c-1.4,1-12.8,8-14.3,8.1"/>
<path class="st2" d="M1563.6,489.8c0.9-3.7,1.9-7.3,4.3-10.4c3.8-5.1,8.9-8.1,15.2-8.9c1.3-0.2,2.2-0.6,2.9-1.8
	c9.9-16.1,33-16.2,43-0.3c0.9,1.4,1.8,1.9,3.3,2.1c10.6,1.2,19,10.6,19.1,21.3c0,3.1-1.4,4.6-4.5,4.6c-26.3,0-52.5,0-78.8,0
	c-2.2,0-3.5-1-4.5-2.8C1563.6,492.4,1563.6,491.1,1563.6,489.8z M1572.2,488.5c23.6,0,47.1,0,70.7,0c-1.2-5.9-7.4-10.6-13.9-10.3
	c-2.8,0.1-4.4-0.9-5.6-3.5c-3.2-6.7-8.7-10.4-16.1-10.3s-12.7,3.9-15.9,10.6c-1.2,2.6-2.1,3.1-5,3.1c-1.3,0-2.6,0.1-3.9,0.3
	C1577.5,479.5,1572.8,484.1,1572.2,488.5z"/>
<path class="st2" d="M1699.7,637.9c-6.4-4.5-7.3-14.9-1.9-21.3c3.7-4.4,8.5-6.1,14.2-5.5c0.6,0.1,1.6-0.3,2-0.8
	c8.8-12.6,25.6-12.7,34.8-0.2c0.5,0.6,1.4,1.1,2.2,1.3c10.5,2.4,15.6,14.4,9.8,23.5c-0.8,1.2-2,2.1-3,3.2
	C1738.4,637.9,1719.1,637.9,1699.7,637.9z M1728.7,630.1c8.1,0,16.2,0,24.4,0c1.3,0,1.8-0.4,2.1-1.6c1.2-4.7-2.1-9.6-6.9-9.7
	c-2.7-0.1-4.2-1.2-5.5-3.5c-2.6-4.7-6.8-7-12.1-6.7c-5.2,0.3-8.9,3-11.1,7.7c-1.9,4-2.8,4.4-7.1,2.9c-2.9-1.1-5.7-0.6-8,1.5
	c-2.2,2-3,4.6-2.3,7.6c0.3,1.3,0.9,1.8,2.2,1.7C1712.6,630,1720.6,630.1,1728.7,630.1z"/>
<path class="st2" d="M1743.3,493.9c0.1,3.5-1.8,5.6-4.5,5.1c-2.1-0.4-3.2-1.9-3.3-4.6c-0.3-8.9-3.4-16.7-9.8-22.9
	c-2.1-2.1-4.7-3.6-7.2-5.3c-1.4-1-2.2-2.3-1.9-4c0.3-1.6,1.2-2.8,2.8-3.1c1-0.2,2.3,0,3.1,0.5c11.8,6.7,18.5,17,20.4,30.4
	c0.1,0.9,0.2,1.8,0.3,2.7C1743.3,493.1,1743.3,493.5,1743.3,493.9z"/>
<path class="st2" d="M1704.4,454.9c2.3,0,4,1.6,4,3.9c0,2.2-1.8,3.9-4,3.9c-2.1,0-3.8-1.7-3.9-3.8
	C1700.4,456.6,1702.2,454.9,1704.4,454.9z"/>
<path d="M1643.3,554.1"/>
<path id="XMLID_00000090995657186091874280000010105247220036447927_" class="st2" d="M1679.2,605.2c-0.8-5.6-1.5-11.1-2.3-16.7
	c-0.9-6.8-1.9-13.6-2.8-20.5c-1.2-8.3-2.3-16.7-3.5-25c-0.1-0.8,0.1-1.5,0.7-2.1c2.5-2.6,5-5.2,7.6-7.8c1.5-1.6,3-3.2,4.5-4.7
	c2.1-2.2,4.2-4.3,6.2-6.6c0.7-0.7,1.3-1.5,1.9-2.4c1.8-2.6,2.8-5.4,3.2-8.5c0.2-1.3,0.3-2.5-0.4-3.7c-0.2-0.2-0.5-0.4-0.7-0.7
	c-1.4-0.7-2.7-0.4-4.1-0.2c-3,0.5-5.7,1.7-8.1,3.5c-0.7,0.6-1.5,1.2-2.1,1.8c-3.8,3.9-7.5,7.7-11.3,11.6c-2,2-3.9,4-5.8,6.1
	c-0.5,0.5-0.9,1-1.4,1.5s-1.2,0.7-2,0.6c-3.2-0.3-6.4-0.6-9.5-1c-8.2-0.8-16.4-1.7-24.6-2.5c-7.5-0.8-15-1.5-22.4-2.3
	c-1.9-0.2-3.9-0.4-5.8-0.6c-0.5-0.1-1,0.2-1.4,0.4c-2.6,2.7-5.3,5.5-7.9,8.2c3.5,1.5,6.9,3,10.4,4.4c12.9,5.5,25.8,11,38.7,16.5
	c0.4,0.2,0.8,0.3,1.1,0.5c-0.1,0.1-0.1,0.1-0.1,0.2c-3.7,3.9-7.4,7.7-11.1,11.6c-1.1,1.1-2.2,2.3-3,3.7c-0.3,0.6-0.6,1.3-0.9,2
	c-0.3-0.1-0.7-0.1-1-0.2c-6-1.1-12-2.1-17.9-3.2c-0.7-0.1-1.3-0.2-2-0.3c-0.3,0-0.6,0-0.8,0.2c-0.6,0.6-1.2,1.2-1.8,1.8
	c-1.5,1.5-2.9,3-4.4,4.5c-0.1,0.1-0.1,0.2-0.2,0.3c0.5,0.2,1,0.5,1.4,0.7c7.2,2.9,14.3,5.8,21.5,8.8c0.8,0.3,1.4,0.9,1.8,1.7
	c3.1,6.8,6.2,13.6,9.3,20.4c0.3,0.7,0.7,1.4,1,2.2c0.1-0.1,0.2-0.2,0.2-0.2c1.9-2,3.8-3.9,5.7-5.9c0.6-0.6,0.8-1.3,0.6-2.2
	c-1.4-6.2-2.7-12.4-4.1-18.6c-0.1-0.4-0.2-0.9-0.3-1.3c0.3,0.3,0.5,0,0.7-0.2c0.3-0.2,0.6-0.4,0.9-0.7c1-0.8,2-1.6,2.9-2.4
	c1.3-1.2,2.5-2.4,3.7-3.6c1.9-1.9,3.7-3.8,5.5-5.8c1-1,1.9-2,2.9-3c0.1-0.1,0.1-0.1,0.2-0.2c7.8,16.5,15.5,32.9,23.3,49.4
	c0.1-0.1,0.2-0.2,0.3-0.3c2.5-2.6,5-5.2,7.6-7.8C1679.1,606.3,1679.2,605.8,1679.2,605.2z"/>
</svg>
