<?xml version="1.0" encoding="utf-8"?>
<!-- Generator: Adobe Illustrator 25.4.1, SVG Export Plug-In . SVG Version: 6.00 Build 0)  -->
<svg version="1.1" id="Capa_1" xmlns="http://www.w3.org/2000/svg" xmlns:xlink="http://www.w3.org/1999/xlink" x="0px" y="0px"
	 viewBox="0 0 1242 2208" style="enable-background:new 0 0 1242 2208;" xml:space="preserve">
<style type="text/css">
	.st0{display:none;}
	.st1{fill:#775F3B;}
	.st2{fill:#62391B;}
	.st3{fill:#D96F6F;stroke:#D96F6F;stroke-miterlimit:10;}
	.st4{fill:none;}
</style>
<g id="Fondo" class="st0">
</g>
<g id="mapa">
</g>
<g id="sello_onda">
</g>
<g id="sello_ciculo">
</g>
<g id="mapa_1_">
</g>
<g id="brujula">
</g>
<g id="onda_sola_grande">
	<g id="_x35_">
		<g>
			<path class="st1" d="M-20.7,1949.9c0.6,0.7,1.4,1.1,2.3,1.6c8.8-3.5,17.4-7.4,25.9-11.7c0.2-0.6,0.3-1.1,0.3-1.6l-2.5-2.1
				c1.9,0.4,2.5,1.1,2.5,2.1l1.1,0.9c0.6-0.3,1.2-0.6,1.7-0.9c1.6-3,2.5-5.1,7.5-7.6c0.2,1.5,0.9,2.3,2,2.6
				c69.5-37.5,134.4-91.4,216.3-67.5c8.4-4.4-0.7-3.5,9.5-6.4c-107-26.1-180.3,53.3-266.4,88.2c0.4,0.2,0.8,0.7,1.4,1.4
				L-20.7,1949.9z"/>
			<path class="st1" d="M-135.9,1957.6c-2.8,2,5.1,1.7,9.3,2.2c2.4,0.7,4.8,1.3,7.2,1.8c0-0.2,0.1-0.4,0.1-0.6
				C-124.8,1960.2-130.3,1959.1-135.9,1957.6z"/>
			<path class="st1" d="M-69.6,1964.1c0.1,0.2,0.1,0.4,0.2,0.6c16.4-1.7,32.3-6,47.7-11.8c-0.7-0.3-1.5-0.6-2.3-0.8
				c1.3-0.8,1.6-2.8,2.1-3.9c-6.5,2.6-13,4.9-19.6,6.9c0.2,1.2-1.1,1-2.5,0.7c-5.6,1.6-11.3,3-17,4.1l2.1,2.9l-4.3-2.4
				c-1.2,0.2-2.4,0.4-3.6,0.6c0.6,0.7,1.2,1.4,1.7,2C-66,1963.5-68.3,1963.5-69.6,1964.1z"/>
			<path class="st1" d="M-69.6,1964.1c-0.4-0.9-0.9-1.7-1.6-2.5c-6.8,0.9-13.7,1.4-20.8,1.5c-0.2,0.2-0.5,0.4-0.7,0.6l2.9,1.8
				c6.6,0.2,13,0,19.4-0.7C-70.3,1964.4-70,1964.2-69.6,1964.1z"/>
			<path class="st1" d="M-125.4,2009.2c2.3,0.6,4.7,1.1,7,1.6C-113.6,2007.7-116.4,2007.6-125.4,2009.2z"/>
			<path class="st1" d="M117.5,1934.4c41.4-19.5,85.6-31.4,137.6-18.8c-5.3-1.5,3.4-3.7-6.6-3.7c-41.7-12.5-79.3-4.1-115.8,12.3
				l0.4,1.1l-2.5,1.5l0.2-1.8c-5.2,2.4-10.3,4.9-15.5,7.5C116.5,1932.9,117.3,1933.3,117.5,1934.4z"/>
			<path class="st1" d="M49.9,1971.5c4.2-2.4,8.4-4.9,12.6-7.3c-0.3-0.5-0.6-0.9-0.9-1.3c-4.3,2.5-8.5,4.9-12.8,7.4
				C49.2,1970.5,49.6,1970.9,49.9,1971.5z"/>
			<path class="st1" d="M114.6,1935.7c-0.6-0.3-0.9-1.2-1-2.3c-16.1,8.3-32.1,17.8-48.2,27.2c-0.2,0.8-0.3,1.5-0.5,2.1
				C81.3,1953.3,97.8,1943.9,114.6,1935.7z"/>
			<path class="st1" d="M-18.7,2004.6c1.2-0.8,3.3-2.4,5.4-3.1c-0.2-0.3-0.3-0.5-0.5-0.8c-3.6,1.3-7.2,2.6-10.8,3.8
				c1.3,0.4,2.5,1.4,3.6,2.2c1.3-0.5,2.7-1,4-1.5C-17.2,2004.9-17.7,2004.7-18.7,2004.6z"/>
			<path class="st1" d="M-118.4,2010.8c-1.1,0.7-2.6,1.6-4.5,2.6c16.4,4.3,32,5.7,47.1,5c1.4-1.4,2.7-2.9,3.8-4.5
				C-86.8,2014.9-102.3,2014.1-118.4,2010.8z"/>
			<path class="st1" d="M37.5,1976.6c0,0.4,0.3,0.8,1.2,1.3c1.8-1,3.7-2.1,5.5-3.1c-0.4-0.4-0.8-0.8-1.2-1.2
				C41.1,1974.6,39.3,1975.6,37.5,1976.6z"/>
			<path class="st1" d="M-70.6,2013.8c-0.4,1.3-0.8,2.5-1.5,3.4c0.6,0.3,1.2,0.6,1.7,0.9c3.1-0.3,6.2-0.6,9.3-1
				c0.8-1.3,1.4-2.9,2-4.5C-62.9,2013.1-66.7,2013.5-70.6,2013.8z"/>
			<path class="st1" d="M-8.5,1998.7c-0.9,0.3-1.7,0.7-2.6,1c0.2,0.5,0.5,1.1,0.8,1.6c0.5,0.1,0.9,0.3,1.3,0.6
				c0.7-0.3,1.4-0.6,2-0.9C-7.2,2000.2-7.7,1999.3-8.5,1998.7z"/>
			<path class="st1" d="M-27.5,2005.4c-0.8,0.3-1.6,0.5-2.4,0.8c-0.3,1.2-0.5,2.4-0.7,3.6c0.1,0.1,0.3,0.1,0.4,0.1
				c1.6-0.5,3.1-1,4.7-1.5c0.4-0.3,0.7-0.7,0.9-1.2L-27.5,2005.4z"/>
			<path class="st1" d="M-2.4,1997.1c-1.8,0.7-2.5,1.9-2.6,3.2c1-0.4,2-0.9,3-1.3c0.4-0.5,0.7-1,1-1.6
				C-1.4,1997.2-1.9,1997.1-2.4,1997.1z"/>
			<path class="st1" d="M108.9,1997.1l0.8,0.3c15.6-8.8,31.1-16.9,47-23.2c0-0.1-0.1-0.2-0.1-0.2c0.1,0.1,0.2,0.1,0.2,0.2
				c29-11.5,59-16.9,91.9-9.7c-0.1-0.9,0.4-2.1,2-3.5c0.3,0.9,0.3,4.1,2.3,4.1c0.9-1.5,0.2-3.3-0.2-4.9
				c-37.6-7.4-71.2-0.1-103.4,13.4c-0.8,1.5-2,2.4-4.3,1.8c-0.2,0.1-0.5,0.2-0.7,0.3c0,0.1,0.1,0.2,0.1,0.3l-0.1-0.3
				c-12.1,5.3-23.9,11.5-35.7,18.1c0.1,0,0.1,0,0.2,0C109.4,1995.7,109.4,1995.7,108.9,1997.1z"/>
			<path class="st1" d="M67.4,2022c0-0.2-0.1-0.4-0.1-0.6c-0.2-1.1-0.4-2.3-0.6-3.5c-15.2,8.7-30.5,17.2-46.2,24.5l2.3,3.3
				C38.1,2038.7,52.9,2030.5,67.4,2022z"/>
			<path class="st1" d="M-10.8,2054.9c-2.1,0.7-4.1,1.3-6.2,1.9c0.8,0.5,1,1.2-0.5,2.7c-4.7-1-7.7,1.1-9.8,3.7
				c7.3-1.7,14.5-3.7,21.6-6.1c-1.5,0.4-3.3,0.3-5.8-0.2C-11.2,2056.3-11,2055.6-10.8,2054.9z"/>
			<path class="st1" d="M76,2017c-0.3-1.2-0.5-2.4,0.9-3.2c0,0.9,0.2,1.7,0.3,2.5c10.2-6,20.4-12.1,30.5-17.8l-2.4-0.2
				c0.5-1.3,0.8-2.4,1.2-3.2c-12.2,6.8-24.3,14-36.6,21.1c0.8,1.1,1.7,2.2,2.7,2.9C73.7,2018.3,74.9,2017.7,76,2017z"/>
			<path class="st1" d="M3.1,2054.1c3.8-1.4,7.5-3,11.3-4.6c-1.3-0.2-2.3-1-2.6-3.1c-3.7,1.6-7.4,3.1-11.1,4.5
				c-0.1,0.2-0.3,0.4-0.4,0.7L3.1,2054.1z"/>
			<path class="st1" d="M18.1,2043.6c-0.6,0.3-1.2,0.5-1.8,0.8C17,2044.4,17.7,2044.2,18.1,2043.6z"/>
			<path class="st1" d="M-4.5,2056.8c1.5-0.5,3-1,4.5-1.6c0.2-1.1,0.4-2.3,0-3.4C-1.4,2054.1-2.5,2055.9-4.5,2056.8z"/>
			<path class="st1" d="M254,1962.3l-0.9,3.3c2.4,0.6,4.9,1.3,7.4,2c3.5-1.8-1.8-2.4,3.8-4.8c-1.9-0.5-3.8-1-5.7-1.4
				c-0.1,0.5-0.2,1-0.4,1.5C256.8,1964.8,256.3,1963.1,254,1962.3z"/>
			<path class="st1" d="M2.5,2109.3c-0.5-0.9-0.9-1.8-1.4-2.7c-3.8,1.2-7.7,2.2-11.5,3.2l-2,3.8C-7.3,2112.4-2.4,2110.9,2.5,2109.3z
				"/>
			<path class="st1" d="M155.6,2030.6c36.9-16.5,76.7-25.9,123.5-16.4c-1.1-0.4-1.6-1,0.2-2c-44-12.7-82.9-3.4-120.3,13.9
				C158.2,2027.5,156.9,2029,155.6,2030.6z"/>
			<path class="st1" d="M6.9,2107.8c51-18,96-53.2,146-76c-0.3-0.8-0.6-1.6-0.9-2.5c-41.2,20.1-80.8,48.7-123.9,67.3
				c-0.9,0.9-2,1.3-3.2,1.4c-5.3,2.2-10.7,4.3-16.2,6.2c0,0.1,0,0.3,0,0.4C7.6,2105.1,7.1,2106.4,6.9,2107.8z"/>
			<path class="st1" d="M-32,2117.5c0.5-0.1,1-0.2,1.5-0.2c2.5-1.7,5.8-2.7,8-4.9c-4.6,0.8-9.3,1.4-14.1,1.9
				C-35.2,2115.7-33.6,2116.8-32,2117.5z"/>
			<path class="st1" d="M281.1,2014.6c0.7,0.1,1.3,0.3,2,0.4C283.3,2014.8,282.3,2014.8,281.1,2014.6z"/>
			<path class="st1" d="M279,2014.2c0.6,0.2,1.4,0.3,2.1,0.4C280.4,2014.4,279.7,2014.3,279,2014.2z"/>
			<path class="st1" d="M285.5,2064.7c1.3,0.6,7.1,1.7,14.5,1.2c-8.8-2-17.3-3.3-25.7-4.1C278,2062.6,281.7,2063.5,285.5,2064.7z"/>
			<path class="st1" d="M-58.1,2167.1c0.6-1.2,1.2-2,2-2.4c-1.6-0.2-3.2-0.4-4.8-0.7C-60.3,2165.7-59.6,2167.2-58.1,2167.1z"/>
			<path class="st1" d="M200.6,2065.8c-29.6,8.9-58.2,25.1-87,41.9c-0.8,1.9-2.9,3.8-2.6,5.2c28.2-16.3,56.7-32.4,87.5-42.2
				C199.6,2069.3,200.8,2067.7,200.6,2065.8z"/>
			<path class="st1" d="M200.7,2065.8l1.2,3.8c22.6-6.8,46.5-10.3,72.4-7.9C248.8,2056.1,224.5,2058.6,200.7,2065.8z"/>
			<path class="st1" d="M-80,2160.8c-4.7,1.9,3,0.6-2.1,4.3c1.4,0.3,2.7,0.6,4.1,0.9C-78.4,2163.7-79,2161.7-80,2160.8z"/>
			<path class="st1" d="M-20.4,2164.9c1.6,1.1,7.1-2,8.7,2.2c44.1-7.8,83.1-31.2,122.6-54.1l-2.4-2.3
				C67,2135,25.1,2159.7-20.4,2164.9z"/>
			<path class="st1" d="M-44.2,2166.8c2.2-0.6,4.4-1.8,3.7,2.4c0.2,0.3,0.5,0.4,0.7,0.6c0.7,0,1.3,0,2,0c0.7-0.8,1.1-2.4,1.5-3.9
				c-3.7,0-7.4-0.1-11.1-0.3C-46.9,2167.2-45.6,2167.1-44.2,2166.8z"/>
			<path class="st1" d="M-69.1,2164.8c-1.8-2.1-2.7,0-3.5,2.2c1.6,0.3,3.2,0.6,4.8,0.8C-68.1,2166.6-68.5,2165.6-69.1,2164.8z"/>
		</g>
	</g>
</g>
<g>
	<g>
		<g>
			<path class="st2" d="M626.1,632.3c-3.4,0-6.5-1.9-8.2-4.9l-54.7-105.8c-9.9-21.7-8.4-46.8,3.9-67.1c12.1-19.9,32.2-32,55.1-33.2
				l0,0c2.5-0.1,5.1-0.1,7.7,0c22.9,1.2,43,13.2,55.1,33.2c12.4,20.4,13.9,45.4,4,66.9l-54.8,106
				C632.6,630.4,629.5,632.3,626.1,632.3L626.1,632.3z M622.6,428.6c-20.5,1-38.4,11.9-49.2,29.7c-11.1,18.3-12.5,40.8-3.6,60.2
				L624.4,624c0.5,0.9,1.4,1,1.7,1c0.4,0,1.3-0.1,1.8-1.1l54.6-105.7c8.8-19.2,7.4-41.7-3.7-60c-10.8-17.8-28.8-28.6-49.2-29.7
				C627.3,428.4,624.9,428.4,622.6,428.6L622.6,428.6z"/>
		</g>
		<path class="st3" d="M645.5,470c-7-1.6-14.6,1.5-19.4,7.9c-4.8-6.4-12.4-9.6-19.4-7.9c-7.7,1.8-12.8,8.5-13,17.1
			c-0.4,24.2,31.7,44,32,44.1c0.1,0,0.2,0.1,0.4,0.1c0.1,0,0.2,0,0.4-0.1c0.3-0.1,32.4-20,32-44.1
			C658.3,478.5,653.2,471.8,645.5,470z"/>
	</g>
</g>
<g>
	<path class="st2" d="M461.9,768.2c0.4-1.1,0.7-1.9,1-2.5c1.9-3.2,5-7,9.4-11.3c12.8-13.2,27.9-23.3,45.4-30.1
		c11.1-4.2,21.7-6.3,31.7-6.3c19,0,34.9,4.8,47.8,14.3c11,8.2,17.3,19.7,18.9,34.7c0.2,1.6,0.3,3.9,0.3,7c0,8.4-1.4,17.8-4.3,27.9
		c-3.9,13.6-10.5,28.1-19.5,43.5c-7.6,12.8-17.3,26.2-29,40c-4,4.9-10.6,11.8-19.5,20.8c-8,7.9-16.4,15.2-25.2,21.9
		c-14.7,11.4-29.2,20.1-43.6,26.3c-9.4,3.9-17.8,6.2-25.3,7c-2.6,0.3-5.1,0.4-7.6,0.4c-5.4,0-10-0.8-13.9-2.3
		c-12.4-5.1-18.6-15-18.6-29.4c0-5,0.7-9.5,2.2-13.6c1-2.6,1.8-4.3,2.3-5.1c0.9-1.6,2-2.3,3.3-2.3c0.6,0,1.1,0.1,1.8,0.4
		c2.1,0.7,3.5,2.4,4.1,5c0.9,4,1.6,7.1,1.9,9.1c0.3,1.5,0.6,3.4,1,5.9l0.8,5.8c0.1,0.9,0.3,2,0.6,3.4c0.3,1.3,0.6,2.4,0.8,3.1
		l0.3,1.4c-0.5,0.3-0.8,0.4-1.1,0.4c-0.3,0-0.6-0.1-0.8-0.4c-1.5-1.7-2.4-3.9-2.9-6.9c-0.6-2.7-1.4-7.5-2.6-14.6
		c-0.4-1.7-0.9-3.7-1.5-6.1c-0.1-0.3-0.2-0.5-0.3-0.7c-0.1-0.2-0.2-0.4-0.3-0.6c-0.7,0.1-1.2,0.4-1.4,0.9c-0.2,0.5-0.3,0.8-0.3,0.9
		c-1.9,5.2-2.9,10.4-2.9,15.4c0,4.8,0.9,9.2,2.8,13.2c2.8,6.8,7.5,10.9,14,12.2c2.6,0.6,5.5,1,8.7,1c1.1,0,2.7-0.1,4.7-0.3
		c6.8-0.6,13.9-2.4,21.5-5.4c10.5-4.1,21.2-9.8,32.1-16.9c10.9-7.2,21.2-15.1,31-23.9c3.4-3,8.3-7.8,14.9-14.3
		c6.3-6.1,13.3-13.9,20.8-23.3c8.4-10.5,16.1-21.6,23.1-33.3c5.2-8.7,9.8-17.7,13.6-26.8c6.3-15.5,9.5-29.9,9.5-43.1
		c0-6.4-0.8-12.2-2.5-17.2c-2.4-7.9-7.1-14.3-14-19.3c-6.8-4.8-14.9-8.3-24.2-10.5c-6.7-1.6-13.3-2.3-19.7-2.3
		c-5.8,0-11.5,0.6-17.1,1.8c-7.3,1.6-15.1,4.2-23.3,7.8c-7.8,3.7-15,7.9-21.6,12.7c-8.4,5.8-16.3,12.8-23.5,21.1c-1,1.2-2,2.5-3,3.9
		L461.9,768.2z M445.5,890.2c2.8-13.4,5.3-24.3,7.6-32.8c2.4-9.2,5.7-20.2,9.9-33c4.3-12.9,9-25.3,14.2-37.2
		c2.3-5.3,4.3-9.7,5.9-13.3c1.7-3.5,3.4-7,5.4-10.4c1.3-2.1,3.3-5.3,6.1-9.5c0.6-1,1.3-1.7,1.9-2.1c0.4-0.4,1-0.4,1.8-0.1
		c0.5,0.2,0.7,0.5,0.7,0.8s0,0.5-0.1,0.7c-0.2,0.5-0.4,1-0.8,1.7c-0.3,0.7-0.8,1.5-1.3,2.4c-3,5.7-6,12-8.8,18.9l-4.3,10.5
		c-3.4,8.3-5.5,13.5-6.2,15.6c-3.2,8.4-6.3,17.2-9.2,26.3c-3.3,9.8-6.6,21.2-9.9,34.3c-4.1,15.3-7.2,31.3-9.4,47.9
		c-0.2,1.3-0.3,2.3-0.3,3c0,0.9,0.1,1.8,0.4,2.6c0.3,0.9,0.1,2.2-0.4,3.7c-0.2,0.7-0.7,1.3-1.7,1.7l-1.1,0.3c-0.8,0-1.6-0.3-2.2-0.8
		s-1.1-1.1-1.2-1.9c-0.2-0.9-0.3-1.6-0.3-2.1l0.1-1.4c0.1-0.9,0.2-2.5,0.3-4.7c0.1-2.2,0.3-4.2,0.6-6.1
		C443.7,902.7,444.4,897.7,445.5,890.2z"/>
	<path class="st2" d="M647.3,872.1c0.9,0,1.7,0.4,2.3,1.1c0,0.6,0,0.9-0.1,1c-1.7,1.7-4.3,3.7-7.7,5.9c-3.1,2-5.4,3.7-6.9,5.1
		c-1.4,1.2-5.3,5-11.8,11.3l-5.9,5.6c-2.5,2.4-5.8,5.1-10,8.1c-2.8,1.7-5.6,2.6-8.3,2.6c-2.3,0-4.4-0.7-6.4-2.1
		c-2-1.4-3.2-3.2-3.6-5.4c-0.7-2.9-1.1-5.6-1.1-8c0-2.9,0.3-5.7,0.8-8.3c0.6-2.6,1.4-6.3,2.6-11.1l0.7-2.1c0.2-0.5,0.3-1.2,0.4-2.3
		c0.1-1.1,0.3-1.9,0.5-2.5s0.7-1.1,1.4-1.4l1.8-3.2l1.7-3.2c0.6-1.3,1.8-3.2,3.4-5.8c1.7-2.3,3.1-4.1,4.4-5.4
		c1.1-1.1,2.4-2.2,3.9-3.4s2.6-2.1,3.2-2.6c0.6-0.5,1.6-1,2.9-1.5c1.3-0.4,2.3-0.6,3-0.6c2.3,0,4.2,0.8,5.8,2.3s2.4,3.5,2.4,6
		c0,1.7-0.3,3.2-0.8,4.4c-3.2,8.3-8,14.6-14.4,19.1c-3.7,2.7-6.9,4-9.8,4c-1,0-2-0.1-2.9-0.4h-0.4l-1.4,0.1
		c-1.9,6.1-2.9,12.2-2.9,18.3c0,2.1,0,3.7,0.1,4.7c0.2,1.8,0.6,3.3,1.1,4.3c0.7,1.7,1.6,2.5,2.6,2.5c0.3,0,0.8-0.2,1.5-0.6
		c2.9-1.5,5.1-2.8,6.5-4l8.7-7.4c2.3-2.1,4.6-4.1,6.9-6.1c6.1-5.2,12.1-10.4,17.9-15.4c1.4-1,3.3-2.1,5.8-3.3
		C646.1,872.2,646.8,872.1,647.3,872.1z M598.4,875.4c0,0.4,0.2,0.8,0.7,1.2c3.9-0.3,7.5-2,10.6-5.1c4.4-4.3,8.3-9.4,11.6-15.4
		c0.8-1.4,1.4-2.8,1.7-4.3c0.1-0.6,0.1-1.2,0.1-1.7s-0.1-1-0.1-1.4c-0.8-0.3-1.6-0.4-2.3-0.4c-1,0-1.9,0.3-2.6,0.8
		c-3.4,2.2-5.5,3.6-6.2,4.3c-2.9,2.5-5.4,5.4-7.4,8.9c-2,3.4-3.9,7.5-5.7,12.2C598.5,874.8,598.4,875.1,598.4,875.4z"/>
	<path class="st2" d="M701.9,876.3c-0.8,0.2-1.3,0.2-1.4,0.1c-1.1-0.6-2.2-0.8-3.3-0.8c-1,0-2,0.1-2.9,0.4
		c-5.7,1.5-9.8,2.8-12.4,4.1c-2.6,1.2-4.2,2.6-5,4s-1.4,3.5-2,6.3c-0.6,3-1.4,5.8-2.1,8.2c-0.8,2.4-2.2,5.3-4.2,8.6
		c-6.8,11-14,20.4-21.7,28.1c-3.6,3.6-6.9,6.3-10,8.1c-1.3,0.7-3.3,1.7-6.1,2.8c-0.6,0.3-1.3,0.4-1.9,0.4c-0.6,0-1.5-0.2-2.6-0.6
		c-1.8-0.6-3.1-1.4-3.9-2.2c-0.7-0.8-1.1-2-1.1-3.6c0-3.3,0.9-6.8,2.6-10.6c3.4-7.2,8.1-13.9,14-20.4c7.2-7.9,16.8-15.2,28.8-22
		l3.2-1.8c0-1.3,0-2.2-0.1-2.8c-0.3-1.9-1.3-3.2-3-3.7c-3.2-1.1-6.2-1.7-9.1-1.8l-6.6-0.3c-2.8-0.2-5-1.2-6.7-3.2
		c-0.7-0.9-1.1-1.7-1.1-2.3c0-0.7,0.3-1.5,1-2.2c1.3-1.7,2.5-2.9,3.7-3.9c6.2-5,11.9-8.7,17.1-11.3c0.3-0.1,1-0.5,2.2-1.1
		s2.4-1,3.7-1c1.6,0,2.6,0.6,3,1.8c-7.5,4.7-13,8.3-16.3,10.9c-3.4,2.6-5.9,5.1-7.8,7.6c0.2,0.6,0.7,0.8,1.7,0.8s3.8,0.2,8.4,0.7
		c3.7,0.4,6.3,0.8,8,1.3s3.5,1.8,5.5,3.8l1,0.7l2.5-1c3.1-1.4,6.7-2.8,10.9-4.1c1.6-0.6,3.9-1.1,7-1.7c1.1-0.2,2.1-0.1,3.1,0.3
		c1,0.4,2.1,1,3.4,1.8C701.2,874.9,701.5,875.4,701.9,876.3z M667.1,895.6c0.6-1.2,1-2.6,1.2-4.1c-2.5,1-6.4,3.5-11.7,7.4
		s-9.3,7.2-11.8,9.8c-5,5-9,9.9-12.2,14.9c-2.1,3.3-4,7.6-5.6,12.9c-0.2,0.7-0.3,1.6-0.3,2.6s0,1.7,0,1.9s0.1,0.6,0.4,1.1
		c0.3,0.5,0.5,0.9,0.7,1.2c0.6-0.4,1.2-0.7,2-1.1c0.8-0.4,1.4-0.7,1.9-1c1.3-0.9,3.1-2.4,5.5-4.4c3.3-2.8,7.2-7.2,11.8-12.9
		c3.9-4.9,7.2-9.4,10-13.5s5.2-8.4,7.2-12.8C666.2,897.5,666.5,896.8,667.1,895.6z"/>
	<path class="st2" d="M796.3,799c0.5,0.6,0.9,1.7,1.2,3.3c-1.1,0-1.9,0-2.3-0.1c-9.5-1.9-18.7-2.9-27.5-3
		c-14.1-0.2-24.7-0.3-31.8-0.3l-5.2,0.1c-0.2,0.5-0.4,0.9-0.7,1.3c-0.3,0.4-0.5,0.8-0.7,1.3c-2.4,5.7-5.8,14.3-10.2,25.9l-1,2.6
		c-6.2,16.2-11.1,30.5-14.6,42.8c-3.9,13.4-6.7,23.5-8.4,30.3c-1.6,5.9-3.1,12.2-4.5,19.1c-0.2,0.8-0.4,2.1-0.5,3.7
		c-0.1,0.5-0.1,1.2-0.1,2.2c0,1.5,0.3,2.6,1,3.4c-0.6,1-1.5,1.5-2.5,1.5c-0.5,0-1.2-0.2-2.3-0.6c-1.4-0.5-2.2-1.5-2.3-3.2l-0.1-1.5
		c0-0.6,0.1-1.3,0.3-2.2c0.3-1.3,0.7-3.7,1.4-7.3c0.7-3.9,1.4-7,1.9-9.2l1.2-5.2c2.9-11.5,5.4-20.6,7.3-27.5
		c4.9-16.8,9.9-31.6,15.1-44.4l4.4-11c2.3-6.1,4.8-12.3,7.4-18.6c0.2-0.5,0.5-1.5,1-3c-0.6-0.4-1.6-0.6-2.9-0.6
		c-3.6,0-8.9,0.1-16.1,0.3c-7.3,0.2-12.8,0.3-16.4,0.3c-0.6,0-1.6-0.1-2.9-0.3c-1-0.1-1.7-0.8-2.1-2.2c1.7-0.6,3.9-1.1,6.7-1.4
		c2.8-0.3,7.7-0.6,14.4-0.9l21.3-0.8c0.8-0.6,1.5-1.5,1.9-2.6c0.5-1.1,0.7-1.8,0.8-2.1c2.8-6.8,6.5-13.9,11.1-21.5
		c0.9-1.5,1.7-2.5,2.2-3c0.3-0.3,0.7-0.4,1.2-0.4c1,0,1.3,0.6,1,1.8l-0.7,1.9l-5.4,12.7l-3.3,7.4l-1.8,4.7c0.3,0.7,0.8,1.1,1.5,1.1
		c3.2,0,5.6,0,7.3-0.1c1.2,0,2.7,0,4.5-0.1c1.8,0,3.9,0,6.3,0.1l6.7,0.1c9.9,0.2,17.3,0.6,22.2,1.2c3.6,0.5,7.7,1.3,12.2,2.6
		C795,798,795.8,798.4,796.3,799z"/>
	<path class="st2" d="M725.2,864.7c0.2,0.3,0.3,0.8,0.1,1.6c-0.3,1.6-1,4.3-2.2,8.1c-1.4,4.6-2.6,9.2-3.6,14
		c-1.1,4.7-2.3,10.5-3.6,17.4c-0.1,0.5-0.1,1.2-0.1,2.2l0.1,4.7c-0.6,0.4-1.3,0.6-1.9,0.6c-0.7,0-1.4-0.3-2.1-0.8
		c-1.4-1.1-2-2.2-1.9-3.4c0.4-3.6,0.7-6.4,1-8.4c2.1-13.6,5.2-24.9,9.2-33.9c0.1-0.3,0.3-0.8,0.6-1.6s0.9-1.4,1.7-1.9
		c0.2,0.1,0.4,0.1,0.6,0.1c0.2,0,0.5,0.1,0.9,0.3C724.5,864,725,864.4,725.2,864.7z M730.8,852c0,0.7-0.3,1.3-0.8,1.7
		s-1.1,0.5-1.7,0.3c-1.4-0.6-2.3-1.5-2.9-2.9c-0.3-0.6-0.4-1.1-0.4-1.5c0-0.7,0.4-1.6,1.1-2.5c1.2,0.2,2.3,0.8,3.4,1.9
		C730.4,849.9,730.8,850.9,730.8,852z"/>
	<path class="st2" d="M773.3,915.8c1.3,0,2.2,0.4,2.8,1.2c-1,1.5-2.5,2.1-4.4,1.8c-5-0.8-8.2-3.1-9.5-6.7c-0.5-1.4-1-3.5-1.5-6.5
		c-0.5-2.9-0.7-5.5-0.7-7.7c0-3.9,0.5-8.2,1.4-12.9c0.6-3.6,1.8-8.9,3.4-16.1c0.6-1.8,0.9-3.4,1.1-4.8c0.1-0.6,0.1-1.2,0.1-1.7
		s-0.1-0.9-0.1-1.2c-0.9,0-1.6,0-1.9,0.1c-3.7,1.8-6.9,4.3-9.8,7.4c-5,5.9-9.5,12.3-13.2,19.3c-3.2,6.1-5.9,12.6-8,19.5
		c-0.4,1.5-1.1,2.2-2.2,2.2c-0.6,0-1.1-0.2-1.8-0.6c-1.3-0.6-1.9-1.4-1.9-2.2c0-0.6,0.1-1.2,0.3-1.7c0.4-1.4,0.9-3,1.5-4.8
		s1.1-3.2,1.4-4l1.9-5.6c2.8-8,5-14.3,6.9-19c0.4-1,0.7-1.9,1.1-2.6c0.4-0.7,0.7-1.4,1-1.9c1.3-2.5,2.2-4.7,2.8-6.7
		c0.3-1.1,0.9-1.7,1.9-1.7c0.2,0.6,0.3,1,0.3,1.2c0,0.6-0.2,1.4-0.6,2.5c-0.9,3.1-1.7,5.5-2.2,7l-0.4,3.3c0.3-0.4,0.7-0.8,1.2-1.3
		s0.8-0.9,1-1.3c2.5-3.7,6-7.2,10.6-10.7c1.2-0.9,2.8-1.9,4.7-2.9c0.8-0.4,1.7-0.6,2.8-0.6c1.5,0,3,0.6,4.5,1.7
		c2.8,2.2,4.1,5,3.7,8.3c-0.4,3.5-0.7,6.1-1.1,8c-1.7,7.2-2.8,13.2-3.3,17.8c-0.3,2.3-0.4,4.6-0.4,7c0,3.7,0.3,7.1,1,10.2
		c0.3,1.6,0.7,3,1.2,4.3c0.3,0.8,0.7,1.5,1.4,1.9c0.6,0.5,1.4,0.6,2.3,0.6L773.3,915.8L773.3,915.8z"/>
	<path class="st2" d="M842.6,875c0,0.2-0.1,0.4-0.2,0.5c-0.2,0.2-0.6,0.3-1.2,0.3c-0.3,0-0.5-0.1-0.7-0.3l-1-0.8
		c-2.4-2.4-5.2-3.7-8.5-4c-0.9-0.1-2.6-0.2-5.1-0.4s-4.8-0.3-6.9-0.3c0.1,0.3,0.1,0.6,0.1,1.1s0,0.8,0.1,1.1c1.2,3,1.8,6.1,1.8,9.2
		c0,4.8-1.5,10-4.5,15.6c-3.4,6.1-7.1,10.7-11,13.6c-2.4,1.7-4.5,3.1-6.5,4c-2.2,1-4.3,1.5-6.2,1.5c-3.3,0-6.2-1.1-8.7-3.3
		s-4.1-5.1-4.7-8.7c-0.2-0.8-0.3-2.2-0.3-4c0-5.9,1.6-12.5,4.7-20c1.9-4.6,3.7-8.4,5.4-11.4s3.6-5.7,5.9-8.2c2-2.2,3.8-3.8,5.4-4.7
		c0.7-0.5,1.3-0.7,1.8-0.7c0.6,0,1.1,0.3,1.5,1c0.6,0.8,1.3,1.5,2.3,2s1.6,0.9,2,1.2c0.7,0.5,3,2.1,6.9,5l10.6,1
		c2.5,0.2,4.5,0.5,6.2,1c5.2,1.6,8.9,4.3,10.9,8.1C842.6,874.6,842.6,874.8,842.6,875z M815.3,878.3c0-1.4-0.1-2.8-0.4-4.1
		c0-0.2-0.1-0.8-0.3-1.7c-0.2-1-0.6-1.9-1.4-2.7c-2.4,0-4.2,0-5.4-0.1c-2.4-0.2-4.4-0.6-6.1-1.1c-1.7-0.6-3.2-1.6-4.6-3
		c-1,1.2-1.6,1.9-1.7,2.1c-2.2,3.7-4.1,7.5-5.8,11.6c-2.4,5.7-4,11.7-4.8,18.2c-0.2,1.8-0.3,3.3-0.3,4.3c0,2.1,0.3,4.1,1,6.1
		c0.9,2.8,2.4,4.3,4.4,4.3c0.7,0,1.7-0.2,2.9-0.7c0.9-0.4,1.6-0.7,1.9-1c0.6-0.5,1.6-1.1,3-2.1c1.3-0.9,2.5-1.8,3.4-2.6
		c4.4-4.1,8-9,10.9-14.7C814.2,886.6,815.3,882.4,815.3,878.3z M806.9,864.1L806.9,864.1h-0.2H806.9z"/>
</g>
<g id="texto2">
</g>
<g>
	<g>
		<g>
			<path class="st2" d="M325.6,1530.5c3.8-21.6,26.6-32.1,45.2-34.3c1.7-0.3,3.5-0.4,5.5-0.4c10.6-12.9,24.7-17.2,31.1-18.2
				c16.4-2.5,25.1,6.9,16.1,13.3c-6.4,4.5-26.5,5-41.7,5.9c-8.4,10.5-11.9,21.4-10.5,28.6c2,9.7,8.4,12.3,24.5,5.9
				c12.3-4.9,24.1-22.4,28.2-29.4c0.6-1.3,1-2,1-2c1.8-1.1,3.4,0.4,2.8,6.3c0,0-9.7,26.2-19.9,47.8c5.3,0.8,10.6,1.8,19.1,2.5
				c16.8,1.4,25.5-1.3,35.4-5c-9.8,4.5-20.3,9.2-53.1,3.6c-0.6-0.1-1.3-0.3-2-0.4c-4.3,9.2-9,17.5-12.9,22.6
				c-9.1,11.3-20.3,14.1-28.7,13.4c-14.4-1.1-14.8-14-10.6-21c6.2-10.6,22.3-16.5,37-16.9c4.1-0.1,7.6,0,10.6,0.4
				c1.5-3.5,2.8-7.1,4.3-10.9c5.2-13.4,9.8-24,12.9-31c-5.9,9.1-15.5,18.9-27.3,22.8c-27.5,9.1-30-15.5-21-31.2
				c1.1-2,2.4-3.8,3.8-5.6C348.9,1499.2,331.9,1511.1,325.6,1530.5z M364.4,1562.1c-14.1,9.1-13.2,25.9,0.6,27.3
				c17.8,1.7,27.7-13.6,37-35.3C385,1552.6,373.4,1556.5,364.4,1562.1z M387.1,1490.8c-1.5,1.4-2.8,2.9-4.2,4.5
				c13-0.8,28.9-1.4,34.9-3.4c13.9-4.3,6.3-12.9-2-13.2C404.2,1478.2,394.4,1483.7,387.1,1490.8z"/>
			<path class="st2" d="M438,1516.7c4.5-0.1,8.3,2.7,8.3,9.9c0,2.1-0.4,5.2-1.3,8c1.4-0.6,2.9-1.5,4.5-2.8c6-4.9,7.6-9.9,10.6-9.5
				c-3.4,2.5-6.2,8.5-12,12c-1.1,0.7-2.4,1.1-3.6,1.7c-2.2,6.7-6.6,13.7-11.6,13.4c-7.1-0.3-7.7-9.7-4.3-16.2
				c0.4-0.8,0.8-1.7,1.1-2.4C425.6,1523,432.4,1516.9,438,1516.7z M433.2,1534.7c-1.1,1.8-1.8,3.6-2.4,5.5c-1.3,5,1.1,10.5,5.6,6.6
				c2.1-2,4.5-5.9,6.3-10.5C439.5,1537.1,436,1536.6,433.2,1534.7z M436.4,1522.5c2.8-0.4,3.1,2.2,2.8,3.8c0,0.1-2.9,3.2-5.3,7.4
				c2.4,1.8,5.7,2.5,9.4,1.7c2.1-6,2.8-12.9-0.8-15.7c-4.8-4.1-10.6,0.6-11.5,4.1c-0.4,2-0.4,3.8,0,5.5
				C433.5,1524.9,435.6,1522.5,436.4,1522.5z"/>
			<path class="st2" d="M460.2,1516.7c4.5-0.1,8.3,2.7,8.3,9.9c0,2.1-0.4,5.2-1.3,8c1.4-0.6,2.9-1.5,4.5-2.8c6-4.9,7.6-9.9,10.6-9.5
				c-3.4,2.5-6.2,8.5-12,12c-1.1,0.7-2.4,1.1-3.6,1.7c-2.2,6.7-6.6,13.7-11.6,13.4c-7.1-0.3-7.7-9.7-4.3-16.2
				c0.4-0.8,0.8-1.7,1.1-2.4C447.9,1523,454.6,1516.9,460.2,1516.7z M455.5,1534.7c-1.1,1.8-1.8,3.6-2.4,5.5
				c-1.3,5,1.1,10.5,5.6,6.6c2.1-2,4.5-5.9,6.3-10.5C461.6,1537.1,458.1,1536.6,455.5,1534.7z M458.7,1522.5
				c2.8-0.4,3.1,2.2,2.8,3.8c0,0.1-2.9,3.2-5.3,7.4c2.4,1.8,5.7,2.5,9.4,1.7c2.1-6,2.8-12.9-0.8-15.7c-4.8-4.1-10.6,0.6-11.5,4.1
				c-0.4,2-0.4,3.8,0,5.5C455.8,1524.9,457.9,1522.5,458.7,1522.5z"/>
			<path class="st2" d="M483.9,1540.7c3.9-1.1,7.1-1,9.5,0.3c9.8-6.2,15.4-10.5,19.9-18.6c-1,6.6-8.8,13-18.6,19.3
				c4.3,2.9,5.3,9.5,4.3,14.7c-2,9.7-7.7,17.8-18.2,24.5c-8,5-18.6,6.2-22.8,3.4c-10.6-7.4,4.5-23.8,16-31.1
				c7-4.5,12.9-8.3,17.7-11.2c-1.8-0.7-3.9-1-6.9-0.4c-4.8,1.1-8.1,2.5-8.1,2.5S479.6,1541.8,483.9,1540.7z M474.8,1554.3
				c-24.5,16.2-24.1,36.1-4.1,27c22.7-10.6,25.8-26.5,24.8-33.3c-0.4-1.8-1.1-3.8-2.8-5C487.1,1546.6,480.8,1550.2,474.8,1554.3z
				 M493.7,1520.9c0.4,0.4,1.1,0.8,1.4,1.7c1.8,5.2-4.3,13.2-11.6,17.1c-6.6,3.6-11.1,2.1-12-3.5c-1.7-9.1,9.1-16.2,13.9-17.5
				c2.1-0.6,3.8-0.7,5.2-0.7C493.7,1518.4,494.6,1520.1,493.7,1520.9z M479.7,1527.5c-5.2,5.6-6.4,12.5-2.2,12.2
				c4.3-0.4,9-3.5,13-8.5c3.2-4.1,3.1-8.3,2.1-9.9C490.8,1521.2,485,1522.3,479.7,1527.5z"/>
			<path class="st2" d="M507.3,1550.9c-0.4,2.9,0.1,5.2,2.8,1.5c8-11.2,17.7-26.5,25.9-30c-5.6,5.2-12.9,13.4-18.6,22
				c-8,11.8-9.1,12.5-11.3,11.3c-4.2-2.1-2.1-14.3,0.4-22.6c3.1-9.9,11.2-29.7,20.2-42.9c4.3-6.3,8.3-11.3,12.2-13.9
				c3.1-2.1,6.9-2.9,9.1,0.1c4.5,6.7-20.7,35.6-28.3,42.4c-1.4,1.3-2.4,2.2-3.2,2.8C509.6,1536.9,507.9,1545.5,507.3,1550.9z
				 M520.5,1512.1c-1.1,2.5-2.4,5-3.4,7.3c3.9-4.1,11.3-11.9,15.5-17.4c9.9-12.6,12.9-18.9,13.6-21.7c1.8-7.1-5.5,0.4-7.6,2.5
				C535.5,1486.6,528.9,1494.9,520.5,1512.1z"/>
			<path class="st2" d="M531,1532.7c-1.7,8,2.7,10.9,7.1,9.1c7.6-2.9,14.7-19.5,20-19.3c-5.2,4.8-5.6,6.3-9.2,10.9
				c-4.6,5.9-9.7,11.3-15.4,10.6c-7.7-0.8-8.5-10.5-6.6-14.8c2-4.6,6-9.9,12.6-10.5c5.2-0.4,7.4,4.6,2.2,9.1
				c-3.1,2.5-7.6,3.8-10.6,4.3C531.1,1532,531,1532.4,531,1532.7z M535.3,1529.6c8.3-2.8,9.8-9.1,5.3-8c0,0-6.7,0.8-9.2,9.1
				C532.5,1530.5,533.9,1530.2,535.3,1529.6z"/>
			<path class="st2" d="M597.7,1526.8c0.1,2.1-2.4,7-2.8,8c0.4,0,1.1-1.4,3.4-4.2c2.8-3.5,5.9-5.9,8.1-5.6c3.2,1.1,3.5,3.8,2.1,6.9
				c-1.3,3.1-2.8,9.1,0.4,5.2c2.4-2.9,12.9-16.7,17.1-18.6c3.5-1.7,7.6,1,5.2,7.6c-0.7,2.5-3.1,6.7-7,12.9
				c-5.9,8.8-5.9,17.7,0.4,12.5c9.9-8,14-29.3,23.4-28.9c-7.7,3.5-10.6,13.4-14,19.1c-6.3,10.9-11.6,14.4-15.4,11.8
				c-3.8-2.7-4.8-7.3-0.3-14.7c6.3-10.2,11.5-22.6,6.7-18.6c-6.6,5.6-14.1,16.5-16.2,18.6c-1.8,1.8-3.6,1.8-5,0.4
				c-1.1-1.1-1.8-3.8,0.7-9.9c2.2-5.5-0.7-2.8-3.1-0.7c-4.3,3.9-10.1,15.3-11.5,17.4c-2.2,3.5-5.3-1-4.1-4.5
				c0.3-0.6,7.6-16.7,6.6-18.5C593.9,1521.9,597.5,1521.8,597.7,1526.8z"/>
			<path class="st2" d="M660,1546.6c5.9-8.5,13-23.3,17.9-24.4c-5.2,5.9-6.4,8.5-9.4,13.2c-5.6,9.1-8.7,15.3-12,14.7
				c-3.6-0.6-7-5.3-3.2-15.7c0.1-0.4,0.4-0.8,0.4-1.1c-4.2,5.2-8.3,9.9-12.2,5.6c-3.9-4.5-0.1-12.6,3.5-16c2.7-2.5,7.7-4.5,13-3.2
				c5.9,1.5,1.4,1.5,1.4,1.5s-7.6-1.7-13,7c-3.9,6.4-1.8,12.3,1.4,9.2c1.8-1.7,5.5-6.4,8.5-10.2c1.5-2.5,3.1-5.3,4.6-5.3
				c1.5-0.1,5.2,0.4,2,4.6C653.8,1538.6,653.7,1555.7,660,1546.6z"/>
			<path class="st2" d="M635.8,1586.8c-1-13.4,23.8-35.6,27.9-39.2c1.5-1.4,2.8-2.5,3.8-3.1c1.8-5.9,2.9-10.2,3.5-11.5
				c3.2-9.5,5.2-10.8,6.6-10.4c1.8,0.8,1.7,2.8,0.6,5.9c3.2-3.9,7.6-8,13.3-8c7-0.3,9.1,6.6,6.7,14.6c5.3-1.8,10.6-4.9,15.4-12.3
				c-2.5,8.1-9,11.2-15.8,13.4c-0.8,2.4-2.1,5-3.8,7.4c-7.6,10.6-17.1,9.2-18.2,5.9c-1-2.9,1-5.6,4.1-7.7c4.3-2.8,9-3.8,13.4-5.2
				c2.4-6.3,2.9-13.9-1.5-14.3c-5.9-0.6-11.1,4.6-14.7,9.5c-1.7,4.2-4.1,9.8-5.9,16.2c-3.5,12-8.5,26.5-14.7,36
				C648.1,1596.5,636.5,1596.2,635.8,1586.8z M660.7,1552.5c-8.5,8-14.3,14.6-19.3,23.1c-5.5,9.2-4.5,16.9,0.4,16.4
				c10.6-1,20-28.4,25.2-45.7C665.6,1547.6,663.6,1549.5,660.7,1552.5z M680.6,1542.2c-3.6,2.4-4.5,5.3-3.6,6.7
				c2.1,3.5,8.7-0.7,13-7c1-1.1,1.8-2.7,2.4-4.3C688.4,1539,684.2,1540.1,680.6,1542.2z"/>
			<path class="st2" d="M715.6,1523.3c-0.4,1.4-0.4,3.5,1,5.9c1.8,3.1,3.8,5.9,4.5,8.3c10.2-5,12.7-8,17.8-14.7
				c-2.2,6.9-9.4,12-17.7,15.8c1.5,4.8,1.3,8.7-1.8,13.4c-5.2,8.3-16.2,10.9-19.9,6.6c-4.9-6,2.8-12.9,14.1-17.8
				c1.7-0.7,2.9-1.4,4.3-2c-0.4-2-1.1-3.8-2.4-5.9c-4.9-7.7-4.1-8.5-3.9-10.4c0.3-3.2,4.1-6.6,4.1-6.6c2.2-1.7,2.8,1.7,2.4,3.5
				C717.2,1520.2,716,1521.8,715.6,1523.3z M717,1540c-9.5,4.1-17.8,9.5-17.1,14.7c0.4,3.5,3.5,4.6,7.4,2.5
				c3.8-2.1,12.2-9,11.3-17.8C718,1539.9,717.4,1539.9,717,1540z"/>
			<path class="st2" d="M769.3,1550.9c-0.4,2.9,0.1,5.2,2.8,1.5c8-11.2,17.7-26.5,25.9-30c-5.6,5.2-12.9,13.4-18.6,22
				c-8,11.8-9.1,12.5-11.3,11.3c-4.2-2.1-2.1-14.3,0.4-22.6c3.1-9.9,11.2-29.7,20.2-42.9c4.3-6.3,8.3-11.3,12.2-13.9
				c3.1-2.1,6.9-2.9,9.1,0.1c4.5,6.7-20.7,35.6-28.3,42.4c-1.4,1.3-2.4,2.2-3.2,2.8C771.8,1536.9,770,1545.5,769.3,1550.9z
				 M782.7,1512.1c-1.1,2.5-2.4,5-3.4,7.3c3.9-4.1,11.3-11.9,15.5-17.4c9.9-12.6,12.9-18.9,13.6-21.7c1.8-7.1-5.5,0.4-7.6,2.5
				C797.6,1486.6,791.1,1494.9,782.7,1512.1z"/>
			<path class="st2" d="M804.8,1534.4c-4.6,6.2-8.4,10.1-12.3,9c-6.3-2-1-17.8,3.5-20.9c2-1,3.1,0.1,2.8,1.7
				c-0.4,2.5-3.1,6.3-4.3,10.8c-0.8,3.4-1.8,7.3,0.7,6.9c3.1-0.4,9.1-9.2,13-14.3c3.4-4.2,4.3-5.3,6.6-5.3
				C811.6,1524,809,1528.8,804.8,1534.4z M799.8,1518.3c-1.1-0.4-1.3-1.1-0.4-2.8c1-2,0.4-2.4,2-3.2c1.1-0.6,4.8-0.3,3.5,2.4
				C803.7,1517.2,801.2,1518.6,799.8,1518.3z"/>
			<path class="st2" d="M818.1,1525.7c0.1,3.4-1,5-2.8,9c4.3-6,14.1-16,21-17.8c3.8-1,5.6,2.5,5.2,5.2c-0.4,3.9-11.9,19.5-13.3,25.2
				c-2,8.5,3.2,5.7,4.9,4.5c4.9-3.6,14.1-20.2,18.2-25.1c5.2-5.9,7-3.9,7-3.9c-8.1,2-17.8,28-26.9,31.5c-2.7,1.1-6.7,0.4-8-3.8
				c-2.4-8.5,13.2-28.4,13.7-31.4c0.4-3.4-9.4,2.7-16.2,10.6c-4.6,5.3-7.1,9.5-9.2,12.7c-0.4,0.7-2.8,0.7-3.8-1
				c-0.4-0.7-1.7-2.4,2.1-10.1c4.2-8.5,2.4-8.3,2.4-8.3C813.5,1521.6,818.1,1522.5,818.1,1525.7z"/>
			<path class="st2" d="M895.6,1479.2c-1,12.2-27.3,37.1-36,44c-2.1,3.8-2.4,5.9-3.9,10.1c1.5-2.8,10.9-14.3,18.5-12.9
				c7,1.4,4.3,9.2-1.1,12.3c-3.8,2.1-10.8,4.6-11.1,5.5c7.7,3.4,1.8,12.6,5.2,16.2c5.9,3.8,15.4-25.6,27.3-32.1
				c-1.3,1.1-2.4,3.1-4.2,5.2c-8.5,9.5-12.9,21.4-17.8,26.5c-2.4,2.4-5.2,2.1-6.4,1.3c-8-4.5-0.6-15.1-5.9-16.2
				c-1.1-0.3-2.1-2.1-0.8-3.5c2-2.1,8.8-4.1,13.4-7.6c7.7-5.5,1.7-9.2-5.9-3.9c-9.7,6.7-11.3,12.9-14.6,22.6c-4.3,0-4.2-3.6-3.5-7.6
				c0.3-1,9.9-30.5,19.3-44.5c9.1-14.7,17.2-18.9,19.1-19.6C892.1,1473.3,895.9,1475.7,895.6,1479.2z M888.9,1478.6
				c-12.3,8-23.4,29.1-28.7,42.2c13.2-10.9,32.5-32.9,33.6-40.2C894.5,1477.4,892,1476.7,888.9,1478.6z"/>
		</g>
	</g>
</g>
<g>
	<g>
		<g>
			<path class="st2" d="M586.1,1849.6v0.8c-2.2-1.1-4.1-2.4-5.5-3.9c-2.1-2.1-3.8-4.6-4.9-7.6s-1.7-5.9-1.7-9
				c0-4.5,1.1-8.7,3.4-12.5c2.2-3.8,5.2-6.4,8.7-8v1c-1.8,1-3.2,2.4-4.3,4.1s-2.1,3.9-2.5,6.6c-0.6,2.7-0.8,5.3-0.8,8.3
				c0,3.2,0.3,6,0.7,8.5c0.4,2.1,0.8,3.6,1.4,4.9c0.4,1.3,1.3,2.4,2.2,3.5C583.4,1847.5,584.7,1848.6,586.1,1849.6z"/>
			<path class="st2" d="M606.1,1833.2c-0.4,2.7-1.5,4.8-3.2,6c-1.5,1.4-3.2,2.2-5.2,2.2c-2.4,0-4.2-1-6-2.9c-1.7-2-2.5-4.5-2.5-7.8
				c0-3.2,1-5.7,2.8-7.7s4.2-2.9,6.9-2.9c2,0,3.6,0.4,4.9,1.5c1.3,1.1,2,2.2,2,3.2c0,0.6-0.1,1-0.4,1.4c-0.4,0.4-0.8,0.4-1.4,0.4
				c-0.8,0-1.4-0.3-2-0.8c-0.3-0.4-0.4-0.8-0.4-1.7c-0.1-0.8-0.4-1.5-0.8-2s-1.3-0.6-2.1-0.6c-1.4,0-2.7,0.4-3.5,1.5
				c-1.3,1.4-1.8,3.2-1.8,5.7c0,2.4,0.6,4.5,1.7,6.3c1.3,1.8,2.8,2.8,4.8,2.8c1.4,0,2.7-0.4,3.9-1.4c0.8-0.7,1.5-2,2.4-3.6
				L606.1,1833.2z"/>
			<path class="st2" d="M616.5,1809.7v26.6c0,1.3,0.1,2.1,0.3,2.5c0.1,0.4,0.4,0.7,0.8,1c0.4,0.3,1.1,0.4,2.1,0.4v0.7h-9.8v-0.7
				c1,0,1.5-0.1,2-0.3c0.4-0.3,0.6-0.4,0.7-1c0.1-0.6,0.3-1.4,0.3-2.5v-18.2c0-2.4,0-3.6-0.1-4.1c-0.1-0.4-0.3-0.8-0.4-1.1
				c-0.3-0.3-0.4-0.3-0.8-0.3c-0.4,0-0.8,0.1-1.4,0.4l-0.4-0.7l6-2.4h1.1L616.5,1809.7L616.5,1809.7z"/>
			<path class="st2" d="M629.5,1820.2v16.2c0,1.3,0.1,2.1,0.3,2.5c0.1,0.4,0.4,0.7,0.8,1s1,0.4,2,0.4v0.7h-9.8v-0.7
				c1,0,1.5-0.1,2-0.3c0.4-0.3,0.6-0.4,0.7-1c0.3-0.4,0.3-1.4,0.3-2.5v-7.8c0-2.2-0.1-3.5-0.3-4.2c-0.1-0.4-0.3-0.8-0.4-1
				c-0.3-0.1-0.4-0.3-0.8-0.3s-0.8,0.1-1.4,0.4l-0.4-0.7l6-2.4h1.1L629.5,1820.2L629.5,1820.2z M627.7,1809.7c0.6,0,1.1,0.3,1.5,0.6
				c0.4,0.4,0.6,1,0.6,1.5c0,0.6-0.3,1.1-0.6,1.5c-0.4,0.4-1,0.6-1.5,0.6c-0.6,0-1.1-0.3-1.5-0.6c-0.4-0.4-0.6-1-0.6-1.5
				c0-0.6,0.3-1.1,0.6-1.5C626.4,1809.9,627.1,1809.7,627.7,1809.7z"/>
			<path class="st2" d="M652.6,1833.2c-0.4,2.7-1.5,4.8-3.2,6c-1.5,1.4-3.2,2.2-5.2,2.2c-2.4,0-4.2-1-6-2.9c-1.7-2-2.5-4.5-2.5-7.8
				c0-3.2,1-5.7,2.8-7.7s4.2-2.9,6.9-2.9c2,0,3.6,0.4,4.9,1.5c1.3,1.1,2,2.2,2,3.2c0,0.6-0.1,1-0.4,1.4c-0.4,0.4-0.8,0.4-1.4,0.4
				c-0.8,0-1.4-0.3-2-0.8c-0.3-0.4-0.4-0.8-0.4-1.7c-0.1-0.8-0.4-1.5-0.8-2s-1.3-0.6-2.1-0.6c-1.4,0-2.7,0.4-3.5,1.5
				c-1.3,1.4-1.8,3.2-1.8,5.7c0,2.4,0.6,4.5,1.7,6.3c1.3,1.8,2.8,2.8,4.8,2.8c1.4,0,2.7-0.4,3.9-1.4c0.8-0.7,1.5-2,2.4-3.6
				L652.6,1833.2z"/>
			<path class="st2" d="M654.7,1810.5v-1c2.2,1.1,4.1,2.4,5.6,3.9c2.1,2.1,3.6,4.6,4.9,7.6c1.1,2.9,1.7,5.9,1.7,9
				c0,4.5-1.1,8.7-3.2,12.5c-2.2,3.8-5.2,6.4-8.7,8v-0.8c1.8-1,3.2-2.4,4.3-4.1c1.3-1.7,2.1-3.9,2.5-6.6c0.6-2.7,0.8-5.5,0.8-8.3
				c0-3.2-0.3-6-0.7-8.5c-0.4-2.1-0.8-3.6-1.4-4.9c-0.4-1.3-1.3-2.4-2.2-3.5C657.3,1812.7,656.2,1811.6,654.7,1810.5z"/>
		</g>
	</g>
	<a xlink:href="https://goo.gl/maps/UWWsAAgBL6cUu1C8A"  pointer-events="all" target="_blank">
		<rect x="521.7" y="1610.2" class="st4" width="203" height="252.1"/>
		<path class="st2" d="M708.5,1652.2c-12.7-28.9-51.3-36.1-73.7-14c-1,0.8-1.8,1.3-3.1,1.3c-22.4,0-44.8,0-67.2,0
			c-12.2,0-21.6,9.4-21.6,21.6c0,37.5,0,74.8,0,112.3c0,1.4,0.1,3.1,0.4,4.5c2.4,10.5,10.6,17.1,21.4,17.1c18.6,0,37.1,0,55.8,0
			s37.1,0,55.8,0c2.4,0,5-0.4,7.3-1.1c9.1-3.1,14.7-10.9,14.7-20.6c0-21.6,0-43.1,0-64.6c0-1,0.4-2,0.8-2.8
			c2.2-3.5,4.5-6.9,6.6-10.6C713.6,1681.2,715.1,1666.9,708.5,1652.2z M638,1707.1c10.5,14.3,19.5,29.7,23.7,47.6
			c-12-12-24-24-35.7-35.6C629.9,1715.1,633.9,1711.2,638,1707.1z M554.2,1779.3c-0.4,0.4-0.7,0.8-1.4,1.3c-0.1-0.8-0.1-1.1-0.1-1.7
			c0-40.5,0-81,0-121.7c0-5,3.2-8.3,8.1-8.3c22,0,44.3,0,66.3,0c0.4,0,0.7,0,0.8,0c-1,3.9-2.2,7.7-2.8,11.6c-2.1,12,0.6,23.5,6.3,34
			c0.6,1,0.8,2.1,1.7,2.8c1.3,1.5,0.7,2.5-0.6,3.9C606.2,1727.3,580.3,1753.3,554.2,1779.3z M559.8,1786.4
			c20-20,40.2-40.2,60.4-60.2c19.8,19.8,39.9,39.9,60.2,60.2C640,1786.4,599.6,1786.4,559.8,1786.4z M689.1,1775.6
			c0,1.7-0.6,3.4-1,4.9c-8.3-8.3-16.2-16.2-24.2-24.2c0.8-0.1,1.7-0.1,2.7-0.3c6.2-1.1,9.2-5.2,10.5-10.9
			c2.2-9.8,5.7-19.2,10.4-28.2c0.3-0.7,0.7-1.4,1.3-2.2c0.1,0.8,0.3,1.3,0.3,1.7C689.3,1736,689.3,1755.7,689.1,1775.6z
			 M696.8,1685.3c-3.1,5.6-6.6,10.8-10.1,16.1c-7.7,11.2-14.3,23-19.3,35.6c-0.1,0.4-0.4,0.7-0.6,1.3c-1.7-3.8-3.2-7.3-4.8-10.8
			c-5.2-11.3-12-21.6-19.1-31.8c-3.8-5.5-7.1-11.2-9.1-17.7c-5.7-19.1,7-39.9,26.8-43.3c18.2-3.2,34.9,7.4,39.6,25.4
			C702.4,1668.7,701.2,1677.3,696.8,1685.3z"/>
		<path class="st2" d="M600.3,1666.6c-1.7,1.7-3.2,3.2-5,4.9c-7.4-4.9-13.2-5.2-18.5-1c-4.9,3.8-6.7,10.1-4.6,16
			c2,5.6,7.6,9.4,13.4,9.2c4.9-0.1,10.5-3.2,11.5-7c-3.9,0-7.7,0-11.6,0c0-2.4,0-4.6,0-7c7,0,13.9,0,20.9,0
			c1.8,5.9-4.8,16.1-12.5,19.3c-9.9,4.3-21.7,0.4-27-9.1s-2.5-21.4,6.4-27.7C582.5,1658.1,594.3,1660.3,600.3,1666.6z"/>
		<path class="st2" d="M656.2,1671c0-5.9,4.8-10.6,10.6-10.5c5.9,0,10.5,4.8,10.5,10.6s-4.8,10.6-10.6,10.6
			C660.8,1681.8,656.1,1677,656.2,1671z"/>
	</a>
</g>
<g>
	<path class="st2" d="M273.7,1072.5h26.2l4.2-14c0.8-2.7,1.2-4.9,1.2-6.4c0-0.7-0.2-1.3-0.5-1.9c-0.3-0.5-0.9-0.9-1.6-1.1
		c-0.7-0.3-2.2-0.4-4.3-0.4l0.4-1.6h22.9l-0.5,1.6c-1.9,0-3.3,0.2-4.3,0.6c-1.4,0.6-2.4,1.4-3,2.3c-0.9,1.3-1.8,3.6-2.8,6.9
		l-10,34.4c-0.8,2.9-1.3,4.9-1.3,6.2c0,1,0.4,1.8,1.1,2.4c0.7,0.6,2.5,0.9,5.3,1.1l-0.5,1.6h-22.2l0.6-1.6c2.2,0,3.6-0.2,4.4-0.6
		c1.1-0.5,1.9-1.2,2.5-1.9c0.7-1.1,1.6-3.5,2.7-7.1l5.2-17.4h-26.4l-5.2,17.4c-0.8,2.8-1.2,4.9-1.2,6.2c0,1,0.4,1.8,1.1,2.4
		c0.7,0.6,2.5,0.9,5.3,1.1l-0.3,1.6h-22.3l0.5-1.6c2.2,0,3.7-0.2,4.4-0.6c1.1-0.5,1.9-1.2,2.4-1.9c0.7-1.1,1.6-3.5,2.7-7.1
		l10.1-34.4c0.8-2.8,1.2-5,1.2-6.4c0-0.7-0.2-1.3-0.5-1.9c-0.3-0.5-0.9-0.9-1.6-1.1c-0.7-0.3-2.2-0.4-4.4-0.4l0.5-1.6h22.5l-0.5,1.6
		c-1.9,0-3.3,0.2-4.2,0.6c-1.3,0.6-2.3,1.3-2.9,2.2c-0.9,1.3-1.8,3.6-2.8,7L273.7,1072.5z"/>
	<path class="st2" d="M354.9,1066l-8.2,28.5l-0.9,3.9c-0.1,0.3-0.1,0.6-0.1,0.9c0,0.5,0.1,0.9,0.4,1.2c0.2,0.2,0.5,0.4,0.8,0.4
		c0.3,0,0.8-0.2,1.4-0.7c1.1-0.8,2.5-2.5,4.4-5l1.4,1c-1.9,2.9-3.9,5.1-5.9,6.6c-2.1,1.5-3.9,2.3-5.7,2.3c-1.2,0-2.1-0.3-2.7-0.9
		c-0.6-0.6-0.9-1.5-0.9-2.6c0-1.4,0.3-3.2,0.9-5.4l0.9-3.2c-3.7,4.8-7.1,8.2-10.1,10.1c-2.2,1.4-4.4,2-6.5,2c-2.1,0-3.8-0.8-5.3-2.5
		c-1.5-1.7-2.2-4-2.2-7c0-4.4,1.3-9.1,4-14.1c2.7-5,6.1-8.9,10.2-11.9c3.2-2.4,6.2-3.5,9.1-3.5c1.7,0,3.2,0.5,4.3,1.4
		c1.1,0.9,2,2.4,2.6,4.5l1.5-4.8L354.9,1066z M340,1068.2c-1.8,0-3.7,0.9-5.7,2.6c-2.9,2.4-5.4,5.9-7.7,10.6
		c-2.2,4.7-3.3,8.9-3.3,12.7c0,1.9,0.5,3.4,1.4,4.5c1,1.1,2.1,1.7,3.3,1.7c3,0,6.3-2.3,9.9-6.8c4.8-6,7.2-12.1,7.2-18.4
		c0-2.4-0.5-4.1-1.4-5.2C342.8,1068.8,341.6,1068.2,340,1068.2z"/>
	<path class="st2" d="M390.7,1094.9c-2.9,3.5-5.9,6-8.8,7.7c-3,1.6-6.1,2.5-9.4,2.5c-4,0-7.1-1.1-9.3-3.3c-2.2-2.2-3.3-5.2-3.3-9
		c0-4.3,1.2-8.5,3.6-12.6c2.4-4.2,5.6-7.5,9.6-10.1c4-2.6,8-3.9,11.9-3.9c3.1,0,5.3,0.6,6.9,1.9c1.5,1.3,2.3,2.9,2.3,4.7
		c0,1.7-0.5,3.2-1.6,4.4c-0.8,1-1.7,1.5-2.9,1.5c-0.9,0-1.6-0.3-2.2-0.9c-0.6-0.6-0.9-1.3-0.9-2.1c0-0.5,0.1-1,0.3-1.5
		c0.2-0.5,0.6-1,1.3-1.6c0.7-0.6,1.1-1.1,1.2-1.4c0.1-0.3,0.2-0.6,0.2-0.9c0-0.6-0.3-1.1-0.8-1.5c-0.8-0.6-2-0.8-3.4-0.8
		c-2.7,0-5.5,1-8.2,2.9c-2.7,1.9-5,4.7-6.9,8.2c-2.3,4.3-3.4,8.6-3.4,12.9c0,2.9,0.8,5.1,2.5,6.8c1.6,1.7,3.8,2.5,6.6,2.5
		c2.2,0,4.3-0.5,6.4-1.6c2.1-1.1,4.5-3,7.1-5.8L390.7,1094.9z"/>
	<path class="st2" d="M415.5,1066l-8.3,29.5c-0.6,2-0.8,3.2-0.8,3.5c0,0.5,0.1,0.8,0.4,1.1c0.3,0.3,0.6,0.4,0.9,0.4
		c0.5,0,1-0.2,1.5-0.7c1.6-1.3,3.2-3,4.8-5.4l1.5,1c-1.9,2.9-4.2,5.3-6.7,7.4c-1.9,1.5-3.7,2.2-5.4,2.2c-1.1,0-2.1-0.3-2.8-1
		c-0.7-0.7-1.1-1.5-1.1-2.6s0.3-2.8,1-5.2l5.5-18.8c0.9-3.1,1.3-5,1.3-5.8c0-0.6-0.2-1.1-0.7-1.5c-0.4-0.4-1-0.6-1.7-0.6
		c-0.6,0-1.9,0.2-3.9,0.5v-1.6L415.5,1066z M414.9,1049.4c1.2,0,2.2,0.4,3,1.2c0.8,0.8,1.2,1.8,1.2,2.9c0,1.1-0.4,2.1-1.2,3
		c-0.8,0.8-1.8,1.3-2.9,1.3s-2.1-0.4-3-1.3c-0.8-0.8-1.3-1.8-1.3-3c0-1.1,0.4-2.1,1.2-2.9C412.8,1049.8,413.8,1049.4,414.9,1049.4z"
		/>
	<path class="st2" d="M429.8,1088.2c-0.2,1.4-0.3,2.5-0.3,3.4c0,2.5,0.9,4.6,2.6,6.4s3.9,2.6,6.4,2.6c2,0,4-0.4,5.8-1.3
		c1.9-0.8,4.6-2.7,8.3-5.5l0.9,1.2c-6.6,6.6-13,9.9-19,9.9c-4.1,0-7.1-1.3-9.2-3.9c-2.1-2.6-3.1-5.4-3.1-8.5c0-4.2,1.3-8.4,3.9-12.8
		c2.6-4.4,5.8-7.8,9.7-10.2c3.9-2.4,7.9-3.6,12-3.6c3,0,5.1,0.6,6.6,1.8c1.4,1.2,2.1,2.6,2.1,4.3c0,2.3-0.9,4.6-2.8,6.7
		c-2.4,2.8-6,5-10.7,6.7C439.9,1086.7,435.5,1087.6,429.8,1088.2z M430.1,1086.2c4.1-0.5,7.5-1.3,10.1-2.5c3.4-1.5,6-3.4,7.7-5.5
		c1.7-2.1,2.6-4.2,2.6-6.1c0-1.1-0.4-2.1-1.1-2.8c-0.7-0.7-1.8-1.1-3.2-1.1c-2.9,0-5.9,1.5-9.1,4.5
		C434,1075.7,431.6,1080.2,430.1,1086.2z"/>
	<path class="st2" d="M476.7,1066l-5.6,19.1c5.2-7.8,9.2-13,12-15.4c2.8-2.5,5.5-3.7,8.1-3.7c1.4,0,2.5,0.5,3.4,1.4
		c0.9,0.9,1.4,2.1,1.4,3.6c0,1.7-0.4,3.9-1.2,6.7l-5.1,17.7c-0.6,2.1-0.9,3.3-0.9,3.8c0,0.4,0.1,0.7,0.3,1c0.2,0.3,0.5,0.4,0.7,0.4
		c0.3,0,0.7-0.2,1.2-0.5c1.5-1.2,3.1-3,4.9-5.4l1.3,0.8c-2.6,3.7-5.1,6.4-7.4,8c-1.6,1.1-3.1,1.6-4.4,1.6c-1,0-1.9-0.3-2.5-0.9
		c-0.6-0.6-0.9-1.5-0.9-2.5c0-1.4,0.5-3.7,1.4-6.9l4.9-16.9c0.6-2.1,0.9-3.7,0.9-4.9c0-0.6-0.2-1-0.5-1.4c-0.4-0.3-0.8-0.5-1.3-0.5
		c-0.8,0-1.7,0.3-2.8,1c-2.1,1.3-4.2,3.3-6.4,6.2c-2.2,2.9-4.6,6.6-7.1,11.1c-1.3,2.4-2.4,5-3.3,7.8l-2.1,6.9h-6.3l7.7-26.3
		c0.9-3.2,1.4-5.1,1.4-5.7c0-0.6-0.3-1.2-0.8-1.6c-0.5-0.5-1.1-0.7-1.8-0.7c-0.3,0-0.9,0.1-1.8,0.2l-1.6,0.2l-0.3-1.5L476.7,1066z"
		/>
	<path class="st2" d="M547.2,1044.3l-14.4,49.5c-0.8,2.7-1.2,4.4-1.2,5.3c0,0.3,0.1,0.5,0.4,0.8c0.2,0.2,0.5,0.4,0.7,0.4
		c0.4,0,0.8-0.2,1.3-0.5c1-0.7,2.6-2.4,4.8-5.1l1.5,0.9c-2,2.8-4.1,5-6.1,6.8c-2.1,1.7-4,2.6-5.8,2.6c-1,0-1.8-0.3-2.4-1
		c-0.6-0.7-0.9-1.6-0.9-2.9c0-1.6,0.4-3.7,1.3-6.4l1.6-5.2c-4,6.3-7.7,10.6-11.1,13c-2.3,1.6-4.5,2.5-6.6,2.5c-2.2,0-4-0.9-5.6-2.8
		c-1.6-1.9-2.4-4.4-2.4-7.7c0-4.2,1.3-8.6,4-13.3c2.7-4.7,6.2-8.6,10.6-11.5c3.4-2.4,6.6-3.6,9.5-3.6c1.5,0,2.8,0.3,3.9,0.9
		c1.1,0.6,2.2,1.7,3.3,3.1l4.1-14.6c0.3-1,0.5-1.9,0.7-2.5c0.3-1.1,0.5-2,0.5-2.8c0-0.6-0.2-1.1-0.6-1.5c-0.6-0.5-1.4-0.7-2.3-0.7
		c-0.6,0-1.7,0.1-3.2,0.3v-1.6L547.2,1044.3z M531.6,1074.2c0-1.8-0.5-3.2-1.5-4.3c-1-1.1-2.3-1.6-3.9-1.6c-3.5,0-7.2,2.9-11,8.7
		c-3.8,5.8-5.7,11.4-5.7,16.7c0,2.1,0.5,3.7,1.4,4.8c0.9,1.1,2,1.6,3.3,1.6c2.9,0,6.6-3.1,10.9-9.4
		C529.4,1084.3,531.6,1078.9,531.6,1074.2z"/>
	<path class="st2" d="M584,1066l-8.2,28.5l-0.9,3.9c-0.1,0.3-0.1,0.6-0.1,0.9c0,0.5,0.1,0.9,0.4,1.2c0.2,0.2,0.5,0.4,0.8,0.4
		c0.3,0,0.8-0.2,1.4-0.7c1.1-0.8,2.5-2.5,4.4-5l1.4,1c-1.9,2.9-3.9,5.1-5.9,6.6c-2.1,1.5-3.9,2.3-5.7,2.3c-1.2,0-2.1-0.3-2.7-0.9
		c-0.6-0.6-0.9-1.5-0.9-2.6c0-1.4,0.3-3.2,0.9-5.4l0.9-3.2c-3.7,4.8-7.1,8.2-10.1,10.1c-2.2,1.4-4.4,2-6.5,2c-2.1,0-3.8-0.8-5.3-2.5
		c-1.5-1.7-2.2-4-2.2-7c0-4.4,1.3-9.1,4-14.1c2.7-5,6.1-8.9,10.2-11.9c3.2-2.4,6.2-3.5,9.1-3.5c1.7,0,3.2,0.5,4.3,1.4
		c1.1,0.9,2,2.4,2.6,4.5l1.5-4.8L584,1066z M569.1,1068.2c-1.8,0-3.7,0.9-5.7,2.6c-2.9,2.4-5.4,5.9-7.7,10.6
		c-2.2,4.7-3.3,8.9-3.3,12.7c0,1.9,0.5,3.4,1.4,4.5c1,1.1,2.1,1.7,3.3,1.7c3,0,6.3-2.3,9.9-6.8c4.8-6,7.2-12.1,7.2-18.4
		c0-2.4-0.5-4.1-1.4-5.2C571.9,1068.8,570.7,1068.2,569.1,1068.2z"/>
	<path class="st2" d="M632.7,1047.1h22.4l-0.5,1.6c-2.9,0-4.9,0.6-6.1,1.6c-1.2,1-2.4,3.8-3.7,8.2l-7.2,25
		c-1.4,4.7-2.8,8.3-4.2,10.8c-1.9,3.4-4.4,6-7.6,8c-3.2,2-6.7,3-10.7,3c-3.3,0-5.8-0.7-7.5-2.2c-1.7-1.5-2.6-3.3-2.6-5.4
		c0-1.7,0.5-3.1,1.6-4.2c1-1.1,2.3-1.7,3.8-1.7c1.3,0,2.3,0.4,3.1,1.1c0.8,0.7,1.2,1.7,1.2,2.8c0,0.9-0.4,1.8-1.1,2.6
		c-0.9,1-1.4,1.8-1.4,2.2c0,0.6,0.3,1.1,0.8,1.6c0.5,0.5,1.2,0.7,2.1,0.7c1.3,0,2.6-0.3,4-0.9c1.4-0.6,2.7-1.6,3.9-2.8
		c1.2-1.3,2.3-2.8,3.2-4.5c0.9-1.8,1.8-4.2,2.8-7.2l2.1-7.2l6.3-21.6c0.9-3.2,1.4-5.1,1.4-5.9c0-1-0.4-1.9-1.3-2.6
		c-0.8-0.7-2.6-1.1-5.3-1.3L632.7,1047.1z"/>
	<path class="st2" d="M686.6,1066l-8.2,28.5l-0.9,3.9c-0.1,0.3-0.1,0.6-0.1,0.9c0,0.5,0.1,0.9,0.4,1.2c0.2,0.2,0.5,0.4,0.8,0.4
		c0.3,0,0.8-0.2,1.4-0.7c1.1-0.8,2.5-2.5,4.4-5l1.4,1c-1.9,2.9-3.9,5.1-5.9,6.6c-2.1,1.5-3.9,2.3-5.7,2.3c-1.2,0-2.1-0.3-2.7-0.9
		c-0.6-0.6-0.9-1.5-0.9-2.6c0-1.4,0.3-3.2,0.9-5.4l0.9-3.2c-3.7,4.8-7.1,8.2-10.1,10.1c-2.2,1.4-4.4,2-6.5,2c-2.1,0-3.8-0.8-5.3-2.5
		c-1.5-1.7-2.2-4-2.2-7c0-4.4,1.3-9.1,4-14.1c2.7-5,6.1-8.9,10.2-11.9c3.2-2.4,6.2-3.5,9.1-3.5c1.7,0,3.2,0.5,4.3,1.4
		c1.1,0.9,2,2.4,2.6,4.5l1.5-4.8L686.6,1066z M671.7,1068.2c-1.8,0-3.7,0.9-5.7,2.6c-2.9,2.4-5.4,5.9-7.7,10.6
		c-2.2,4.7-3.3,8.9-3.3,12.7c0,1.9,0.5,3.4,1.4,4.5c1,1.1,2.1,1.7,3.3,1.7c3,0,6.3-2.3,9.9-6.8c4.8-6,7.2-12.1,7.2-18.4
		c0-2.4-0.5-4.1-1.4-5.2C674.5,1068.8,673.3,1068.2,671.7,1068.2z"/>
	<path class="st2" d="M722.4,1094.9c-2.9,3.5-5.9,6-8.8,7.7c-3,1.6-6.1,2.5-9.4,2.5c-4,0-7.1-1.1-9.3-3.3c-2.2-2.2-3.3-5.2-3.3-9
		c0-4.3,1.2-8.5,3.6-12.6s5.6-7.5,9.6-10.1c4-2.6,8-3.9,11.9-3.9c3.1,0,5.3,0.6,6.9,1.9c1.5,1.3,2.3,2.9,2.3,4.7
		c0,1.7-0.5,3.2-1.6,4.4c-0.8,1-1.7,1.5-2.9,1.5c-0.9,0-1.6-0.3-2.2-0.9c-0.6-0.6-0.9-1.3-0.9-2.1c0-0.5,0.1-1,0.3-1.5
		c0.2-0.5,0.6-1,1.3-1.6c0.7-0.6,1.1-1.1,1.2-1.4c0.1-0.3,0.2-0.6,0.2-0.9c0-0.6-0.3-1.1-0.8-1.5c-0.8-0.6-2-0.8-3.4-0.8
		c-2.7,0-5.5,1-8.2,2.9c-2.7,1.9-5,4.7-6.9,8.2c-2.3,4.3-3.4,8.6-3.4,12.9c0,2.9,0.8,5.1,2.5,6.8c1.6,1.7,3.8,2.5,6.6,2.5
		c2.2,0,4.3-0.5,6.4-1.6c2.1-1.1,4.5-3,7.1-5.8L722.4,1094.9z"/>
	<path class="st2" d="M767.7,1066l-8.2,28.5l-0.9,3.9c-0.1,0.3-0.1,0.6-0.1,0.9c0,0.5,0.1,0.9,0.4,1.2c0.2,0.2,0.5,0.4,0.8,0.4
		c0.3,0,0.8-0.2,1.4-0.7c1.1-0.8,2.5-2.5,4.4-5l1.4,1c-1.9,2.9-3.9,5.1-5.9,6.6c-2.1,1.5-3.9,2.3-5.7,2.3c-1.2,0-2.1-0.3-2.7-0.9
		c-0.6-0.6-0.9-1.5-0.9-2.6c0-1.4,0.3-3.2,0.9-5.4l0.9-3.2c-3.7,4.8-7.1,8.2-10.1,10.1c-2.2,1.4-4.4,2-6.5,2c-2.1,0-3.8-0.8-5.3-2.5
		c-1.5-1.7-2.2-4-2.2-7c0-4.4,1.3-9.1,4-14.1c2.7-5,6.1-8.9,10.2-11.9c3.2-2.4,6.2-3.5,9.1-3.5c1.7,0,3.2,0.5,4.3,1.4
		c1.1,0.9,2,2.4,2.6,4.5l1.5-4.8L767.7,1066z M752.8,1068.2c-1.8,0-3.7,0.9-5.7,2.6c-2.9,2.4-5.4,5.9-7.7,10.6
		c-2.2,4.7-3.3,8.9-3.3,12.7c0,1.9,0.5,3.4,1.4,4.5c1,1.1,2.1,1.7,3.3,1.7c3,0,6.3-2.3,9.9-6.8c4.8-6,7.2-12.1,7.2-18.4
		c0-2.4-0.5-4.1-1.4-5.2C755.6,1068.8,754.4,1068.2,752.8,1068.2z"/>
	<path class="st2" d="M774.8,1068.4l14.5-2.4l-6,20.4c4.9-8.4,9.3-14.2,13.3-17.6c2.3-1.9,4.1-2.9,5.5-2.9c0.9,0,1.7,0.3,2.2,0.8
		c0.5,0.6,0.8,1.4,0.8,2.4c0,1.8-0.5,3.6-1.4,5.3c-0.7,1.3-1.6,1.9-2.9,1.9c-0.6,0-1.2-0.2-1.6-0.6c-0.5-0.4-0.8-1.1-0.9-1.9
		c0-0.5-0.2-0.9-0.4-1c-0.2-0.2-0.5-0.3-0.8-0.3c-0.5,0-0.9,0.1-1.4,0.3c-0.7,0.4-1.8,1.5-3.3,3.3c-2.3,2.7-4.8,6.3-7.6,10.6
		c-1.1,1.8-2.2,3.9-3,6.3c-1.1,3.2-1.8,5.1-2,5.8l-1.4,5.3h-6.4l7.8-26.1c0.9-3,1.3-5.2,1.3-6.5c0-0.5-0.2-0.9-0.6-1.3
		c-0.6-0.5-1.3-0.7-2.2-0.7c-0.6,0-1.7,0.1-3.2,0.4L774.8,1068.4z"/>
	<path class="st2" d="M844.2,1066l-8.2,28.5l-0.9,3.9c-0.1,0.3-0.1,0.6-0.1,0.9c0,0.5,0.1,0.9,0.4,1.2c0.2,0.2,0.5,0.4,0.8,0.4
		c0.3,0,0.8-0.2,1.4-0.7c1.1-0.8,2.5-2.5,4.4-5l1.4,1c-1.9,2.9-3.9,5.1-5.9,6.6c-2.1,1.5-3.9,2.3-5.7,2.3c-1.2,0-2.1-0.3-2.7-0.9
		c-0.6-0.6-0.9-1.5-0.9-2.6c0-1.4,0.3-3.2,0.9-5.4l0.9-3.2c-3.7,4.8-7.1,8.2-10.1,10.1c-2.2,1.4-4.4,2-6.5,2c-2.1,0-3.8-0.8-5.3-2.5
		c-1.5-1.7-2.2-4-2.2-7c0-4.4,1.3-9.1,4-14.1c2.7-5,6.1-8.9,10.2-11.9c3.2-2.4,6.2-3.5,9.1-3.5c1.7,0,3.2,0.5,4.3,1.4
		c1.1,0.9,2,2.4,2.6,4.5l1.5-4.8L844.2,1066z M829.2,1068.2c-1.8,0-3.7,0.9-5.7,2.6c-2.9,2.4-5.4,5.9-7.7,10.6
		c-2.2,4.7-3.3,8.9-3.3,12.7c0,1.9,0.5,3.4,1.4,4.5c1,1.1,2.1,1.7,3.3,1.7c3,0,6.3-2.3,9.9-6.8c4.8-6,7.2-12.1,7.2-18.4
		c0-2.4-0.5-4.1-1.4-5.2C832.1,1068.8,830.8,1068.2,829.2,1068.2z"/>
	<path class="st2" d="M865.8,1066l-5.6,19.1c5.2-7.8,9.2-13,12-15.4c2.8-2.5,5.5-3.7,8.1-3.7c1.4,0,2.5,0.5,3.4,1.4
		c0.9,0.9,1.4,2.1,1.4,3.6c0,1.7-0.4,3.9-1.2,6.7l-5.1,17.7c-0.6,2.1-0.9,3.3-0.9,3.8c0,0.4,0.1,0.7,0.3,1c0.2,0.3,0.5,0.4,0.7,0.4
		c0.3,0,0.7-0.2,1.2-0.5c1.5-1.2,3.1-3,4.9-5.4l1.3,0.8c-2.6,3.7-5.1,6.4-7.4,8c-1.6,1.1-3.1,1.6-4.4,1.6c-1,0-1.9-0.3-2.5-0.9
		c-0.6-0.6-0.9-1.5-0.9-2.5c0-1.4,0.5-3.7,1.4-6.9l4.9-16.9c0.6-2.1,0.9-3.7,0.9-4.9c0-0.6-0.2-1-0.5-1.4c-0.4-0.3-0.8-0.5-1.3-0.5
		c-0.8,0-1.7,0.3-2.8,1c-2.1,1.3-4.2,3.3-6.4,6.2c-2.2,2.9-4.6,6.6-7.1,11.1c-1.3,2.4-2.4,5-3.3,7.8l-2.1,6.9h-6.3l7.7-26.3
		c0.9-3.2,1.4-5.1,1.4-5.7c0-0.6-0.3-1.2-0.8-1.6c-0.5-0.5-1.1-0.7-1.8-0.7c-0.3,0-0.9,0.1-1.8,0.2l-1.6,0.2l-0.3-1.5L865.8,1066z"
		/>
	<path class="st2" d="M936.3,1044.3l-14.4,49.5c-0.8,2.7-1.2,4.4-1.2,5.3c0,0.3,0.1,0.5,0.4,0.8c0.2,0.2,0.5,0.4,0.7,0.4
		c0.4,0,0.8-0.2,1.3-0.5c1-0.7,2.6-2.4,4.8-5.1l1.5,0.9c-2,2.8-4.1,5-6.1,6.8s-4,2.6-5.8,2.6c-1,0-1.8-0.3-2.4-1
		c-0.6-0.7-0.9-1.6-0.9-2.9c0-1.6,0.4-3.7,1.3-6.4l1.6-5.2c-4,6.3-7.7,10.6-11.1,13c-2.3,1.6-4.5,2.5-6.6,2.5c-2.2,0-4-0.9-5.6-2.8
		c-1.6-1.9-2.4-4.4-2.4-7.7c0-4.2,1.3-8.6,4-13.3c2.7-4.7,6.2-8.6,10.6-11.5c3.4-2.4,6.6-3.6,9.5-3.6c1.5,0,2.8,0.3,3.9,0.9
		c1.1,0.6,2.2,1.7,3.3,3.1l4.1-14.6c0.3-1,0.5-1.9,0.7-2.5c0.3-1.1,0.5-2,0.5-2.8c0-0.6-0.2-1.1-0.6-1.5c-0.6-0.5-1.4-0.7-2.3-0.7
		c-0.6,0-1.7,0.1-3.2,0.3v-1.6L936.3,1044.3z M920.7,1074.2c0-1.8-0.5-3.2-1.5-4.3c-1-1.1-2.3-1.6-3.9-1.6c-3.5,0-7.2,2.9-11,8.7
		c-3.8,5.8-5.7,11.4-5.7,16.7c0,2.1,0.5,3.7,1.4,4.8c0.9,1.1,2,1.6,3.3,1.6c2.9,0,6.6-3.1,10.9-9.4
		C918.5,1084.3,920.7,1078.9,920.7,1074.2z"/>
	<path class="st2" d="M973.1,1066l-8.2,28.5l-0.9,3.9c-0.1,0.3-0.1,0.6-0.1,0.9c0,0.5,0.1,0.9,0.4,1.2c0.2,0.2,0.5,0.4,0.8,0.4
		c0.3,0,0.8-0.2,1.4-0.7c1.1-0.8,2.5-2.5,4.4-5l1.4,1c-1.9,2.9-3.9,5.1-5.9,6.6c-2.1,1.5-3.9,2.3-5.7,2.3c-1.2,0-2.1-0.3-2.7-0.9
		c-0.6-0.6-0.9-1.5-0.9-2.6c0-1.4,0.3-3.2,0.9-5.4l0.9-3.2c-3.7,4.8-7.1,8.2-10.1,10.1c-2.2,1.4-4.4,2-6.5,2c-2.1,0-3.8-0.8-5.3-2.5
		c-1.5-1.7-2.2-4-2.2-7c0-4.4,1.3-9.1,4-14.1c2.7-5,6.1-8.9,10.2-11.9c3.2-2.4,6.2-3.5,9.1-3.5c1.7,0,3.2,0.5,4.3,1.4
		c1.1,0.9,2,2.4,2.6,4.5l1.5-4.8L973.1,1066z M958.1,1068.2c-1.8,0-3.7,0.9-5.7,2.6c-2.9,2.4-5.4,5.9-7.7,10.6
		c-2.2,4.7-3.3,8.9-3.3,12.7c0,1.9,0.5,3.4,1.4,4.5c1,1.1,2.1,1.7,3.3,1.7c3,0,6.3-2.3,9.9-6.8c4.8-6,7.2-12.1,7.2-18.4
		c0-2.4-0.5-4.1-1.4-5.2C961,1068.8,959.7,1068.2,958.1,1068.2z"/>
</g>
<g>
	<path class="st2" d="M59.4,1184.3l0.9,12.9h-0.9c-1.2-3.9-2.8-6.6-4.9-8.3c-2.1-1.7-4.7-2.5-7.7-2.5c-2.5,0-4.8,0.6-6.8,1.9
		c-2,1.3-3.6,3.3-4.8,6.1c-1.2,2.8-1.8,6.3-1.8,10.4c0,3.4,0.5,6.4,1.6,8.9s2.8,4.4,5,5.8c2.2,1.3,4.7,2,7.5,2
		c2.5,0,4.6-0.5,6.5-1.6c1.9-1.1,3.9-3.1,6.2-6.3l0.8,0.6c-1.9,3.4-4.1,5.8-6.6,7.4c-2.5,1.6-5.5,2.3-9,2.3c-6.3,0-11.1-2.3-14.6-7
		c-2.6-3.5-3.9-7.6-3.9-12.2c0-3.8,0.8-7.2,2.5-10.4c1.7-3.2,4-5.6,7-7.4c3-1.7,6.2-2.6,9.7-2.6c2.7,0,5.4,0.7,8.1,2
		c0.8,0.4,1.4,0.6,1.7,0.6c0.5,0,0.9-0.2,1.3-0.5c0.5-0.5,0.8-1.2,1-2.1H59.4z"/>
	<path class="st2" d="M79.4,1219.3c-2.6,2-4.3,3.2-4.9,3.5c-1,0.5-2.1,0.7-3.2,0.7c-1.8,0-3.2-0.6-4.4-1.8c-1.1-1.2-1.7-2.8-1.7-4.8
		c0-1.2,0.3-2.3,0.8-3.2c0.8-1.3,2.1-2.5,4-3.6c1.9-1.1,5-2.5,9.4-4.1v-1c0-2.5-0.4-4.3-1.2-5.2s-2-1.4-3.5-1.4
		c-1.2,0-2.1,0.3-2.8,0.9c-0.7,0.6-1.1,1.4-1.1,2.2l0.1,1.6c0,0.9-0.2,1.5-0.7,2c-0.4,0.5-1,0.7-1.7,0.7c-0.7,0-1.3-0.2-1.7-0.7
		c-0.4-0.5-0.7-1.1-0.7-2c0-1.6,0.8-3.1,2.5-4.4c1.6-1.3,3.9-2,6.9-2c2.3,0,4.1,0.4,5.6,1.1c1.1,0.6,1.9,1.5,2.4,2.7
		c0.3,0.8,0.5,2.5,0.5,4.9v8.7c0,2.4,0,3.9,0.1,4.5c0.1,0.6,0.2,0.9,0.5,1.1c0.2,0.2,0.5,0.3,0.7,0.3c0.3,0,0.6-0.1,0.8-0.2
		c0.4-0.2,1.2-0.9,2.3-2v1.6c-2.1,2.8-4.1,4.2-6,4.2c-0.9,0-1.6-0.3-2.2-0.9C79.7,1221.9,79.4,1220.9,79.4,1219.3z M79.4,1217.5
		v-9.7c-2.8,1.1-4.6,1.9-5.4,2.4c-1.5,0.8-2.5,1.7-3.1,2.6c-0.6,0.9-1,1.9-1,2.9c0,1.3,0.4,2.5,1.2,3.3c0.8,0.9,1.7,1.3,2.8,1.3
		C75.2,1220.3,77,1219.4,79.4,1217.5z"/>
	<path class="st2" d="M97.7,1196.7v5.8c2.2-3.8,4.3-5.8,6.6-5.8c1,0,1.9,0.3,2.6,0.9c0.7,0.6,1,1.3,1,2.2c0,0.7-0.2,1.4-0.7,1.9
		c-0.5,0.5-1,0.7-1.7,0.7s-1.4-0.3-2.2-1c-0.8-0.6-1.4-1-1.8-1c-0.3,0-0.7,0.2-1.1,0.6c-0.8,0.8-1.7,2-2.6,3.7v12.3
		c0,1.4,0.2,2.5,0.6,3.2c0.2,0.5,0.7,0.9,1.3,1.3s1.5,0.5,2.7,0.5v1H89.1v-1c1.3,0,2.3-0.2,2.9-0.6c0.5-0.3,0.8-0.8,1-1.4
		c0.1-0.3,0.1-1.2,0.1-2.7v-9.9c0-3-0.1-4.7-0.2-5.3c-0.1-0.6-0.3-1-0.7-1.2s-0.7-0.4-1.2-0.4c-0.6,0-1.2,0.1-1.9,0.4l-0.3-1
		l7.7-3.1H97.7z"/>
	<path class="st2" d="M116.8,1196.7v5.8c2.2-3.8,4.3-5.8,6.6-5.8c1,0,1.9,0.3,2.6,0.9c0.7,0.6,1,1.3,1,2.2c0,0.7-0.2,1.4-0.7,1.9
		c-0.5,0.5-1,0.7-1.7,0.7s-1.4-0.3-2.2-1c-0.8-0.6-1.4-1-1.8-1c-0.3,0-0.7,0.2-1.1,0.6c-0.8,0.8-1.7,2-2.6,3.7v12.3
		c0,1.4,0.2,2.5,0.6,3.2c0.2,0.5,0.7,0.9,1.3,1.3s1.5,0.5,2.7,0.5v1h-13.1v-1c1.3,0,2.3-0.2,2.9-0.6c0.5-0.3,0.8-0.8,1-1.4
		c0.1-0.3,0.1-1.2,0.1-2.7v-9.9c0-3-0.1-4.7-0.2-5.3c-0.1-0.6-0.3-1-0.7-1.2s-0.7-0.4-1.2-0.4c-0.6,0-1.2,0.1-1.9,0.4l-0.3-1
		l7.7-3.1H116.8z"/>
	<path class="st2" d="M132.6,1207.1c0,3.8,0.9,6.8,2.8,9c1.9,2.2,4.1,3.2,6.6,3.2c1.7,0,3.2-0.5,4.4-1.4c1.2-0.9,2.3-2.5,3.1-4.7
		l0.9,0.6c-0.4,2.5-1.5,4.9-3.4,7c-1.9,2.1-4.2,3.2-7.1,3.2c-3.1,0-5.7-1.2-7.9-3.6c-2.2-2.4-3.3-5.6-3.3-9.7
		c0-4.4,1.1-7.8,3.4-10.2c2.2-2.5,5.1-3.7,8.5-3.7c2.9,0,5.2,0.9,7.1,2.8c1.8,1.9,2.8,4.4,2.8,7.6H132.6z M132.6,1205.5h11.9
		c-0.1-1.6-0.3-2.8-0.6-3.5c-0.5-1-1.2-1.9-2.1-2.5s-1.9-0.9-2.9-0.9c-1.6,0-2.9,0.6-4.2,1.8
		C133.6,1201.6,132.9,1203.3,132.6,1205.5z"/>
	<path class="st2" d="M161.2,1189v8.4h6v1.9h-6v16.6c0,1.7,0.2,2.8,0.7,3.4c0.5,0.6,1.1,0.9,1.8,0.9c0.6,0,1.2-0.2,1.8-0.6
		s1-1,1.4-1.7h1.1c-0.6,1.8-1.6,3.2-2.8,4.1c-1.2,0.9-2.4,1.4-3.7,1.4c-0.9,0-1.7-0.2-2.5-0.7c-0.8-0.5-1.4-1.2-1.8-2
		s-0.6-2.2-0.6-4.1v-17.2h-4.1v-0.9c1-0.4,2.1-1.1,3.1-2.1c1.1-1,2-2.1,2.9-3.5c0.4-0.7,1-2,1.8-3.9H161.2z"/>
	<path class="st2" d="M173.9,1207.1c0,3.8,0.9,6.8,2.8,9c1.9,2.2,4.1,3.2,6.6,3.2c1.7,0,3.2-0.5,4.4-1.4c1.2-0.9,2.3-2.5,3.1-4.7
		l0.9,0.6c-0.4,2.5-1.5,4.9-3.4,7c-1.9,2.1-4.2,3.2-7.1,3.2c-3.1,0-5.7-1.2-7.9-3.6c-2.2-2.4-3.3-5.6-3.3-9.7
		c0-4.4,1.1-7.8,3.4-10.2c2.2-2.5,5.1-3.7,8.5-3.7c2.9,0,5.2,0.9,7.1,2.8c1.8,1.9,2.8,4.4,2.8,7.6H173.9z M173.9,1205.5h11.9
		c-0.1-1.6-0.3-2.8-0.6-3.5c-0.5-1-1.2-1.9-2.1-2.5s-1.9-0.9-2.9-0.9c-1.6,0-2.9,0.6-4.2,1.8
		C174.9,1201.6,174.1,1203.3,173.9,1205.5z"/>
	<path class="st2" d="M202.5,1196.7v5.8c2.2-3.8,4.3-5.8,6.6-5.8c1,0,1.9,0.3,2.6,0.9c0.7,0.6,1,1.3,1,2.2c0,0.7-0.2,1.4-0.7,1.9
		c-0.5,0.5-1,0.7-1.7,0.7s-1.4-0.3-2.2-1c-0.8-0.6-1.4-1-1.8-1c-0.3,0-0.7,0.2-1.1,0.6c-0.8,0.8-1.7,2-2.6,3.7v12.3
		c0,1.4,0.2,2.5,0.6,3.2c0.2,0.5,0.7,0.9,1.3,1.3s1.5,0.5,2.7,0.5v1h-13.1v-1c1.3,0,2.3-0.2,2.9-0.6c0.5-0.3,0.8-0.8,1-1.4
		c0.1-0.3,0.1-1.2,0.1-2.7v-9.9c0-3-0.1-4.7-0.2-5.3c-0.1-0.6-0.3-1-0.7-1.2s-0.7-0.4-1.2-0.4c-0.6,0-1.2,0.1-1.9,0.4l-0.3-1
		l7.7-3.1H202.5z"/>
	<path class="st2" d="M228.6,1219.3c-2.6,2-4.3,3.2-4.9,3.5c-1,0.5-2.1,0.7-3.2,0.7c-1.8,0-3.2-0.6-4.4-1.8
		c-1.1-1.2-1.7-2.8-1.7-4.8c0-1.2,0.3-2.3,0.8-3.2c0.8-1.3,2.1-2.5,4-3.6c1.9-1.1,5-2.5,9.4-4.1v-1c0-2.5-0.4-4.3-1.2-5.2
		s-2-1.4-3.5-1.4c-1.2,0-2.1,0.3-2.8,0.9c-0.7,0.6-1.1,1.4-1.1,2.2l0.1,1.6c0,0.9-0.2,1.5-0.7,2c-0.4,0.5-1,0.7-1.7,0.7
		c-0.7,0-1.3-0.2-1.7-0.7c-0.4-0.5-0.7-1.1-0.7-2c0-1.6,0.8-3.1,2.5-4.4c1.6-1.3,3.9-2,6.9-2c2.3,0,4.1,0.4,5.6,1.1
		c1.1,0.6,1.9,1.5,2.4,2.7c0.3,0.8,0.5,2.5,0.5,4.9v8.7c0,2.4,0,3.9,0.1,4.5c0.1,0.6,0.2,0.9,0.5,1.1c0.2,0.2,0.5,0.3,0.7,0.3
		c0.3,0,0.6-0.1,0.8-0.2c0.4-0.2,1.2-0.9,2.3-2v1.6c-2.1,2.8-4.1,4.2-6,4.2c-0.9,0-1.6-0.3-2.2-0.9
		C228.9,1221.9,228.6,1220.9,228.6,1219.3z M228.6,1217.5v-9.7c-2.8,1.1-4.6,1.9-5.4,2.4c-1.5,0.8-2.5,1.7-3.1,2.6
		c-0.6,0.9-1,1.9-1,2.9c0,1.3,0.4,2.5,1.2,3.3c0.8,0.9,1.7,1.3,2.8,1.3C224.4,1220.3,226.3,1219.4,228.6,1217.5z"/>
	<path class="st2" d="M271.8,1220.1c-1.2,1.3-2.5,2.2-3.7,2.8s-2.5,0.9-3.8,0.9c-2.8,0-5.2-1.2-7.3-3.5c-2.1-2.3-3.1-5.3-3.1-9
		c0-3.7,1.2-7,3.5-10.1s5.3-4.6,8.9-4.6c2.3,0,4.1,0.7,5.6,2.2v-4.7c0-2.9-0.1-4.7-0.2-5.4s-0.4-1.1-0.6-1.4
		c-0.3-0.2-0.7-0.4-1.1-0.4c-0.5,0-1.1,0.2-1.9,0.5l-0.4-1l7.6-3.1h1.2v29.6c0,3,0.1,4.8,0.2,5.5c0.1,0.7,0.4,1.1,0.7,1.4
		c0.3,0.3,0.7,0.4,1.1,0.4c0.5,0,1.1-0.2,2-0.5l0.3,1l-7.6,3.2h-1.3V1220.1z M271.8,1218.2V1205c-0.1-1.3-0.4-2.4-1-3.5
		c-0.6-1-1.3-1.8-2.2-2.4c-0.9-0.5-1.8-0.8-2.7-0.8c-1.6,0-3.1,0.7-4.4,2.2c-1.7,1.9-2.5,4.7-2.5,8.5c0,3.8,0.8,6.7,2.5,8.7
		c1.6,2,3.5,3,5.5,3C268.6,1220.7,270.3,1219.9,271.8,1218.2z"/>
	<path class="st2" d="M286.7,1207.1c0,3.8,0.9,6.8,2.8,9c1.9,2.2,4.1,3.2,6.6,3.2c1.7,0,3.2-0.5,4.4-1.4c1.2-0.9,2.3-2.5,3.1-4.7
		l0.9,0.6c-0.4,2.5-1.5,4.9-3.4,7c-1.9,2.1-4.2,3.2-7.1,3.2c-3.1,0-5.7-1.2-7.9-3.6c-2.2-2.4-3.3-5.6-3.3-9.7
		c0-4.4,1.1-7.8,3.4-10.2c2.2-2.5,5.1-3.7,8.5-3.7c2.9,0,5.2,0.9,7.1,2.8c1.8,1.9,2.8,4.4,2.8,7.6H286.7z M286.7,1205.5h11.9
		c-0.1-1.6-0.3-2.8-0.6-3.5c-0.5-1-1.2-1.9-2.1-2.5s-1.9-0.9-2.9-0.9c-1.6,0-2.9,0.6-4.2,1.8
		C287.6,1201.6,286.9,1203.3,286.7,1205.5z"/>
	<path class="st2" d="M346.5,1184.3v13.1h-1c-0.3-2.5-0.9-4.5-1.8-6s-2.1-2.7-3.7-3.5s-3.3-1.3-5-1.3c-1.9,0-3.5,0.6-4.8,1.8
		c-1.3,1.2-1.9,2.5-1.9,4c0,1.2,0.4,2.2,1.2,3.2c1.2,1.4,3.9,3.3,8.2,5.6c3.5,1.9,6,3.4,7.3,4.4c1.3,1,2.3,2.2,3,3.6
		c0.7,1.4,1,2.8,1,4.3c0,2.9-1.1,5.3-3.3,7.4c-2.2,2.1-5.1,3.1-8.6,3.1c-1.1,0-2.2-0.1-3.1-0.2c-0.6-0.1-1.8-0.4-3.6-1
		c-1.8-0.6-3-0.9-3.5-0.9c-0.5,0-0.8,0.1-1.1,0.4s-0.5,0.9-0.6,1.7h-1v-13h1c0.5,2.7,1.1,4.7,2,6.1c0.8,1.4,2.1,2.5,3.8,3.4
		c1.7,0.9,3.5,1.3,5.6,1.3c2.3,0,4.1-0.6,5.5-1.8c1.4-1.2,2-2.7,2-4.4c0-0.9-0.3-1.9-0.8-2.8s-1.3-1.8-2.4-2.6
		c-0.7-0.6-2.7-1.7-5.9-3.6c-3.2-1.8-5.5-3.3-6.9-4.4c-1.4-1.1-2.4-2.3-3.1-3.6c-0.7-1.3-1.1-2.7-1.1-4.3c0-2.7,1-5.1,3.1-7
		c2.1-2,4.7-2.9,8-2.9c2,0,4.1,0.5,6.4,1.5c1,0.5,1.8,0.7,2.2,0.7c0.5,0,0.9-0.1,1.2-0.4c0.3-0.3,0.6-0.9,0.7-1.8H346.5z"/>
	<path class="st2" d="M366.4,1196.7c3.9,0,7,1.5,9.3,4.4c2,2.5,3,5.4,3,8.7c0,2.3-0.5,4.6-1.6,6.9c-1.1,2.3-2.6,4.1-4.5,5.3
		s-4.1,1.8-6.5,1.8c-3.8,0-6.9-1.5-9.2-4.6c-1.9-2.6-2.8-5.5-2.8-8.7c0-2.4,0.6-4.7,1.7-7c1.2-2.3,2.7-4,4.6-5.1
		C362.2,1197.2,364.3,1196.7,366.4,1196.7z M365.5,1198.5c-1,0-2,0.3-3,0.9c-1,0.6-1.8,1.6-2.4,3.1c-0.6,1.5-0.9,3.4-0.9,5.7
		c0,3.7,0.7,6.9,2.2,9.6s3.4,4,5.9,4c1.8,0,3.3-0.7,4.5-2.2c1.2-1.5,1.8-4,1.8-7.7c0-4.6-1-8.1-2.9-10.8
		C369.3,1199.4,367.6,1198.5,365.5,1198.5z"/>
	<path class="st2" d="M389.9,1189v8.4h6v1.9h-6v16.6c0,1.7,0.2,2.8,0.7,3.4c0.5,0.6,1.1,0.9,1.8,0.9c0.6,0,1.2-0.2,1.8-0.6
		s1-1,1.4-1.7h1.1c-0.6,1.8-1.6,3.2-2.8,4.1c-1.2,0.9-2.4,1.4-3.7,1.4c-0.9,0-1.7-0.2-2.5-0.7c-0.8-0.5-1.4-1.2-1.8-2
		s-0.6-2.2-0.6-4.1v-17.2h-4.1v-0.9c1-0.4,2.1-1.1,3.1-2.1c1.1-1,2-2.1,2.9-3.5c0.4-0.7,1-2,1.8-3.9H389.9z"/>
	<path class="st2" d="M410.9,1196.7c3.9,0,7,1.5,9.3,4.4c2,2.5,3,5.4,3,8.7c0,2.3-0.5,4.6-1.6,6.9c-1.1,2.3-2.6,4.1-4.5,5.3
		s-4.1,1.8-6.5,1.8c-3.8,0-6.9-1.5-9.2-4.6c-1.9-2.6-2.8-5.5-2.8-8.7c0-2.4,0.6-4.7,1.7-7c1.2-2.3,2.7-4,4.6-5.1
		C406.7,1197.2,408.7,1196.7,410.9,1196.7z M410,1198.5c-1,0-2,0.3-3,0.9c-1,0.6-1.8,1.6-2.4,3.1c-0.6,1.5-0.9,3.4-0.9,5.7
		c0,3.7,0.7,6.9,2.2,9.6s3.4,4,5.9,4c1.8,0,3.3-0.7,4.5-2.2c1.2-1.5,1.8-4,1.8-7.7c0-4.6-1-8.1-2.9-10.8
		C413.7,1199.4,412.1,1198.5,410,1198.5z"/>
	<path class="st2" d="M459.3,1220.1c-1.2,1.3-2.5,2.2-3.7,2.8s-2.5,0.9-3.8,0.9c-2.8,0-5.2-1.2-7.3-3.5c-2.1-2.3-3.1-5.3-3.1-9
		c0-3.7,1.2-7,3.5-10.1s5.3-4.6,8.9-4.6c2.3,0,4.1,0.7,5.6,2.2v-4.7c0-2.9-0.1-4.7-0.2-5.4s-0.4-1.1-0.6-1.4
		c-0.3-0.2-0.7-0.4-1.1-0.4c-0.5,0-1.1,0.2-1.9,0.5l-0.4-1l7.6-3.1h1.2v29.6c0,3,0.1,4.8,0.2,5.5c0.1,0.7,0.4,1.1,0.7,1.4
		c0.3,0.3,0.7,0.4,1.1,0.4c0.5,0,1.1-0.2,2-0.5l0.3,1l-7.6,3.2h-1.3V1220.1z M459.3,1218.2V1205c-0.1-1.3-0.4-2.4-1-3.5
		c-0.6-1-1.3-1.8-2.2-2.4c-0.9-0.5-1.8-0.8-2.7-0.8c-1.6,0-3.1,0.7-4.4,2.2c-1.7,1.9-2.5,4.7-2.5,8.5c0,3.8,0.8,6.7,2.5,8.7
		c1.6,2,3.5,3,5.5,3C456.1,1220.7,457.7,1219.9,459.3,1218.2z"/>
	<path class="st2" d="M474.1,1207.1c0,3.8,0.9,6.8,2.8,9c1.9,2.2,4.1,3.2,6.6,3.2c1.7,0,3.2-0.5,4.4-1.4c1.2-0.9,2.3-2.5,3.1-4.7
		l0.9,0.6c-0.4,2.5-1.5,4.9-3.4,7c-1.9,2.1-4.2,3.2-7.1,3.2c-3.1,0-5.7-1.2-7.9-3.6c-2.2-2.4-3.3-5.6-3.3-9.7
		c0-4.4,1.1-7.8,3.4-10.2c2.2-2.5,5.1-3.7,8.5-3.7c2.9,0,5.2,0.9,7.1,2.8c1.8,1.9,2.8,4.4,2.8,7.6H474.1z M474.1,1205.5H486
		c-0.1-1.6-0.3-2.8-0.6-3.5c-0.5-1-1.2-1.9-2.1-2.5s-1.9-0.9-2.9-0.9c-1.6,0-2.9,0.6-4.2,1.8C475,1201.6,474.3,1203.3,474.1,1205.5z
		"/>
	<path class="st2" d="M504,1183.3v33.9c0,1.6,0.1,2.7,0.3,3.2s0.6,0.9,1.1,1.2c0.5,0.3,1.4,0.4,2.7,0.4v1h-12.5v-1
		c1.2,0,2-0.1,2.4-0.4s0.8-0.6,1-1.2c0.2-0.6,0.3-1.6,0.3-3.2V1194c0-2.9-0.1-4.7-0.2-5.3c-0.1-0.7-0.3-1.1-0.6-1.4
		c-0.3-0.2-0.7-0.4-1.1-0.4c-0.5,0-1.1,0.2-1.8,0.5l-0.5-1l7.6-3.1H504z"/>
	<path class="st2" d="M562.3,1223h-10.1l-12.8-17.7c-0.9,0-1.7,0-2.3,0c-0.2,0-0.5,0-0.8,0c-0.3,0-0.6,0-0.9,0v11
		c0,2.4,0.3,3.9,0.8,4.4c0.7,0.8,1.8,1.2,3.2,1.2h1.5v1h-16.2v-1h1.4c1.6,0,2.7-0.5,3.4-1.6c0.4-0.6,0.6-1.9,0.6-4.1v-24.5
		c0-2.4-0.3-3.9-0.8-4.4c-0.7-0.8-1.8-1.2-3.3-1.2h-1.4v-1h13.8c4,0,7,0.3,8.9,0.9s3.5,1.7,4.9,3.2c1.3,1.6,2,3.4,2,5.6
		c0,2.3-0.8,4.4-2.3,6.1c-1.5,1.7-3.9,2.9-7.1,3.6l7.8,10.9c1.8,2.5,3.3,4.2,4.6,5c1.3,0.8,3,1.3,5,1.5V1223z M535.4,1203.6
		c0.3,0,0.7,0,0.9,0c0.3,0,0.5,0,0.6,0c3.6,0,6.3-0.8,8.2-2.4s2.8-3.6,2.8-6c0-2.4-0.7-4.3-2.2-5.8s-3.4-2.2-5.9-2.2
		c-1.1,0-2.5,0.2-4.4,0.5V1203.6z"/>
	<path class="st2" d="M567.9,1207.1c0,3.8,0.9,6.8,2.8,9c1.9,2.2,4.1,3.2,6.6,3.2c1.7,0,3.2-0.5,4.4-1.4c1.2-0.9,2.3-2.5,3.1-4.7
		l0.9,0.6c-0.4,2.5-1.5,4.9-3.4,7c-1.9,2.1-4.2,3.2-7.1,3.2c-3.1,0-5.7-1.2-7.9-3.6c-2.2-2.4-3.3-5.6-3.3-9.7
		c0-4.4,1.1-7.8,3.4-10.2c2.2-2.5,5.1-3.7,8.5-3.7c2.9,0,5.2,0.9,7.1,2.8c1.8,1.9,2.8,4.4,2.8,7.6H567.9z M567.9,1205.5h11.9
		c-0.1-1.6-0.3-2.8-0.6-3.5c-0.5-1-1.2-1.9-2.1-2.5s-1.9-0.9-2.9-0.9c-1.6,0-2.9,0.6-4.2,1.8
		C568.8,1201.6,568.1,1203.3,567.9,1205.5z"/>
	<path class="st2" d="M603.5,1219.3c-2.6,2-4.3,3.2-4.9,3.5c-1,0.5-2.1,0.7-3.2,0.7c-1.8,0-3.2-0.6-4.4-1.8
		c-1.1-1.2-1.7-2.8-1.7-4.8c0-1.2,0.3-2.3,0.8-3.2c0.8-1.3,2.1-2.5,4-3.6c1.9-1.1,5-2.5,9.4-4.1v-1c0-2.5-0.4-4.3-1.2-5.2
		s-2-1.4-3.5-1.4c-1.2,0-2.1,0.3-2.8,0.9c-0.7,0.6-1.1,1.4-1.1,2.2l0.1,1.6c0,0.9-0.2,1.5-0.7,2c-0.4,0.5-1,0.7-1.7,0.7
		c-0.7,0-1.3-0.2-1.7-0.7c-0.4-0.5-0.7-1.1-0.7-2c0-1.6,0.8-3.1,2.5-4.4c1.6-1.3,3.9-2,6.9-2c2.3,0,4.1,0.4,5.6,1.1
		c1.1,0.6,1.9,1.5,2.4,2.7c0.3,0.8,0.5,2.5,0.5,4.9v8.7c0,2.4,0,3.9,0.1,4.5c0.1,0.6,0.2,0.9,0.5,1.1c0.2,0.2,0.5,0.3,0.7,0.3
		c0.3,0,0.6-0.1,0.8-0.2c0.4-0.2,1.2-0.9,2.3-2v1.6c-2.1,2.8-4.1,4.2-6,4.2c-0.9,0-1.6-0.3-2.2-0.9
		C603.8,1221.9,603.5,1220.9,603.5,1219.3z M603.5,1217.5v-9.7c-2.8,1.1-4.6,1.9-5.4,2.4c-1.5,0.8-2.5,1.7-3.1,2.6
		c-0.6,0.9-1,1.9-1,2.9c0,1.3,0.4,2.5,1.2,3.3c0.8,0.9,1.7,1.3,2.8,1.3C599.3,1220.3,601.2,1219.4,603.5,1217.5z"/>
	<path class="st2" d="M623.2,1183.3v33.9c0,1.6,0.1,2.7,0.3,3.2s0.6,0.9,1.1,1.2c0.5,0.3,1.4,0.4,2.7,0.4v1h-12.5v-1
		c1.2,0,2-0.1,2.4-0.4s0.8-0.6,1-1.2c0.2-0.6,0.3-1.6,0.3-3.2V1194c0-2.9-0.1-4.7-0.2-5.3c-0.1-0.7-0.3-1.1-0.6-1.4
		c-0.3-0.2-0.7-0.4-1.1-0.4c-0.5,0-1.1,0.2-1.8,0.5l-0.5-1l7.6-3.1H623.2z"/>
	<path class="st2" d="M659,1219.3c-2.6,2-4.3,3.2-4.9,3.5c-1,0.5-2.1,0.7-3.2,0.7c-1.8,0-3.2-0.6-4.4-1.8c-1.1-1.2-1.7-2.8-1.7-4.8
		c0-1.2,0.3-2.3,0.8-3.2c0.8-1.3,2.1-2.5,4-3.6c1.9-1.1,5-2.5,9.4-4.1v-1c0-2.5-0.4-4.3-1.2-5.2s-2-1.4-3.5-1.4
		c-1.2,0-2.1,0.3-2.8,0.9c-0.7,0.6-1.1,1.4-1.1,2.2l0.1,1.6c0,0.9-0.2,1.5-0.7,2c-0.4,0.5-1,0.7-1.7,0.7c-0.7,0-1.3-0.2-1.7-0.7
		c-0.4-0.5-0.7-1.1-0.7-2c0-1.6,0.8-3.1,2.5-4.4c1.6-1.3,3.9-2,6.9-2c2.3,0,4.1,0.4,5.6,1.1c1.1,0.6,1.9,1.5,2.4,2.7
		c0.3,0.8,0.5,2.5,0.5,4.9v8.7c0,2.4,0,3.9,0.1,4.5c0.1,0.6,0.2,0.9,0.5,1.1c0.2,0.2,0.5,0.3,0.7,0.3c0.3,0,0.6-0.1,0.8-0.2
		c0.4-0.2,1.2-0.9,2.3-2v1.6c-2.1,2.8-4.1,4.2-6,4.2c-0.9,0-1.6-0.3-2.2-0.9C659.4,1221.9,659.1,1220.9,659,1219.3z M659,1217.5
		v-9.7c-2.8,1.1-4.6,1.9-5.4,2.4c-1.5,0.8-2.5,1.7-3.1,2.6c-0.6,0.9-1,1.9-1,2.9c0,1.3,0.4,2.5,1.2,3.3c0.8,0.9,1.7,1.3,2.8,1.3
		C654.9,1220.3,656.7,1219.4,659,1217.5z"/>
	<path class="st2" d="M705.9,1223l-14.6-31.9v25.3c0,2.3,0.3,3.8,0.8,4.3c0.7,0.8,1.8,1.2,3.3,1.2h1.3v1h-13.2v-1h1.4
		c1.6,0,2.7-0.5,3.4-1.5c0.4-0.6,0.6-1.9,0.6-4.1v-24.7c0-1.7-0.2-2.9-0.6-3.6c-0.3-0.5-0.7-1-1.4-1.4c-0.7-0.4-1.8-0.6-3.4-0.6v-1
		h10.7l13.8,29.7l13.5-29.7h10.7v1h-1.3c-1.6,0-2.8,0.5-3.4,1.5c-0.4,0.6-0.6,2-0.6,4.1v24.7c0,2.3,0.3,3.8,0.8,4.3
		c0.7,0.8,1.8,1.2,3.3,1.2h1.3v1h-16.1v-1h1.3c1.6,0,2.8-0.5,3.4-1.5c0.4-0.6,0.6-1.9,0.6-4.1v-25.3l-14.6,31.9H705.9z"/>
	<path class="st2" d="M743.9,1196.7v20.5c0,1.6,0.1,2.7,0.3,3.2c0.2,0.5,0.6,0.9,1,1.2c0.5,0.3,1.3,0.4,2.5,0.4v1h-12.4v-1
		c1.2,0,2.1-0.1,2.5-0.4s0.8-0.6,1-1.2c0.2-0.6,0.4-1.6,0.4-3.2v-9.9c0-2.8-0.1-4.6-0.2-5.4c-0.1-0.6-0.3-1-0.6-1.2
		c-0.3-0.2-0.7-0.3-1.1-0.3c-0.5,0-1.1,0.1-1.9,0.4l-0.4-1l7.7-3.1H743.9z M741.6,1183.3c0.8,0,1.5,0.3,2,0.8c0.5,0.6,0.8,1.2,0.8,2
		c0,0.8-0.3,1.4-0.8,2c-0.5,0.6-1.2,0.8-2,0.8s-1.5-0.3-2-0.8c-0.6-0.6-0.8-1.2-0.8-2c0-0.8,0.3-1.5,0.8-2
		C740.1,1183.6,740.8,1183.3,741.6,1183.3z"/>
	<path class="st2" d="M758.5,1196.7v5.8c2.2-3.8,4.3-5.8,6.6-5.8c1,0,1.9,0.3,2.6,0.9c0.7,0.6,1,1.3,1,2.2c0,0.7-0.2,1.4-0.7,1.9
		c-0.5,0.5-1,0.7-1.7,0.7s-1.4-0.3-2.2-1c-0.8-0.6-1.4-1-1.8-1c-0.3,0-0.7,0.2-1.1,0.6c-0.8,0.8-1.7,2-2.6,3.7v12.3
		c0,1.4,0.2,2.5,0.6,3.2c0.2,0.5,0.7,0.9,1.3,1.3s1.5,0.5,2.7,0.5v1h-13.1v-1c1.3,0,2.3-0.2,2.9-0.6c0.5-0.3,0.8-0.8,1-1.4
		c0.1-0.3,0.1-1.2,0.1-2.7v-9.9c0-3-0.1-4.7-0.2-5.3c-0.1-0.6-0.3-1-0.7-1.2s-0.7-0.4-1.2-0.4c-0.6,0-1.2,0.1-1.9,0.4l-0.3-1
		l7.7-3.1H758.5z"/>
	<path class="st2" d="M784.5,1219.3c-2.6,2-4.3,3.2-4.9,3.5c-1,0.5-2.1,0.7-3.2,0.7c-1.8,0-3.2-0.6-4.4-1.8
		c-1.1-1.2-1.7-2.8-1.7-4.8c0-1.2,0.3-2.3,0.8-3.2c0.8-1.3,2.1-2.5,4-3.6c1.9-1.1,5-2.5,9.4-4.1v-1c0-2.5-0.4-4.3-1.2-5.2
		s-2-1.4-3.5-1.4c-1.2,0-2.1,0.3-2.8,0.9c-0.7,0.6-1.1,1.4-1.1,2.2l0.1,1.6c0,0.9-0.2,1.5-0.7,2c-0.4,0.5-1,0.7-1.7,0.7
		c-0.7,0-1.3-0.2-1.7-0.7c-0.4-0.5-0.7-1.1-0.7-2c0-1.6,0.8-3.1,2.5-4.4c1.6-1.3,3.9-2,6.9-2c2.3,0,4.1,0.4,5.6,1.1
		c1.1,0.6,1.9,1.5,2.4,2.7c0.3,0.8,0.5,2.5,0.5,4.9v8.7c0,2.4,0,3.9,0.1,4.5c0.1,0.6,0.2,0.9,0.5,1.1c0.2,0.2,0.5,0.3,0.7,0.3
		c0.3,0,0.6-0.1,0.8-0.2c0.4-0.2,1.2-0.9,2.3-2v1.6c-2.1,2.8-4.1,4.2-6,4.2c-0.9,0-1.6-0.3-2.2-0.9
		C784.8,1221.9,784.6,1220.9,784.5,1219.3z M784.5,1217.5v-9.7c-2.8,1.1-4.6,1.9-5.4,2.4c-1.5,0.8-2.5,1.7-3.1,2.6
		c-0.6,0.9-1,1.9-1,2.9c0,1.3,0.4,2.5,1.2,3.3c0.8,0.9,1.7,1.3,2.8,1.3C780.4,1220.3,782.2,1219.4,784.5,1217.5z"/>
	<path class="st2" d="M805.5,1199.5v16.8c0,2.4,0.3,3.9,0.8,4.5c0.7,0.8,1.6,1.2,2.8,1.2h2.3v1H796v-1h1.1c0.8,0,1.5-0.2,2.1-0.6
		c0.6-0.4,1-0.9,1.3-1.5c0.2-0.6,0.3-1.9,0.3-3.7v-16.8h-5v-2h5v-1.7c0-2.5,0.4-4.7,1.2-6.5c0.8-1.8,2.1-3.2,3.7-4.3
		c1.7-1.1,3.6-1.6,5.7-1.6c2,0,3.8,0.6,5.4,1.9c1.1,0.8,1.6,1.8,1.6,2.8c0,0.6-0.2,1.1-0.7,1.6c-0.5,0.5-1,0.7-1.6,0.7
		c-0.4,0-0.9-0.2-1.3-0.5c-0.5-0.3-1.1-1-1.8-2c-0.7-1-1.3-1.7-1.9-2s-1.2-0.5-1.9-0.5c-0.9,0-1.6,0.2-2.2,0.7s-1,1.2-1.3,2.1
		c-0.3,1-0.4,3.4-0.4,7.4v1.9h6.6v2H805.5z"/>
	<path class="st2" d="M823.3,1183.3v33.9c0,1.6,0.1,2.7,0.3,3.2s0.6,0.9,1.1,1.2c0.5,0.3,1.4,0.4,2.7,0.4v1h-12.5v-1
		c1.2,0,2-0.1,2.4-0.4s0.8-0.6,1-1.2c0.2-0.6,0.3-1.6,0.3-3.2V1194c0-2.9-0.1-4.7-0.2-5.3c-0.1-0.7-0.3-1.1-0.6-1.4
		c-0.3-0.2-0.7-0.4-1.1-0.4c-0.5,0-1.1,0.2-1.8,0.5l-0.5-1l7.6-3.1H823.3z"/>
	<path class="st2" d="M842.9,1196.7c3.9,0,7,1.5,9.3,4.4c2,2.5,3,5.4,3,8.7c0,2.3-0.5,4.6-1.6,6.9c-1.1,2.3-2.6,4.1-4.5,5.3
		s-4.1,1.8-6.5,1.8c-3.8,0-6.9-1.5-9.2-4.6c-1.9-2.6-2.8-5.5-2.8-8.7c0-2.4,0.6-4.7,1.7-7c1.2-2.3,2.7-4,4.6-5.1
		C838.8,1197.2,840.8,1196.7,842.9,1196.7z M842,1198.5c-1,0-2,0.3-3,0.9c-1,0.6-1.8,1.6-2.4,3.1c-0.6,1.5-0.9,3.4-0.9,5.7
		c0,3.7,0.7,6.9,2.2,9.6s3.4,4,5.9,4c1.8,0,3.3-0.7,4.5-2.2c1.2-1.5,1.8-4,1.8-7.7c0-4.6-1-8.1-2.9-10.8
		C845.8,1199.4,844.1,1198.5,842,1198.5z"/>
	<path class="st2" d="M866.5,1196.7v5.8c2.2-3.8,4.3-5.8,6.6-5.8c1,0,1.9,0.3,2.6,0.9c0.7,0.6,1,1.3,1,2.2c0,0.7-0.2,1.4-0.7,1.9
		c-0.5,0.5-1,0.7-1.7,0.7s-1.4-0.3-2.2-1c-0.8-0.6-1.4-1-1.8-1c-0.3,0-0.7,0.2-1.1,0.6c-0.8,0.8-1.7,2-2.6,3.7v12.3
		c0,1.4,0.2,2.5,0.6,3.2c0.2,0.5,0.7,0.9,1.3,1.3s1.5,0.5,2.7,0.5v1h-13.1v-1c1.3,0,2.3-0.2,2.9-0.6c0.5-0.3,0.8-0.8,1-1.4
		c0.1-0.3,0.1-1.2,0.1-2.7v-9.9c0-3-0.1-4.7-0.2-5.3c-0.1-0.6-0.3-1-0.7-1.2s-0.7-0.4-1.2-0.4c-0.6,0-1.2,0.1-1.9,0.4l-0.3-1
		l7.7-3.1H866.5z"/>
	<path class="st2" d="M882.3,1207.1c0,3.8,0.9,6.8,2.8,9c1.9,2.2,4.1,3.2,6.6,3.2c1.7,0,3.2-0.5,4.4-1.4c1.2-0.9,2.3-2.5,3.1-4.7
		l0.9,0.6c-0.4,2.5-1.5,4.9-3.4,7c-1.9,2.1-4.2,3.2-7.1,3.2c-3.1,0-5.7-1.2-7.9-3.6c-2.2-2.4-3.3-5.6-3.3-9.7
		c0-4.4,1.1-7.8,3.4-10.2c2.2-2.5,5.1-3.7,8.5-3.7c2.9,0,5.2,0.9,7.1,2.8c1.8,1.9,2.8,4.4,2.8,7.6H882.3z M882.3,1205.5h11.9
		c-0.1-1.6-0.3-2.8-0.6-3.5c-0.5-1-1.2-1.9-2.1-2.5s-1.9-0.9-2.9-0.9c-1.6,0-2.9,0.6-4.2,1.8
		C883.2,1201.6,882.5,1203.3,882.3,1205.5z"/>
	<path class="st2" d="M920,1196.7v8.7h-0.9c-0.7-2.7-1.6-4.6-2.7-5.6c-1.1-1-2.5-1.5-4.2-1.5c-1.3,0-2.3,0.3-3.2,1s-1.2,1.5-1.2,2.3
		c0,1,0.3,1.9,0.9,2.7c0.6,0.8,1.8,1.6,3.5,2.4l4.1,2c3.8,1.8,5.7,4.3,5.7,7.3c0,2.3-0.9,4.2-2.7,5.6c-1.8,1.4-3.7,2.2-5.9,2.2
		c-1.5,0-3.3-0.3-5.3-0.9c-0.6-0.2-1.1-0.3-1.5-0.3c-0.4,0-0.8,0.2-1,0.7h-0.9v-9.1h0.9c0.5,2.6,1.5,4.6,3,5.9s3.1,2,4.9,2
		c1.3,0,2.3-0.4,3.1-1.1c0.8-0.8,1.2-1.7,1.2-2.7c0-1.3-0.5-2.4-1.4-3.2c-0.9-0.9-2.7-2-5.4-3.3c-2.7-1.3-4.5-2.6-5.3-3.6
		c-0.8-1.1-1.2-2.4-1.2-4c0-2.1,0.7-3.9,2.2-5.3c1.4-1.4,3.3-2.1,5.6-2.1c1,0,2.2,0.2,3.7,0.6c0.9,0.3,1.6,0.4,1.9,0.4
		s0.5-0.1,0.7-0.2c0.2-0.1,0.4-0.4,0.6-0.9H920z"/>
	<path class="st2" d="M927,1232.6v-1.2c1.9-0.6,3.4-1.6,4.4-2.9c1.1-1.3,1.6-2.7,1.6-4.2c0-0.3-0.1-0.6-0.2-0.9
		c-0.1-0.2-0.2-0.2-0.4-0.2c-0.2,0-0.7,0.2-1.4,0.6c-0.3,0.2-0.7,0.3-1,0.3c-0.9,0-1.7-0.3-2.2-0.8c-0.5-0.5-0.8-1.3-0.8-2.2
		c0-0.9,0.3-1.7,1-2.4c0.7-0.6,1.5-1,2.5-1c1.2,0,2.3,0.5,3.3,1.6c0.9,1.1,1.4,2.5,1.4,4.2c0,1.9-0.7,3.7-2,5.3
		C932,1230.3,929.9,1231.6,927,1232.6z"/>
	<path class="st2" d="M969.6,1202l13.9,13.9c2.3,2.3,4.2,3.8,5.9,4.7s3.2,1.3,4.9,1.4v1h-18v-1c1.1,0,1.9-0.2,2.3-0.5
		c0.5-0.4,0.7-0.8,0.7-1.2c0-0.4-0.1-0.8-0.3-1.2c-0.2-0.3-0.8-1-1.8-2l-13.1-12.9v12.2c0,1.9,0.1,3.2,0.4,3.8
		c0.2,0.5,0.6,0.9,1.1,1.2c0.8,0.4,1.7,0.7,2.6,0.7h1.3v1h-16.2v-1h1.4c1.6,0,2.7-0.5,3.4-1.4c0.5-0.6,0.7-2,0.7-4.3v-24.5
		c0-1.9-0.1-3.2-0.4-3.9c-0.2-0.4-0.6-0.8-1.1-1.1c-0.8-0.5-1.7-0.7-2.6-0.7h-1.4v-1h16.2v1h-1.3c-0.9,0-1.7,0.2-2.6,0.7
		c-0.6,0.3-1,0.7-1.2,1.3s-0.3,1.8-0.3,3.7v11.6c0.4-0.4,1.6-1.6,3.8-3.6c5.5-5.1,8.9-8.4,10-10.1c0.5-0.7,0.8-1.4,0.8-1.9
		c0-0.4-0.2-0.8-0.6-1.1c-0.4-0.3-1.1-0.5-2-0.5h-0.9v-1h13.9v1c-0.8,0-1.5,0.1-2.2,0.3c-0.7,0.2-1.5,0.6-2.5,1.2s-2.2,1.5-3.6,2.8
		c-0.4,0.4-2.3,2.3-5.7,5.7L969.6,1202z"/>
	<path class="st2" d="M1003.2,1202.1c1.9-1.9,3-2.9,3.3-3.2c0.9-0.7,1.8-1.2,2.7-1.6c1-0.4,1.9-0.6,2.9-0.6c1.6,0,3,0.5,4.2,1.4
		c1.2,0.9,1.9,2.3,2.3,4.1c1.9-2.2,3.5-3.7,4.9-4.4c1.3-0.7,2.7-1,4.1-1c1.4,0,2.6,0.3,3.6,1c1.1,0.7,1.9,1.8,2.5,3.4
		c0.4,1.1,0.6,2.8,0.6,5.1v11c0,1.6,0.1,2.7,0.3,3.3c0.2,0.4,0.6,0.8,1.1,1.1c0.5,0.3,1.3,0.4,2.4,0.4v1h-12.6v-1h0.6
		c1.1,0,1.9-0.2,2.6-0.6c0.4-0.3,0.7-0.8,0.9-1.5c0.1-0.3,0.1-1.2,0.1-2.7v-11c0-2.1-0.2-3.6-0.7-4.4c-0.7-1.2-1.9-1.8-3.5-1.8
		c-1,0-2,0.2-3,0.7s-2.2,1.4-3.6,2.8l-0.1,0.3l0.1,1.2v12.2c0,1.8,0.1,2.9,0.3,3.3c0.2,0.4,0.6,0.8,1.1,1.1c0.5,0.3,1.5,0.4,2.8,0.4
		v1H1010v-1c1.4,0,2.4-0.2,2.9-0.5s0.9-0.8,1.1-1.5c0.1-0.3,0.1-1.2,0.1-2.8v-11c0-2.1-0.3-3.6-0.9-4.5c-0.8-1.2-2-1.8-3.4-1.8
		c-1,0-2,0.3-3,0.8c-1.6,0.8-2.8,1.8-3.6,2.8v13.7c0,1.7,0.1,2.8,0.4,3.3c0.2,0.5,0.6,0.9,1,1.1c0.5,0.3,1.4,0.4,2.8,0.4v1h-12.6v-1
		c1.2,0,2-0.1,2.4-0.4c0.5-0.3,0.8-0.7,1.1-1.2c0.2-0.5,0.4-1.6,0.4-3.2v-9.7c0-2.8-0.1-4.6-0.3-5.4c-0.1-0.6-0.3-1.1-0.6-1.3
		c-0.3-0.2-0.7-0.3-1.1-0.3c-0.5,0-1.2,0.1-1.9,0.4l-0.4-1l7.7-3.1h1.2V1202.1z"/>
	<path class="st2" d="M1045.5,1217.6c0.9,0,1.6,0.3,2.2,0.9s0.9,1.3,0.9,2.2s-0.3,1.6-0.9,2.2s-1.3,0.9-2.2,0.9
		c-0.9,0-1.6-0.3-2.2-0.9c-0.6-0.6-0.9-1.3-0.9-2.2c0-0.9,0.3-1.6,0.9-2.2C1043.9,1217.9,1044.6,1217.6,1045.5,1217.6z"/>
	<path class="st2" d="M1069.8,1192.4c1.1-2.5,2.4-4.5,4.1-5.9c1.7-1.4,3.7-2.1,6.2-2.1c3,0,5.4,1,7,2.9c1.2,1.5,1.9,3.1,1.9,4.7
		c0,2.8-1.7,5.6-5.2,8.6c2.3,0.9,4.1,2.2,5.3,3.9s1.8,3.7,1.8,6c0,3.3-1,6.1-3.1,8.5c-2.7,3.1-6.6,4.7-11.8,4.7
		c-2.5,0-4.3-0.3-5.2-0.9c-0.9-0.6-1.4-1.3-1.4-2c0-0.5,0.2-1,0.7-1.4c0.4-0.4,1-0.6,1.6-0.6c0.5,0,0.9,0.1,1.4,0.2
		c0.3,0.1,1,0.4,2.2,1s1.9,0.9,2.3,1c0.7,0.2,1.4,0.3,2.2,0.3c1.9,0,3.5-0.7,4.9-2.2c1.4-1.5,2.1-3.2,2.1-5.2c0-1.5-0.3-2.9-1-4.3
		c-0.5-1-1-1.8-1.6-2.4c-0.8-0.7-1.9-1.4-3.3-2c-1.4-0.6-2.8-0.9-4.3-0.9h-0.9v-0.8c1.5-0.2,3-0.7,4.4-1.6c1.5-0.9,2.6-1.9,3.2-3.2
		c0.7-1.2,1-2.6,1-4c0-1.9-0.6-3.5-1.8-4.7c-1.2-1.2-2.7-1.8-4.5-1.8c-2.9,0-5.3,1.5-7.3,4.6L1069.8,1192.4z"/>
	<path class="st2" d="M1098.6,1232.6v-1.2c1.9-0.6,3.4-1.6,4.4-2.9c1.1-1.3,1.6-2.7,1.6-4.2c0-0.3-0.1-0.6-0.2-0.9
		c-0.1-0.2-0.2-0.2-0.4-0.2c-0.2,0-0.7,0.2-1.4,0.6c-0.3,0.2-0.7,0.3-1,0.3c-0.9,0-1.7-0.3-2.2-0.8c-0.5-0.5-0.8-1.3-0.8-2.2
		c0-0.9,0.3-1.7,1-2.4c0.7-0.6,1.5-1,2.5-1c1.2,0,2.3,0.5,3.3,1.6c0.9,1.1,1.4,2.5,1.4,4.2c0,1.9-0.7,3.7-2,5.3
		C1103.5,1230.3,1101.4,1231.6,1098.6,1232.6z"/>
	<path class="st2" d="M1116.5,1188.8l9.2-4.5h0.9v32c0,2.1,0.1,3.4,0.3,3.9c0.2,0.5,0.6,0.9,1.1,1.2c0.6,0.3,1.7,0.4,3.4,0.5v1
		h-14.2v-1c1.8,0,2.9-0.2,3.5-0.5c0.5-0.3,0.9-0.6,1.1-1.1c0.2-0.5,0.3-1.8,0.3-4.1v-20.5c0-2.8-0.1-4.5-0.3-5.3
		c-0.1-0.6-0.4-1-0.7-1.3s-0.8-0.4-1.2-0.4c-0.7,0-1.7,0.3-2.9,0.9L1116.5,1188.8z"/>
	<path class="st2" d="M1140.4,1204.3c0-4.3,0.6-8,1.9-11.2c1.3-3.1,3-5.4,5.2-7c1.7-1.2,3.4-1.8,5.2-1.8c2.9,0,5.5,1.5,7.8,4.4
		c2.9,3.7,4.3,8.6,4.3,14.9c0,4.4-0.6,8.1-1.9,11.2c-1.3,3.1-2.9,5.3-4.9,6.7c-2,1.4-3.9,2.1-5.7,2.1c-3.6,0-6.6-2.1-9-6.4
		C1141.5,1213.7,1140.4,1209.4,1140.4,1204.3z M1145.9,1205c0,5.2,0.6,9.5,1.9,12.8c1.1,2.8,2.6,4.2,4.8,4.2c1,0,2-0.5,3.1-1.4
		c1.1-0.9,1.9-2.4,2.5-4.5c0.9-3.2,1.3-7.7,1.3-13.6c0-4.3-0.5-7.9-1.4-10.8c-0.7-2.2-1.5-3.7-2.6-4.5c-0.8-0.6-1.7-0.9-2.7-0.9
		c-1.3,0-2.4,0.6-3.4,1.7c-1.3,1.5-2.3,4-2.7,7.3C1146.1,1198.5,1145.9,1201.8,1145.9,1205z"/>
	<path class="st2" d="M1169,1204.3c0-4.3,0.6-8,1.9-11.2c1.3-3.1,3-5.4,5.2-7c1.7-1.2,3.4-1.8,5.2-1.8c2.9,0,5.5,1.5,7.8,4.4
		c2.9,3.7,4.3,8.6,4.3,14.9c0,4.4-0.6,8.1-1.9,11.2c-1.3,3.1-2.9,5.3-4.9,6.7c-2,1.4-3.9,2.1-5.7,2.1c-3.6,0-6.6-2.1-9-6.4
		C1170,1213.7,1169,1209.4,1169,1204.3z M1174.5,1205c0,5.2,0.6,9.5,1.9,12.8c1.1,2.8,2.6,4.2,4.8,4.2c1,0,2-0.5,3.1-1.4
		c1.1-0.9,1.9-2.4,2.5-4.5c0.9-3.2,1.3-7.7,1.3-13.6c0-4.3-0.5-7.9-1.4-10.8c-0.7-2.2-1.5-3.7-2.6-4.5c-0.8-0.6-1.7-0.9-2.7-0.9
		c-1.3,0-2.4,0.6-3.4,1.7c-1.3,1.5-2.3,4-2.7,7.3C1174.7,1198.5,1174.5,1201.8,1174.5,1205z"/>
	<path class="st2" d="M1198.6,1232.6v-1.2c1.9-0.6,3.4-1.6,4.4-2.9c1.1-1.3,1.6-2.7,1.6-4.2c0-0.3-0.1-0.6-0.2-0.9
		c-0.1-0.2-0.2-0.2-0.4-0.2c-0.2,0-0.7,0.2-1.4,0.6c-0.3,0.2-0.7,0.3-1,0.3c-0.9,0-1.7-0.3-2.2-0.8c-0.5-0.5-0.8-1.3-0.8-2.2
		c0-0.9,0.3-1.7,1-2.4c0.7-0.6,1.5-1,2.5-1c1.2,0,2.3,0.5,3.3,1.6c0.9,1.1,1.4,2.5,1.4,4.2c0,1.9-0.7,3.7-2,5.3
		C1203.6,1230.3,1201.5,1231.6,1198.6,1232.6z"/>
	<path class="st2" d="M215.6,1301l-2.7,7.3h-22.3v-1c6.6-6,11.2-10.9,13.9-14.7c2.7-3.8,4-7.3,4-10.4c0-2.4-0.7-4.4-2.2-5.9
		s-3.2-2.3-5.3-2.3c-1.9,0-3.6,0.5-5,1.6c-1.5,1.1-2.6,2.7-3.3,4.8h-1c0.5-3.4,1.7-6.1,3.6-7.9c1.9-1.8,4.3-2.8,7.2-2.8
		c3.1,0,5.6,1,7.7,3s3.1,4.3,3.1,7c0,1.9-0.5,3.8-1.4,5.8c-1.4,3-3.6,6.2-6.7,9.6c-4.6,5.1-7.5,8.1-8.7,9.2h9.9c2,0,3.4-0.1,4.2-0.2
		s1.5-0.4,2.2-0.9c0.6-0.5,1.2-1.1,1.7-1.9H215.6z"/>
	<path class="st2" d="M228.9,1289.2c-3-2.5-4.9-4.4-5.8-5.9c-0.9-1.5-1.3-3-1.3-4.6c0-2.5,0.9-4.6,2.8-6.3c1.9-1.8,4.4-2.7,7.6-2.7
		c3.1,0,5.5,0.8,7.4,2.5c1.9,1.7,2.8,3.5,2.8,5.7c0,1.4-0.5,2.9-1.5,4.3s-3.1,3.2-6.3,5.2c3.3,2.5,5.4,4.5,6.5,6
		c1.4,1.9,2.1,3.9,2.1,6c0,2.7-1,4.9-3,6.8c-2,1.9-4.7,2.8-8,2.8c-3.6,0-6.4-1.1-8.4-3.4c-1.6-1.8-2.4-3.8-2.4-5.9
		c0-1.7,0.6-3.3,1.7-5C224.2,1293,226.1,1291.2,228.9,1289.2z M230.2,1290.3c-1.5,1.3-2.7,2.7-3.4,4.2c-0.7,1.5-1.1,3.2-1.1,5
		c0,2.4,0.7,4.3,2,5.8s3,2.2,5,2.2c2,0,3.6-0.6,4.8-1.7c1.2-1.1,1.8-2.5,1.8-4.1c0-1.3-0.4-2.5-1.1-3.6
		C236.9,1296,234.2,1293.5,230.2,1290.3z M233.3,1286.2c2.2-2,3.6-3.6,4.2-4.8s0.9-2.5,0.9-3.9c0-2-0.5-3.5-1.6-4.6
		c-1.1-1.1-2.6-1.6-4.5-1.6c-1.9,0-3.4,0.5-4.6,1.6c-1.2,1.1-1.8,2.4-1.8,3.8c0,1,0.2,1.9,0.7,2.9s1.2,1.9,2.1,2.8L233.3,1286.2z"/>
	<path class="st2" d="M252.3,1270.4h20.3v1.1l-12.6,37.6h-3.1l11.3-34.1h-10.4c-2.1,0-3.6,0.2-4.5,0.7c-1.5,0.9-2.8,2.2-3.7,4
		l-0.8-0.3L252.3,1270.4z"/>
	<path class="st2" d="M278.1,1309.1v-1c2.4,0,4.7-0.6,6.8-1.7c2.1-1.1,4.1-3,6-5.7c1.9-2.7,3.3-5.7,4.1-9c-2.9,1.9-5.6,2.8-7.9,2.8
		c-2.7,0-5-1-6.9-3.1c-1.9-2.1-2.8-4.8-2.8-8.2c0-3.3,0.9-6.3,2.8-8.8c2.3-3.1,5.3-4.7,9-4.7c3.1,0,5.8,1.3,8,3.9
		c2.7,3.2,4.1,7.1,4.1,11.8c0,4.2-1,8.1-3.1,11.8c-2.1,3.6-4.9,6.7-8.6,9.1c-3,2-6.2,3-9.8,3H278.1z M295.4,1289.6
		c0.3-2.4,0.5-4.3,0.5-5.8c0-1.8-0.3-3.8-0.9-5.8c-0.6-2.1-1.5-3.7-2.6-4.8c-1.1-1.1-2.4-1.7-3.8-1.7c-1.7,0-3.1,0.7-4.4,2.2
		c-1.2,1.5-1.9,3.7-1.9,6.6c0,3.9,0.8,7,2.5,9.2c1.2,1.6,2.7,2.4,4.5,2.4c0.9,0,1.9-0.2,3-0.6
		C293.5,1290.9,294.5,1290.4,295.4,1289.6z"/>
	<path class="st2" d="M329.9,1301l-2.7,7.3h-22.3v-1c6.6-6,11.2-10.9,13.9-14.7c2.7-3.8,4-7.3,4-10.4c0-2.4-0.7-4.4-2.2-5.9
		s-3.2-2.3-5.3-2.3c-1.9,0-3.6,0.5-5,1.6c-1.5,1.1-2.6,2.7-3.3,4.8h-1c0.5-3.4,1.7-6.1,3.6-7.9c1.9-1.8,4.3-2.8,7.2-2.8
		c3.1,0,5.6,1,7.7,3s3.1,4.3,3.1,7c0,1.9-0.5,3.8-1.4,5.8c-1.4,3-3.6,6.2-6.7,9.6c-4.6,5.1-7.5,8.1-8.7,9.2h9.9c2,0,3.4-0.1,4.2-0.2
		s1.5-0.4,2.2-0.9c0.6-0.5,1.2-1.1,1.7-1.9H329.9z"/>
	<path class="st2" d="M370,1308.3l-14.6-31.9v25.3c0,2.3,0.3,3.8,0.8,4.3c0.7,0.8,1.8,1.2,3.3,1.2h1.3v1h-13.2v-1h1.4
		c1.6,0,2.7-0.5,3.4-1.5c0.4-0.6,0.6-1.9,0.6-4.1V1277c0-1.7-0.2-2.9-0.6-3.6c-0.3-0.5-0.7-1-1.4-1.4c-0.7-0.4-1.8-0.6-3.4-0.6v-1
		h10.7l13.8,29.7l13.5-29.7h10.7v1h-1.3c-1.6,0-2.8,0.5-3.4,1.5c-0.4,0.6-0.6,2-0.6,4.1v24.7c0,2.3,0.3,3.8,0.8,4.3
		c0.7,0.8,1.8,1.2,3.3,1.2h1.3v1h-16.1v-1h1.3c1.6,0,2.8-0.5,3.4-1.5c0.4-0.6,0.6-1.9,0.6-4.1v-25.3l-14.6,31.9H370z"/>
	<path class="st2" d="M408,1282v20.5c0,1.6,0.1,2.7,0.3,3.2c0.2,0.5,0.6,0.9,1,1.2c0.5,0.3,1.3,0.4,2.5,0.4v1h-12.4v-1
		c1.2,0,2.1-0.1,2.5-0.4c0.4-0.2,0.8-0.6,1-1.2c0.2-0.6,0.4-1.6,0.4-3.2v-9.9c0-2.8-0.1-4.6-0.2-5.4c-0.1-0.6-0.3-1-0.6-1.2
		c-0.3-0.2-0.7-0.3-1.1-0.3c-0.5,0-1.1,0.1-1.9,0.4l-0.4-1l7.7-3.1H408z M405.7,1268.6c0.8,0,1.5,0.3,2,0.8c0.5,0.6,0.8,1.2,0.8,2
		c0,0.8-0.3,1.4-0.8,2c-0.5,0.6-1.2,0.9-2,0.9s-1.5-0.3-2-0.9c-0.6-0.6-0.8-1.2-0.8-2c0-0.8,0.3-1.5,0.8-2
		C404.2,1268.8,404.9,1268.6,405.7,1268.6z"/>
	<path class="st2" d="M422.6,1282v5.8c2.2-3.8,4.3-5.8,6.6-5.8c1,0,1.9,0.3,2.6,0.9c0.7,0.6,1,1.3,1,2.2c0,0.7-0.2,1.4-0.7,1.9
		c-0.5,0.5-1,0.7-1.7,0.7s-1.4-0.3-2.2-1s-1.4-1-1.8-1c-0.3,0-0.7,0.2-1.1,0.6c-0.8,0.8-1.7,2-2.6,3.7v12.3c0,1.4,0.2,2.5,0.6,3.2
		c0.2,0.5,0.7,0.9,1.3,1.3c0.6,0.3,1.5,0.5,2.7,0.5v1H414v-1c1.3,0,2.3-0.2,2.9-0.6c0.5-0.3,0.8-0.8,1-1.4c0.1-0.3,0.1-1.2,0.1-2.7
		v-9.9c0-3-0.1-4.7-0.2-5.3c-0.1-0.6-0.3-1-0.7-1.2c-0.3-0.3-0.7-0.4-1.2-0.4c-0.6,0-1.2,0.1-1.9,0.4l-0.3-1l7.7-3.1H422.6z"/>
	<path class="st2" d="M448.6,1304.6c-2.6,2-4.3,3.2-4.9,3.5c-1,0.5-2.1,0.7-3.2,0.7c-1.8,0-3.2-0.6-4.4-1.8
		c-1.1-1.2-1.7-2.8-1.7-4.8c0-1.2,0.3-2.3,0.8-3.2c0.8-1.3,2.1-2.5,4-3.6c1.9-1.1,5-2.5,9.4-4.1v-1c0-2.5-0.4-4.3-1.2-5.2
		s-2-1.4-3.5-1.4c-1.2,0-2.1,0.3-2.8,0.9c-0.7,0.6-1.1,1.4-1.1,2.2l0.1,1.6c0,0.9-0.2,1.5-0.7,2c-0.4,0.5-1,0.7-1.7,0.7
		c-0.7,0-1.3-0.2-1.7-0.7s-0.7-1.1-0.7-2c0-1.6,0.8-3.1,2.5-4.4s3.9-2,6.9-2c2.3,0,4.1,0.4,5.6,1.1c1.1,0.6,1.9,1.5,2.4,2.7
		c0.3,0.8,0.5,2.5,0.5,4.9v8.7c0,2.4,0,3.9,0.1,4.5c0.1,0.6,0.2,0.9,0.5,1.1c0.2,0.2,0.5,0.3,0.7,0.3c0.3,0,0.6-0.1,0.8-0.2
		c0.4-0.2,1.2-0.9,2.3-2v1.6c-2.1,2.8-4.1,4.2-6,4.2c-0.9,0-1.6-0.3-2.2-0.9C448.9,1307.2,448.7,1306.1,448.6,1304.6z M448.6,1302.8
		v-9.7c-2.8,1.1-4.6,1.9-5.4,2.4c-1.5,0.8-2.5,1.7-3.1,2.6c-0.6,0.9-1,1.9-1,2.9c0,1.3,0.4,2.5,1.2,3.3s1.7,1.3,2.8,1.3
		C444.5,1305.6,446.3,1304.6,448.6,1302.8z"/>
	<path class="st2" d="M469.6,1284.7v16.8c0,2.4,0.3,3.9,0.8,4.5c0.7,0.8,1.6,1.2,2.8,1.2h2.3v1h-15.3v-1h1.1c0.8,0,1.5-0.2,2.1-0.6
		c0.6-0.4,1-0.9,1.3-1.5s0.3-1.9,0.3-3.7v-16.8h-5v-2h5v-1.7c0-2.5,0.4-4.7,1.2-6.5c0.8-1.8,2.1-3.2,3.7-4.3
		c1.7-1.1,3.6-1.6,5.7-1.6c2,0,3.8,0.6,5.4,1.9c1.1,0.8,1.6,1.8,1.6,2.8c0,0.6-0.2,1.1-0.7,1.6c-0.5,0.5-1,0.7-1.6,0.7
		c-0.4,0-0.9-0.2-1.3-0.5c-0.5-0.3-1.1-1-1.8-2c-0.7-1-1.3-1.7-1.9-2s-1.2-0.5-1.9-0.5c-0.9,0-1.6,0.2-2.2,0.7s-1,1.2-1.3,2.1
		s-0.4,3.4-0.4,7.4v1.9h6.6v2H469.6z"/>
	<path class="st2" d="M487.4,1268.6v33.9c0,1.6,0.1,2.7,0.3,3.2s0.6,0.9,1.1,1.2c0.5,0.3,1.4,0.4,2.7,0.4v1H479v-1
		c1.2,0,2-0.1,2.4-0.4c0.4-0.2,0.8-0.6,1-1.2c0.2-0.6,0.3-1.6,0.3-3.2v-23.2c0-2.9-0.1-4.7-0.2-5.3c-0.1-0.7-0.3-1.1-0.6-1.4
		c-0.3-0.2-0.7-0.4-1.1-0.4c-0.5,0-1.1,0.2-1.8,0.5l-0.5-1l7.6-3.1H487.4z"/>
	<path class="st2" d="M507,1282c3.9,0,7,1.5,9.3,4.4c2,2.5,3,5.4,3,8.7c0,2.3-0.5,4.6-1.6,6.9c-1.1,2.3-2.6,4.1-4.5,5.3
		c-1.9,1.2-4.1,1.8-6.5,1.8c-3.8,0-6.9-1.5-9.2-4.6c-1.9-2.6-2.8-5.5-2.8-8.7c0-2.4,0.6-4.7,1.7-7c1.2-2.3,2.7-4,4.6-5.1
		C502.9,1282.5,504.9,1282,507,1282z M506.1,1283.8c-1,0-2,0.3-3,0.9c-1,0.6-1.8,1.6-2.4,3.1c-0.6,1.5-0.9,3.4-0.9,5.7
		c0,3.7,0.7,6.9,2.2,9.6c1.5,2.7,3.4,4,5.9,4c1.8,0,3.3-0.7,4.5-2.2c1.2-1.5,1.8-4,1.8-7.7c0-4.6-1-8.1-2.9-10.8
		C509.9,1284.7,508.2,1283.8,506.1,1283.8z"/>
	<path class="st2" d="M530.6,1282v5.8c2.2-3.8,4.3-5.8,6.6-5.8c1,0,1.9,0.3,2.6,0.9c0.7,0.6,1,1.3,1,2.2c0,0.7-0.2,1.4-0.7,1.9
		c-0.5,0.5-1,0.7-1.7,0.7s-1.4-0.3-2.2-1s-1.4-1-1.8-1c-0.3,0-0.7,0.2-1.1,0.6c-0.8,0.8-1.7,2-2.6,3.7v12.3c0,1.4,0.2,2.5,0.6,3.2
		c0.2,0.5,0.7,0.9,1.3,1.3c0.6,0.3,1.5,0.5,2.7,0.5v1h-13.1v-1c1.3,0,2.3-0.2,2.9-0.6c0.5-0.3,0.8-0.8,1-1.4
		c0.1-0.3,0.1-1.2,0.1-2.7v-9.9c0-3-0.1-4.7-0.2-5.3c-0.1-0.6-0.3-1-0.7-1.2c-0.3-0.3-0.7-0.4-1.2-0.4c-0.6,0-1.2,0.1-1.9,0.4
		l-0.3-1l7.7-3.1H530.6z"/>
	<path class="st2" d="M546.4,1292.3c0,3.8,0.9,6.8,2.8,9c1.9,2.2,4.1,3.2,6.6,3.2c1.7,0,3.2-0.5,4.4-1.4c1.2-0.9,2.3-2.5,3.1-4.7
		l0.9,0.6c-0.4,2.5-1.5,4.9-3.4,7c-1.9,2.1-4.2,3.2-7.1,3.2c-3.1,0-5.7-1.2-7.9-3.6c-2.2-2.4-3.3-5.6-3.3-9.7
		c0-4.4,1.1-7.8,3.4-10.2c2.2-2.5,5.1-3.7,8.5-3.7c2.9,0,5.2,0.9,7.1,2.8c1.8,1.9,2.8,4.4,2.8,7.6H546.4z M546.4,1290.7h11.9
		c-0.1-1.6-0.3-2.8-0.6-3.5c-0.5-1-1.2-1.9-2.1-2.5c-0.9-0.6-1.9-0.9-2.9-0.9c-1.6,0-2.9,0.6-4.2,1.8
		C547.3,1286.9,546.6,1288.6,546.4,1290.7z"/>
	<path class="st2" d="M584.1,1282v8.7h-0.9c-0.7-2.7-1.6-4.6-2.7-5.6c-1.1-1-2.5-1.5-4.2-1.5c-1.3,0-2.3,0.3-3.2,1
		c-0.8,0.7-1.2,1.5-1.2,2.3c0,1,0.3,1.9,0.9,2.7c0.6,0.8,1.8,1.6,3.5,2.4l4.1,2c3.8,1.8,5.7,4.3,5.7,7.3c0,2.3-0.9,4.2-2.7,5.6
		c-1.8,1.4-3.7,2.2-5.9,2.2c-1.5,0-3.3-0.3-5.3-0.9c-0.6-0.2-1.1-0.3-1.5-0.3c-0.4,0-0.8,0.2-1,0.7h-0.9v-9.1h0.9
		c0.5,2.6,1.5,4.6,3,5.9s3.1,2,4.9,2c1.3,0,2.3-0.4,3.1-1.1c0.8-0.8,1.2-1.7,1.2-2.7c0-1.3-0.5-2.4-1.4-3.2c-0.9-0.9-2.7-2-5.4-3.3
		c-2.7-1.3-4.5-2.6-5.3-3.6c-0.8-1.1-1.2-2.4-1.2-4c0-2.1,0.7-3.9,2.2-5.3c1.4-1.4,3.3-2.1,5.6-2.1c1,0,2.2,0.2,3.7,0.6
		c0.9,0.3,1.6,0.4,1.9,0.4s0.5-0.1,0.7-0.2c0.2-0.1,0.4-0.4,0.6-0.9H584.1z"/>
	<path class="st2" d="M622.1,1305.4c-1.2,1.3-2.5,2.2-3.7,2.8s-2.5,0.9-3.8,0.9c-2.8,0-5.2-1.2-7.3-3.5c-2.1-2.3-3.1-5.3-3.1-9
		c0-3.7,1.2-7,3.5-10.1c2.3-3,5.3-4.6,8.9-4.6c2.3,0,4.1,0.7,5.6,2.2v-4.7c0-2.9-0.1-4.7-0.2-5.4s-0.4-1.1-0.6-1.4
		c-0.3-0.2-0.7-0.4-1.1-0.4c-0.5,0-1.1,0.2-1.9,0.5l-0.4-1l7.6-3.1h1.2v29.6c0,3,0.1,4.8,0.2,5.5c0.1,0.7,0.4,1.1,0.7,1.4
		c0.3,0.3,0.7,0.4,1.1,0.4c0.5,0,1.1-0.2,2-0.5l0.3,1l-7.6,3.2h-1.3V1305.4z M622.1,1303.5v-13.2c-0.1-1.3-0.4-2.4-1-3.5
		c-0.6-1-1.3-1.8-2.2-2.4c-0.9-0.5-1.8-0.8-2.7-0.8c-1.6,0-3.1,0.7-4.4,2.2c-1.7,1.9-2.5,4.7-2.5,8.5c0,3.8,0.8,6.7,2.5,8.7
		c1.6,2,3.5,3,5.5,3C618.9,1306,620.6,1305.2,622.1,1303.5z"/>
	<path class="st2" d="M637,1292.3c0,3.8,0.9,6.8,2.8,9c1.9,2.2,4.1,3.2,6.6,3.2c1.7,0,3.2-0.5,4.4-1.4c1.2-0.9,2.3-2.5,3.1-4.7
		l0.9,0.6c-0.4,2.5-1.5,4.9-3.4,7c-1.9,2.1-4.2,3.2-7.1,3.2c-3.1,0-5.7-1.2-7.9-3.6c-2.2-2.4-3.3-5.6-3.3-9.7
		c0-4.4,1.1-7.8,3.4-10.2c2.2-2.5,5.1-3.7,8.5-3.7c2.9,0,5.2,0.9,7.1,2.8c1.8,1.9,2.8,4.4,2.8,7.6H637z M637,1290.7h11.9
		c-0.1-1.6-0.3-2.8-0.6-3.5c-0.5-1-1.2-1.9-2.1-2.5c-0.9-0.6-1.9-0.9-2.9-0.9c-1.6,0-2.9,0.6-4.2,1.8
		C637.9,1286.9,637.2,1288.6,637,1290.7z"/>
	<path class="st2" d="M681.2,1268.6v33.9c0,1.6,0.1,2.7,0.3,3.2s0.6,0.9,1.1,1.2c0.5,0.3,1.4,0.4,2.7,0.4v1h-12.5v-1
		c1.2,0,2-0.1,2.4-0.4c0.4-0.2,0.8-0.6,1-1.2c0.2-0.6,0.3-1.6,0.3-3.2v-23.2c0-2.9-0.1-4.7-0.2-5.3c-0.1-0.7-0.3-1.1-0.6-1.4
		c-0.3-0.2-0.7-0.4-1.1-0.4c-0.5,0-1.1,0.2-1.8,0.5l-0.5-1l7.6-3.1H681.2z"/>
	<path class="st2" d="M702.7,1304.6c-2.6,2-4.3,3.2-4.9,3.5c-1,0.5-2.1,0.7-3.2,0.7c-1.8,0-3.2-0.6-4.4-1.8
		c-1.1-1.2-1.7-2.8-1.7-4.8c0-1.2,0.3-2.3,0.8-3.2c0.8-1.3,2.1-2.5,4-3.6c1.9-1.1,5-2.5,9.4-4.1v-1c0-2.5-0.4-4.3-1.2-5.2
		s-2-1.4-3.5-1.4c-1.2,0-2.1,0.3-2.8,0.9c-0.7,0.6-1.1,1.4-1.1,2.2l0.1,1.6c0,0.9-0.2,1.5-0.7,2c-0.4,0.5-1,0.7-1.7,0.7
		c-0.7,0-1.3-0.2-1.7-0.7s-0.7-1.1-0.7-2c0-1.6,0.8-3.1,2.5-4.4s3.9-2,6.9-2c2.3,0,4.1,0.4,5.6,1.1c1.1,0.6,1.9,1.5,2.4,2.7
		c0.3,0.8,0.5,2.5,0.5,4.9v8.7c0,2.4,0,3.9,0.1,4.5c0.1,0.6,0.2,0.9,0.5,1.1c0.2,0.2,0.5,0.3,0.7,0.3c0.3,0,0.6-0.1,0.8-0.2
		c0.4-0.2,1.2-0.9,2.3-2v1.6c-2.1,2.8-4.1,4.2-6,4.2c-0.9,0-1.6-0.3-2.2-0.9C703.1,1307.2,702.8,1306.1,702.7,1304.6z M702.7,1302.8
		v-9.7c-2.8,1.1-4.6,1.9-5.4,2.4c-1.5,0.8-2.5,1.7-3.1,2.6c-0.6,0.9-1,1.9-1,2.9c0,1.3,0.4,2.5,1.2,3.3s1.7,1.3,2.8,1.3
		C698.6,1305.6,700.4,1304.6,702.7,1302.8z"/>
	<path class="st2" d="M752.4,1269.5v13.1h-1c-0.3-2.5-0.9-4.5-1.8-6c-0.9-1.5-2.1-2.7-3.7-3.5c-1.6-0.9-3.3-1.3-5-1.3
		c-1.9,0-3.5,0.6-4.8,1.8c-1.3,1.2-1.9,2.5-1.9,4c0,1.2,0.4,2.2,1.2,3.2c1.2,1.4,3.9,3.3,8.2,5.6c3.5,1.9,6,3.4,7.3,4.4
		c1.3,1,2.3,2.2,3,3.6c0.7,1.4,1,2.8,1,4.3c0,2.9-1.1,5.3-3.3,7.4c-2.2,2.1-5.1,3.1-8.6,3.1c-1.1,0-2.2-0.1-3.1-0.2
		c-0.6-0.1-1.8-0.4-3.6-1c-1.8-0.6-3-0.9-3.5-0.9c-0.5,0-0.8,0.1-1.1,0.4s-0.5,0.9-0.6,1.7h-1v-13h1c0.5,2.7,1.1,4.7,2,6.1
		c0.8,1.4,2.1,2.5,3.8,3.4c1.7,0.9,3.5,1.3,5.6,1.3c2.3,0,4.1-0.6,5.5-1.8c1.4-1.2,2-2.7,2-4.4c0-0.9-0.3-1.9-0.8-2.8
		s-1.3-1.8-2.4-2.6c-0.7-0.6-2.7-1.7-5.9-3.6s-5.5-3.3-6.9-4.4c-1.4-1.1-2.4-2.3-3.1-3.6c-0.7-1.3-1.1-2.7-1.1-4.3
		c0-2.7,1-5.1,3.1-7s4.7-2.9,8-2.9c2,0,4.1,0.5,6.4,1.5c1,0.5,1.8,0.7,2.2,0.7c0.5,0,0.9-0.1,1.2-0.4c0.3-0.3,0.6-0.9,0.7-1.8H752.4
		z"/>
	<path class="st2" d="M768.6,1282v20.5c0,1.6,0.1,2.7,0.3,3.2c0.2,0.5,0.6,0.9,1,1.2c0.5,0.3,1.3,0.4,2.5,0.4v1h-12.4v-1
		c1.2,0,2.1-0.1,2.5-0.4c0.4-0.2,0.8-0.6,1-1.2c0.2-0.6,0.4-1.6,0.4-3.2v-9.9c0-2.8-0.1-4.6-0.2-5.4c-0.1-0.6-0.3-1-0.6-1.2
		c-0.3-0.2-0.7-0.3-1.1-0.3c-0.5,0-1.1,0.1-1.9,0.4l-0.4-1l7.7-3.1H768.6z M766.3,1268.6c0.8,0,1.5,0.3,2,0.8c0.5,0.6,0.8,1.2,0.8,2
		c0,0.8-0.3,1.4-0.8,2c-0.5,0.6-1.2,0.9-2,0.9s-1.5-0.3-2-0.9c-0.6-0.6-0.8-1.2-0.8-2c0-0.8,0.3-1.5,0.8-2
		C764.8,1268.8,765.5,1268.6,766.3,1268.6z"/>
	<path class="st2" d="M779.9,1292.3c0,3.8,0.9,6.8,2.8,9c1.9,2.2,4.1,3.2,6.6,3.2c1.7,0,3.2-0.5,4.4-1.4c1.2-0.9,2.3-2.5,3.1-4.7
		l0.9,0.6c-0.4,2.5-1.5,4.9-3.4,7c-1.9,2.1-4.2,3.2-7.1,3.2c-3.1,0-5.7-1.2-7.9-3.6c-2.2-2.4-3.3-5.6-3.3-9.7
		c0-4.4,1.1-7.8,3.4-10.2c2.2-2.5,5.1-3.7,8.5-3.7c2.9,0,5.2,0.9,7.1,2.8c1.8,1.9,2.8,4.4,2.8,7.6H779.9z M779.9,1290.7h11.9
		c-0.1-1.6-0.3-2.8-0.6-3.5c-0.5-1-1.2-1.9-2.1-2.5c-0.9-0.6-1.9-0.9-2.9-0.9c-1.6,0-2.9,0.6-4.2,1.8
		C780.9,1286.9,780.2,1288.6,779.9,1290.7z"/>
	<path class="st2" d="M808.5,1282v5.8c2.2-3.8,4.3-5.8,6.6-5.8c1,0,1.9,0.3,2.6,0.9c0.7,0.6,1,1.3,1,2.2c0,0.7-0.2,1.4-0.7,1.9
		c-0.5,0.5-1,0.7-1.7,0.7s-1.4-0.3-2.2-1s-1.4-1-1.8-1c-0.3,0-0.7,0.2-1.1,0.6c-0.8,0.8-1.7,2-2.6,3.7v12.3c0,1.4,0.2,2.5,0.6,3.2
		c0.2,0.5,0.7,0.9,1.3,1.3c0.6,0.3,1.5,0.5,2.7,0.5v1h-13.1v-1c1.3,0,2.3-0.2,2.9-0.6c0.5-0.3,0.8-0.8,1-1.4
		c0.1-0.3,0.1-1.2,0.1-2.7v-9.9c0-3-0.1-4.7-0.2-5.3c-0.1-0.6-0.3-1-0.7-1.2c-0.3-0.3-0.7-0.4-1.2-0.4c-0.6,0-1.2,0.1-1.9,0.4
		l-0.3-1l7.7-3.1H808.5z"/>
	<path class="st2" d="M827.6,1282v5.8c2.2-3.8,4.3-5.8,6.6-5.8c1,0,1.9,0.3,2.6,0.9c0.7,0.6,1,1.3,1,2.2c0,0.7-0.2,1.4-0.7,1.9
		c-0.5,0.5-1,0.7-1.7,0.7s-1.4-0.3-2.2-1s-1.4-1-1.8-1c-0.3,0-0.7,0.2-1.1,0.6c-0.8,0.8-1.7,2-2.6,3.7v12.3c0,1.4,0.2,2.5,0.6,3.2
		c0.2,0.5,0.7,0.9,1.3,1.3c0.6,0.3,1.5,0.5,2.7,0.5v1H819v-1c1.3,0,2.3-0.2,2.9-0.6c0.5-0.3,0.8-0.8,1-1.4c0.1-0.3,0.1-1.2,0.1-2.7
		v-9.9c0-3-0.1-4.7-0.2-5.3c-0.1-0.6-0.3-1-0.7-1.2c-0.3-0.3-0.7-0.4-1.2-0.4c-0.6,0-1.2,0.1-1.9,0.4l-0.3-1l7.7-3.1H827.6z"/>
	<path class="st2" d="M853.6,1304.6c-2.6,2-4.3,3.2-4.9,3.5c-1,0.5-2.1,0.7-3.2,0.7c-1.8,0-3.2-0.6-4.4-1.8
		c-1.1-1.2-1.7-2.8-1.7-4.8c0-1.2,0.3-2.3,0.8-3.2c0.8-1.3,2.1-2.5,4-3.6c1.9-1.1,5-2.5,9.4-4.1v-1c0-2.5-0.4-4.3-1.2-5.2
		s-2-1.4-3.5-1.4c-1.2,0-2.1,0.3-2.8,0.9c-0.7,0.6-1.1,1.4-1.1,2.2l0.1,1.6c0,0.9-0.2,1.5-0.7,2c-0.4,0.5-1,0.7-1.7,0.7
		c-0.7,0-1.3-0.2-1.7-0.7s-0.7-1.1-0.7-2c0-1.6,0.8-3.1,2.5-4.4s3.9-2,6.9-2c2.3,0,4.1,0.4,5.6,1.1c1.1,0.6,1.9,1.5,2.4,2.7
		c0.3,0.8,0.5,2.5,0.5,4.9v8.7c0,2.4,0,3.9,0.1,4.5c0.1,0.6,0.2,0.9,0.5,1.1c0.2,0.2,0.5,0.3,0.7,0.3c0.3,0,0.6-0.1,0.8-0.2
		c0.4-0.2,1.2-0.9,2.3-2v1.6c-2.1,2.8-4.1,4.2-6,4.2c-0.9,0-1.6-0.3-2.2-0.9C853.9,1307.2,853.7,1306.1,853.6,1304.6z M853.6,1302.8
		v-9.7c-2.8,1.1-4.6,1.9-5.4,2.4c-1.5,0.8-2.5,1.7-3.1,2.6c-0.6,0.9-1,1.9-1,2.9c0,1.3,0.4,2.5,1.2,3.3s1.7,1.3,2.8,1.3
		C849.5,1305.6,851.3,1304.6,853.6,1302.8z"/>
	<path class="st2" d="M865.9,1317.8v-1.2c1.9-0.6,3.4-1.6,4.4-2.9c1.1-1.3,1.6-2.7,1.6-4.2c0-0.3-0.1-0.6-0.2-0.9
		c-0.1-0.2-0.2-0.2-0.4-0.2c-0.2,0-0.7,0.2-1.4,0.6c-0.3,0.2-0.7,0.3-1,0.3c-0.9,0-1.7-0.3-2.2-0.8s-0.8-1.3-0.8-2.2
		c0-0.9,0.3-1.7,1-2.4c0.7-0.6,1.5-1,2.5-1c1.2,0,2.3,0.5,3.3,1.6c0.9,1.1,1.4,2.5,1.4,4.2c0,1.9-0.7,3.7-2,5.3
		C870.8,1315.6,868.7,1316.9,865.9,1317.8z"/>
	<path class="st2" d="M914.8,1308.3l-14.6-31.9v25.3c0,2.3,0.3,3.8,0.8,4.3c0.7,0.8,1.8,1.2,3.3,1.2h1.3v1h-13.2v-1h1.4
		c1.6,0,2.7-0.5,3.4-1.5c0.4-0.6,0.6-1.9,0.6-4.1V1277c0-1.7-0.2-2.9-0.6-3.6c-0.3-0.5-0.7-1-1.4-1.4c-0.7-0.4-1.8-0.6-3.4-0.6v-1
		H903l13.8,29.7l13.5-29.7H941v1h-1.3c-1.6,0-2.8,0.5-3.4,1.5c-0.4,0.6-0.6,2-0.6,4.1v24.7c0,2.3,0.3,3.8,0.8,4.3
		c0.7,0.8,1.8,1.2,3.3,1.2h1.3v1h-16.1v-1h1.3c1.6,0,2.8-0.5,3.4-1.5c0.4-0.6,0.6-1.9,0.6-4.1v-25.3l-14.6,31.9H914.8z"/>
	<path class="st2" d="M958.5,1304.6c-2.6,2-4.3,3.2-4.9,3.5c-1,0.5-2.1,0.7-3.2,0.7c-1.8,0-3.2-0.6-4.4-1.8
		c-1.1-1.2-1.7-2.8-1.7-4.8c0-1.2,0.3-2.3,0.8-3.2c0.8-1.3,2.1-2.5,4-3.6c1.9-1.1,5-2.5,9.4-4.1v-1c0-2.5-0.4-4.3-1.2-5.2
		s-2-1.4-3.5-1.4c-1.2,0-2.1,0.3-2.8,0.9c-0.7,0.6-1.1,1.4-1.1,2.2l0.1,1.6c0,0.9-0.2,1.5-0.7,2c-0.4,0.5-1,0.7-1.7,0.7
		c-0.7,0-1.3-0.2-1.7-0.7s-0.7-1.1-0.7-2c0-1.6,0.8-3.1,2.5-4.4s3.9-2,6.9-2c2.3,0,4.1,0.4,5.6,1.1c1.1,0.6,1.9,1.5,2.4,2.7
		c0.3,0.8,0.5,2.5,0.5,4.9v8.7c0,2.4,0,3.9,0.1,4.5c0.1,0.6,0.2,0.9,0.5,1.1c0.2,0.2,0.5,0.3,0.7,0.3c0.3,0,0.6-0.1,0.8-0.2
		c0.4-0.2,1.2-0.9,2.3-2v1.6c-2.1,2.8-4.1,4.2-6,4.2c-0.9,0-1.6-0.3-2.2-0.9C958.8,1307.2,958.5,1306.1,958.5,1304.6z M958.5,1302.8
		v-9.7c-2.8,1.1-4.6,1.9-5.4,2.4c-1.5,0.8-2.5,1.7-3.1,2.6c-0.6,0.9-1,1.9-1,2.9c0,1.3,0.4,2.5,1.2,3.3s1.7,1.3,2.8,1.3
		C954.3,1305.6,956.2,1304.6,958.5,1302.8z"/>
	<path class="st2" d="M987.5,1305.4c-1.2,1.3-2.5,2.2-3.7,2.8s-2.5,0.9-3.8,0.9c-2.8,0-5.2-1.2-7.3-3.5c-2.1-2.3-3.1-5.3-3.1-9
		c0-3.7,1.2-7,3.5-10.1c2.3-3,5.3-4.6,8.9-4.6c2.3,0,4.1,0.7,5.6,2.2v-4.7c0-2.9-0.1-4.7-0.2-5.4s-0.4-1.1-0.6-1.4
		c-0.3-0.2-0.7-0.4-1.1-0.4c-0.5,0-1.1,0.2-1.9,0.5l-0.4-1l7.6-3.1h1.2v29.6c0,3,0.1,4.8,0.2,5.5c0.1,0.7,0.4,1.1,0.7,1.4
		c0.3,0.3,0.7,0.4,1.1,0.4c0.5,0,1.1-0.2,2-0.5l0.3,1l-7.6,3.2h-1.3V1305.4z M987.5,1303.5v-13.2c-0.1-1.3-0.4-2.4-1-3.5
		c-0.6-1-1.3-1.8-2.2-2.4c-0.9-0.5-1.8-0.8-2.7-0.8c-1.6,0-3.1,0.7-4.4,2.2c-1.7,1.9-2.5,4.7-2.5,8.5c0,3.8,0.8,6.7,2.5,8.7
		c1.6,2,3.5,3,5.5,3C984.3,1306,985.9,1305.2,987.5,1303.5z"/>
	<path class="st2" d="M1005.5,1282v5.8c2.2-3.8,4.3-5.8,6.6-5.8c1,0,1.9,0.3,2.6,0.9c0.7,0.6,1,1.3,1,2.2c0,0.7-0.2,1.4-0.7,1.9
		c-0.5,0.5-1,0.7-1.7,0.7s-1.4-0.3-2.2-1s-1.4-1-1.8-1c-0.3,0-0.7,0.2-1.1,0.6c-0.8,0.8-1.7,2-2.6,3.7v12.3c0,1.4,0.2,2.5,0.6,3.2
		c0.2,0.5,0.7,0.9,1.3,1.3c0.6,0.3,1.5,0.5,2.7,0.5v1h-13.1v-1c1.3,0,2.3-0.2,2.9-0.6c0.5-0.3,0.8-0.8,1-1.4
		c0.1-0.3,0.1-1.2,0.1-2.7v-9.9c0-3-0.1-4.7-0.2-5.3c-0.1-0.6-0.3-1-0.7-1.2c-0.3-0.3-0.7-0.4-1.2-0.4c-0.6,0-1.2,0.1-1.9,0.4
		l-0.3-1l7.7-3.1H1005.5z"/>
	<path class="st2" d="M1025.9,1282v20.5c0,1.6,0.1,2.7,0.3,3.2c0.2,0.5,0.6,0.9,1,1.2c0.5,0.3,1.3,0.4,2.5,0.4v1h-12.4v-1
		c1.2,0,2.1-0.1,2.5-0.4c0.4-0.2,0.8-0.6,1-1.2c0.2-0.6,0.4-1.6,0.4-3.2v-9.9c0-2.8-0.1-4.6-0.2-5.4c-0.1-0.6-0.3-1-0.6-1.2
		c-0.3-0.2-0.7-0.3-1.1-0.3c-0.5,0-1.1,0.1-1.9,0.4l-0.4-1l7.7-3.1H1025.9z M1023.5,1268.6c0.8,0,1.5,0.3,2,0.8
		c0.5,0.6,0.8,1.2,0.8,2c0,0.8-0.3,1.4-0.8,2c-0.5,0.6-1.2,0.9-2,0.9s-1.5-0.3-2-0.9c-0.6-0.6-0.8-1.2-0.8-2c0-0.8,0.3-1.5,0.8-2
		C1022.1,1268.8,1022.7,1268.6,1023.5,1268.6z"/>
	<path class="st2" d="M1051,1305.4c-1.2,1.3-2.5,2.2-3.7,2.8s-2.5,0.9-3.8,0.9c-2.8,0-5.2-1.2-7.3-3.5c-2.1-2.3-3.1-5.3-3.1-9
		c0-3.7,1.2-7,3.5-10.1c2.3-3,5.3-4.6,8.9-4.6c2.3,0,4.1,0.7,5.6,2.2v-4.7c0-2.9-0.1-4.7-0.2-5.4s-0.4-1.1-0.6-1.4
		c-0.3-0.2-0.7-0.4-1.1-0.4c-0.5,0-1.1,0.2-1.9,0.5l-0.4-1l7.6-3.1h1.2v29.6c0,3,0.1,4.8,0.2,5.5c0.1,0.7,0.4,1.1,0.7,1.4
		c0.3,0.3,0.7,0.4,1.1,0.4c0.5,0,1.1-0.2,2-0.5l0.3,1l-7.6,3.2h-1.3V1305.4z M1051,1303.5v-13.2c-0.1-1.3-0.4-2.4-1-3.5
		c-0.6-1-1.3-1.8-2.2-2.4c-0.9-0.5-1.8-0.8-2.7-0.8c-1.6,0-3.1,0.7-4.4,2.2c-1.7,1.9-2.5,4.7-2.5,8.5c0,3.8,0.8,6.7,2.5,8.7
		c1.6,2,3.5,3,5.5,3C1047.8,1306,1049.4,1305.2,1051,1303.5z"/>
</g>
<g>
	<path class="st2" d="M546.7,1401l-1.2,3.8h-14.7l1.2-3.8H546.7z"/>
	<path class="st2" d="M587.4,1376.3l-9.1,31.7c-0.5,1.9-0.8,3.2-0.8,4c0,0.7,0.2,1.2,0.7,1.6c0.5,0.4,1.6,0.6,3.4,0.7l-0.3,1.1
		h-14.6l0.4-1.1c1.5,0,2.6-0.1,3.1-0.4c0.8-0.4,1.4-0.8,1.8-1.4c0.6-0.9,1.2-2.4,1.9-4.7l6.6-22.8c0.4-1.4,0.6-2.2,0.7-2.4
		c0-0.4,0.1-0.8,0.1-1.1c0-0.7-0.2-1.2-0.5-1.5c-0.4-0.4-0.8-0.6-1.5-0.6c-0.5,0-1.3,0.1-2.3,0.4l-0.4-1l9.6-2.7H587.4z"/>
	<path class="st2" d="M607.1,1377.1h12.8l-1.3,4.7h-11.5l-2.1,4.7c3,0.5,5.4,1.4,7.1,2.8c2.6,2.2,3.9,5.3,3.9,9.2
		c0,2.6-0.5,5-1.4,7.1c-1,2.1-2.1,3.9-3.6,5.3s-2.9,2.6-4.5,3.4c-2.2,1.1-4.4,1.7-6.6,1.7c-1.9,0-3.4-0.4-4.5-1.2
		c-0.8-0.6-1.1-1.3-1.1-2.1c0-0.7,0.2-1.3,0.7-1.7c0.5-0.5,1.1-0.7,1.8-0.7c1,0,2.1,0.5,3.3,1.5c0.8,0.6,1.4,1.1,1.9,1.3
		c0.4,0.2,0.9,0.2,1.4,0.2c2.1,0,4.1-1.1,5.9-3.2c1.8-2.1,2.7-4.9,2.7-8.3c0-2.4-0.5-4.4-1.4-6s-2.2-2.8-3.6-3.5
		c-1.5-0.7-3.4-1.2-5.9-1.4L607.1,1377.1z"/>
	<path class="st2" d="M627.5,1410.3c0.8,0,1.4,0.3,2,0.8s0.8,1.2,0.8,2c0,0.8-0.3,1.4-0.8,2c-0.6,0.6-1.2,0.8-2,0.8
		c-0.8,0-1.5-0.3-2-0.8c-0.6-0.5-0.8-1.2-0.8-2c0-0.8,0.3-1.5,0.8-2S626.7,1410.3,627.5,1410.3z M633.4,1389.9c0.8,0,1.5,0.3,2,0.8
		c0.6,0.6,0.8,1.2,0.8,2c0,0.8-0.3,1.5-0.8,2s-1.2,0.8-2,0.8s-1.5-0.3-2-0.8s-0.8-1.2-0.8-2c0-0.8,0.3-1.5,0.8-2
		C632,1390.1,632.6,1389.9,633.4,1389.9z"/>
	<path class="st2" d="M649.3,1394.5v-0.8c4.6-0.7,8-2.1,10.2-4.1c1.6-1.4,2.4-3.1,2.4-5.1c0-1.5-0.5-2.7-1.4-3.7
		c-0.9-1-2.1-1.5-3.4-1.5c-2.1,0-4,1.3-5.6,3.9l-1.1-0.3c1-2.2,2.2-3.8,3.8-5s3.2-1.7,5-1.7c2.2,0,4,0.7,5.4,2c1.4,1.3,2.1,3,2.1,5
		c0,1.7-0.6,3.4-1.9,5c-1.3,1.6-3.5,3-6.7,4.3c2,0.8,3.5,2,4.4,3.5s1.5,3.3,1.5,5.5c0,2.4-0.7,4.7-2,7.1c-1.4,2.4-3.2,4.2-5.6,5.5
		c-2.4,1.3-4.9,1.9-7.5,1.9c-2.4,0-4.2-0.4-5.4-1.2c-0.8-0.6-1.2-1.2-1.2-2c0-0.7,0.2-1.3,0.7-1.7c0.5-0.5,1.1-0.7,1.8-0.7
		c0.5,0,1,0.1,1.4,0.2c0.3,0.1,1,0.5,2.2,1.1c1.2,0.7,2.1,1.1,2.8,1.3s1.3,0.3,2,0.3c1.7,0,3.1-1,4.2-3s1.7-4.1,1.7-6.3
		c0-1.8-0.4-3.4-1.1-4.8c-0.8-1.4-1.9-2.6-3.5-3.4S651.2,1394.6,649.3,1394.5z"/>
	<path class="st2" d="M689.4,1376.3c2.4,0,4.4,1,6.1,3c1.7,2,2.5,5.2,2.5,9.6c0,3.7-0.6,7.5-1.8,11.4c-1.2,3.9-3,7.3-5.2,10.1
		c-1.8,2.2-3.6,3.9-5.6,4.9c-1.1,0.6-2.5,0.8-3.9,0.8c-2.5,0-4.5-1-6.2-3c-1.7-2-2.5-5.2-2.5-9.6c0-4.3,0.8-8.6,2.5-13
		c1.9-5.1,4.4-9,7.5-11.6C684.8,1377.2,687,1376.3,689.4,1376.3z M689.5,1377.8c-1.1,0-2.2,0.4-3.3,1.3c-1.1,0.9-2.3,2.6-3.5,5.4
		c-1.2,2.7-2.3,6.2-3.4,10.5c-1.4,5.6-2.1,10.4-2.1,14.3c0,2,0.4,3.4,1.3,4.4c0.8,1,1.9,1.5,3.1,1.5c1.1,0,2.1-0.4,3-1.2
		c2.2-2,4-5.5,5.6-10.4c2.5-8,3.8-14.6,3.8-19.6c0-2.1-0.4-3.7-1.3-4.6S690.6,1377.8,689.5,1377.8z"/>
	<path class="st2" d="M729.9,1375.2l-7.9,27.5c3.4-5.2,6.1-8.6,8-10.3c1.9-1.7,3.8-2.5,5.5-2.5c0.9,0,1.7,0.3,2.3,0.9
		s0.9,1.5,0.9,2.5c0,1.2-0.3,2.8-0.8,4.5l-3.4,11.8c-0.4,1.4-0.7,2.2-0.7,2.4c0,0.3,0.1,0.5,0.2,0.6c0.2,0.2,0.4,0.2,0.6,0.2
		c0.2,0,0.5-0.1,0.8-0.4c1.1-0.8,2.1-2,3.2-3.4l0.9,0.5c-0.7,1-1.6,2.1-2.7,3.3s-2.1,2-2.9,2.5s-1.5,0.7-2.2,0.7
		c-0.7,0-1.3-0.2-1.7-0.7c-0.4-0.4-0.7-1-0.7-1.7c0-0.8,0.3-2.4,1-4.6l3.3-11.3c0.4-1.4,0.6-2.5,0.6-3.3c0-0.4-0.1-0.7-0.4-0.9
		c-0.2-0.2-0.5-0.4-0.9-0.4c-0.5,0-1.2,0.2-1.9,0.6c-1.3,0.8-2.8,2.3-4.4,4.4c-0.5,0.6-2,2.9-4.5,7.1c-0.8,1.3-1.5,2.8-2,4.3
		l-1.8,5.8H714l9.3-32.4l1-3.5c0-0.5-0.2-0.9-0.6-1.3c-0.4-0.4-0.9-0.6-1.5-0.6c-0.3,0-0.8,0.1-1.5,0.2l-0.6,0.1v-1.1L729.9,1375.2z
		"/>
	<path class="st2" d="M773.6,1401l-1.2,3.8h-14.7l1.2-3.8H773.6z"/>
</g>
<text transform="matrix(1 0 0 1 1633.4802 1102.4543)" style="font-family:'Vijaya'; font-size:101px;">Hacienda Jacaranda</text>
<text transform="matrix(1 0 0 1 1386.4895 1223.0228)"><tspan x="0" y="0" style="font-family:'Aparajita'; font-size:71.0565px;">Carretera de Soto del Real a Miraflores, Km. 3,100, </tspan><tspan x="164.4" y="85.3" style="font-family:'Aparajita'; font-size:71.0565px;">28792 Miraflores de la Sierra, Madrid</tspan></text>
<text transform="matrix(1 0 0 1 1876.4929 1415.4965)" style="font-family:'Vijaya'; font-size:72px;"> - 15:30 h -</text>
</svg>
