<?xml version="1.0" encoding="utf-8"?>
<!-- Generator: Adobe Illustrator 25.4.1, SVG Export Plug-In . SVG Version: 6.00 Build 0)  -->
<svg version="1.1" id="Capa_1" xmlns="http://www.w3.org/2000/svg" xmlns:xlink="http://www.w3.org/1999/xlink" x="0px" y="0px"
	 viewBox="0 0 1242 2208" style="enable-background:new 0 0 1242 2208;" xml:space="preserve">
<style type="text/css">
	.st0{fill:#775F3B;}
	.st1{fill:#62391B;}
	.st2{fill:#D96F6F;stroke:#D96F6F;stroke-miterlimit:10;}
	.st3{fill:none;}
	.st4{fill:#805F36;}
</style>
<g id="fondo">
</g>
<g id="Capa_2_00000171000038569402273490000012704646517353608069_">
</g>
<g id="Capa_4">
</g>
<g id="onda_sola_grande">
	<g id="_x35_">
		<g>
			<path class="st0" d="M-15.3,1796.9c0.6,0.7,1.4,1.1,2.3,1.6c8.8-3.5,17.4-7.4,25.9-11.7c0.2-0.6,0.3-1.1,0.3-1.6l-2.5-2.1
				c1.9,0.4,2.5,1.1,2.5,2.1l1.1,0.9c0.6-0.3,1.2-0.6,1.7-0.9c1.6-3,2.5-5.1,7.5-7.6c0.2,1.5,0.9,2.3,2,2.6
				c69.5-37.5,134.4-91.4,216.3-67.5c8.4-4.4-0.7-3.5,9.5-6.4c-107-26.1-180.3,53.3-266.4,88.2c0.4,0.2,0.8,0.7,1.4,1.4
				L-15.3,1796.9z"/>
			<path class="st0" d="M-130.5,1804.6c-2.8,2,5.1,1.7,9.3,2.2c2.4,0.7,4.8,1.3,7.2,1.8c0-0.2,0.1-0.4,0.1-0.6
				C-119.4,1807.2-124.9,1806.1-130.5,1804.6z"/>
			<path class="st0" d="M-64.2,1811.1c0.1,0.2,0.1,0.4,0.2,0.6c16.4-1.7,32.3-6,47.7-11.8c-0.7-0.3-1.5-0.6-2.3-0.8
				c1.3-0.8,1.6-2.8,2.1-3.9c-6.5,2.6-13,4.9-19.6,6.9c0.2,1.2-1.1,1-2.5,0.7c-5.6,1.6-11.3,3-17,4.1l2.1,2.9l-4.3-2.4
				c-1.2,0.2-2.4,0.4-3.6,0.6c0.6,0.7,1.2,1.4,1.7,2C-60.6,1810.5-62.9,1810.5-64.2,1811.1z"/>
			<path class="st0" d="M-64.2,1811.1c-0.4-0.9-0.9-1.7-1.6-2.5c-6.8,0.9-13.7,1.4-20.8,1.5c-0.2,0.2-0.5,0.4-0.7,0.6l2.9,1.8
				c6.6,0.2,13,0,19.4-0.7C-64.9,1811.4-64.6,1811.2-64.2,1811.1z"/>
			<path class="st0" d="M-120,1856.2c2.3,0.6,4.7,1.1,7,1.6C-108.2,1854.7-111,1854.6-120,1856.2z"/>
			<path class="st0" d="M122.9,1781.4c41.4-19.5,85.6-31.4,137.6-18.8c-5.3-1.5,3.4-3.7-6.6-3.7c-41.7-12.5-79.3-4.1-115.8,12.3
				l0.4,1.1l-2.5,1.5l0.2-1.8c-5.2,2.4-10.3,4.9-15.5,7.5C121.9,1779.9,122.7,1780.3,122.9,1781.4z"/>
			<path class="st0" d="M55.3,1818.5c4.2-2.4,8.4-4.9,12.6-7.3c-0.3-0.5-0.6-0.9-0.9-1.3c-4.3,2.5-8.5,4.9-12.8,7.4
				C54.6,1817.5,55,1817.9,55.3,1818.5z"/>
			<path class="st0" d="M120,1782.7c-0.6-0.3-0.9-1.2-1-2.3c-16.1,8.3-32.1,17.8-48.2,27.2c-0.2,0.8-0.3,1.5-0.5,2.1
				C86.7,1800.3,103.2,1790.9,120,1782.7z"/>
			<path class="st0" d="M-13.3,1851.6c1.2-0.8,3.3-2.4,5.4-3.1c-0.2-0.3-0.3-0.5-0.5-0.8c-3.6,1.3-7.2,2.6-10.8,3.8
				c1.3,0.4,2.5,1.4,3.6,2.2c1.3-0.5,2.7-1,4-1.5C-11.8,1851.9-12.3,1851.7-13.3,1851.6z"/>
			<path class="st0" d="M-113,1857.8c-1.1,0.7-2.6,1.6-4.5,2.6c16.4,4.3,32,5.7,47.1,5c1.4-1.4,2.7-2.9,3.8-4.5
				C-81.4,1861.9-96.9,1861.1-113,1857.8z"/>
			<path class="st0" d="M42.9,1823.6c0,0.4,0.3,0.8,1.2,1.3c1.8-1,3.7-2.1,5.5-3.1c-0.4-0.4-0.8-0.8-1.2-1.2
				C46.5,1821.6,44.7,1822.6,42.9,1823.6z"/>
			<path class="st0" d="M-65.2,1860.8c-0.4,1.3-0.8,2.5-1.5,3.4c0.6,0.3,1.2,0.6,1.7,0.9c3.1-0.3,6.2-0.6,9.3-1
				c0.8-1.3,1.4-2.9,2-4.5C-57.5,1860.1-61.3,1860.5-65.2,1860.8z"/>
			<path class="st0" d="M-3.1,1845.7c-0.9,0.3-1.7,0.7-2.6,1c0.2,0.5,0.5,1.1,0.8,1.6c0.5,0.1,0.9,0.3,1.3,0.6
				c0.7-0.3,1.4-0.6,2-0.9C-1.8,1847.2-2.3,1846.3-3.1,1845.7z"/>
			<path class="st0" d="M-22.1,1852.4c-0.8,0.3-1.6,0.5-2.4,0.8c-0.3,1.2-0.5,2.4-0.7,3.6c0.1,0.1,0.3,0.1,0.4,0.1
				c1.6-0.5,3.1-1,4.7-1.5c0.4-0.3,0.7-0.7,0.9-1.2L-22.1,1852.4z"/>
			<path class="st0" d="M3,1844.1c-1.8,0.7-2.5,1.9-2.6,3.2c1-0.4,2-0.9,3-1.3c0.4-0.5,0.7-1,1-1.6C4,1844.2,3.5,1844.1,3,1844.1z"
				/>
			<path class="st0" d="M114.3,1844.1l0.8,0.3c15.6-8.8,31.1-16.9,47-23.2c0-0.1-0.1-0.2-0.1-0.2c0.1,0.1,0.2,0.1,0.2,0.2
				c29-11.5,59-16.9,91.9-9.7c-0.1-0.9,0.4-2.1,2-3.5c0.3,0.9,0.3,4.1,2.3,4.1c0.9-1.5,0.2-3.3-0.2-4.9
				c-37.6-7.4-71.2-0.1-103.4,13.4c-0.8,1.5-2,2.4-4.3,1.8c-0.2,0.1-0.5,0.2-0.7,0.3c0,0.1,0.1,0.2,0.1,0.3l-0.1-0.3
				c-12.1,5.3-23.9,11.5-35.7,18.1c0.1,0,0.1,0,0.2,0C114.8,1842.7,114.8,1842.7,114.3,1844.1z"/>
			<path class="st0" d="M72.8,1869c0-0.2-0.1-0.4-0.1-0.6c-0.2-1.1-0.4-2.3-0.6-3.5c-15.2,8.7-30.5,17.2-46.2,24.5l2.3,3.3
				C43.5,1885.7,58.3,1877.5,72.8,1869z"/>
			<path class="st0" d="M-5.4,1901.9c-2.1,0.7-4.1,1.3-6.2,1.9c0.8,0.5,1,1.2-0.5,2.7c-4.7-1-7.7,1.1-9.8,3.7
				c7.3-1.7,14.5-3.7,21.6-6.1c-1.5,0.4-3.3,0.3-5.8-0.2C-5.8,1903.3-5.6,1902.6-5.4,1901.9z"/>
			<path class="st0" d="M81.4,1864c-0.3-1.2-0.5-2.4,0.9-3.2c0,0.9,0.2,1.7,0.3,2.5c10.2-6,20.4-12.1,30.5-17.8l-2.4-0.2
				c0.5-1.3,0.8-2.4,1.2-3.2c-12.2,6.8-24.3,14-36.6,21.1c0.8,1.1,1.7,2.2,2.7,2.9C79.1,1865.3,80.3,1864.7,81.4,1864z"/>
			<path class="st0" d="M8.5,1901.1c3.8-1.4,7.5-3,11.3-4.6c-1.3-0.2-2.3-1-2.6-3.1c-3.7,1.6-7.4,3.1-11.1,4.5
				c-0.1,0.2-0.3,0.4-0.4,0.7L8.5,1901.1z"/>
			<path class="st0" d="M23.5,1890.6c-0.6,0.3-1.2,0.5-1.8,0.8C22.4,1891.4,23.1,1891.2,23.5,1890.6z"/>
			<path class="st0" d="M0.9,1903.8c1.5-0.5,3-1,4.5-1.6c0.2-1.1,0.4-2.3,0-3.4C4,1901.1,2.9,1902.9,0.9,1903.8z"/>
			<path class="st0" d="M259.4,1809.3l-0.9,3.3c2.4,0.6,4.9,1.3,7.4,2c3.5-1.8-1.8-2.4,3.8-4.8c-1.9-0.5-3.8-1-5.7-1.4
				c-0.1,0.5-0.2,1-0.4,1.5C262.2,1811.8,261.7,1810.1,259.4,1809.3z"/>
			<path class="st0" d="M7.9,1956.3c-0.5-0.9-0.9-1.8-1.4-2.7c-3.8,1.2-7.7,2.2-11.5,3.2l-2,3.8C-1.9,1959.4,3,1957.9,7.9,1956.3z"
				/>
			<path class="st0" d="M161,1877.6c36.9-16.5,76.7-25.9,123.5-16.4c-1.1-0.4-1.6-1,0.2-2c-44-12.7-82.9-3.4-120.3,13.9
				C163.6,1874.5,162.3,1876,161,1877.6z"/>
			<path class="st0" d="M12.3,1954.8c51-18,96-53.2,146-76c-0.3-0.8-0.6-1.6-0.9-2.5c-41.2,20.1-80.8,48.7-123.9,67.3
				c-0.9,0.9-2,1.3-3.2,1.4c-5.3,2.2-10.7,4.3-16.2,6.2c0,0.1,0,0.3,0,0.4C13,1952.1,12.5,1953.4,12.3,1954.8z"/>
			<path class="st0" d="M-26.6,1964.5c0.5-0.1,1-0.2,1.5-0.2c2.5-1.7,5.8-2.7,8-4.9c-4.6,0.8-9.3,1.4-14.1,1.9
				C-29.8,1962.7-28.2,1963.8-26.6,1964.5z"/>
			<path class="st0" d="M286.5,1861.6c0.7,0.1,1.3,0.3,2,0.4C288.7,1861.8,287.7,1861.8,286.5,1861.6z"/>
			<path class="st0" d="M284.4,1861.2c0.6,0.2,1.4,0.3,2.1,0.4C285.8,1861.4,285.1,1861.3,284.4,1861.2z"/>
			<path class="st0" d="M290.9,1911.7c1.3,0.6,7.1,1.7,14.5,1.2c-8.8-2-17.3-3.3-25.7-4.1C283.4,1909.6,287.1,1910.5,290.9,1911.7z"
				/>
			<path class="st0" d="M-52.7,2014.1c0.6-1.2,1.2-2,2-2.4c-1.6-0.2-3.2-0.4-4.8-0.7C-54.9,2012.7-54.2,2014.2-52.7,2014.1z"/>
			<path class="st0" d="M206,1912.8c-29.6,8.9-58.2,25.1-87,41.9c-0.8,1.9-2.9,3.8-2.6,5.2c28.2-16.3,56.7-32.4,87.5-42.2
				C205,1916.3,206.2,1914.7,206,1912.8z"/>
			<path class="st0" d="M206.1,1912.8l1.2,3.8c22.6-6.8,46.5-10.3,72.4-7.9C254.2,1903.1,229.9,1905.6,206.1,1912.8z"/>
			<path class="st0" d="M-74.6,2007.8c-4.7,1.9,3,0.6-2.1,4.3c1.4,0.3,2.7,0.6,4.1,0.9C-73,2010.7-73.6,2008.7-74.6,2007.8z"/>
			<path class="st0" d="M-15,2011.9c1.6,1.1,7.1-2,8.7,2.2c44.1-7.8,83.1-31.2,122.6-54.1l-2.4-2.3C72.4,1982,30.5,2006.7-15,2011.9
				z"/>
			<path class="st0" d="M-38.8,2013.8c2.2-0.6,4.4-1.8,3.7,2.4c0.2,0.3,0.5,0.4,0.7,0.6c0.7,0,1.3,0,2,0c0.7-0.8,1.1-2.4,1.5-3.9
				c-3.7,0-7.4-0.1-11.1-0.3C-41.5,2014.2-40.2,2014.1-38.8,2013.8z"/>
			<path class="st0" d="M-63.7,2011.8c-1.8-2.1-2.7,0-3.5,2.2c1.6,0.3,3.2,0.6,4.8,0.8C-62.7,2013.6-63.1,2012.6-63.7,2011.8z"/>
		</g>
	</g>
</g>
<g>
	<g>
		<g>
			<path class="st1" d="M631.5,412.3c-3.4,0-6.5-1.9-8.2-4.9l-54.7-105.8c-9.9-21.7-8.4-46.8,3.9-67.1c12.1-19.9,32.2-32,55.1-33.2
				l0,0c2.5-0.1,5.1-0.1,7.7,0c22.9,1.2,43,13.2,55.1,33.2c12.4,20.4,13.9,45.4,4,66.9l-54.8,106C638,410.4,634.9,412.3,631.5,412.3
				L631.5,412.3z M628,208.6c-20.5,1-38.4,11.9-49.2,29.7c-11.1,18.3-12.5,40.8-3.6,60.2L629.8,404c0.5,0.9,1.4,1,1.7,1
				c0.4,0,1.3-0.1,1.8-1.1l54.6-105.7c8.8-19.2,7.4-41.7-3.7-60c-10.8-17.8-28.8-28.6-49.2-29.7C632.7,208.4,630.3,208.4,628,208.6
				L628,208.6z"/>
		</g>
		<path class="st2" d="M650.9,250c-7-1.6-14.6,1.5-19.4,7.9c-4.8-6.4-12.4-9.6-19.4-7.9c-7.7,1.8-12.8,8.5-13,17.1
			c-0.4,24.2,31.7,44,32,44.1c0.1,0,0.2,0.1,0.4,0.1c0.1,0,0.2,0,0.4-0.1c0.3-0.1,32.4-20,32-44.1
			C663.7,258.5,658.6,251.8,650.9,250z"/>
	</g>
</g>
<g>
	<g>
		<g>
			<path class="st1" d="M331,1357.5c3.8-21.6,26.6-32.1,45.2-34.3c1.7-0.3,3.5-0.4,5.5-0.4c10.6-12.9,24.7-17.2,31.1-18.2
				c16.4-2.5,25.1,6.9,16.1,13.3c-6.4,4.5-26.5,5-41.7,5.9c-8.4,10.5-11.9,21.4-10.5,28.6c2,9.7,8.4,12.3,24.5,5.9
				c12.3-4.9,24.1-22.4,28.2-29.4c0.6-1.3,1-2,1-2c1.8-1.1,3.4,0.4,2.8,6.3c0,0-9.7,26.2-19.9,47.8c5.3,0.8,10.6,1.8,19.1,2.5
				c16.8,1.4,25.5-1.3,35.4-5c-9.8,4.5-20.3,9.2-53.1,3.6c-0.6-0.1-1.3-0.3-2-0.4c-4.3,9.2-9,17.5-12.9,22.6
				c-9.1,11.3-20.3,14.1-28.7,13.4c-14.4-1.1-14.8-14-10.6-21c6.2-10.6,22.3-16.5,37-16.9c4.1-0.1,7.6,0,10.6,0.4
				c1.5-3.5,2.8-7.1,4.3-10.9c5.2-13.4,9.8-24,12.9-31c-5.9,9.1-15.5,18.9-27.3,22.8c-27.5,9.1-30-15.5-21-31.2
				c1.1-2,2.4-3.8,3.8-5.6C354.3,1326.2,337.3,1338.1,331,1357.5z M369.8,1389.1c-14.1,9.1-13.2,25.9,0.6,27.3
				c17.8,1.7,27.7-13.6,37-35.3C390.4,1379.6,378.8,1383.5,369.8,1389.1z M392.5,1317.8c-1.5,1.4-2.8,2.9-4.2,4.5
				c13-0.8,28.9-1.4,34.9-3.4c13.9-4.3,6.3-12.9-2-13.2C409.6,1305.2,399.8,1310.7,392.5,1317.8z"/>
			<path class="st1" d="M443.4,1343.7c4.5-0.1,8.3,2.7,8.3,9.9c0,2.1-0.4,5.2-1.3,8c1.4-0.6,2.9-1.5,4.5-2.8c6-4.9,7.6-9.9,10.6-9.5
				c-3.4,2.5-6.2,8.5-12,12c-1.1,0.7-2.4,1.1-3.6,1.7c-2.2,6.7-6.6,13.7-11.6,13.4c-7.1-0.3-7.7-9.7-4.3-16.2
				c0.4-0.8,0.8-1.7,1.1-2.4C431,1350,437.8,1343.9,443.4,1343.7z M438.6,1361.7c-1.1,1.8-1.8,3.6-2.4,5.5c-1.3,5,1.1,10.5,5.6,6.6
				c2.1-2,4.5-5.9,6.3-10.5C444.9,1364.1,441.4,1363.6,438.6,1361.7z M441.8,1349.5c2.8-0.4,3.1,2.2,2.8,3.8c0,0.1-2.9,3.2-5.3,7.4
				c2.4,1.8,5.7,2.5,9.4,1.7c2.1-6,2.8-12.9-0.8-15.7c-4.8-4.1-10.6,0.6-11.5,4.1c-0.4,2-0.4,3.8,0,5.5
				C438.9,1351.9,441,1349.5,441.8,1349.5z"/>
			<path class="st1" d="M465.6,1343.7c4.5-0.1,8.3,2.7,8.3,9.9c0,2.1-0.4,5.2-1.3,8c1.4-0.6,2.9-1.5,4.5-2.8c6-4.9,7.6-9.9,10.6-9.5
				c-3.4,2.5-6.2,8.5-12,12c-1.1,0.7-2.4,1.1-3.6,1.7c-2.2,6.7-6.6,13.7-11.6,13.4c-7.1-0.3-7.7-9.7-4.3-16.2
				c0.4-0.8,0.8-1.7,1.1-2.4C453.3,1350,460,1343.9,465.6,1343.7z M460.9,1361.7c-1.1,1.8-1.8,3.6-2.4,5.5c-1.3,5,1.1,10.5,5.6,6.6
				c2.1-2,4.5-5.9,6.3-10.5C467,1364.1,463.5,1363.6,460.9,1361.7z M464.1,1349.5c2.8-0.4,3.1,2.2,2.8,3.8c0,0.1-2.9,3.2-5.3,7.4
				c2.4,1.8,5.7,2.5,9.4,1.7c2.1-6,2.8-12.9-0.8-15.7c-4.8-4.1-10.6,0.6-11.5,4.1c-0.4,2-0.4,3.8,0,5.5
				C461.2,1351.9,463.3,1349.5,464.1,1349.5z"/>
			<path class="st1" d="M489.3,1367.7c3.9-1.1,7.1-1,9.5,0.3c9.8-6.2,15.4-10.5,19.9-18.6c-1,6.6-8.8,13-18.6,19.3
				c4.3,2.9,5.3,9.5,4.3,14.7c-2,9.7-7.7,17.8-18.2,24.5c-8,5-18.6,6.2-22.8,3.4c-10.6-7.4,4.5-23.8,16-31.1
				c7-4.5,12.9-8.3,17.7-11.2c-1.8-0.7-3.9-1-6.9-0.4c-4.8,1.1-8.1,2.5-8.1,2.5S485,1368.8,489.3,1367.7z M480.2,1381.3
				c-24.5,16.2-24.1,36.1-4.1,27c22.7-10.6,25.8-26.5,24.8-33.3c-0.4-1.8-1.1-3.8-2.8-5C492.5,1373.6,486.2,1377.2,480.2,1381.3z
				 M499.1,1347.9c0.4,0.4,1.1,0.8,1.4,1.7c1.8,5.2-4.3,13.2-11.6,17.1c-6.6,3.6-11.1,2.1-12-3.5c-1.7-9.1,9.1-16.2,13.9-17.5
				c2.1-0.6,3.8-0.7,5.2-0.7C499.1,1345.4,500,1347.1,499.1,1347.9z M485.1,1354.5c-5.2,5.6-6.4,12.5-2.2,12.2c4.3-0.4,9-3.5,13-8.5
				c3.2-4.1,3.1-8.3,2.1-9.9C496.2,1348.2,490.4,1349.3,485.1,1354.5z"/>
			<path class="st1" d="M512.7,1377.9c-0.4,2.9,0.1,5.2,2.8,1.5c8-11.2,17.7-26.5,25.9-30c-5.6,5.2-12.9,13.4-18.6,22
				c-8,11.8-9.1,12.5-11.3,11.3c-4.2-2.1-2.1-14.3,0.4-22.6c3.1-9.9,11.2-29.7,20.2-42.9c4.3-6.3,8.3-11.3,12.2-13.9
				c3.1-2.1,6.9-2.9,9.1,0.1c4.5,6.7-20.7,35.6-28.3,42.4c-1.4,1.3-2.4,2.2-3.2,2.8C515,1363.9,513.3,1372.5,512.7,1377.9z
				 M525.9,1339.1c-1.1,2.5-2.4,5-3.4,7.3c3.9-4.1,11.3-11.9,15.5-17.4c9.9-12.6,12.9-18.9,13.6-21.7c1.8-7.1-5.5,0.4-7.6,2.5
				C540.9,1313.6,534.3,1321.9,525.9,1339.1z"/>
			<path class="st1" d="M536.4,1359.7c-1.7,8,2.7,10.9,7.1,9.1c7.6-2.9,14.7-19.5,20-19.3c-5.2,4.8-5.6,6.3-9.2,10.9
				c-4.6,5.9-9.7,11.3-15.4,10.6c-7.7-0.8-8.5-10.5-6.6-14.8c2-4.6,6-9.9,12.6-10.5c5.2-0.4,7.4,4.6,2.2,9.1
				c-3.1,2.5-7.6,3.8-10.6,4.3C536.5,1359,536.4,1359.4,536.4,1359.7z M540.7,1356.6c8.3-2.8,9.8-9.1,5.3-8c0,0-6.7,0.8-9.2,9.1
				C537.9,1357.5,539.3,1357.2,540.7,1356.6z"/>
			<path class="st1" d="M603.1,1353.8c0.1,2.1-2.4,7-2.8,8c0.4,0,1.1-1.4,3.4-4.2c2.8-3.5,5.9-5.9,8.1-5.6c3.2,1.1,3.5,3.8,2.1,6.9
				c-1.3,3.1-2.8,9.1,0.4,5.2c2.4-2.9,12.9-16.7,17.1-18.6c3.5-1.7,7.6,1,5.2,7.6c-0.7,2.5-3.1,6.7-7,12.9
				c-5.9,8.8-5.9,17.7,0.4,12.5c9.9-8,14-29.3,23.4-28.9c-7.7,3.5-10.6,13.4-14,19.1c-6.3,10.9-11.6,14.4-15.4,11.8
				c-3.8-2.7-4.8-7.3-0.3-14.7c6.3-10.2,11.5-22.6,6.7-18.6c-6.6,5.6-14.1,16.5-16.2,18.6c-1.8,1.8-3.6,1.8-5,0.4
				c-1.1-1.1-1.8-3.8,0.7-9.9c2.2-5.5-0.7-2.8-3.1-0.7c-4.3,3.9-10.1,15.3-11.5,17.4c-2.2,3.5-5.3-1-4.1-4.5
				c0.3-0.6,7.6-16.7,6.6-18.5C599.3,1348.9,602.9,1348.8,603.1,1353.8z"/>
			<path class="st1" d="M665.4,1373.6c5.9-8.5,13-23.3,17.9-24.4c-5.2,5.9-6.4,8.5-9.4,13.2c-5.6,9.1-8.7,15.3-12,14.7
				c-3.6-0.6-7-5.3-3.2-15.7c0.1-0.4,0.4-0.8,0.4-1.1c-4.2,5.2-8.3,9.9-12.2,5.6c-3.9-4.5-0.1-12.6,3.5-16c2.7-2.5,7.7-4.5,13-3.2
				c5.9,1.5,1.4,1.5,1.4,1.5s-7.6-1.7-13,7c-3.9,6.4-1.8,12.3,1.4,9.2c1.8-1.7,5.5-6.4,8.5-10.2c1.5-2.5,3.1-5.3,4.6-5.3
				c1.5-0.1,5.2,0.4,2,4.6C659.2,1365.6,659.1,1382.7,665.4,1373.6z"/>
			<path class="st1" d="M641.2,1413.8c-1-13.4,23.8-35.6,27.9-39.2c1.5-1.4,2.8-2.5,3.8-3.1c1.8-5.9,2.9-10.2,3.5-11.5
				c3.2-9.5,5.2-10.8,6.6-10.4c1.8,0.8,1.7,2.8,0.6,5.9c3.2-3.9,7.6-8,13.3-8c7-0.3,9.1,6.6,6.7,14.6c5.3-1.8,10.6-4.9,15.4-12.3
				c-2.5,8.1-9,11.2-15.8,13.4c-0.8,2.4-2.1,5-3.8,7.4c-7.6,10.6-17.1,9.2-18.2,5.9c-1-2.9,1-5.6,4.1-7.7c4.3-2.8,9-3.8,13.4-5.2
				c2.4-6.3,2.9-13.9-1.5-14.3c-5.9-0.6-11.1,4.6-14.7,9.5c-1.7,4.2-4.1,9.8-5.9,16.2c-3.5,12-8.5,26.5-14.7,36
				C653.5,1423.5,641.9,1423.2,641.2,1413.8z M666.1,1379.5c-8.5,8-14.3,14.6-19.3,23.1c-5.5,9.2-4.5,16.9,0.4,16.4
				c10.6-1,20-28.4,25.2-45.7C671,1374.6,669,1376.5,666.1,1379.5z M686,1369.2c-3.6,2.4-4.5,5.3-3.6,6.7c2.1,3.5,8.7-0.7,13-7
				c1-1.1,1.8-2.7,2.4-4.3C693.8,1366,689.6,1367.1,686,1369.2z"/>
			<path class="st1" d="M721,1350.3c-0.4,1.4-0.4,3.5,1,5.9c1.8,3.1,3.8,5.9,4.5,8.3c10.2-5,12.7-8,17.8-14.7
				c-2.2,6.9-9.4,12-17.7,15.8c1.5,4.8,1.3,8.7-1.8,13.4c-5.2,8.3-16.2,10.9-19.9,6.6c-4.9-6,2.8-12.9,14.1-17.8
				c1.7-0.7,2.9-1.4,4.3-2c-0.4-2-1.1-3.8-2.4-5.9c-4.9-7.7-4.1-8.5-3.9-10.4c0.3-3.2,4.1-6.6,4.1-6.6c2.2-1.7,2.8,1.7,2.4,3.5
				C722.6,1347.2,721.4,1348.8,721,1350.3z M722.4,1367c-9.5,4.1-17.8,9.5-17.1,14.7c0.4,3.5,3.5,4.6,7.4,2.5
				c3.8-2.1,12.2-9,11.3-17.8C723.4,1366.9,722.8,1366.9,722.4,1367z"/>
			<path class="st1" d="M774.7,1377.9c-0.4,2.9,0.1,5.2,2.8,1.5c8-11.2,17.7-26.5,25.9-30c-5.6,5.2-12.9,13.4-18.6,22
				c-8,11.8-9.1,12.5-11.3,11.3c-4.2-2.1-2.1-14.3,0.4-22.6c3.1-9.9,11.2-29.7,20.2-42.9c4.3-6.3,8.3-11.3,12.2-13.9
				c3.1-2.1,6.9-2.9,9.1,0.1c4.5,6.7-20.7,35.6-28.3,42.4c-1.4,1.3-2.4,2.2-3.2,2.8C777.2,1363.9,775.4,1372.5,774.7,1377.9z
				 M788.1,1339.1c-1.1,2.5-2.4,5-3.4,7.3c3.9-4.1,11.3-11.9,15.5-17.4c9.9-12.6,12.9-18.9,13.6-21.7c1.8-7.1-5.5,0.4-7.6,2.5
				C803,1313.6,796.5,1321.9,788.1,1339.1z"/>
			<path class="st1" d="M810.2,1361.4c-4.6,6.2-8.4,10.1-12.3,9c-6.3-2-1-17.8,3.5-20.9c2-1,3.1,0.1,2.8,1.7
				c-0.4,2.5-3.1,6.3-4.3,10.8c-0.8,3.4-1.8,7.3,0.7,6.9c3.1-0.4,9.1-9.2,13-14.3c3.4-4.2,4.3-5.3,6.6-5.3
				C817,1351,814.4,1355.8,810.2,1361.4z M805.2,1345.3c-1.1-0.4-1.3-1.1-0.4-2.8c1-2,0.4-2.4,2-3.2c1.1-0.6,4.8-0.3,3.5,2.4
				C809.1,1344.2,806.6,1345.6,805.2,1345.3z"/>
			<path class="st1" d="M823.5,1352.7c0.1,3.4-1,5-2.8,9c4.3-6,14.1-16,21-17.8c3.8-1,5.6,2.5,5.2,5.2c-0.4,3.9-11.9,19.5-13.3,25.2
				c-2,8.5,3.2,5.7,4.9,4.5c4.9-3.6,14.1-20.2,18.2-25.1c5.2-5.9,7-3.9,7-3.9c-8.1,2-17.8,28-26.9,31.5c-2.7,1.1-6.7,0.4-8-3.8
				c-2.4-8.5,13.2-28.4,13.7-31.4c0.4-3.4-9.4,2.7-16.2,10.6c-4.6,5.3-7.1,9.5-9.2,12.7c-0.4,0.7-2.8,0.7-3.8-1
				c-0.4-0.7-1.7-2.4,2.1-10.1c4.2-8.5,2.4-8.3,2.4-8.3C818.9,1348.6,823.5,1349.5,823.5,1352.7z"/>
			<path class="st1" d="M901,1306.2c-1,12.2-27.3,37.1-36,44c-2.1,3.8-2.4,5.9-3.9,10.1c1.5-2.8,10.9-14.3,18.5-12.9
				c7,1.4,4.3,9.2-1.1,12.3c-3.8,2.1-10.8,4.6-11.1,5.5c7.7,3.4,1.8,12.6,5.2,16.2c5.9,3.8,15.4-25.6,27.3-32.1
				c-1.3,1.1-2.4,3.1-4.2,5.2c-8.5,9.5-12.9,21.4-17.8,26.5c-2.4,2.4-5.2,2.1-6.4,1.3c-8-4.5-0.6-15.1-5.9-16.2
				c-1.1-0.3-2.1-2.1-0.8-3.5c2-2.1,8.8-4.1,13.4-7.6c7.7-5.5,1.7-9.2-5.9-3.9c-9.7,6.7-11.3,12.9-14.6,22.6c-4.3,0-4.2-3.6-3.5-7.6
				c0.3-1,9.9-30.5,19.3-44.5c9.1-14.7,17.2-18.9,19.1-19.6C897.5,1300.3,901.3,1302.7,901,1306.2z M894.3,1305.6
				c-12.3,8-23.4,29.1-28.7,42.2c13.2-10.9,32.5-32.9,33.6-40.2C899.9,1304.4,897.4,1303.7,894.3,1305.6z"/>
		</g>
	</g>
</g>
<g>
	<a xlink:href="https://goo.gl/maps/bh3CPKwYthFpsLtr7"  pointer-events="all" target="_blank">
		<rect x="527.1" y="1437.2" class="st3" width="203" height="252.1"/>
		<path class="st1" d="M713.9,1479.2c-12.7-28.9-51.3-36.1-73.7-14c-1,0.8-1.8,1.3-3.1,1.3c-22.4,0-44.8,0-67.2,0
			c-12.2,0-21.6,9.4-21.6,21.6c0,37.5,0,74.8,0,112.3c0,1.4,0.1,3.1,0.4,4.5c2.4,10.5,10.6,17.1,21.4,17.1c18.6,0,37.1,0,55.8,0
			s37.1,0,55.8,0c2.4,0,5-0.4,7.3-1.1c9.1-3.1,14.7-10.9,14.7-20.6c0-21.6,0-43.1,0-64.6c0-1,0.4-2,0.8-2.8
			c2.2-3.5,4.5-6.9,6.6-10.6C719,1508.2,720.5,1493.9,713.9,1479.2z M643.4,1534.1c10.5,14.3,19.5,29.7,23.7,47.6
			c-12-12-24-24-35.7-35.6C635.3,1542.1,639.3,1538.2,643.4,1534.1z M559.6,1606.3c-0.4,0.4-0.7,0.8-1.4,1.3
			c-0.1-0.8-0.1-1.1-0.1-1.7c0-40.5,0-81,0-121.7c0-5,3.2-8.3,8.1-8.3c22,0,44.3,0,66.3,0c0.4,0,0.7,0,0.8,0
			c-1,3.9-2.2,7.7-2.8,11.6c-2.1,12,0.6,23.5,6.3,34c0.6,1,0.8,2.1,1.7,2.8c1.3,1.5,0.7,2.5-0.6,3.9
			C611.6,1554.3,585.7,1580.3,559.6,1606.3z M565.2,1613.4c20-20,40.2-40.2,60.4-60.2c19.8,19.8,39.9,39.9,60.2,60.2
			C645.4,1613.4,605,1613.4,565.2,1613.4z M694.5,1602.6c0,1.7-0.6,3.4-1,4.9c-8.3-8.3-16.2-16.2-24.2-24.2c0.8-0.1,1.7-0.1,2.7-0.3
			c6.2-1.1,9.2-5.2,10.5-10.9c2.2-9.8,5.7-19.2,10.4-28.2c0.3-0.7,0.7-1.4,1.3-2.2c0.1,0.8,0.3,1.3,0.3,1.7
			C694.7,1563,694.7,1582.7,694.5,1602.6z M702.2,1512.3c-3.1,5.6-6.6,10.8-10.1,16.1c-7.7,11.2-14.3,23-19.3,35.6
			c-0.1,0.4-0.4,0.7-0.6,1.3c-1.7-3.8-3.2-7.3-4.8-10.8c-5.2-11.3-12-21.6-19.1-31.8c-3.8-5.5-7.1-11.2-9.1-17.7
			c-5.7-19.1,7-39.9,26.8-43.3c18.2-3.2,34.9,7.4,39.6,25.4C707.8,1495.7,706.6,1504.3,702.2,1512.3z"/>
		<path class="st1" d="M605.7,1493.6c-1.7,1.7-3.2,3.2-5,4.9c-7.4-4.9-13.2-5.2-18.5-1c-4.9,3.8-6.7,10.1-4.6,16
			c2,5.6,7.6,9.4,13.4,9.2c4.9-0.1,10.5-3.2,11.5-7c-3.9,0-7.7,0-11.6,0c0-2.4,0-4.6,0-7c7,0,13.9,0,20.9,0
			c1.8,5.9-4.8,16.1-12.5,19.3c-9.9,4.3-21.7,0.4-27-9.1s-2.5-21.4,6.4-27.7C587.9,1485.1,599.7,1487.3,605.7,1493.6z"/>
		<path class="st1" d="M661.6,1498c0-5.9,4.8-10.6,10.6-10.5c5.9,0,10.5,4.8,10.5,10.6s-4.8,10.6-10.6,10.6
			C666.2,1508.8,661.5,1504,661.6,1498z"/>
	</a>
	<g>
		<path class="st4" d="M593.1,1675.1v0.8c-2.2-1.1-4.1-2.4-5.5-3.9c-2.1-2.1-3.8-4.6-4.9-7.6c-1.1-3-1.7-5.9-1.7-9
			c0-4.5,1.1-8.7,3.4-12.5c2.2-3.8,5.2-6.4,8.7-8v1c-1.8,1-3.2,2.4-4.3,4.1s-2.1,3.9-2.5,6.6c-0.6,2.7-0.8,5.3-0.8,8.3
			c0,3.2,0.3,6,0.7,8.5c0.4,2.1,0.8,3.6,1.4,4.9c0.4,1.3,1.3,2.4,2.2,3.5C590.4,1673.1,591.6,1674.1,593.1,1675.1z"/>
		<path class="st4" d="M613.1,1658.8c-0.4,2.7-1.5,4.8-3.2,6c-1.5,1.4-3.2,2.2-5.2,2.2c-2.4,0-4.2-1-6-2.9c-1.7-2-2.5-4.5-2.5-7.8
			c0-3.2,1-5.7,2.8-7.7s4.2-2.9,6.9-2.9c2,0,3.6,0.4,4.9,1.5c1.3,1.1,2,2.2,2,3.2c0,0.6-0.1,1-0.4,1.4c-0.4,0.4-0.8,0.4-1.4,0.4
			c-0.8,0-1.4-0.3-2-0.8c-0.3-0.4-0.4-0.8-0.4-1.7c-0.1-0.8-0.4-1.5-0.8-2c-0.4-0.5-1.3-0.6-2.1-0.6c-1.4,0-2.7,0.4-3.5,1.5
			c-1.3,1.4-1.8,3.2-1.8,5.7c0,2.4,0.6,4.5,1.7,6.3c1.3,1.8,2.8,2.8,4.8,2.8c1.4,0,2.7-0.4,3.9-1.4c0.8-0.7,1.5-2,2.4-3.6
			L613.1,1658.8z"/>
		<path class="st4" d="M623.5,1635.2v26.6c0,1.3,0.1,2.1,0.3,2.5c0.1,0.4,0.4,0.7,0.8,1s1.1,0.4,2.1,0.4v0.7h-9.8v-0.7
			c1,0,1.5-0.1,2-0.3c0.4-0.3,0.6-0.4,0.7-1c0.1-0.6,0.3-1.4,0.3-2.5v-18.2c0-2.4,0-3.6-0.1-4.1c-0.1-0.4-0.3-0.8-0.4-1.1
			c-0.3-0.3-0.4-0.3-0.8-0.3c-0.4,0-0.8,0.1-1.4,0.4l-0.4-0.7l6-2.4h1.1L623.5,1635.2L623.5,1635.2z"/>
		<path class="st4" d="M636.5,1645.8v16.2c0,1.3,0.1,2.1,0.3,2.5c0.1,0.4,0.4,0.7,0.8,1c0.4,0.3,1,0.4,2,0.4v0.7h-9.8v-0.7
			c1,0,1.5-0.1,2-0.3c0.4-0.3,0.6-0.4,0.7-1c0.3-0.4,0.3-1.4,0.3-2.5v-7.8c0-2.2-0.1-3.5-0.3-4.2c-0.1-0.4-0.3-0.8-0.4-1
			c-0.3-0.1-0.4-0.3-0.8-0.3c-0.4,0-0.8,0.1-1.4,0.4l-0.4-0.7l6-2.4h1.1L636.5,1645.8L636.5,1645.8z M634.6,1635.2
			c0.6,0,1.1,0.3,1.5,0.6c0.4,0.4,0.6,1,0.6,1.5c0,0.6-0.3,1.1-0.6,1.5c-0.4,0.4-1,0.6-1.5,0.6c-0.6,0-1.1-0.3-1.5-0.6
			c-0.4-0.4-0.6-1-0.6-1.5c0-0.6,0.3-1.1,0.6-1.5C633.4,1635.4,634.1,1635.2,634.6,1635.2z"/>
		<path class="st4" d="M659.6,1658.8c-0.4,2.7-1.5,4.8-3.2,6c-1.5,1.4-3.2,2.2-5.2,2.2c-2.4,0-4.2-1-6-2.9c-1.7-2-2.5-4.5-2.5-7.8
			c0-3.2,1-5.7,2.8-7.7s4.2-2.9,6.9-2.9c2,0,3.6,0.4,4.9,1.5c1.3,1.1,2,2.2,2,3.2c0,0.6-0.1,1-0.4,1.4c-0.4,0.4-0.8,0.4-1.4,0.4
			c-0.8,0-1.4-0.3-2-0.8c-0.3-0.4-0.4-0.8-0.4-1.7c-0.1-0.8-0.4-1.5-0.8-2c-0.4-0.5-1.3-0.6-2.1-0.6c-1.4,0-2.7,0.4-3.5,1.5
			c-1.3,1.4-1.8,3.2-1.8,5.7c0,2.4,0.6,4.5,1.7,6.3c1.3,1.8,2.8,2.8,4.8,2.8c1.4,0,2.7-0.4,3.9-1.4c0.8-0.7,1.5-2,2.4-3.6
			L659.6,1658.8z"/>
		<path class="st4" d="M662.6,1636.1v-1c2.2,1.1,4.1,2.4,5.6,3.9c2.1,2.1,3.6,4.6,4.9,7.6c1.1,2.9,1.7,5.9,1.7,9
			c0,4.5-1.1,8.7-3.2,12.5c-2.2,3.8-5.2,6.4-8.7,8v-0.8c1.8-1,3.2-2.4,4.3-4.1c1.3-1.7,2.1-3.9,2.5-6.6c0.6-2.7,0.8-5.5,0.8-8.3
			c0-3.2-0.3-6-0.7-8.5c-0.4-2.1-0.8-3.6-1.4-4.9c-0.4-1.3-1.3-2.4-2.2-3.5C665.3,1638.2,664.2,1637.1,662.6,1636.1z"/>
	</g>
</g>
<g>
	<g>
		<path class="st1" d="M592.3,518c0.3,0.2,0.6,0.4,0.8,0.5c-0.7,0.7-1.2,1.1-1.4,1.2c-3.4,0.9-7.2,1.4-11.6,1.6l-6.5,0.1l-6.5-0.1
			l-13.9-0.6c-7-0.5-13.4-0.7-19.2-0.7c-3,0-6.2,0.2-9.5,0.7c-11.4,1.5-19.6,7.2-24.7,16.9c-3.6,6.6-6.2,12.6-7.9,18.2l-8.2,26.3
			c-1.8,6.6-4.1,15.4-6.8,26.6l-8.8,34.1l-3.3,12.6l-2.6,9.8c-0.1,0.4-0.3,1.4-0.6,3c0.4,0.4,0.8,0.6,1.2,0.6c0.4,0,0.7,0,0.9-0.1
			c0.2-0.1,0.5-0.2,0.6-0.3l10.5-2.2c1.9-0.4,4.3-0.9,7.2-1.5c2.9-0.6,6.3-1.3,10.1-2c3.5-0.8,7-1.2,10.5-1.3
			c1.7-0.1,3.2,0.3,4.4,1.2c1.2,0.9,2,2.3,2.5,4.1v0.4c0,0.4-0.1,0.7-0.4,1c-0.2,0.2-0.5,0.3-0.8,0.2c-0.3,0-0.6-0.1-0.6-0.1l-1-0.7
			c-0.7-0.8-1.8-1.1-3.3-0.9c-2.6,0.4-4.4,0.6-5.5,0.7c-0.9,0.1-2,0.2-3.4,0.4s-3,0.5-4.8,0.9c-6,1.2-10.5,2.1-13.4,2.7l-13.6,2.7
			l-1.6,0.4c-1.2,0.3-2,1.1-2.5,2.5l-4.3,14.7l-1.3,4.6c-1.7,6.1-2.7,9.6-3,10.7c-0.2,0.6-0.8,2.8-1.9,6.7s-1.8,7.7-2.3,11.5
			c-0.1,0.5-0.2,1-0.3,1.7c-0.1,0.6-0.1,1.4-0.1,2.2c0,1.3,0.2,2.3,0.6,3.2c0.3,0.1,0.7,0.1,1.2,0.1s1,0,1.7-0.1
			c0.6-0.1,1.1-0.2,1.4-0.3l5.8-1.2c13.7-2.5,20.9-3.8,21.8-3.9c8.2-1.4,17.5-2.3,27.9-2.6l7.8-0.1c6.7-0.2,11.7-0.3,14.9-0.3
			c3.7,0,7.3,0.1,11,0.4c1.1,0.1,1.9,0.3,2.5,0.6s1.1,1,1.4,2c-0.8,0.6-1.3,0.9-1.6,1c-0.7,0.1-1.7,0.1-3.2,0.1
			c-1.7-0.1-4.4-0.1-7.9-0.1c-7,0-15.5,0.3-25.4,1c-16.6,1.1-33,3.4-49.4,6.9c-1.3,0.3-3.6,0.6-6.8,1c-2.9,0.4-5.6-0.6-8.2-2.9
			c-1.4-1.3-2.2-2.8-2.2-4.6V727c0-1.2,0-2,0.1-2.6c0.5-3.8,1.2-7.4,2.1-11.1c0.9-3.6,2.1-8.1,3.7-13.5c1.3-4.4,3.2-11.1,5.9-19.9
			c0.1-0.3,0.1-0.8,0.1-1.4c-0.4-0.7-1.1-0.8-2.2-0.4l-9,2.7l-1.2,0.3c-0.5,0-0.9-0.2-1.2-0.6c-0.3-0.4-0.6-1.1-1-2.2
			c1.4-1.1,3.1-2,4.8-2.7c1.8-0.8,3.6-1.4,5.4-2c2-0.6,4-1.3,6.1-2.2c0.8-1.2,1.3-2.6,1.7-4.4c0.4-1.8,0.7-3.1,1-4
			c3.7-12.4,7.8-28.1,12.6-47.1c1.5-6.5,4.8-18.5,9.7-35.8c4.9-17.3,8.8-29.3,11.6-36.2c1.8-4.7,3.9-9,6.4-12.7
			c5.4-8.5,13.2-13.6,23.4-15.3c2.9-0.6,6.5-0.9,10.8-0.9c3.1,0,5.4,0,6.9,0.1l34.1,2.2c3.1,0.3,6.2,0.4,9.2,0.4
			c2.7,0,5.4-0.1,8.2-0.4c0.9,0,2.1,0.1,3.6,0.3C591.7,517.7,592,517.8,592.3,518z"/>
		<path class="st1" d="M624.4,655.8c-0.9,0.2-1.3,0.2-1.4,0.1c-1.2-0.6-2.3-0.9-3.5-0.9c-1.1,0-2.1,0.1-3,0.4c-6,1.5-10.3,3-13,4.3
			s-4.5,2.7-5.3,4.2s-1.5,3.7-2.1,6.6c-0.7,3.2-1.4,6-2.2,8.6s-2.3,5.6-4.4,9c-7.1,11.6-14.7,21.4-22.8,29.5
			c-3.8,3.8-7.3,6.6-10.5,8.5c-1.3,0.8-3.5,1.7-6.4,2.9c-0.7,0.3-1.3,0.4-2,0.4s-1.6-0.2-2.7-0.6c-1.9-0.7-3.3-1.4-4-2.3
			c-0.8-0.9-1.2-2.1-1.2-3.8c0-3.5,0.9-7.2,2.7-11.1c3.6-7.5,8.5-14.6,14.7-21.4c7.6-8.3,17.7-16,30.2-23.1l3.3-1.9
			c0-1.3,0-2.3-0.1-2.9c-0.3-2-1.3-3.3-3.2-3.9c-3.4-1.2-6.6-1.8-9.5-1.9l-6.9-0.3c-2.9-0.2-5.3-1.3-7.1-3.3c-0.8-1-1.2-1.8-1.2-2.5
			c0-0.8,0.3-1.5,1-2.3c1.3-1.7,2.6-3.1,3.9-4c6.5-5.2,12.5-9.1,17.9-11.8c0.3-0.1,1.1-0.5,2.3-1.2c1.3-0.7,2.6-1,3.9-1
			c1.6,0,2.7,0.6,3.2,1.9c-7.9,4.9-13.6,8.7-17.1,11.4s-6.2,5.3-8.2,7.9c0.2,0.6,0.8,0.9,1.7,0.9c1.1,0,4,0.2,8.8,0.7
			c3.9,0.4,6.6,0.8,8.4,1.4c1.7,0.5,3.7,1.9,5.8,4l1,0.7l2.6-1c3.3-1.4,7.1-2.9,11.4-4.3c1.6-0.6,4.1-1.2,7.4-1.7
			c1.2-0.2,2.2-0.1,3.2,0.3c1,0.4,2.2,1,3.5,1.9C623.8,654.3,624,654.8,624.4,655.8z M587.9,676c0.6-1.3,1-2.7,1.3-4.3
			c-2.6,1.1-6.7,3.7-12.3,7.8s-9.7,7.6-12.4,10.3c-5.2,5.2-9.5,10.4-12.9,15.6c-2.2,3.5-4.2,8-5.9,13.6c-0.2,0.8-0.3,1.7-0.3,2.7
			c0,1.1,0,1.7,0,2s0.1,0.7,0.4,1.2c0.3,0.5,0.5,0.9,0.7,1.3c0.6-0.4,1.3-0.8,2.1-1.2s1.5-0.7,2-1c1.3-1,3.3-2.5,5.8-4.6
			c3.5-3,7.6-7.5,12.4-13.6c4-5.1,7.5-9.8,10.5-14.2c2.9-4.3,5.5-8.8,7.6-13.4C587,678,587.3,677.3,587.9,676z"/>
		<path class="st1" d="M682,652.4c0,0.1,0,0.3-0.1,0.4c-7,7-12.2,12.4-15.6,16L659,677l-7.4,8.2c-5.5,6-11.2,10-17,12.1
			c-2.7,1.1-5.4,1.6-8.1,1.6c-2.6,0-5-0.5-7.2-1.6c-6.4-2.8-9.5-8.3-9.5-16.6c0-3.2,0.6-6.8,1.7-11c1.6-5.7,4.2-11.4,7.8-17.2
			c2.5-4,5.6-7.8,9.2-11.1c3.2-2.9,6.6-4.7,10.4-5.5c1.2-0.2,2-0.3,2.5-0.3c2.7,0,5.1,1.1,7.1,3.3c1.3,1.3,2,3.2,2,5.6l-0.1,4.2
			l-1.2,0.7c-0.2-0.7-0.4-1.3-0.5-2s-0.3-1.3-0.5-2c-0.9-2.2-1.6-3.9-2.3-5.2c-0.8-1.3-1.9-1.8-3.5-1.3c-1.3,0.4-2.3,0.9-3.2,1.4
			c-2.9,1.9-5,3.5-6.2,4.8c-4.6,4.6-8.3,10-11.1,16.2c-2.7,5.9-4.5,11.8-5.5,17.6c-0.1,0.6-0.1,1.4-0.1,2.5c0,1.9,0.3,4.4,1,7.5
			c0.1,0.6,0.4,1.3,0.9,2c1.7,3.1,4,4.6,6.9,4.6c0.5,0,1.2-0.1,2.2-0.3c4.1-0.9,7.9-2.6,11.4-5.3c4-3.2,7.7-6.5,11-10.1
			c6.4-6.9,12.9-13.7,19.5-20.4l3.8-3.5c2.6-2.3,3.9-3.5,4-3.6c0.5-0.5,1-0.8,1.6-0.9c0.6-0.1,1.2-0.1,1.7-0.1c0.6,0,1,0,1.2,0
			s0.4,0.2,0.6,0.6C681.9,652.1,681.9,652.2,682,652.4z"/>
		<path class="st1" d="M743.5,652.3c0.6,0,1.2,0.3,1.9,0.9c-2.6,2.5-5,5.2-7.2,8.1c-2.2,2.9-4.7,6.5-7.6,10.7l-3.6,5.2
			c-4.7,6.8-8,11.5-10,14c-1.2,1.5-2.8,3.2-4.9,4.9c-1.2,1.1-2.6,1.6-4.3,1.6c-1.2,0-2.3-0.3-3.3-0.9c-1.1-0.6-1.9-1.5-2.6-2.7
			c-1.1-1.8-1.6-3.9-1.6-6.4c0-5.7,0.4-10.2,1.3-13.6l0.4-3c-0.5,0.6-0.9,1.1-1.2,1.4c-0.3,0.4-0.6,0.8-0.9,1.2
			c-2.6,4.4-6.8,9.7-12.6,15.7c-2.2,2.4-4.6,4.2-7.1,5.3c-1.3,0.6-2.6,0.9-3.9,0.9c-1.7,0-3.5-0.6-5.2-1.7c-1.5-1.2-2.6-2.6-3.2-4.5
			c-0.8-2.6-1.2-5.2-1.2-7.7c0-7,1.9-14.4,5.6-22.2c3.8-7.9,8-13.8,12.7-17.8c2.1-1.8,4.2-3.4,6.4-4.6c1.5-1,3.1-1.4,4.6-1.4
			c1.6,0,3.2,0.4,4.6,1.3c3.4,1.6,5.1,4,5.1,7.2c0,1.3-0.1,2.7-0.3,4.3s-0.3,2.7-0.4,3.4h0.4c0.6,0,1.1-0.4,1.4-1.3
			c0.9-2.2,2-4.6,3.3-7.2l1.3-2.7c0.4-0.9,0.9-2,1.4-3.3c0.6-1.3,1.2-2.5,1.7-3.3c1.3,0.2,2.2,0.4,2.5,0.6c0.3,0.2,1,0.8,2,1.7
			c-0.5,1.4-0.8,2.4-1,2.7c-4.6,9.3-8.5,21.2-11.6,35.5c-0.6,2.7-1.1,6.9-1.4,12.6c-0.1,1.6,0.1,3.7,0.6,6.1c0.1,1,0.6,1.4,1.6,1.4
			c0.4,0,0.8-0.1,1.2-0.4c1.6-1.2,3.1-2.5,4.5-4c1.1-1.1,2.1-2.4,3.2-4.1c1.1-1.7,2-2.9,2.5-3.7l7.1-9.8l6.9-9.8
			c1.2-1.7,3.4-4.3,6.5-7.8c0.7-0.8,1.6-1.5,2.7-2.2C742.5,652.5,743,652.3,743.5,652.3z M700.8,656.4c0.7-4.5,1-8.4,1-11.7
			c0-1.1-0.1-2.1-0.4-3c-0.5-1.6-1.3-2.5-2.6-2.5c-0.2,0-0.7,0.1-1.4,0.3c-2.4,0.9-4.8,2.5-7.2,4.9c-8.1,8.1-13.8,18.3-17.2,30.6
			c-0.8,2.8-1.2,5.4-1.2,7.9c0,1.8,0.2,3.5,0.6,5.1c0.5,2.1,1.3,3.7,2.5,4.8c3-1.2,6-3.4,9.1-6.6c2.7-2.8,5.1-5.7,7.1-8.6
			c2-2.9,4.7-7.1,7.9-12.5c0.7-1.2,1.1-2.4,1.3-3.8L700.8,656.4z"/>
		<path class="st1" d="M799.7,523.2c0.3,0.2,0.5,0.5,0.5,0.8s-0.1,0.7-0.4,1.3l-5.8,10.4c-4.6,8.5-8.6,16.1-12,23
			c-3.5,7-8.2,17.8-14.2,32.2c-8.6,20.8-15,39.1-19.2,54.7c-0.4,1.3-2.4,9.2-6.1,23.7c-0.9,4-1.5,6.6-1.9,7.9
			c-1.4,5.9-2.4,11.4-2.7,16.5c-0.1,1.2-0.1,2.2-0.1,3.1c0,0.9,0.1,1.7,0.1,2.4c1.7,0.3,2.6,0.4,2.7,0.4c1.1,0.5,1.6,1.1,1.6,1.7
			c0,0.4-0.1,0.8-0.4,1.2c-1.3,1.9-2.9,2.7-4.9,2.3c-2.5-0.6-3.9-1.8-4.3-3.8c-0.4-2.1-0.6-3.7-0.6-4.8c0-3.4,0.5-8.4,1.4-15.2
			c0.2-0.7,0.4-1.9,0.6-3.6c1.4-10.5,4.3-22.8,8.5-36.8c5.3-17.2,10.5-32.2,15.7-44.8c4.6-11.2,11.4-25.7,20.2-43.5
			c3.3-6.5,6.8-12.6,10.5-18.3c3.3-5,6-8.6,8.2-10.8l1-0.7C798.9,522.8,799.4,523,799.7,523.2z"/>
		<path class="st1" d="M830,652.3c0.6,0,1.2,0.3,1.9,0.9c-2.6,2.5-5,5.2-7.2,8.1c-2.2,2.9-4.7,6.5-7.6,10.7l-3.6,5.2
			c-4.7,6.8-8,11.5-10,14c-1.2,1.5-2.8,3.2-4.9,4.9c-1.2,1.1-2.6,1.6-4.3,1.6c-1.2,0-2.3-0.3-3.3-0.9c-1.1-0.6-1.9-1.5-2.6-2.7
			c-1.1-1.8-1.6-3.9-1.6-6.4c0-5.7,0.4-10.2,1.3-13.6l0.4-3c-0.5,0.6-0.9,1.1-1.2,1.4c-0.3,0.4-0.6,0.8-0.9,1.2
			c-2.6,4.4-6.8,9.7-12.6,15.7c-2.2,2.4-4.6,4.2-7.1,5.3c-1.3,0.6-2.6,0.9-3.9,0.9c-1.7,0-3.5-0.6-5.2-1.7c-1.5-1.2-2.6-2.6-3.2-4.5
			c-0.8-2.6-1.2-5.2-1.2-7.7c0-7,1.9-14.4,5.6-22.2c3.8-7.9,8-13.8,12.7-17.8c2.1-1.8,4.2-3.4,6.4-4.6c1.5-1,3.1-1.4,4.6-1.4
			c1.6,0,3.2,0.4,4.6,1.3c3.4,1.6,5.1,4,5.1,7.2c0,1.3-0.1,2.7-0.3,4.3s-0.3,2.7-0.4,3.4h0.4c0.6,0,1.1-0.4,1.4-1.3
			c0.9-2.2,2-4.6,3.3-7.2l1.3-2.7c0.4-0.9,0.9-2,1.4-3.3c0.6-1.3,1.2-2.5,1.7-3.3c1.3,0.2,2.2,0.4,2.5,0.6c0.3,0.2,1,0.8,2,1.7
			c-0.5,1.4-0.8,2.4-1,2.7c-4.6,9.3-8.5,21.2-11.6,35.5c-0.6,2.7-1.1,6.9-1.4,12.6c-0.1,1.6,0.1,3.7,0.6,6.1c0.1,1,0.6,1.4,1.6,1.4
			c0.4,0,0.8-0.1,1.2-0.4c1.6-1.2,3.1-2.5,4.5-4c1.1-1.1,2.1-2.4,3.2-4.1c1.1-1.7,2-2.9,2.5-3.7l7.1-9.8l6.9-9.8
			c1.2-1.7,3.4-4.3,6.5-7.8c0.7-0.8,1.6-1.5,2.7-2.2C829,652.5,829.5,652.3,830,652.3z M787.4,656.4c0.7-4.5,1-8.4,1-11.7
			c0-1.1-0.1-2.1-0.4-3c-0.5-1.6-1.3-2.5-2.6-2.5c-0.2,0-0.7,0.1-1.4,0.3c-2.4,0.9-4.8,2.5-7.2,4.9c-8.1,8.1-13.8,18.3-17.2,30.6
			c-0.8,2.8-1.2,5.4-1.2,7.9c0,1.8,0.2,3.5,0.6,5.1c0.5,2.1,1.3,3.7,2.5,4.8c3-1.2,6-3.4,9.1-6.6c2.7-2.8,5.1-5.7,7.1-8.6
			c2-2.9,4.7-7.1,7.9-12.5c0.7-1.2,1.1-2.4,1.3-3.8L787.4,656.4z"/>
	</g>
</g>
<g>
	<path class="st1" d="M70.1,905.2l-0.4,1.5H47.5l0.6-1.5c2.2,0,3.7-0.2,4.4-0.5c1.2-0.5,2-1.1,2.6-1.9c0.9-1.2,1.8-3.5,2.7-6.7
		l9.4-32.5c0.8-2.7,1.2-4.7,1.2-6.1c0-0.7-0.2-1.3-0.5-1.8c-0.3-0.5-0.9-0.8-1.6-1.1c-0.7-0.2-2.1-0.4-4.1-0.4l0.4-1.5h20.8
		l-0.4,1.5c-1.7,0-2.9,0.1-3.7,0.5c-1.2,0.6-2.1,1.3-2.7,2.3c-0.6,1-1.4,3.1-2.4,6.5l-9.3,32.5c-0.9,3-1.3,4.9-1.3,5.7
		c0,0.7,0.2,1.2,0.5,1.7c0.3,0.5,0.9,0.8,1.6,1.1C66.3,904.8,67.8,905,70.1,905.2z"/>
	<path class="st1" d="M119.5,873.2l-1.1,4.1h-6.7c0.5,1.4,0.7,2.8,0.7,4c0,3.5-1.5,6.6-4.4,9.4c-3,2.7-7.1,4.2-12.3,4.5
		c-2.8,0.9-4.9,1.9-6.3,3.1c-0.5,0.4-0.8,0.8-0.8,1.3c0,0.5,0.2,1,0.7,1.5c0.5,0.4,1.7,0.9,3.6,1.3l7.7,1.8c4.2,1,7.1,2.2,8.4,3.6
		c1.3,1.4,2,3,2,4.8c0,2.2-0.8,4.2-2.4,6c-1.6,1.8-3.9,3.2-7,4.2c-3.1,1-6.5,1.5-10.2,1.5c-3.3,0-6.3-0.4-9-1.2
		c-2.7-0.8-4.6-1.8-5.8-3.2c-1.2-1.3-1.8-2.7-1.8-4.1c0-1.1,0.4-2.3,1.1-3.5c0.8-1.2,1.7-2.2,2.8-3c0.7-0.5,2.7-1.7,6.1-3.6
		c-1.2-1-1.8-2-1.8-3.2c0-1.1,0.5-2.2,1.6-3.4s3.4-2.5,6.8-3.9c-2.9-0.6-5.2-1.8-6.9-3.6s-2.5-4-2.5-6.3c0-3.7,1.6-7.1,4.9-10.1
		c3.3-3,7.7-4.5,13.2-4.5c2,0,3.6,0.2,4.9,0.6s2.5,1,3.7,1.8H119.5z M86.7,906.6c-2.1,1-3.8,2.2-4.9,3.8c-1.1,1.5-1.7,3-1.7,4.5
		c0,1.7,0.8,3.2,2.4,4.3c2.3,1.6,5.6,2.5,10,2.5c3.8,0,7-0.6,9.7-1.9c2.7-1.3,4-2.9,4-5c0-1.1-0.5-2-1.5-3c-1-0.9-2.9-1.7-5.8-2.3
		C97.5,909.3,93.4,908.3,86.7,906.6z M105.7,879.4c0-2.1-0.6-3.8-1.8-5c-1.2-1.2-2.7-1.8-4.6-1.8c-3,0-5.5,1.5-7.4,4.5
		c-1.9,3-2.9,6.1-2.9,9.4c0,2,0.6,3.7,1.8,5c1.2,1.3,2.7,1.9,4.5,1.9c1.4,0,2.8-0.4,4.1-1.2c1.3-0.8,2.4-1.8,3.3-3.2
		c0.9-1.3,1.6-3.1,2.1-5.2C105.5,881.8,105.7,880.3,105.7,879.4z"/>
	<path class="st1" d="M141.9,850.2l-13.6,47.2c-0.7,2.4-1,3.8-1,4.3c0,0.4,0.1,0.7,0.4,1c0.2,0.3,0.6,0.4,0.9,0.4
		c0.5,0,1.1-0.2,1.6-0.7c1.4-1.1,2.8-2.8,4.3-5l1.2,1.2c-2.5,3.6-4.8,6-7,7.4c-1.5,1-3,1.5-4.4,1.5c-1,0-1.8-0.3-2.5-1s-1-1.5-1-2.4
		c0-1,0.4-2.9,1.2-5.9l10.8-37.2c0.9-3.1,1.3-4.8,1.3-5.2c0-0.7-0.3-1.2-0.8-1.6s-1.3-0.6-2.3-0.6c-0.6,0-1.5,0.1-2.8,0.3v-1.5
		L141.9,850.2z"/>
	<path class="st1" d="M150,891.7c-0.2,1.3-0.2,2.4-0.2,3.3c0,2.4,0.8,4.4,2.5,6c1.7,1.7,3.7,2.5,6.1,2.5c1.9,0,3.7-0.4,5.5-1.2
		s4.4-2.5,7.8-5.2l0.8,1.1c-6.3,6.2-12.3,9.3-18,9.3c-3.8,0-6.7-1.2-8.7-3.6c-2-2.4-2.9-5.1-2.9-8c0-3.9,1.2-8,3.6-12.1
		c2.4-4.1,5.5-7.3,9.1-9.6c3.7-2.3,7.5-3.5,11.4-3.5c2.8,0,4.9,0.6,6.2,1.7c1.3,1.2,2,2.5,2,4c0,2.2-0.9,4.3-2.6,6.3
		c-2.3,2.6-5.7,4.8-10.2,6.4C159.6,890.2,155.4,891.1,150,891.7z M150.3,889.7c3.9-0.5,7.1-1.2,9.6-2.3c3.3-1.4,5.7-3.2,7.3-5.2
		c1.6-2,2.4-4,2.4-5.8c0-1.1-0.4-2-1.1-2.7s-1.7-1-3-1c-2.7,0-5.6,1.4-8.6,4.3C154,879.9,151.8,884.1,150.3,889.7z"/>
	<path class="st1" d="M205.9,870.7l-2.4,12.2H202c-0.1-3.6-0.9-6.1-2.3-7.7c-1.4-1.6-3.1-2.4-5.1-2.4c-1.6,0-2.9,0.4-3.9,1.3
		s-1.5,2-1.5,3.3c0,0.9,0.2,1.7,0.6,2.5c0.4,0.8,1.2,1.9,2.5,3.3c3.4,3.8,5.6,6.6,6.6,8.5c1,1.9,1.5,3.7,1.5,5.4
		c0,2.8-1.1,5.2-3.4,7.3c-2.3,2.1-5.2,3.2-8.7,3.2c-1.9,0-4.1-0.4-6.6-1.3c-0.9-0.3-1.5-0.5-2-0.5c-1.2,0-2.1,0.6-2.7,1.8h-1.4
		l2.4-12.9h1.5c0.1,4,1,6.9,2.5,8.6c1.5,1.7,3.6,2.5,6.2,2.5c2,0,3.6-0.6,4.8-1.7c1.2-1.1,1.8-2.5,1.8-4.1c0-1.1-0.2-2-0.6-3
		c-0.8-1.6-2.3-3.8-4.7-6.6c-2.4-2.8-3.9-4.9-4.6-6.3c-0.7-1.4-1-2.8-1-4.2c0-2.6,0.9-4.7,2.8-6.5s4.3-2.7,7.2-2.7
		c0.9,0,1.6,0.1,2.3,0.2c0.4,0.1,1.2,0.4,2.6,0.9s2.3,0.8,2.7,0.8c1.1,0,2.1-0.6,2.9-1.9H205.9z"/>
	<path class="st1" d="M226.8,870.7l-7.8,27.9c-0.5,1.9-0.8,3-0.8,3.4c0,0.4,0.1,0.8,0.4,1c0.2,0.3,0.5,0.4,0.9,0.4
		c0.4,0,0.9-0.2,1.4-0.6c1.5-1.2,3-2.9,4.6-5.1l1.4,0.9c-1.8,2.7-3.9,5-6.4,7c-1.8,1.4-3.5,2.1-5.1,2.1c-1.1,0-2-0.3-2.7-1
		c-0.7-0.6-1-1.5-1-2.4s0.3-2.6,1-4.9l5.2-17.8c0.8-2.9,1.2-4.7,1.2-5.5c0-0.6-0.2-1-0.6-1.4c-0.4-0.4-1-0.6-1.7-0.6
		c-0.6,0-1.8,0.1-3.6,0.4V873L226.8,870.7z M226.3,855c1.1,0,2.1,0.4,2.8,1.2c0.8,0.8,1.1,1.7,1.1,2.8s-0.4,2-1.2,2.8
		c-0.8,0.8-1.7,1.2-2.8,1.2s-2-0.4-2.8-1.2s-1.2-1.7-1.2-2.8s0.4-2,1.2-2.8C224.2,855.3,225.2,855,226.3,855z"/>
	<path class="st1" d="M268.9,870.7l-7.7,26.9l-0.9,3.6c-0.1,0.3-0.1,0.6-0.1,0.8c0,0.4,0.1,0.8,0.4,1.1c0.2,0.2,0.5,0.3,0.8,0.3
		c0.3,0,0.8-0.2,1.3-0.6c1-0.8,2.4-2.3,4.1-4.7l1.3,0.9c-1.8,2.8-3.7,4.9-5.6,6.3c-1.9,1.4-3.7,2.1-5.4,2.1c-1.1,0-2-0.3-2.5-0.8
		s-0.9-1.4-0.9-2.5c0-1.3,0.3-3,0.9-5.1l0.8-3c-3.5,4.5-6.7,7.7-9.6,9.5c-2.1,1.3-4.2,1.9-6.2,1.9c-1.9,0-3.6-0.8-5-2.4
		c-1.4-1.6-2.1-3.8-2.1-6.6c0-4.2,1.3-8.7,3.8-13.3c2.5-4.7,5.7-8.4,9.6-11.2c3-2.2,5.9-3.4,8.6-3.4c1.6,0,3,0.4,4.1,1.3
		c1.1,0.9,1.9,2.3,2.4,4.2l1.4-4.5L268.9,870.7z M254.7,872.8c-1.7,0-3.5,0.8-5.4,2.4c-2.7,2.2-5.1,5.6-7.2,10
		c-2.1,4.4-3.2,8.4-3.2,12c0,1.8,0.5,3.2,1.4,4.2c0.9,1.1,1.9,1.6,3.1,1.6c2.9,0,6-2.1,9.4-6.4c4.5-5.7,6.8-11.5,6.8-17.4
		c0-2.2-0.4-3.9-1.3-4.9C257.4,873.3,256.2,872.8,254.7,872.8z"/>
	<path class="st1" d="M348.9,851.6l-4,17.5h-1.4l-0.1-4.4c-0.2-1.6-0.5-3-1-4.2c-0.5-1.2-1.2-2.3-2.1-3.2c-0.9-0.9-2.1-1.6-3.6-2.1
		c-1.5-0.5-3.1-0.8-4.9-0.8c-4.7,0-8.9,1.3-12.4,3.9c-4.5,3.3-8.1,8-10.7,14c-2.1,5-3.2,10-3.2,15.1c0,5.2,1.5,9.4,4.6,12.5
		c3,3.1,7,4.7,11.9,4.7c3.7,0,7-0.8,9.8-2.5c2.9-1.6,5.5-4.2,8-7.6h1.8c-2.9,4.6-6.1,8-9.7,10.2c-3.6,2.2-7.8,3.3-12.7,3.3
		c-4.4,0-8.3-0.9-11.7-2.8c-3.4-1.8-6-4.4-7.7-7.8s-2.7-6.9-2.7-10.8c0-5.9,1.6-11.6,4.7-17.1c3.2-5.6,7.5-9.9,13-13.1
		c5.5-3.2,11-4.8,16.6-4.8c2.6,0,5.5,0.6,8.8,1.9c1.4,0.5,2.5,0.8,3.1,0.8c0.6,0,1.2-0.1,1.7-0.4c0.5-0.3,1.3-1,2.4-2.3H348.9z"/>
	<path class="st1" d="M383.5,883.1c0,4-1.1,7.9-3.2,11.8c-2.1,3.9-5,7-8.8,9.2s-7.4,3.4-10.9,3.4c-3.6,0-6.6-1.2-8.9-3.5
		c-2.3-2.3-3.5-5.3-3.5-9c0-3.9,1.1-7.8,3.4-11.7c2.2-3.9,5.2-7,9-9.3c3.7-2.3,7.4-3.4,10.8-3.4c3.5,0,6.4,1.2,8.7,3.5
		C382.3,876.5,383.5,879.5,383.5,883.1z M376.9,880.4c0-2.5-0.6-4.4-1.8-5.7c-1.2-1.3-2.8-2-4.7-2c-3.9,0-7.5,2.8-10.7,8.4
		c-3.3,5.6-4.9,11.1-4.9,16.6c0,2.5,0.6,4.4,1.9,5.8s2.9,2,4.8,2c3.7,0,7.3-2.8,10.5-8.3C375.3,891.8,376.9,886.1,376.9,880.4z"/>
	<path class="st1" d="M410.7,850.2l-13.6,47.2c-0.7,2.4-1,3.8-1,4.3c0,0.4,0.1,0.7,0.4,1c0.2,0.3,0.6,0.4,0.9,0.4
		c0.5,0,1.1-0.2,1.6-0.7c1.4-1.1,2.8-2.8,4.3-5l1.2,1.2c-2.5,3.6-4.8,6-7,7.4c-1.5,1-3,1.5-4.4,1.5c-1,0-1.8-0.3-2.5-1s-1-1.5-1-2.4
		c0-1,0.4-2.9,1.2-5.9l10.8-37.2c0.9-3.1,1.3-4.8,1.3-5.2c0-0.7-0.3-1.2-0.8-1.6s-1.3-0.6-2.3-0.6c-0.6,0-1.5,0.1-2.8,0.3v-1.5
		L410.7,850.2z"/>
	<path class="st1" d="M418.8,891.7c-0.2,1.3-0.2,2.4-0.2,3.3c0,2.4,0.8,4.4,2.5,6c1.7,1.7,3.7,2.5,6.1,2.5c1.9,0,3.7-0.4,5.5-1.2
		s4.4-2.5,7.8-5.2l0.8,1.1c-6.3,6.2-12.3,9.3-18,9.3c-3.8,0-6.7-1.2-8.7-3.6c-2-2.4-2.9-5.1-2.9-8c0-3.9,1.2-8,3.6-12.1
		c2.4-4.1,5.5-7.3,9.1-9.6c3.7-2.3,7.5-3.5,11.4-3.5c2.8,0,4.9,0.6,6.2,1.7c1.3,1.2,2,2.5,2,4c0,2.2-0.9,4.3-2.6,6.3
		c-2.3,2.6-5.7,4.8-10.2,6.4C428.4,890.2,424.2,891.1,418.8,891.7z M419.1,889.7c3.9-0.5,7.1-1.2,9.6-2.3c3.3-1.4,5.7-3.2,7.3-5.2
		c1.6-2,2.4-4,2.4-5.8c0-1.1-0.4-2-1.1-2.7s-1.7-1-3-1c-2.7,0-5.6,1.4-8.6,4.3C422.8,879.9,420.5,884.1,419.1,889.7z"/>
	<path class="st1" d="M487.6,873.2l-1.1,4.1h-6.7c0.5,1.4,0.7,2.8,0.7,4c0,3.5-1.5,6.6-4.4,9.4c-3,2.7-7.1,4.2-12.3,4.5
		c-2.8,0.9-4.9,1.9-6.3,3.1c-0.5,0.4-0.8,0.8-0.8,1.3c0,0.5,0.2,1,0.7,1.5c0.5,0.4,1.7,0.9,3.6,1.3l7.7,1.8c4.2,1,7.1,2.2,8.4,3.6
		c1.3,1.4,2,3,2,4.8c0,2.2-0.8,4.2-2.4,6c-1.6,1.8-3.9,3.2-7,4.2c-3.1,1-6.5,1.5-10.2,1.5c-3.3,0-6.3-0.4-9-1.2
		c-2.7-0.8-4.6-1.8-5.8-3.2c-1.2-1.3-1.8-2.7-1.8-4.1c0-1.1,0.4-2.3,1.1-3.5c0.8-1.2,1.7-2.2,2.8-3c0.7-0.5,2.7-1.7,6.1-3.6
		c-1.2-1-1.8-2-1.8-3.2c0-1.1,0.5-2.2,1.6-3.4s3.4-2.5,6.8-3.9c-2.9-0.6-5.2-1.8-6.9-3.6s-2.5-4-2.5-6.3c0-3.7,1.6-7.1,4.9-10.1
		c3.3-3,7.7-4.5,13.2-4.5c2,0,3.6,0.2,4.9,0.6s2.5,1,3.7,1.8H487.6z M454.8,906.6c-2.1,1-3.8,2.2-4.9,3.8c-1.1,1.5-1.7,3-1.7,4.5
		c0,1.7,0.8,3.2,2.4,4.3c2.3,1.6,5.6,2.5,10,2.5c3.8,0,7-0.6,9.7-1.9c2.7-1.3,4-2.9,4-5c0-1.1-0.5-2-1.5-3c-1-0.9-2.9-1.7-5.8-2.3
		C465.6,909.3,461.5,908.3,454.8,906.6z M473.8,879.4c0-2.1-0.6-3.8-1.8-5c-1.2-1.2-2.7-1.8-4.6-1.8c-3,0-5.5,1.5-7.4,4.5
		c-1.9,3-2.9,6.1-2.9,9.4c0,2,0.6,3.7,1.8,5c1.2,1.3,2.7,1.9,4.5,1.9c1.4,0,2.8-0.4,4.1-1.2c1.3-0.8,2.4-1.8,3.3-3.2
		c0.9-1.3,1.6-3.1,2.1-5.2C473.6,881.8,473.8,880.3,473.8,879.4z"/>
	<path class="st1" d="M504.5,870.7l-7.8,27.9c-0.5,1.9-0.8,3-0.8,3.4c0,0.4,0.1,0.8,0.4,1c0.2,0.3,0.5,0.4,0.9,0.4
		c0.4,0,0.9-0.2,1.4-0.6c1.5-1.2,3-2.9,4.6-5.1l1.4,0.9c-1.8,2.7-3.9,5-6.4,7c-1.8,1.4-3.5,2.1-5.1,2.1c-1.1,0-2-0.3-2.7-1
		c-0.7-0.6-1-1.5-1-2.4s0.3-2.6,1-4.9l5.2-17.8c0.8-2.9,1.2-4.7,1.2-5.5c0-0.6-0.2-1-0.6-1.4c-0.4-0.4-1-0.6-1.7-0.6
		c-0.6,0-1.8,0.1-3.6,0.4V873L504.5,870.7z M504.1,855c1.1,0,2.1,0.4,2.8,1.2c0.8,0.8,1.1,1.7,1.1,2.8s-0.4,2-1.2,2.8
		c-0.8,0.8-1.7,1.2-2.8,1.2s-2-0.4-2.8-1.2s-1.2-1.7-1.2-2.8s0.4-2,1.2-2.8C502,855.3,502.9,855,504.1,855z"/>
	<path class="st1" d="M546,883.1c0,4-1.1,7.9-3.2,11.8c-2.1,3.9-5,7-8.8,9.2s-7.4,3.4-10.9,3.4c-3.6,0-6.6-1.2-8.9-3.5
		c-2.3-2.3-3.5-5.3-3.5-9c0-3.9,1.1-7.8,3.4-11.7c2.2-3.9,5.2-7,9-9.3c3.7-2.3,7.4-3.4,10.8-3.4c3.5,0,6.4,1.2,8.7,3.5
		C544.9,876.5,546,879.5,546,883.1z M539.5,880.4c0-2.5-0.6-4.4-1.8-5.7c-1.2-1.3-2.8-2-4.7-2c-3.9,0-7.5,2.8-10.7,8.4
		c-3.3,5.6-4.9,11.1-4.9,16.6c0,2.5,0.6,4.4,1.9,5.8s2.9,2,4.8,2c3.7,0,7.3-2.8,10.5-8.3C537.8,891.8,539.5,886.1,539.5,880.4z"/>
	<path class="st1" d="M592.7,852.8l16.6,42.2l9-31.5c0.7-2.6,1.1-4.6,1.1-6c0-1-0.3-1.8-1-2.3c-0.7-0.6-2-0.8-3.8-0.8
		c-0.3,0-0.7,0-1,0l0.4-1.5h17.3l-0.5,1.5c-1.8,0-3.1,0.1-4,0.5c-1.2,0.6-2.2,1.3-2.8,2.2c-0.8,1.2-1.7,3.4-2.6,6.5l-12.7,44.4h-1.4
		l-17.9-45.4l-9.6,33.5c-0.7,2.6-1,4.5-1,5.9c0,1,0.3,1.7,1,2.3c0.6,0.5,2.2,0.9,4.6,1l-0.4,1.5h-16.9l0.5-1.5
		c2.1,0,3.6-0.2,4.3-0.5c1.1-0.5,1.9-1.1,2.4-1.9c0.8-1.2,1.6-3.4,2.6-6.8l10.7-37.4c-1-1.6-2.1-2.7-3.3-3.3s-3-0.9-5.5-1l0.4-1.5
		H592.7z"/>
	<path class="st1" d="M644.8,860.9l-3.1,10.8h6.3l-0.7,2.5h-6.2l-6.9,23.4c-0.7,2.5-1.1,4.2-1.1,4.9c0,0.5,0.1,0.8,0.3,1.1
		c0.2,0.2,0.4,0.4,0.7,0.4c0.7,0,1.5-0.5,2.6-1.4c0.7-0.5,2.1-2.2,4.3-4.9l1.3,1c-2.4,3.5-4.7,6-6.9,7.5c-1.5,1-3,1.5-4.5,1.5
		c-1.2,0-2.1-0.4-2.8-1.1c-0.7-0.7-1.1-1.7-1.1-2.8c0-1.4,0.4-3.6,1.2-6.5l6.7-23h-6l0.4-1.6c2.9-0.8,5.4-2,7.3-3.6
		c1.9-1.6,4.1-4.3,6.5-8.2H644.8z"/>
	<path class="st1" d="M650.5,873l13.7-2.3l-5.7,19.3c4.6-7.9,8.8-13.5,12.6-16.6c2.1-1.8,3.9-2.7,5.2-2.7c0.9,0,1.6,0.3,2.1,0.8
		c0.5,0.5,0.7,1.3,0.7,2.3c0,1.7-0.4,3.4-1.3,5c-0.6,1.2-1.5,1.8-2.8,1.8c-0.6,0-1.1-0.2-1.6-0.6c-0.4-0.4-0.7-1-0.8-1.8
		c0-0.5-0.1-0.8-0.3-1c-0.2-0.2-0.5-0.3-0.7-0.3c-0.5,0-0.9,0.1-1.3,0.3c-0.7,0.4-1.7,1.4-3.2,3.1c-2.2,2.6-4.6,6-7.2,10.1
		c-1.1,1.7-2,3.7-2.9,5.9c-1.1,3-1.7,4.9-1.9,5.5l-1.3,5h-6.1l7.3-24.7c0.8-2.9,1.2-4.9,1.2-6.1c0-0.5-0.2-0.9-0.6-1.2
		c-0.5-0.4-1.2-0.6-2.1-0.6c-0.6,0-1.6,0.1-3.1,0.3L650.5,873z"/>
	<path class="st1" d="M716.1,870.7l-7.7,26.9l-0.9,3.6c-0.1,0.3-0.1,0.6-0.1,0.8c0,0.4,0.1,0.8,0.4,1.1c0.2,0.2,0.5,0.3,0.8,0.3
		c0.3,0,0.8-0.2,1.3-0.6c1-0.8,2.4-2.3,4.1-4.7l1.3,0.9c-1.8,2.8-3.7,4.9-5.6,6.3c-1.9,1.4-3.7,2.1-5.4,2.1c-1.1,0-2-0.3-2.5-0.8
		s-0.9-1.4-0.9-2.5c0-1.3,0.3-3,0.9-5.1l0.8-3c-3.5,4.5-6.7,7.7-9.6,9.5c-2.1,1.3-4.2,1.9-6.2,1.9c-1.9,0-3.6-0.8-5-2.4
		c-1.4-1.6-2.1-3.8-2.1-6.6c0-4.2,1.3-8.7,3.8-13.3c2.5-4.7,5.7-8.4,9.6-11.2c3-2.2,5.9-3.4,8.6-3.4c1.6,0,3,0.4,4.1,1.3
		c1.1,0.9,1.9,2.3,2.4,4.2l1.4-4.5L716.1,870.7z M701.9,872.8c-1.7,0-3.5,0.8-5.4,2.4c-2.7,2.2-5.1,5.6-7.2,10
		c-2.1,4.4-3.2,8.4-3.2,12c0,1.8,0.5,3.2,1.4,4.2c0.9,1.1,1.9,1.6,3.1,1.6c2.9,0,6-2.1,9.4-6.4c4.5-5.7,6.8-11.5,6.8-17.4
		c0-2.2-0.4-3.9-1.3-4.9C704.6,873.3,703.4,872.8,701.9,872.8z"/>
	<path class="st1" d="M725.3,899.5c1.1,0,2.1,0.4,2.9,1.2s1.2,1.7,1.2,2.8c0,1.1-0.4,2.1-1.2,2.9s-1.7,1.2-2.9,1.2
		c-1.1,0-2.1-0.4-2.8-1.2c-0.8-0.8-1.2-1.7-1.2-2.9c0-1.1,0.4-2.1,1.2-2.8C723.2,899.9,724.2,899.5,725.3,899.5z"/>
	<path class="st1" d="M759.7,907.9l4.4-20h1.4c-0.2,1.9-0.3,3.5-0.3,4.8c0,3.6,1.2,6.6,3.5,8.9c2.3,2.3,5.4,3.4,9.1,3.4
		c3.5,0,6.1-1.1,7.9-3.2c1.8-2.1,2.7-4.6,2.7-7.4c0-1.8-0.4-3.5-1.2-4.9c-1.2-2.2-4.6-6.1-10-11.6c-2.6-2.6-4.3-4.6-5-5.9
		c-1.2-2.1-1.8-4.4-1.8-6.8c0-3.7,1.4-7,4.2-9.6c2.8-2.7,6.4-4,10.8-4c1.5,0,2.9,0.1,4.2,0.4c0.8,0.2,2.3,0.7,4.5,1.6
		c1.5,0.6,2.4,0.9,2.5,1c0.4,0.1,0.8,0.1,1.2,0.1c0.8,0,1.5-0.2,2-0.6c0.5-0.4,1.2-1.2,1.9-2.6h1.5l-4.1,17.9h-1.4
		c0.1-1.6,0.2-2.9,0.2-3.8c0-3.2-1.1-5.9-3.2-7.9c-2.1-2-4.9-3.1-8.4-3.1c-2.7,0-5,0.8-6.7,2.4c-1.7,1.6-2.6,3.5-2.6,5.6
		c0,1.8,0.6,3.6,1.7,5.3s3.6,4.4,7.6,8.2c4,3.8,6.5,6.8,7.7,8.9c1.2,2.1,1.7,4.4,1.7,6.8c0,2.7-0.7,5.4-2.1,7.9
		c-1.4,2.6-3.5,4.5-6.2,5.9c-2.7,1.4-5.7,2.1-8.9,2.1c-1.6,0-3.1-0.1-4.4-0.4s-3.6-1-6.6-2.1c-1-0.4-1.9-0.6-2.6-0.6
		c-1.6,0-2.8,1.1-3.6,3.2H759.7z"/>
	<path class="st1" d="M804,873l13.7-2.3L812,890c4.6-7.9,8.8-13.5,12.6-16.6c2.1-1.8,3.9-2.7,5.2-2.7c0.9,0,1.6,0.3,2.1,0.8
		c0.5,0.5,0.7,1.3,0.7,2.3c0,1.7-0.4,3.4-1.3,5c-0.6,1.2-1.5,1.8-2.8,1.8c-0.6,0-1.1-0.2-1.6-0.6c-0.4-0.4-0.7-1-0.8-1.8
		c0-0.5-0.1-0.8-0.3-1c-0.2-0.2-0.5-0.3-0.7-0.3c-0.5,0-0.9,0.1-1.3,0.3c-0.7,0.4-1.7,1.4-3.2,3.1c-2.2,2.6-4.6,6-7.2,10.1
		c-1.1,1.7-2,3.7-2.9,5.9c-1.1,3-1.7,4.9-1.9,5.5l-1.3,5h-6.1l7.3-24.7c0.8-2.9,1.2-4.9,1.2-6.1c0-0.5-0.2-0.9-0.6-1.2
		c-0.5-0.4-1.2-0.6-2.1-0.6c-0.6,0-1.6,0.1-3.1,0.3L804,873z"/>
	<path class="st1" d="M869.6,870.7l-7.7,26.9l-0.9,3.6c-0.1,0.3-0.1,0.6-0.1,0.8c0,0.4,0.1,0.8,0.4,1.1c0.2,0.2,0.5,0.3,0.8,0.3
		c0.3,0,0.8-0.2,1.3-0.6c1-0.8,2.4-2.3,4.1-4.7l1.3,0.9c-1.8,2.8-3.7,4.9-5.6,6.3c-1.9,1.4-3.7,2.1-5.4,2.1c-1.1,0-2-0.3-2.5-0.8
		s-0.9-1.4-0.9-2.5c0-1.3,0.3-3,0.9-5.1l0.8-3c-3.5,4.5-6.7,7.7-9.6,9.5c-2.1,1.3-4.2,1.9-6.2,1.9c-1.9,0-3.6-0.8-5-2.4
		c-1.4-1.6-2.1-3.8-2.1-6.6c0-4.2,1.3-8.7,3.8-13.3c2.5-4.7,5.7-8.4,9.6-11.2c3-2.2,5.9-3.4,8.6-3.4c1.6,0,3,0.4,4.1,1.3
		c1.1,0.9,1.9,2.3,2.4,4.2l1.4-4.5L869.6,870.7z M855.5,872.8c-1.7,0-3.5,0.8-5.4,2.4c-2.7,2.2-5.1,5.6-7.2,10
		c-2.1,4.4-3.2,8.4-3.2,12c0,1.8,0.5,3.2,1.4,4.2c0.9,1.1,1.9,1.6,3.1,1.6c2.9,0,6-2.1,9.4-6.4c4.5-5.7,6.8-11.5,6.8-17.4
		c0-2.2-0.4-3.9-1.3-4.9C858.2,873.3,857,872.8,855.5,872.8z"/>
	<path class="st1" d="M878.9,899.5c1.1,0,2.1,0.4,2.9,1.2s1.2,1.7,1.2,2.8c0,1.1-0.4,2.1-1.2,2.9s-1.7,1.2-2.9,1.2
		c-1.1,0-2.1-0.4-2.8-1.2c-0.8-0.8-1.2-1.7-1.2-2.9c0-1.1,0.4-2.1,1.2-2.8C876.8,899.9,877.7,899.5,878.9,899.5z"/>
	<path class="st1" d="M956.7,850.2L943.1,897c-0.8,2.5-1.1,4.2-1.1,5c0,0.3,0.1,0.5,0.3,0.7c0.2,0.2,0.5,0.3,0.7,0.3
		c0.4,0,0.8-0.2,1.2-0.5c0.9-0.7,2.4-2.3,4.5-4.8l1.4,0.8c-1.9,2.6-3.8,4.8-5.8,6.4s-3.8,2.5-5.4,2.5c-0.9,0-1.7-0.3-2.2-0.9
		s-0.9-1.5-0.9-2.7c0-1.5,0.4-3.5,1.2-6.1l1.5-4.9c-3.8,6-7.3,10.1-10.5,12.3c-2.2,1.5-4.2,2.3-6.2,2.3c-2,0-3.8-0.9-5.3-2.7
		s-2.2-4.2-2.2-7.3c0-3.9,1.3-8.2,3.8-12.6c2.5-4.5,5.8-8.1,10-10.9c3.3-2.3,6.2-3.4,9-3.4c1.4,0,2.6,0.3,3.7,0.9
		c1,0.6,2.1,1.6,3.1,2.9l3.9-13.8c0.3-1,0.5-1.8,0.7-2.4c0.3-1.1,0.5-1.9,0.5-2.6c0-0.6-0.2-1-0.6-1.4c-0.6-0.5-1.3-0.7-2.2-0.7
		c-0.6,0-1.6,0.1-3,0.3v-1.5L956.7,850.2z M942,878.4c0-1.7-0.5-3.1-1.5-4.1c-1-1-2.2-1.5-3.7-1.5c-3.4,0-6.8,2.7-10.4,8.2
		c-3.6,5.5-5.4,10.8-5.4,15.8c0,2,0.4,3.5,1.3,4.6c0.9,1,1.9,1.6,3.1,1.6c2.8,0,6.2-3,10.4-8.9C939.9,888,942,882.8,942,878.4z"/>
	<path class="st1" d="M963,891.7c-0.2,1.3-0.2,2.4-0.2,3.3c0,2.4,0.8,4.4,2.5,6c1.7,1.7,3.7,2.5,6.1,2.5c1.9,0,3.7-0.4,5.5-1.2
		s4.4-2.5,7.8-5.2l0.8,1.1c-6.3,6.2-12.3,9.3-18,9.3c-3.8,0-6.7-1.2-8.7-3.6c-2-2.4-2.9-5.1-2.9-8c0-3.9,1.2-8,3.6-12.1
		c2.4-4.1,5.5-7.3,9.1-9.6c3.7-2.3,7.5-3.5,11.4-3.5c2.8,0,4.9,0.6,6.2,1.7c1.3,1.2,2,2.5,2,4c0,2.2-0.9,4.3-2.6,6.3
		c-2.3,2.6-5.7,4.8-10.2,6.4C972.6,890.2,968.4,891.1,963,891.7z M963.3,889.7c3.9-0.5,7.1-1.2,9.6-2.3c3.3-1.4,5.7-3.2,7.3-5.2
		c1.6-2,2.4-4,2.4-5.8c0-1.1-0.4-2-1.1-2.7s-1.7-1-3-1c-2.7,0-5.6,1.4-8.6,4.3C967,879.9,964.8,884.1,963.3,889.7z"/>
	<path class="st1" d="M1013.6,850.2l-13.6,47.2c-0.7,2.4-1,3.8-1,4.3c0,0.4,0.1,0.7,0.4,1c0.2,0.3,0.5,0.4,0.9,0.4
		c0.5,0,1.1-0.2,1.6-0.7c1.4-1.1,2.8-2.8,4.3-5l1.2,1.2c-2.5,3.6-4.8,6-7,7.4c-1.5,1-3,1.5-4.4,1.5c-1,0-1.8-0.3-2.5-1s-1-1.5-1-2.4
		c0-1,0.4-2.9,1.2-5.9l10.8-37.2c0.9-3.1,1.3-4.8,1.3-5.2c0-0.7-0.3-1.2-0.8-1.6s-1.3-0.6-2.3-0.6c-0.6,0-1.5,0.1-2.8,0.3v-1.5
		L1013.6,850.2z"/>
	<path class="st1" d="M1045.1,852.8h21.2c5.6,0,9.8,1.2,12.5,3.6c2.7,2.4,4.1,5.3,4.1,8.8c0,2.7-0.9,5.4-2.6,7.9
		c-1.7,2.6-4.3,4.6-7.8,6.2c-3.5,1.6-7.2,2.4-11.1,2.4c-2.5,0-5.7-0.4-9.5-1.3l-4.2,14.7c-1,3.5-1.5,5.8-1.5,6.9
		c0,0.9,0.4,1.6,1.1,2.1c0.7,0.5,2.4,0.9,5.2,1.1l-0.4,1.5h-21.4l0.4-1.5c2.8,0,4.8-0.5,5.9-1.5c1.1-1,2.3-3.6,3.5-8l8.9-30.7
		c1.1-3.7,1.6-6.1,1.6-7.4c0-0.9-0.4-1.7-1.1-2.3c-0.8-0.6-2.4-1-5-1.1L1045.1,852.8z M1052.5,877.9c3,0.8,5.4,1.2,7.2,1.2
		c2.9,0,5.5-0.6,7.8-1.8c2.4-1.2,4.2-3,5.6-5.4c1.3-2.4,2-4.9,2-7.4c0-2.7-0.8-4.8-2.5-6.3c-1.6-1.6-4.1-2.3-7.4-2.3
		c-1.8,0-4,0.2-6.6,0.6L1052.5,877.9z"/>
	<path class="st1" d="M1100.7,870.7l-7.8,27.9c-0.5,1.9-0.8,3-0.8,3.4c0,0.4,0.1,0.8,0.4,1c0.2,0.3,0.5,0.4,0.9,0.4
		c0.4,0,0.9-0.2,1.4-0.6c1.5-1.2,3-2.9,4.6-5.1l1.4,0.9c-1.8,2.7-3.9,5-6.4,7c-1.8,1.4-3.5,2.1-5.1,2.1c-1.1,0-2-0.3-2.7-1
		c-0.7-0.6-1-1.5-1-2.4s0.3-2.6,1-4.9l5.2-17.8c0.8-2.9,1.2-4.7,1.2-5.5c0-0.6-0.2-1-0.6-1.4c-0.4-0.4-1-0.6-1.7-0.6
		c-0.6,0-1.8,0.1-3.6,0.4V873L1100.7,870.7z M1100.2,855c1.1,0,2.1,0.4,2.8,1.2c0.8,0.8,1.1,1.7,1.1,2.8s-0.4,2-1.2,2.8
		s-1.7,1.2-2.8,1.2s-2-0.4-2.8-1.2s-1.2-1.7-1.2-2.8s0.4-2,1.2-2.8S1099.1,855,1100.2,855z"/>
	<path class="st1" d="M1128.8,850.2l-13.6,47.2c-0.7,2.4-1,3.8-1,4.3c0,0.4,0.1,0.7,0.4,1c0.2,0.3,0.6,0.4,0.9,0.4
		c0.5,0,1.1-0.2,1.6-0.7c1.4-1.1,2.8-2.8,4.3-5l1.2,1.2c-2.5,3.6-4.8,6-7,7.4c-1.5,1-3,1.5-4.4,1.5c-1,0-1.8-0.3-2.5-1s-1-1.5-1-2.4
		c0-1,0.4-2.9,1.2-5.9l10.8-37.2c0.9-3.1,1.3-4.8,1.3-5.2c0-0.7-0.3-1.2-0.8-1.6s-1.3-0.6-2.3-0.6c-0.6,0-1.5,0.1-2.8,0.3v-1.5
		L1128.8,850.2z"/>
	<path class="st1" d="M1165.4,870.7l-7.7,26.9l-0.9,3.6c-0.1,0.3-0.1,0.6-0.1,0.8c0,0.4,0.1,0.8,0.4,1.1c0.2,0.2,0.5,0.3,0.8,0.3
		s0.8-0.2,1.3-0.6c1-0.8,2.4-2.3,4.1-4.7l1.3,0.9c-1.8,2.8-3.7,4.9-5.6,6.3c-1.9,1.4-3.7,2.1-5.4,2.1c-1.1,0-2-0.3-2.5-0.8
		c-0.6-0.6-0.9-1.4-0.9-2.5c0-1.3,0.3-3,0.9-5.1l0.8-3c-3.5,4.5-6.7,7.7-9.6,9.5c-2.1,1.3-4.2,1.9-6.2,1.9c-1.9,0-3.6-0.8-5-2.4
		c-1.4-1.6-2.1-3.8-2.1-6.6c0-4.2,1.3-8.7,3.8-13.3c2.5-4.7,5.7-8.4,9.6-11.2c3-2.2,5.9-3.4,8.6-3.4c1.6,0,3,0.4,4.1,1.3
		c1.1,0.9,1.9,2.3,2.4,4.2l1.4-4.5L1165.4,870.7z M1151.2,872.8c-1.7,0-3.5,0.8-5.4,2.4c-2.7,2.2-5.1,5.6-7.2,10
		c-2.1,4.4-3.2,8.4-3.2,12c0,1.8,0.5,3.2,1.4,4.2c0.9,1.1,1.9,1.6,3.1,1.6c2.9,0,6-2.1,9.4-6.4c4.5-5.7,6.8-11.5,6.8-17.4
		c0-2.2-0.4-3.9-1.3-4.9C1153.9,873.3,1152.7,872.8,1151.2,872.8z"/>
	<path class="st1" d="M1172.1,873l13.7-2.3l-5.7,19.3c4.6-7.9,8.8-13.5,12.6-16.6c2.1-1.8,3.9-2.7,5.2-2.7c0.9,0,1.6,0.3,2.1,0.8
		c0.5,0.5,0.7,1.3,0.7,2.3c0,1.7-0.4,3.4-1.3,5c-0.6,1.2-1.5,1.8-2.8,1.8c-0.6,0-1.1-0.2-1.6-0.6c-0.4-0.4-0.7-1-0.8-1.8
		c0-0.5-0.1-0.8-0.3-1c-0.2-0.2-0.5-0.3-0.7-0.3c-0.5,0-0.9,0.1-1.3,0.3c-0.7,0.4-1.7,1.4-3.2,3.1c-2.2,2.6-4.6,6-7.2,10.1
		c-1.1,1.7-2,3.7-2.9,5.9c-1.1,3-1.7,4.9-1.9,5.5l-1.3,5h-6.1l7.3-24.7c0.8-2.9,1.2-4.9,1.2-6.1c0-0.5-0.2-0.9-0.6-1.2
		c-0.5-0.4-1.2-0.6-2.1-0.6c-0.6,0-1.6,0.1-3.1,0.3L1172.1,873z"/>
</g>
<g>
	<path class="st1" d="M297.6,988.5l0.9,12.9h-0.9c-1.2-3.9-2.8-6.6-4.9-8.3c-2.1-1.7-4.7-2.6-7.7-2.6c-2.5,0-4.8,0.6-6.8,1.9
		c-2,1.3-3.6,3.3-4.8,6.1c-1.2,2.8-1.8,6.3-1.8,10.4c0,3.4,0.5,6.4,1.6,8.9c1.1,2.5,2.8,4.4,5,5.8c2.2,1.3,4.7,2,7.5,2
		c2.5,0,4.6-0.5,6.5-1.6c1.9-1.1,3.9-3.1,6.2-6.3l0.8,0.6c-1.9,3.4-4.1,5.8-6.6,7.4c-2.5,1.6-5.5,2.3-9,2.3c-6.3,0-11.1-2.3-14.6-7
		c-2.6-3.5-3.9-7.6-3.9-12.2c0-3.8,0.8-7.2,2.5-10.4c1.7-3.2,4-5.6,7-7.4c3-1.7,6.2-2.6,9.7-2.6c2.7,0,5.4,0.7,8.1,2
		c0.8,0.4,1.4,0.6,1.7,0.6c0.5,0,0.9-0.2,1.3-0.5c0.5-0.5,0.8-1.2,1-2.1H297.6z"/>
	<path class="st1" d="M317.6,1023.5c-2.6,2-4.3,3.2-4.9,3.5c-1,0.5-2.1,0.7-3.2,0.7c-1.8,0-3.2-0.6-4.4-1.8
		c-1.1-1.2-1.7-2.8-1.7-4.8c0-1.2,0.3-2.3,0.8-3.2c0.8-1.3,2.1-2.5,4-3.6c1.9-1.1,5-2.5,9.4-4.1v-1c0-2.5-0.4-4.3-1.2-5.2
		c-0.8-0.9-2-1.4-3.5-1.4c-1.2,0-2.1,0.3-2.8,0.9c-0.7,0.6-1.1,1.4-1.1,2.2l0.1,1.6c0,0.9-0.2,1.5-0.7,2c-0.4,0.5-1,0.7-1.7,0.7
		c-0.7,0-1.3-0.2-1.7-0.7s-0.7-1.1-0.7-2c0-1.6,0.8-3.1,2.5-4.4c1.6-1.3,3.9-2,6.9-2c2.3,0,4.1,0.4,5.6,1.1c1.1,0.6,1.9,1.5,2.4,2.7
		c0.3,0.8,0.5,2.5,0.5,4.9v8.7c0,2.4,0,3.9,0.1,4.5c0.1,0.6,0.2,0.9,0.5,1.1c0.2,0.2,0.5,0.3,0.7,0.3c0.3,0,0.6-0.1,0.8-0.2
		c0.4-0.2,1.2-0.9,2.3-2v1.6c-2.1,2.8-4.1,4.2-6,4.2c-0.9,0-1.6-0.3-2.2-0.9C317.9,1026.1,317.6,1025.1,317.6,1023.5z M317.6,1021.7
		v-9.7c-2.8,1.1-4.6,1.9-5.4,2.4c-1.5,0.8-2.5,1.7-3.1,2.6c-0.6,0.9-1,1.9-1,2.9c0,1.3,0.4,2.5,1.2,3.3c0.8,0.9,1.7,1.3,2.8,1.3
		C313.4,1024.5,315.3,1023.6,317.6,1021.7z"/>
	<path class="st1" d="M337.3,987.5v33.9c0,1.6,0.1,2.7,0.3,3.2s0.6,0.9,1.1,1.2c0.5,0.3,1.4,0.4,2.7,0.4v1h-12.5v-1
		c1.2,0,2-0.1,2.4-0.4c0.4-0.2,0.8-0.6,1-1.2s0.3-1.6,0.3-3.2v-23.2c0-2.9-0.1-4.7-0.2-5.3c-0.1-0.7-0.3-1.1-0.6-1.4
		c-0.3-0.2-0.7-0.4-1.1-0.4c-0.5,0-1.1,0.2-1.8,0.5l-0.5-1l7.6-3.1H337.3z"/>
	<path class="st1" d="M353.2,987.5v33.9c0,1.6,0.1,2.7,0.3,3.2s0.6,0.9,1.1,1.2c0.5,0.3,1.4,0.4,2.7,0.4v1h-12.5v-1
		c1.2,0,2-0.1,2.4-0.4c0.4-0.2,0.8-0.6,1-1.2s0.3-1.6,0.3-3.2v-23.2c0-2.9-0.1-4.7-0.2-5.3c-0.1-0.7-0.3-1.1-0.6-1.4
		c-0.3-0.2-0.7-0.4-1.1-0.4c-0.5,0-1.1,0.2-1.8,0.5l-0.5-1l7.6-3.1H353.2z"/>
	<path class="st1" d="M364.6,1011.2c0,3.8,0.9,6.8,2.8,9c1.9,2.2,4.1,3.2,6.6,3.2c1.7,0,3.2-0.5,4.4-1.4c1.2-0.9,2.3-2.5,3.1-4.7
		l0.9,0.6c-0.4,2.5-1.5,4.9-3.4,7c-1.9,2.1-4.2,3.2-7.1,3.2c-3.1,0-5.7-1.2-7.9-3.6c-2.2-2.4-3.3-5.6-3.3-9.7
		c0-4.4,1.1-7.8,3.4-10.2c2.2-2.5,5.1-3.7,8.5-3.7c2.9,0,5.2,0.9,7.1,2.8c1.8,1.9,2.8,4.4,2.8,7.6H364.6z M364.6,1009.7h11.9
		c-0.1-1.6-0.3-2.8-0.6-3.5c-0.5-1-1.2-1.9-2.1-2.5c-0.9-0.6-1.9-0.9-2.9-0.9c-1.6,0-2.9,0.6-4.2,1.8
		C365.5,1005.8,364.8,1007.5,364.6,1009.7z"/>
	<path class="st1" d="M418,1024.3c-1.2,1.3-2.5,2.2-3.7,2.8c-1.2,0.6-2.5,0.9-3.8,0.9c-2.8,0-5.2-1.2-7.3-3.5
		c-2.1-2.3-3.1-5.3-3.1-9c0-3.7,1.2-7,3.5-10.1c2.3-3,5.3-4.6,8.9-4.6c2.3,0,4.1,0.7,5.6,2.2v-4.7c0-2.9-0.1-4.7-0.2-5.4
		c-0.1-0.7-0.4-1.1-0.6-1.4c-0.3-0.2-0.7-0.4-1.1-0.4c-0.5,0-1.1,0.2-1.9,0.5l-0.4-1l7.6-3.1h1.2v29.6c0,3,0.1,4.8,0.2,5.5
		c0.1,0.7,0.4,1.1,0.7,1.4c0.3,0.3,0.7,0.4,1.1,0.4c0.5,0,1.1-0.2,2-0.5l0.3,1l-7.6,3.2H418V1024.3z M418,1022.4v-13.2
		c-0.1-1.3-0.4-2.4-1-3.5c-0.6-1-1.3-1.8-2.2-2.4c-0.9-0.5-1.8-0.8-2.7-0.8c-1.6,0-3.1,0.7-4.4,2.2c-1.7,1.9-2.5,4.7-2.5,8.5
		c0,3.8,0.8,6.7,2.5,8.7c1.6,2,3.5,3,5.5,3C414.8,1024.9,416.5,1024.1,418,1022.4z"/>
	<path class="st1" d="M432.8,1011.2c0,3.8,0.9,6.8,2.8,9c1.9,2.2,4.1,3.2,6.6,3.2c1.7,0,3.2-0.5,4.4-1.4c1.2-0.9,2.3-2.5,3.1-4.7
		l0.9,0.6c-0.4,2.5-1.5,4.9-3.4,7c-1.9,2.1-4.2,3.2-7.1,3.2c-3.1,0-5.7-1.2-7.9-3.6c-2.2-2.4-3.3-5.6-3.3-9.7
		c0-4.4,1.1-7.8,3.4-10.2c2.2-2.5,5.1-3.7,8.5-3.7c2.9,0,5.2,0.9,7.1,2.8c1.8,1.9,2.8,4.4,2.8,7.6H432.8z M432.8,1009.7h11.9
		c-0.1-1.6-0.3-2.8-0.6-3.5c-0.5-1-1.2-1.9-2.1-2.5c-0.9-0.6-1.9-0.9-2.9-0.9c-1.6,0-2.9,0.6-4.2,1.8
		C433.8,1005.8,433.1,1007.5,432.8,1009.7z"/>
	<path class="st1" d="M462.8,987.5v33.9c0,1.6,0.1,2.7,0.3,3.2s0.6,0.9,1.1,1.2c0.5,0.3,1.4,0.4,2.7,0.4v1h-12.5v-1
		c1.2,0,2-0.1,2.4-0.4c0.4-0.2,0.8-0.6,1-1.2s0.3-1.6,0.3-3.2v-23.2c0-2.9-0.1-4.7-0.2-5.3c-0.1-0.7-0.3-1.1-0.6-1.4
		c-0.3-0.2-0.7-0.4-1.1-0.4c-0.5,0-1.1,0.2-1.8,0.5l-0.5-1l7.6-3.1H462.8z"/>
	<path class="st1" d="M494.1,1009.5v11c0,2.4,0.3,3.9,0.8,4.4c0.7,0.8,1.8,1.2,3.2,1.2h1.5v1h-16.2v-1h1.4c1.6,0,2.8-0.5,3.4-1.6
		c0.4-0.6,0.6-1.9,0.6-4.1v-24.5c0-2.4-0.3-3.9-0.8-4.4c-0.7-0.8-1.8-1.2-3.3-1.2h-1.4v-1h13.9c3.4,0,6.1,0.4,8,1.1
		c2,0.7,3.6,1.9,4.9,3.5c1.3,1.7,2,3.6,2,5.9c0,3.1-1,5.6-3.1,7.5c-2,1.9-4.9,2.9-8.6,2.9c-0.9,0-1.9-0.1-3-0.2
		S495.3,1009.7,494.1,1009.5z M494.1,1007.9c1,0.2,1.9,0.3,2.6,0.4c0.8,0.1,1.4,0.1,1.9,0.1c1.9,0,3.6-0.8,5-2.3
		c1.4-1.5,2.1-3.4,2.1-5.8c0-1.6-0.3-3.1-1-4.5c-0.7-1.4-1.6-2.5-2.8-3.2c-1.2-0.7-2.6-1-4.2-1c-0.9,0-2.2,0.2-3.7,0.5V1007.9z"/>
	<path class="st1" d="M523.4,1000.9v5.8c2.2-3.8,4.3-5.8,6.6-5.8c1,0,1.9,0.3,2.6,0.9s1,1.3,1,2.2c0,0.7-0.2,1.4-0.7,1.9
		c-0.5,0.5-1,0.7-1.7,0.7s-1.4-0.3-2.2-1c-0.8-0.6-1.4-1-1.8-1c-0.3,0-0.7,0.2-1.1,0.6c-0.8,0.8-1.7,2-2.6,3.7v12.3
		c0,1.4,0.2,2.5,0.6,3.2c0.2,0.5,0.7,0.9,1.3,1.3c0.6,0.3,1.5,0.5,2.7,0.5v1h-13.1v-1c1.3,0,2.3-0.2,2.9-0.6c0.5-0.3,0.8-0.8,1-1.4
		c0.1-0.3,0.1-1.2,0.1-2.7v-9.9c0-3-0.1-4.7-0.2-5.3c-0.1-0.6-0.3-1-0.7-1.2c-0.3-0.3-0.7-0.4-1.2-0.4c-0.6,0-1.2,0.1-1.9,0.4
		l-0.3-1l7.7-3.1H523.4z"/>
	<path class="st1" d="M543.8,1000.9v20.5c0,1.6,0.1,2.7,0.4,3.2s0.6,0.9,1,1.2c0.5,0.3,1.3,0.4,2.5,0.4v1h-12.4v-1
		c1.2,0,2.1-0.1,2.5-0.4c0.4-0.2,0.8-0.6,1-1.2s0.4-1.6,0.4-3.2v-9.9c0-2.8-0.1-4.6-0.2-5.4c-0.1-0.6-0.3-1-0.6-1.2
		c-0.3-0.2-0.7-0.3-1.1-0.3c-0.5,0-1.1,0.1-1.9,0.4l-0.4-1l7.7-3.1H543.8z M547.2,988.4l-8.3,9.6H538l2.9-9.6H547.2z"/>
	<path class="st1" d="M558.3,1006.3c3-3.6,5.9-5.4,8.6-5.4c1.4,0,2.6,0.3,3.6,1c1,0.7,1.8,1.8,2.4,3.4c0.4,1.1,0.6,2.9,0.6,5.2v10.9
		c0,1.6,0.1,2.7,0.4,3.3c0.2,0.5,0.5,0.8,1,1.1c0.5,0.3,1.3,0.4,2.5,0.4v1h-12.7v-1h0.6c1.2,0,2-0.2,2.5-0.5c0.5-0.4,0.8-0.9,1-1.6
		c0.1-0.3,0.1-1.2,0.1-2.6v-10.5c0-2.3-0.3-4-0.9-5c-0.6-1.1-1.6-1.6-3.1-1.6c-2.2,0-4.4,1.2-6.6,3.6v13.5c0,1.7,0.1,2.8,0.3,3.2
		c0.3,0.5,0.6,0.9,1.1,1.2c0.5,0.3,1.4,0.4,2.8,0.4v1h-12.6v-1h0.6c1.3,0,2.2-0.3,2.6-1s0.7-1.9,0.7-3.8v-9.5c0-3.1-0.1-4.9-0.2-5.6
		c-0.1-0.7-0.4-1.1-0.6-1.4c-0.3-0.2-0.7-0.4-1.2-0.4c-0.5,0-1.2,0.1-1.9,0.4l-0.4-1l7.7-3.1h1.2V1006.3z"/>
	<path class="st1" d="M601.2,1017.5c-0.7,3.4-2,6-4.1,7.8c-2,1.8-4.2,2.7-6.7,2.7c-2.9,0-5.5-1.2-7.6-3.7c-2.2-2.4-3.2-5.7-3.2-9.9
		c0-4,1.2-7.3,3.6-9.8c2.4-2.5,5.3-3.8,8.6-3.8c2.5,0,4.6,0.7,6.2,2s2.4,2.7,2.4,4.1c0,0.7-0.2,1.3-0.7,1.7
		c-0.5,0.4-1.1,0.6-1.9,0.6c-1.1,0-1.9-0.3-2.5-1c-0.3-0.4-0.5-1.1-0.6-2.2c-0.1-1.1-0.5-1.9-1.1-2.5c-0.7-0.6-1.6-0.8-2.7-0.8
		c-1.9,0-3.4,0.7-4.5,2c-1.5,1.8-2.3,4.2-2.3,7.3c0,3.1,0.7,5.7,2.2,8.1c1.5,2.3,3.5,3.5,6.1,3.5c1.8,0,3.5-0.6,4.9-1.9
		c1-0.9,2-2.4,3-4.6L601.2,1017.5z"/>
	<path class="st1" d="M613.7,1000.9v20.5c0,1.6,0.1,2.7,0.3,3.2c0.2,0.5,0.6,0.9,1,1.2c0.5,0.3,1.3,0.4,2.5,0.4v1h-12.4v-1
		c1.2,0,2.1-0.1,2.5-0.4c0.4-0.2,0.8-0.6,1-1.2s0.4-1.6,0.4-3.2v-9.9c0-2.8-0.1-4.6-0.2-5.4c-0.1-0.6-0.3-1-0.6-1.2
		c-0.3-0.2-0.7-0.3-1.1-0.3c-0.5,0-1.1,0.1-1.9,0.4l-0.4-1l7.7-3.1H613.7z M611.4,987.5c0.8,0,1.5,0.3,2,0.8c0.5,0.6,0.8,1.2,0.8,2
		c0,0.8-0.3,1.4-0.8,2c-0.5,0.6-1.2,0.9-2,0.9s-1.5-0.3-2-0.9c-0.6-0.6-0.8-1.2-0.8-2c0-0.8,0.3-1.5,0.8-2
		C609.9,987.8,610.6,987.5,611.4,987.5z"/>
	<path class="st1" d="M618.9,1004.2l7.9-3.2h1.1v6c1.3-2.2,2.6-3.8,4-4.7c1.3-0.9,2.7-1.4,4.2-1.4c2.6,0,4.7,1,6.4,3
		c2.1,2.5,3.2,5.7,3.2,9.6c0,4.4-1.3,8.1-3.8,10.9c-2.1,2.4-4.7,3.6-7.9,3.6c-1.4,0-2.6-0.2-3.6-0.6c-0.7-0.3-1.6-0.8-2.5-1.7v7.8
		c0,1.8,0.1,2.9,0.3,3.3c0.2,0.5,0.6,0.8,1.1,1.1c0.5,0.3,1.5,0.4,2.9,0.4v1h-13.4v-1h0.7c1,0,1.9-0.2,2.6-0.6
		c0.3-0.2,0.6-0.5,0.8-1s0.3-1.6,0.3-3.5v-24.2c0-1.7-0.1-2.7-0.2-3.2c-0.2-0.4-0.4-0.8-0.7-1c-0.3-0.2-0.8-0.3-1.3-0.3
		c-0.4,0-1,0.1-1.7,0.4L618.9,1004.2z M627.9,1008.6v9.5c0,2.1,0.1,3.4,0.2,4.1c0.3,1.1,0.9,2,1.9,2.8c1,0.8,2.3,1.2,3.8,1.2
		c1.9,0,3.4-0.7,4.5-2.2c1.5-1.9,2.3-4.6,2.3-8c0-3.9-0.9-6.9-2.6-9c-1.2-1.4-2.6-2.2-4.3-2.2c-0.9,0-1.8,0.2-2.6,0.7
		C630.5,1005.9,629.4,1006.9,627.9,1008.6z"/>
	<path class="st1" d="M653.7,1011.2c0,3.8,0.9,6.8,2.8,9c1.9,2.2,4.1,3.2,6.6,3.2c1.7,0,3.2-0.5,4.4-1.4c1.2-0.9,2.3-2.5,3.1-4.7
		l0.9,0.6c-0.4,2.5-1.5,4.9-3.4,7c-1.9,2.1-4.2,3.2-7.1,3.2c-3.1,0-5.7-1.2-7.9-3.6c-2.2-2.4-3.3-5.6-3.3-9.7
		c0-4.4,1.1-7.8,3.4-10.2c2.2-2.5,5.1-3.7,8.5-3.7c2.9,0,5.2,0.9,7.1,2.8c1.8,1.9,2.8,4.4,2.8,7.6H653.7z M653.7,1009.7h11.9
		c-0.1-1.6-0.3-2.8-0.6-3.5c-0.5-1-1.2-1.9-2.1-2.5c-0.9-0.6-1.9-0.9-2.9-0.9c-1.6,0-2.9,0.6-4.2,1.8
		C654.6,1005.8,653.9,1007.5,653.7,1009.7z"/>
	<path class="st1" d="M707.1,1024.3c-1.2,1.3-2.5,2.2-3.7,2.8c-1.2,0.6-2.5,0.9-3.8,0.9c-2.8,0-5.2-1.2-7.3-3.5
		c-2.1-2.3-3.1-5.3-3.1-9c0-3.7,1.2-7,3.5-10.1c2.3-3,5.3-4.6,8.9-4.6c2.3,0,4.1,0.7,5.6,2.2v-4.7c0-2.9-0.1-4.7-0.2-5.4
		c-0.1-0.7-0.4-1.1-0.6-1.4c-0.3-0.2-0.7-0.4-1.1-0.4c-0.5,0-1.1,0.2-1.9,0.5l-0.4-1l7.6-3.1h1.2v29.6c0,3,0.1,4.8,0.2,5.5
		c0.1,0.7,0.4,1.1,0.7,1.4c0.3,0.3,0.7,0.4,1.1,0.4c0.5,0,1.1-0.2,2-0.5l0.3,1l-7.6,3.2h-1.3V1024.3z M707.1,1022.4v-13.2
		c-0.1-1.3-0.4-2.4-1-3.5c-0.6-1-1.3-1.8-2.2-2.4c-0.9-0.5-1.8-0.8-2.7-0.8c-1.6,0-3.1,0.7-4.4,2.2c-1.7,1.9-2.5,4.7-2.5,8.5
		c0,3.8,0.8,6.7,2.5,8.7c1.6,2,3.5,3,5.5,3C703.9,1024.9,705.5,1024.1,707.1,1022.4z"/>
	<path class="st1" d="M721.9,1011.2c0,3.8,0.9,6.8,2.8,9c1.9,2.2,4.1,3.2,6.6,3.2c1.7,0,3.2-0.5,4.4-1.4c1.2-0.9,2.3-2.5,3.1-4.7
		l0.9,0.6c-0.4,2.5-1.5,4.9-3.4,7c-1.9,2.1-4.2,3.2-7.1,3.2c-3.1,0-5.7-1.2-7.9-3.6c-2.2-2.4-3.3-5.6-3.3-9.7
		c0-4.4,1.1-7.8,3.4-10.2c2.2-2.5,5.1-3.7,8.5-3.7c2.9,0,5.2,0.9,7.1,2.8c1.8,1.9,2.8,4.4,2.8,7.6H721.9z M721.9,1009.7h11.9
		c-0.1-1.6-0.3-2.8-0.6-3.5c-0.5-1-1.2-1.9-2.1-2.5c-0.9-0.6-1.9-0.9-2.9-0.9c-1.6,0-2.9,0.6-4.2,1.8
		C722.9,1005.8,722.1,1007.5,721.9,1009.7z"/>
	<path class="st1" d="M796.1,989.3v1c-1.3,0.3-2.3,0.7-3,1.3c-1,0.9-1.9,2.3-2.6,4.2l-13.2,32.2h-1l-14.2-32.6
		c-0.7-1.7-1.3-2.7-1.6-3.1c-0.5-0.6-1-1-1.7-1.4c-0.7-0.3-1.6-0.5-2.8-0.6v-1h15.5v1c-1.7,0.2-2.9,0.5-3.4,0.9
		c-0.5,0.4-0.8,1-0.8,1.6c0,0.9,0.4,2.4,1.3,4.4l9.6,22.2l9-21.9c0.9-2.2,1.3-3.7,1.3-4.5c0-0.5-0.3-1-0.8-1.5
		c-0.5-0.5-1.5-0.8-2.7-1c-0.1,0-0.3-0.1-0.5-0.1v-1H796.1z"/>
	<path class="st1" d="M802.9,1011.2c0,3.8,0.9,6.8,2.8,9c1.9,2.2,4.1,3.2,6.6,3.2c1.7,0,3.2-0.5,4.4-1.4c1.2-0.9,2.3-2.5,3.1-4.7
		l0.9,0.6c-0.4,2.5-1.5,4.9-3.4,7c-1.9,2.1-4.2,3.2-7.1,3.2c-3.1,0-5.7-1.2-7.9-3.6c-2.2-2.4-3.3-5.6-3.3-9.7
		c0-4.4,1.1-7.8,3.4-10.2c2.2-2.5,5.1-3.7,8.5-3.7c2.9,0,5.2,0.9,7.1,2.8c1.8,1.9,2.8,4.4,2.8,7.6H802.9z M802.9,1009.7h11.9
		c-0.1-1.6-0.3-2.8-0.6-3.5c-0.5-1-1.2-1.9-2.1-2.5c-0.9-0.6-1.9-0.9-2.9-0.9c-1.6,0-2.9,0.6-4.2,1.8
		C803.9,1005.8,803.2,1007.5,802.9,1009.7z"/>
	<path class="st1" d="M831.5,1000.9v5.8c2.2-3.8,4.3-5.8,6.6-5.8c1,0,1.9,0.3,2.6,0.9s1,1.3,1,2.2c0,0.7-0.2,1.4-0.7,1.9
		c-0.5,0.5-1,0.7-1.7,0.7s-1.4-0.3-2.2-1c-0.8-0.6-1.4-1-1.8-1c-0.3,0-0.7,0.2-1.1,0.6c-0.8,0.8-1.7,2-2.6,3.7v12.3
		c0,1.4,0.2,2.5,0.6,3.2c0.2,0.5,0.7,0.9,1.3,1.3c0.6,0.3,1.5,0.5,2.7,0.5v1h-13.1v-1c1.3,0,2.3-0.2,2.9-0.6c0.5-0.3,0.8-0.8,1-1.4
		c0.1-0.3,0.1-1.2,0.1-2.7v-9.9c0-3-0.1-4.7-0.2-5.3c-0.1-0.6-0.3-1-0.7-1.2c-0.3-0.3-0.7-0.4-1.2-0.4c-0.6,0-1.2,0.1-1.9,0.4
		l-0.3-1l7.7-3.1H831.5z"/>
	<path class="st1" d="M850,1017.9c-1.6-0.8-2.8-1.8-3.6-3.2c-0.8-1.4-1.2-2.9-1.2-4.5c0-2.5,1-4.7,2.9-6.5s4.4-2.7,7.3-2.7
		c2.4,0,4.5,0.6,6.3,1.8h5.4c0.8,0,1.3,0,1.4,0.1c0.1,0,0.2,0.1,0.3,0.2c0.1,0.2,0.2,0.5,0.2,0.9c0,0.5,0,0.8-0.1,1
		c-0.1,0.1-0.2,0.2-0.3,0.2s-0.6,0.1-1.4,0.1h-3.3c1,1.3,1.6,3.1,1.6,5.1c0,2.4-0.9,4.4-2.7,6.1s-4.3,2.6-7.4,2.6
		c-1.3,0-2.6-0.2-3.9-0.6c-0.8,0.7-1.4,1.3-1.6,1.9c-0.3,0.5-0.4,1-0.4,1.4c0,0.3,0.2,0.6,0.5,0.9c0.3,0.3,0.9,0.5,1.8,0.6
		c0.5,0.1,1.8,0.1,3.9,0.2c3.8,0.1,6.3,0.2,7.5,0.4c1.7,0.2,3.1,0.9,4.1,1.9c1,1.1,1.5,2.3,1.5,3.9c0,2.1-1,4.1-2.9,5.9
		c-2.9,2.7-6.7,4.1-11.4,4.1c-3.6,0-6.6-0.8-9.1-2.4c-1.4-0.9-2.1-1.9-2.1-2.9c0-0.4,0.1-0.9,0.3-1.4c0.3-0.7,1-1.6,1.9-2.8
		c0.1-0.2,1.1-1.2,2.8-3c-0.9-0.6-1.6-1.1-2-1.6c-0.4-0.5-0.6-1-0.6-1.6c0-0.6,0.3-1.4,0.8-2.3C846.8,1020.7,848,1019.5,850,1017.9z
		 M849.7,1027.2c-0.9,0.9-1.5,1.8-2,2.7c-0.5,0.8-0.7,1.6-0.7,2.3c0,0.9,0.5,1.7,1.6,2.3c1.9,1.2,4.5,1.7,8.1,1.7
		c3.3,0,5.8-0.6,7.4-1.8s2.4-2.4,2.4-3.8c0-1-0.5-1.7-1.4-2.1c-1-0.4-2.9-0.6-5.8-0.7C855.1,1027.8,851.9,1027.5,849.7,1027.2z
		 M854.8,1002.2c-1.4,0-2.5,0.5-3.5,1.6c-0.9,1.1-1.4,2.8-1.4,5c0,2.9,0.6,5.2,1.9,6.8c1,1.2,2.2,1.8,3.7,1.8c1.4,0,2.6-0.5,3.5-1.6
		s1.4-2.7,1.4-5c0-3-0.6-5.3-1.9-6.9C857.5,1002.8,856.3,1002.2,854.8,1002.2z"/>
	<path class="st1" d="M886.2,1023.5c-2.6,2-4.3,3.2-4.9,3.5c-1,0.5-2.1,0.7-3.2,0.7c-1.8,0-3.2-0.6-4.4-1.8
		c-1.1-1.2-1.7-2.8-1.7-4.8c0-1.2,0.3-2.3,0.8-3.2c0.8-1.3,2.1-2.5,4-3.6c1.9-1.1,5-2.5,9.4-4.1v-1c0-2.5-0.4-4.3-1.2-5.2
		c-0.8-0.9-2-1.4-3.5-1.4c-1.2,0-2.1,0.3-2.8,0.9c-0.7,0.6-1.1,1.4-1.1,2.2l0.1,1.6c0,0.9-0.2,1.5-0.7,2c-0.4,0.5-1,0.7-1.7,0.7
		c-0.7,0-1.3-0.2-1.7-0.7s-0.7-1.1-0.7-2c0-1.6,0.8-3.1,2.5-4.4c1.6-1.3,3.9-2,6.9-2c2.3,0,4.1,0.4,5.6,1.1c1.1,0.6,1.9,1.5,2.4,2.7
		c0.3,0.8,0.5,2.5,0.5,4.9v8.7c0,2.4,0,3.9,0.1,4.5c0.1,0.6,0.2,0.9,0.5,1.1c0.2,0.2,0.5,0.3,0.7,0.3c0.3,0,0.6-0.1,0.8-0.2
		c0.4-0.2,1.2-0.9,2.3-2v1.6c-2.1,2.8-4.1,4.2-6,4.2c-0.9,0-1.6-0.3-2.2-0.9C886.5,1026.1,886.2,1025.1,886.2,1023.5z M886.2,1021.7
		v-9.7c-2.8,1.1-4.6,1.9-5.4,2.4c-1.5,0.8-2.5,1.7-3.1,2.6c-0.6,0.9-1,1.9-1,2.9c0,1.3,0.4,2.5,1.2,3.3c0.8,0.9,1.7,1.3,2.8,1.3
		C882,1024.5,883.9,1023.6,886.2,1021.7z"/>
	<path class="st1" d="M904.6,1000.9v5.8c2.2-3.8,4.3-5.8,6.6-5.8c1,0,1.9,0.3,2.6,0.9s1,1.3,1,2.2c0,0.7-0.2,1.4-0.7,1.9
		c-0.5,0.5-1,0.7-1.7,0.7s-1.4-0.3-2.2-1c-0.8-0.6-1.4-1-1.8-1c-0.3,0-0.7,0.2-1.1,0.6c-0.8,0.8-1.7,2-2.6,3.7v12.3
		c0,1.4,0.2,2.5,0.6,3.2c0.2,0.5,0.7,0.9,1.3,1.3c0.6,0.3,1.5,0.5,2.7,0.5v1H896v-1c1.3,0,2.3-0.2,2.9-0.6c0.5-0.3,0.8-0.8,1-1.4
		c0.1-0.3,0.1-1.2,0.1-2.7v-9.9c0-3-0.1-4.7-0.2-5.3c-0.1-0.6-0.3-1-0.7-1.2c-0.3-0.3-0.7-0.4-1.2-0.4c-0.6,0-1.2,0.1-1.9,0.4
		l-0.3-1l7.7-3.1H904.6z"/>
	<path class="st1" d="M930.6,1023.5c-2.6,2-4.3,3.2-4.9,3.5c-1,0.5-2.1,0.7-3.2,0.7c-1.8,0-3.2-0.6-4.4-1.8
		c-1.1-1.2-1.7-2.8-1.7-4.8c0-1.2,0.3-2.3,0.8-3.2c0.8-1.3,2.1-2.5,4-3.6c1.9-1.1,5-2.5,9.4-4.1v-1c0-2.5-0.4-4.3-1.2-5.2
		c-0.8-0.9-2-1.4-3.5-1.4c-1.2,0-2.1,0.3-2.8,0.9c-0.7,0.6-1.1,1.4-1.1,2.2l0.1,1.6c0,0.9-0.2,1.5-0.7,2c-0.4,0.5-1,0.7-1.7,0.7
		c-0.7,0-1.3-0.2-1.7-0.7s-0.7-1.1-0.7-2c0-1.6,0.8-3.1,2.5-4.4c1.6-1.3,3.9-2,6.9-2c2.3,0,4.1,0.4,5.6,1.1c1.1,0.6,1.9,1.5,2.4,2.7
		c0.3,0.8,0.5,2.5,0.5,4.9v8.7c0,2.4,0,3.9,0.1,4.5c0.1,0.6,0.2,0.9,0.5,1.1c0.2,0.2,0.5,0.3,0.7,0.3c0.3,0,0.6-0.1,0.8-0.2
		c0.4-0.2,1.2-0.9,2.3-2v1.6c-2.1,2.8-4.1,4.2-6,4.2c-0.9,0-1.6-0.3-2.2-0.9C930.9,1026.1,930.6,1025.1,930.6,1023.5z M930.6,1021.7
		v-9.7c-2.8,1.1-4.6,1.9-5.4,2.4c-1.5,0.8-2.5,1.7-3.1,2.6c-0.6,0.9-1,1.9-1,2.9c0,1.3,0.4,2.5,1.2,3.3c0.8,0.9,1.7,1.3,2.8,1.3
		C926.5,1024.5,928.3,1023.6,930.6,1021.7z"/>
	<path class="st1" d="M942.8,1036.8v-1.2c1.9-0.6,3.4-1.6,4.4-2.9c1.1-1.3,1.6-2.7,1.6-4.2c0-0.3-0.1-0.6-0.2-0.9
		c-0.1-0.2-0.2-0.2-0.4-0.2c-0.2,0-0.7,0.2-1.4,0.6c-0.3,0.2-0.7,0.3-1,0.3c-0.9,0-1.7-0.3-2.2-0.8c-0.5-0.5-0.8-1.3-0.8-2.2
		c0-0.9,0.3-1.7,1-2.4c0.7-0.6,1.5-1,2.5-1c1.2,0,2.3,0.5,3.3,1.6c0.9,1.1,1.4,2.5,1.4,4.2c0,1.9-0.7,3.7-2,5.3
		C947.8,1034.5,945.7,1035.8,942.8,1036.8z"/>
	<path class="st1" d="M995,1013.2v4h-5.1v10h-4.6v-10h-16v-3.6l17.6-25.1h3.1v24.7H995z M985.3,1013.2v-18.8l-13.3,18.8H985.3z"/>
	<path class="st1" d="M1003.6,993l9.2-4.5h0.9v32c0,2.1,0.1,3.4,0.3,3.9c0.2,0.5,0.6,0.9,1.1,1.2c0.6,0.3,1.7,0.4,3.4,0.5v1h-14.2
		v-1c1.8,0,2.9-0.2,3.5-0.5c0.5-0.3,0.9-0.6,1.1-1.1c0.2-0.5,0.3-1.8,0.3-4.1v-20.5c0-2.8-0.1-4.5-0.3-5.3c-0.1-0.6-0.4-1-0.7-1.3
		s-0.8-0.4-1.2-0.4c-0.7,0-1.7,0.3-2.9,0.9L1003.6,993z"/>
	<path class="st1" d="M1028.6,1036.8v-1.2c1.9-0.6,3.4-1.6,4.4-2.9c1.1-1.3,1.6-2.7,1.6-4.2c0-0.3-0.1-0.6-0.2-0.9
		c-0.1-0.2-0.2-0.2-0.4-0.2c-0.2,0-0.7,0.2-1.4,0.6c-0.3,0.2-0.7,0.3-1,0.3c-0.9,0-1.7-0.3-2.2-0.8c-0.5-0.5-0.8-1.3-0.8-2.2
		c0-0.9,0.3-1.7,1-2.4c0.7-0.6,1.5-1,2.5-1c1.2,0,2.3,0.5,3.3,1.6c0.9,1.1,1.4,2.5,1.4,4.2c0,1.9-0.7,3.7-2,5.3
		C1033.6,1034.5,1031.5,1035.8,1028.6,1036.8z"/>
	<path class="st1" d="M522.1,1105.2l-2.7,7.3H497v-1c6.6-6,11.2-10.9,13.9-14.7c2.7-3.8,4-7.3,4-10.4c0-2.4-0.7-4.4-2.2-5.9
		s-3.2-2.3-5.3-2.3c-1.9,0-3.6,0.5-5,1.6c-1.5,1.1-2.6,2.7-3.3,4.8h-1c0.5-3.4,1.7-6.1,3.6-7.9c1.9-1.8,4.3-2.8,7.2-2.8
		c3.1,0,5.6,1,7.7,3s3.1,4.3,3.1,7c0,1.9-0.5,3.8-1.4,5.8c-1.4,3-3.6,6.2-6.7,9.6c-4.6,5.1-7.5,8.1-8.7,9.2h9.9c2,0,3.4-0.1,4.2-0.2
		s1.5-0.4,2.2-0.9c0.6-0.5,1.2-1.1,1.7-1.9H522.1z"/>
	<path class="st1" d="M535.4,1093.4c-3-2.5-4.9-4.4-5.8-5.9c-0.9-1.5-1.3-3-1.3-4.6c0-2.5,0.9-4.6,2.8-6.3c1.9-1.8,4.4-2.7,7.6-2.7
		c3.1,0,5.5,0.8,7.4,2.5c1.9,1.7,2.8,3.5,2.8,5.7c0,1.4-0.5,2.9-1.5,4.3s-3.1,3.2-6.3,5.2c3.3,2.5,5.4,4.5,6.5,6
		c1.4,1.9,2.1,3.9,2.1,6c0,2.7-1,4.9-3,6.8c-2,1.9-4.7,2.8-8,2.8c-3.6,0-6.4-1.1-8.4-3.4c-1.6-1.8-2.4-3.8-2.4-5.9
		c0-1.7,0.6-3.3,1.7-5C530.7,1097.2,532.6,1095.4,535.4,1093.4z M536.7,1094.5c-1.5,1.3-2.7,2.7-3.4,4.2c-0.7,1.5-1.1,3.2-1.1,5
		c0,2.4,0.7,4.3,2,5.8s3,2.2,5,2.2c2,0,3.6-0.6,4.8-1.7c1.2-1.1,1.8-2.5,1.8-4.1c0-1.3-0.4-2.5-1.1-3.6
		C543.4,1100.2,540.7,1097.6,536.7,1094.5z M539.8,1090.4c2.2-2,3.6-3.6,4.2-4.8s0.9-2.5,0.9-3.9c0-2-0.5-3.5-1.6-4.6
		c-1.1-1.1-2.6-1.6-4.5-1.6c-1.9,0-3.4,0.5-4.6,1.6c-1.2,1.1-1.8,2.4-1.8,3.8c0,1,0.2,1.9,0.7,2.9s1.2,1.9,2.1,2.8L539.8,1090.4z"/>
	<path class="st1" d="M555.1,1093.8c0-4.3,0.6-8,1.9-11.2c1.3-3.1,3-5.4,5.2-7c1.7-1.2,3.4-1.8,5.2-1.8c2.9,0,5.5,1.5,7.8,4.4
		c2.9,3.7,4.3,8.6,4.3,14.9c0,4.4-0.6,8.1-1.9,11.2c-1.3,3.1-2.9,5.3-4.9,6.7c-2,1.4-3.9,2.1-5.7,2.1c-3.6,0-6.6-2.1-9-6.4
		C556.1,1103.2,555.1,1098.8,555.1,1093.8z M560.5,1094.5c0,5.2,0.6,9.5,1.9,12.8c1.1,2.8,2.6,4.2,4.8,4.2c1,0,2-0.5,3.1-1.4
		s1.9-2.4,2.5-4.5c0.9-3.2,1.3-7.7,1.3-13.6c0-4.3-0.5-7.9-1.4-10.8c-0.7-2.2-1.5-3.7-2.6-4.5c-0.8-0.6-1.7-0.9-2.7-0.9
		c-1.3,0-2.4,0.6-3.4,1.7c-1.3,1.6-2.3,4-2.7,7.3C560.8,1088,560.5,1091.3,560.5,1094.5z"/>
	<path class="st1" d="M583.7,1093.8c0-4.3,0.6-8,1.9-11.2c1.3-3.1,3-5.4,5.2-7c1.7-1.2,3.4-1.8,5.2-1.8c2.9,0,5.5,1.5,7.8,4.4
		c2.9,3.7,4.3,8.6,4.3,14.9c0,4.4-0.6,8.1-1.9,11.2c-1.3,3.1-2.9,5.3-4.9,6.7c-2,1.4-3.9,2.1-5.7,2.1c-3.6,0-6.6-2.1-9-6.4
		C584.7,1103.2,583.7,1098.8,583.7,1093.8z M589.1,1094.5c0,5.2,0.6,9.5,1.9,12.8c1.1,2.8,2.6,4.2,4.8,4.2c1,0,2-0.5,3.1-1.4
		s1.9-2.4,2.5-4.5c0.9-3.2,1.3-7.7,1.3-13.6c0-4.3-0.5-7.9-1.4-10.8c-0.7-2.2-1.5-3.7-2.6-4.5c-0.8-0.6-1.7-0.9-2.7-0.9
		c-1.3,0-2.4,0.6-3.4,1.7c-1.3,1.6-2.3,4-2.7,7.3C589.4,1088,589.1,1091.3,589.1,1094.5z"/>
	<path class="st1" d="M616.9,1078.3l9.2-4.5h0.9v32c0,2.1,0.1,3.4,0.3,3.9c0.2,0.5,0.6,0.9,1.1,1.2c0.6,0.3,1.7,0.4,3.4,0.5v1h-14.2
		v-1c1.8,0,2.9-0.2,3.5-0.5c0.5-0.3,0.9-0.6,1.1-1.1s0.3-1.8,0.3-4.1v-20.5c0-2.8-0.1-4.5-0.3-5.3c-0.1-0.6-0.4-1-0.7-1.3
		s-0.8-0.4-1.2-0.4c-0.7,0-1.7,0.3-2.9,0.9L616.9,1078.3z"/>
	<path class="st1" d="M676.5,1112.5l-14.6-31.9v25.3c0,2.3,0.3,3.8,0.8,4.3c0.7,0.8,1.8,1.2,3.3,1.2h1.3v1H654v-1h1.4
		c1.6,0,2.7-0.5,3.4-1.5c0.4-0.6,0.6-1.9,0.6-4.1v-24.7c0-1.7-0.2-2.9-0.6-3.6c-0.3-0.5-0.7-1-1.4-1.4c-0.7-0.4-1.8-0.6-3.4-0.6v-1
		h10.7l13.8,29.7l13.5-29.7h10.7v1h-1.3c-1.6,0-2.8,0.5-3.4,1.5c-0.4,0.6-0.6,2-0.6,4.1v24.7c0,2.3,0.3,3.8,0.8,4.3
		c0.7,0.8,1.8,1.2,3.3,1.2h1.3v1h-16.1v-1h1.3c1.6,0,2.8-0.5,3.4-1.5c0.4-0.6,0.6-1.9,0.6-4.1v-25.3l-14.6,31.9H676.5z"/>
	<path class="st1" d="M720.2,1108.8c-2.6,2-4.3,3.2-4.9,3.5c-1,0.5-2.1,0.7-3.2,0.7c-1.8,0-3.2-0.6-4.4-1.8
		c-1.1-1.2-1.7-2.8-1.7-4.8c0-1.2,0.3-2.3,0.8-3.2c0.8-1.3,2.1-2.5,4-3.6c1.9-1.1,5-2.5,9.4-4.1v-1c0-2.5-0.4-4.3-1.2-5.2
		s-2-1.4-3.5-1.4c-1.2,0-2.1,0.3-2.8,0.9c-0.7,0.6-1.1,1.4-1.1,2.2l0.1,1.6c0,0.9-0.2,1.5-0.7,2c-0.4,0.5-1,0.7-1.7,0.7
		c-0.7,0-1.3-0.2-1.7-0.7s-0.7-1.1-0.7-2c0-1.6,0.8-3.1,2.5-4.4s3.9-2,6.9-2c2.3,0,4.1,0.4,5.6,1.1c1.1,0.6,1.9,1.5,2.4,2.7
		c0.3,0.8,0.5,2.5,0.5,4.9v8.7c0,2.4,0,3.9,0.1,4.5c0.1,0.6,0.2,0.9,0.5,1.1c0.2,0.2,0.5,0.3,0.7,0.3c0.3,0,0.6-0.1,0.8-0.2
		c0.4-0.2,1.2-0.9,2.3-2v1.6c-2.1,2.8-4.1,4.2-6,4.2c-0.9,0-1.6-0.3-2.2-0.9C720.5,1111.4,720.2,1110.3,720.2,1108.8z M720.2,1107
		v-9.7c-2.8,1.1-4.6,1.9-5.4,2.4c-1.5,0.8-2.5,1.7-3.1,2.6c-0.6,0.9-1,1.9-1,2.9c0,1.3,0.4,2.5,1.2,3.3s1.7,1.3,2.8,1.3
		C716,1109.8,717.9,1108.8,720.2,1107z"/>
	<path class="st1" d="M749.2,1109.6c-1.2,1.3-2.5,2.2-3.7,2.8s-2.5,0.9-3.8,0.9c-2.8,0-5.2-1.2-7.3-3.5c-2.1-2.3-3.1-5.3-3.1-9
		c0-3.7,1.2-7,3.5-10.1c2.3-3,5.3-4.6,8.9-4.6c2.3,0,4.1,0.7,5.6,2.2v-4.7c0-2.9-0.1-4.7-0.2-5.4s-0.4-1.1-0.6-1.4
		c-0.3-0.2-0.7-0.4-1.1-0.4c-0.5,0-1.1,0.2-1.9,0.5l-0.4-1l7.6-3.1h1.2v29.6c0,3,0.1,4.8,0.2,5.5c0.1,0.7,0.4,1.1,0.7,1.4
		c0.3,0.3,0.7,0.4,1.1,0.4c0.5,0,1.1-0.2,2-0.5l0.3,1l-7.6,3.2h-1.3V1109.6z M749.2,1107.7v-13.2c-0.1-1.3-0.4-2.4-1-3.5
		c-0.6-1-1.3-1.8-2.2-2.4c-0.9-0.5-1.8-0.8-2.7-0.8c-1.6,0-3.1,0.7-4.4,2.2c-1.7,1.9-2.5,4.7-2.5,8.5c0,3.8,0.8,6.7,2.5,8.7
		c1.6,2,3.5,3,5.5,3C746,1110.2,747.6,1109.3,749.2,1107.7z"/>
	<path class="st1" d="M767.2,1086.1v5.8c2.2-3.8,4.3-5.8,6.6-5.8c1,0,1.9,0.3,2.6,0.9c0.7,0.6,1,1.3,1,2.2c0,0.7-0.2,1.4-0.7,1.9
		c-0.5,0.5-1,0.7-1.7,0.7s-1.4-0.3-2.2-1s-1.4-1-1.8-1c-0.3,0-0.7,0.2-1.1,0.6c-0.8,0.8-1.7,2-2.6,3.7v12.3c0,1.4,0.2,2.5,0.6,3.2
		c0.2,0.5,0.7,0.9,1.3,1.3c0.6,0.3,1.5,0.5,2.7,0.5v1h-13.1v-1c1.3,0,2.3-0.2,2.9-0.6c0.5-0.3,0.8-0.8,1-1.4
		c0.1-0.3,0.1-1.2,0.1-2.7v-9.9c0-3-0.1-4.7-0.2-5.3c-0.1-0.6-0.3-1-0.7-1.2c-0.3-0.3-0.7-0.4-1.2-0.4c-0.6,0-1.2,0.1-1.9,0.4
		l-0.3-1l7.7-3.1H767.2z"/>
	<path class="st1" d="M787.6,1086.1v20.5c0,1.6,0.1,2.7,0.3,3.2c0.2,0.5,0.6,0.9,1,1.2c0.5,0.3,1.3,0.4,2.5,0.4v1H779v-1
		c1.2,0,2.1-0.1,2.5-0.4c0.4-0.2,0.8-0.6,1-1.2c0.2-0.6,0.4-1.6,0.4-3.2v-9.9c0-2.8-0.1-4.6-0.2-5.4c-0.1-0.6-0.3-1-0.6-1.2
		c-0.3-0.2-0.7-0.3-1.1-0.3c-0.5,0-1.1,0.1-1.9,0.4l-0.4-1l7.7-3.1H787.6z M785.3,1072.8c0.8,0,1.5,0.3,2,0.8c0.5,0.6,0.8,1.2,0.8,2
		c0,0.8-0.3,1.4-0.8,2c-0.5,0.6-1.2,0.9-2,0.9s-1.5-0.3-2-0.9c-0.6-0.6-0.8-1.2-0.8-2c0-0.8,0.3-1.5,0.8-2
		C783.8,1073,784.4,1072.8,785.3,1072.8z"/>
	<path class="st1" d="M812.7,1109.6c-1.2,1.3-2.5,2.2-3.7,2.8s-2.5,0.9-3.8,0.9c-2.8,0-5.2-1.2-7.3-3.5c-2.1-2.3-3.1-5.3-3.1-9
		c0-3.7,1.2-7,3.5-10.1c2.3-3,5.3-4.6,8.9-4.6c2.3,0,4.1,0.7,5.6,2.2v-4.7c0-2.9-0.1-4.7-0.2-5.4s-0.4-1.1-0.6-1.4
		c-0.3-0.2-0.7-0.4-1.1-0.4c-0.5,0-1.1,0.2-1.9,0.5l-0.4-1l7.6-3.1h1.2v29.6c0,3,0.1,4.8,0.2,5.5c0.1,0.7,0.4,1.1,0.7,1.4
		c0.3,0.3,0.7,0.4,1.1,0.4c0.5,0,1.1-0.2,2-0.5l0.3,1l-7.6,3.2h-1.3V1109.6z M812.7,1107.7v-13.2c-0.1-1.3-0.4-2.4-1-3.5
		c-0.6-1-1.3-1.8-2.2-2.4c-0.9-0.5-1.8-0.8-2.7-0.8c-1.6,0-3.1,0.7-4.4,2.2c-1.7,1.9-2.5,4.7-2.5,8.5c0,3.8,0.8,6.7,2.5,8.7
		c1.6,2,3.5,3,5.5,3C809.5,1110.2,811.1,1109.3,812.7,1107.7z"/>
</g>
<g>
	<path class="st1" d="M554.8,1205.2l-1.2,3.8H539l1.2-3.8H554.8z"/>
	<path class="st1" d="M595.5,1180.5l-9.1,31.7c-0.5,1.9-0.8,3.2-0.8,4c0,0.7,0.2,1.2,0.7,1.6s1.6,0.6,3.4,0.7l-0.3,1.1h-14.6
		l0.4-1.1c1.5,0,2.6-0.1,3.1-0.4c0.8-0.4,1.4-0.8,1.8-1.4c0.6-0.9,1.2-2.4,1.9-4.7l6.6-22.8c0.4-1.4,0.6-2.2,0.7-2.4
		c0-0.4,0.1-0.8,0.1-1.1c0-0.7-0.2-1.2-0.5-1.5s-0.8-0.6-1.5-0.6c-0.5,0-1.3,0.1-2.3,0.4l-0.4-1l9.6-2.7H595.5z"/>
	<path class="st1" d="M620.3,1219.7h-19.1v-1.1c9.7-8.5,16.2-15.2,19.3-20.1c1.5-2.2,2.2-4.6,2.2-7.1c0-2-0.6-3.6-1.8-4.8
		c-1.2-1.2-2.8-1.8-4.7-1.8c-2.7,0-4.9,1.3-6.6,3.8l-1-0.5c1-2.4,2.4-4.3,4.2-5.7s3.8-2,6-2c2.4,0,4.5,0.8,6.2,2.5s2.5,3.7,2.5,6.1
		c0,1.7-0.3,3.2-0.9,4.6c-0.9,2.2-2.6,4.7-5,7.4c-3.7,4.2-8.6,9-14.8,14.4h9.6c1.5,0,2.8-0.3,3.8-0.9c1-0.6,1.7-1.5,2.2-2.6h1.1
		L620.3,1219.7z"/>
	<path class="st1" d="M635.6,1214.5c0.8,0,1.4,0.3,2,0.8s0.8,1.2,0.8,2c0,0.8-0.3,1.4-0.8,2c-0.6,0.5-1.2,0.8-2,0.8
		c-0.8,0-1.5-0.3-2-0.8c-0.6-0.6-0.8-1.2-0.8-2c0-0.8,0.3-1.5,0.8-2S634.8,1214.5,635.6,1214.5z M641.5,1194.1c0.8,0,1.5,0.3,2,0.8
		s0.8,1.2,0.8,2s-0.3,1.5-0.8,2s-1.2,0.8-2,0.8s-1.5-0.3-2-0.8s-0.8-1.2-0.8-2s0.3-1.5,0.8-2S640.7,1194.1,641.5,1194.1z"/>
	<path class="st1" d="M657.4,1198.7v-0.8c4.6-0.7,8-2.1,10.2-4.1c1.6-1.4,2.4-3.1,2.4-5.1c0-1.5-0.5-2.7-1.4-3.7s-2.1-1.5-3.4-1.5
		c-2.1,0-4,1.3-5.6,3.9l-1.1-0.3c1-2.2,2.2-3.8,3.8-5s3.2-1.7,5-1.7c2.2,0,4,0.7,5.4,2s2.1,3,2.1,5c0,1.7-0.6,3.4-1.9,5
		s-3.5,3-6.7,4.3c2,0.8,3.5,2,4.4,3.5s1.5,3.3,1.5,5.5c0,2.4-0.7,4.7-2,7.1s-3.2,4.2-5.6,5.5c-2.4,1.3-4.9,1.9-7.5,1.9
		c-2.4,0-4.2-0.4-5.4-1.2c-0.8-0.6-1.2-1.2-1.2-2c0-0.7,0.2-1.3,0.7-1.7s1.1-0.7,1.8-0.7c0.5,0,1,0.1,1.4,0.2c0.3,0.1,1,0.5,2.2,1.1
		s2.1,1.1,2.8,1.3s1.3,0.3,2,0.3c1.7,0,3.1-1,4.2-3s1.7-4.1,1.7-6.3c0-1.8-0.4-3.4-1.1-4.8s-1.9-2.6-3.5-3.4
		S659.3,1198.8,657.4,1198.7z"/>
	<path class="st1" d="M697.5,1180.5c2.4,0,4.4,1,6.1,3s2.5,5.2,2.5,9.6c0,3.7-0.6,7.5-1.8,11.4s-3,7.3-5.2,10.1
		c-1.8,2.2-3.6,3.9-5.6,4.9c-1.1,0.6-2.5,0.8-3.9,0.8c-2.5,0-4.5-1-6.2-3s-2.5-5.2-2.5-9.6c0-4.3,0.8-8.6,2.5-13
		c1.9-5.1,4.4-9,7.5-11.6C692.9,1181.4,695.1,1180.5,697.5,1180.5z M697.6,1182c-1.1,0-2.2,0.4-3.3,1.3s-2.3,2.6-3.5,5.4
		s-2.3,6.2-3.4,10.5c-1.4,5.6-2.1,10.4-2.1,14.3c0,2,0.4,3.4,1.3,4.4s1.9,1.5,3.1,1.5c1.1,0,2.1-0.4,3-1.2c2.2-2,4-5.5,5.6-10.4
		c2.5-8,3.8-14.6,3.8-19.6c0-2.1-0.4-3.7-1.3-4.6S698.7,1182,697.6,1182z"/>
	<path class="st1" d="M738,1179.4l-7.9,27.5c3.4-5.2,6.1-8.6,8-10.3s3.8-2.5,5.5-2.5c0.9,0,1.7,0.3,2.3,0.9s0.9,1.5,0.9,2.5
		c0,1.2-0.3,2.8-0.8,4.5l-3.4,11.8c-0.4,1.4-0.7,2.2-0.7,2.4c0,0.3,0.1,0.5,0.2,0.6s0.4,0.2,0.6,0.2c0.2,0,0.5-0.1,0.8-0.4
		c1.1-0.8,2.1-2,3.2-3.4l0.9,0.5c-0.7,1-1.6,2.1-2.7,3.3s-2.1,2-2.9,2.5s-1.5,0.7-2.2,0.7c-0.7,0-1.3-0.2-1.7-0.7
		c-0.4-0.4-0.7-1-0.7-1.7c0-0.8,0.3-2.4,1-4.6l3.3-11.3c0.4-1.4,0.6-2.5,0.6-3.3c0-0.4-0.1-0.7-0.4-0.9s-0.5-0.4-0.9-0.4
		c-0.5,0-1.2,0.2-1.9,0.6c-1.3,0.8-2.8,2.3-4.4,4.4c-0.5,0.6-2,2.9-4.5,7.1c-0.8,1.3-1.5,2.8-2,4.3l-1.8,5.8h-4.3l9.3-32.4l1-3.5
		c0-0.5-0.2-0.9-0.6-1.3s-0.9-0.6-1.5-0.6c-0.3,0-0.8,0.1-1.5,0.2l-0.6,0.1v-1.1L738,1179.4z"/>
	<path class="st1" d="M781.7,1205.2l-1.2,3.8h-14.7l1.2-3.8H781.7z"/>
</g>
</svg>
