<?xml version="1.0" encoding="utf-8"?>
<!-- Generator: Adobe Illustrator 25.4.1, SVG Export Plug-In . SVG Version: 6.00 Build 0)  -->
<svg version="1.1" id="Capa_1" xmlns="http://www.w3.org/2000/svg" xmlns:xlink="http://www.w3.org/1999/xlink" x="0px" y="0px"
	 viewBox="0 0 1242 2208" style="enable-background:new 0 0 1242 2208;" xml:space="preserve">
<style type="text/css">
	.st0{display:none;}
	.st1{display:inline;}
	.st2{fill:#FFFFFF;}
	.st3{display:inline;enable-background:new    ;}
	.st4{enable-background:new    ;}
</style>
<g id="_x31_5_años" class="st0">
	<g class="st1">
		<path class="st2" d="M516.5,1090c69.7,0,139.3,0,209,0c0,95,0,190,0,285.1c-69.7,0-139.3,0-209,0
			C516.5,1280,516.5,1185,516.5,1090z M611.7,1205.4c0-0.8,0-1.5,0-2.2c0-13.4,0-26.8,0-40.2c0-4.2-1.2-7.9-3.8-11.2
			c-4.4-5.3-10-7.8-16.8-6.4c-9,1.8-14.3,8.7-14.3,17.9c0,21.2,0,42.4,0,63.6c0,1.2-0.3,1.9-1.3,2.6c-3.7,2.3-7.3,4.8-10.9,7.2
			c-11,7.6-16.3,18-15,31.3c0.7,7.2,3.2,13.9,5.8,20.6c6.7,17.3,16.5,32.6,29.6,45.9c0.5,0.6,0.9,1.5,0.9,2.3c0.1,5.7,0,11.3,0,17
			c0,3.4,1.4,4.8,4.8,4.8c8,0,16,0,24,0c18.8,0,37.6,0,56.4,0c3.5,0,4.8-1.3,4.8-4.7c0-5.8,0-11.6,0-17.3c0-0.9,0.3-2,0.8-2.8
			c11-17.5,16.9-36.5,17.4-57.2c0.3-11.6,0.1-23.2,0.1-34.8c0-2.3,0.1-4.6-0.3-6.9c-1.7-9.4-10.4-15.5-19.8-13.8
			c-2.7,0.5-5.3,1.7-8.1,2.6c-1.8-5.2-5.4-9.3-11.1-11.2c-5.7-1.9-11.2-0.9-16.1,2.4C632.2,1202.6,625.1,1200,611.7,1205.4z
			 M549.3,1109.5c-1.7,0.2-2.9,1-3.5,2.4c-0.7,1.5-0.5,3,0.7,4.2c6.8,6.9,13.7,13.7,20.6,20.5c1.7,1.7,3.9,1.6,5.4,0
			c1.5-1.5,1.4-3.8-0.3-5.4c-6.7-6.7-13.5-13.5-20.2-20.1C551.2,1110.3,550.2,1110,549.3,1109.5z M640.1,1109.5
			c-0.9,0.4-1.9,0.7-2.6,1.4c-6.9,6.8-13.8,13.6-20.6,20.5c-1,1.1-1.5,2.3-0.9,3.8c1.1,2.8,4.1,3.3,6.4,1.1c4.3-4.3,8.7-8.6,13-12.9
			c2.5-2.4,4.9-4.9,7.4-7.4c1.2-1.2,1.4-2.7,0.8-4.2C643,1110.5,641.8,1109.8,640.1,1109.5z M598.3,1115.2c0-2.9,0-5.8,0-8.7
			c0-2.4-1.5-4-3.6-4c-2.1-0.1-3.8,1.7-3.8,4c0,5.8,0,11.7,0,17.5c0,2.4,1.7,4,3.8,4s3.6-1.6,3.6-4
			C598.3,1121.1,598.3,1118.2,598.3,1115.2z M548.8,1162.4c2.9,0,5.8,0,8.7,0c2.4,0,4-1.4,4.1-3.5c0.1-2.2-1.5-3.9-3.9-3.9
			c-5.9-0.1-11.8-0.1-17.6,0c-2.4,0-4.1,1.8-4,3.9s1.7,3.5,4.1,3.5C543,1162.5,545.9,1162.4,548.8,1162.4z M640.3,1162.4
			c3,0,6.1,0,9.1,0c2.2,0,3.7-1.4,3.8-3.4c0.1-2.1-1.3-3.9-3.5-3.9c-6.1-0.1-12.2-0.1-18.3,0c-2.2,0-3.8,1.9-3.7,3.8
			c0.1,2.1,1.6,3.5,3.9,3.5C634.5,1162.5,637.4,1162.4,640.3,1162.4z"/>
		<path d="M611.7,1205.4c13.4-5.4,20.4-2.9,27,9.7c5-3.4,10.4-4.4,16.1-2.4c5.7,1.9,9.3,6,11.1,11.2c2.8-0.9,5.4-2.1,8.1-2.6
			c9.3-1.7,18,4.4,19.8,13.8c0.4,2.2,0.3,4.6,0.3,6.9c0,11.6,0.2,23.2-0.1,34.8c-0.5,20.6-6.4,39.7-17.4,57.2
			c-0.5,0.8-0.8,1.9-0.8,2.8c-0.1,5.8,0,11.6,0,17.3c0,3.4-1.4,4.7-4.8,4.7c-18.8,0-37.6,0-56.4,0c-8,0-16,0-24,0
			c-3.4,0-4.8-1.4-4.8-4.8c0-5.7,0-11.3,0-17c0-0.8-0.4-1.8-0.9-2.3c-13-13.2-22.9-28.5-29.6-45.9c-2.6-6.7-5.1-13.5-5.8-20.6
			c-1.3-13.3,3.9-23.8,15-31.3c3.6-2.5,7.2-4.9,10.9-7.2c1-0.7,1.3-1.4,1.3-2.6c0-21.2,0-42.4,0-63.6c0-9.2,5.3-16.1,14.3-17.9
			c6.8-1.4,12.4,1.1,16.8,6.4c2.7,3.2,3.8,7,3.8,11.2c0,13.4,0,26.8,0,40.2C611.7,1203.9,611.7,1204.6,611.7,1205.4z M576.7,1237.6
			c-3.4,2.3-6.7,4.3-9.7,6.5c-6.4,4.8-9.8,11.2-10.3,19.2c-0.3,5,1.2,9.6,2.7,14.3c6.2,20.5,17,38.2,32.3,53.2
			c1.2,1.2,1.7,2.4,1.7,4c0,4.8,0.1,9.7-0.1,14.5c0,1.7,0.4,2.2,2.1,2.2c21.7-0.1,43.4,0,65.1,0c2.6,0,5.1,0,7.8,0
			c0-5.6-0.1-10.9,0.1-16.2c0-1.4,0.5-2.9,1.2-4.1c10.3-15.9,16.2-33.3,16.8-52.2c0.5-13.6,0.3-27.1,0.2-40.7c0-6-4.9-9.6-8.8-9.8
			c-6.9-0.4-11.2,3.9-11.2,10.8c0,4.2,0,8.4,0,12.6c0,2.5-1.7,4-4.1,3.8c-2-0.2-3.3-1.7-3.3-4.1c0-7.3,0-14.6,0-21.9
			c0-1.1-0.1-2.1-0.4-3.1c-1.2-4.7-5.7-7.7-10.7-7.3c-4.6,0.4-8.4,4.3-8.8,9c-0.1,1.6-0.1,3.2-0.1,4.9c0,6.1,0,12.1,0,18.2
			c0,2.9-1.6,4.5-4.1,4.4c-2.1-0.2-3.4-1.7-3.4-4.4c0-10.2,0-20.3,0-30.4c0-2.2-0.4-4.3-1.6-6.2c-2.6-3.9-7-5.3-11.7-3.9
			c-3.8,1.2-6.6,5.1-6.7,9.5c0,9.7,0,19.3,0,28.9c0,1.1,0.1,2.2-0.1,3.4c-0.2,1.9-1.8,3.2-3.7,3.2c-2,0-3.5-1.4-3.7-3.4
			c0-0.5,0-1,0-1.5c0-20.8,0-41.5,0-62.2c0-8.5-0.1-17.1,0-25.6c0.1-6.5-5.3-10.9-10.8-10.3c-5.4,0.5-9.3,4.8-9.3,10.5
			c0,23.8,0,47.7,0,71.5c0,11.7,0,23.3,0,35c0,1-0.2,2-0.7,2.8c-0.8,1.3-2.6,1.8-4.2,1.3c-1.5-0.5-2.5-1.9-2.5-3.8
			c0-6.7,0-13.5,0-20.2C576.7,1245.8,576.7,1241.9,576.7,1237.6z"/>
		<path d="M549.3,1109.5c0.9,0.5,1.9,0.8,2.6,1.5c6.8,6.7,13.5,13.4,20.2,20.1c1.6,1.6,1.7,3.9,0.3,5.4c-1.5,1.6-3.7,1.6-5.4,0
			c-6.9-6.8-13.7-13.7-20.6-20.5c-1.2-1.2-1.4-2.6-0.7-4.2C546.4,1110.4,547.5,1109.7,549.3,1109.5z"/>
		<path d="M640.1,1109.5c1.7,0.2,2.9,0.9,3.5,2.4s0.5,3-0.8,4.2c-2.5,2.5-4.9,4.9-7.4,7.4c-4.3,4.3-8.6,8.6-13,12.9
			c-2.2,2.2-5.3,1.7-6.4-1.1c-0.6-1.5-0.2-2.8,0.9-3.8c6.8-6.9,13.7-13.7,20.6-20.5C638.2,1110.2,639.2,1110,640.1,1109.5z"/>
		<path d="M598.3,1115.2c0,2.9,0,5.8,0,8.7c0,2.4-1.5,4-3.6,4c-2.2,0-3.8-1.6-3.8-4c0-5.8,0-11.7,0-17.5c0-2.4,1.7-4.1,3.8-4
			s3.6,1.6,3.6,4C598.3,1109.4,598.3,1112.3,598.3,1115.2z"/>
		<path d="M548.8,1162.4c-2.9,0-5.8,0-8.7,0c-2.4,0-4-1.4-4.1-3.5s1.6-3.8,4-3.9c5.9-0.1,11.8-0.1,17.6,0c2.4,0,4,1.7,3.9,3.9
			c-0.1,2.1-1.6,3.5-4.1,3.5C554.7,1162.5,551.8,1162.4,548.8,1162.4z"/>
		<path d="M640.3,1162.4c-2.9,0-5.8,0-8.8,0c-2.3,0-3.8-1.4-3.9-3.5c-0.1-2,1.5-3.8,3.7-3.8c6.1-0.1,12.2-0.1,18.3,0
			c2.2,0,3.6,1.8,3.5,3.9s-1.5,3.4-3.8,3.4C646.4,1162.5,643.3,1162.4,640.3,1162.4z"/>
		<path class="st2" d="M576.7,1237.6c0,4.3,0,8.2,0,12.1c0,6.7,0,13.5,0,20.2c0,1.9,1,3.3,2.5,3.8c1.6,0.5,3.4,0.1,4.2-1.3
			c0.5-0.8,0.7-1.9,0.7-2.8c0-11.7,0-23.3,0-35c0-23.8,0-47.7,0-71.5c0-5.7,3.9-10,9.3-10.5c5.5-0.5,10.9,3.8,10.8,10.3
			c-0.1,8.5,0,17.1,0,25.6c0,20.8,0,41.5,0,62.2c0,0.5,0,1,0,1.5c0.2,2,1.7,3.4,3.7,3.4c1.9,0,3.5-1.3,3.7-3.2
			c0.1-1.1,0.1-2.2,0.1-3.4c0-9.7,0-19.3,0-28.9c0-4.4,2.8-8.3,6.7-9.5c4.7-1.4,9.1,0.1,11.7,3.9c1.3,1.9,1.7,4,1.6,6.2
			c0,10.2,0,20.3,0,30.4c0,2.7,1.3,4.2,3.4,4.4c2.5,0.2,4.1-1.5,4.1-4.4c0-6.1,0-12.1,0-18.2c0-1.6,0-3.3,0.1-4.9
			c0.3-4.7,4.1-8.5,8.8-9c5-0.5,9.5,2.6,10.7,7.3c0.3,1,0.4,2.1,0.4,3.1c0,7.3,0,14.6,0,21.9c0,2.4,1.3,3.9,3.3,4.1
			c2.4,0.2,4.1-1.4,4.1-3.8c0-4.2,0-8.4,0-12.6c0-6.9,4.3-11.2,11.2-10.8c4,0.2,8.8,3.9,8.8,9.8c0.1,13.6,0.2,27.2-0.2,40.7
			c-0.6,18.9-6.6,36.3-16.8,52.2c-0.7,1.2-1.2,2.7-1.2,4.1c-0.1,5.3-0.1,10.6-0.1,16.2c-2.7,0-5.3,0-7.8,0c-21.7,0-43.4,0-65.1,0
			c-1.7,0-2.2-0.5-2.1-2.2c0.1-4.8,0-9.7,0.1-14.5c0-1.6-0.5-2.9-1.7-4c-15.2-15-26-32.7-32.3-53.2c-1.4-4.7-3-9.3-2.7-14.3
			c0.5-7.9,3.9-14.4,10.3-19.2C570.1,1241.9,573.3,1239.9,576.7,1237.6z"/>
	</g>
	<g class="st3">
		<path d="M286,1498.3v-35.8h4.7v14.7h18.6v-14.7h4.7v35.8h-4.7v-16.9h-18.6v16.9H286z"/>
		<path d="M338.3,1495.2c-1.6,1.4-3.2,2.4-4.7,2.9c-1.5,0.6-3.1,0.8-4.9,0.8c-2.9,0-5-0.7-6.6-2.1s-2.3-3.2-2.3-5.3
			c0-1.3,0.3-2.4,0.9-3.5s1.3-1.9,2.3-2.5c0.9-0.6,2-1.1,3.2-1.4c0.9-0.2,2.2-0.4,3.9-0.7c3.5-0.4,6.2-0.9,7.8-1.5c0-0.6,0-1,0-1.2
			c0-1.8-0.4-3.1-1.2-3.8c-1.1-1-2.8-1.5-5-1.5c-2.1,0-3.6,0.4-4.6,1.1s-1.7,2-2.2,3.8l-4.3-0.6c0.4-1.8,1-3.3,1.9-4.5
			c0.9-1.1,2.2-2,3.9-2.6s3.6-0.9,5.9-0.9c2.2,0,4,0.3,5.4,0.8s2.4,1.2,3,2s1.1,1.8,1.4,3c0.1,0.8,0.2,2.1,0.2,4.1v5.9
			c0,4.1,0.1,6.7,0.3,7.8s0.6,2.1,1.1,3.1h-4.6C338.7,1497.4,338.4,1496.4,338.3,1495.2z M337.9,1485.3c-1.6,0.7-4,1.2-7.2,1.7
			c-1.8,0.3-3.1,0.6-3.8,0.9s-1.3,0.8-1.7,1.4c-0.4,0.6-0.6,1.3-0.6,2.1c0,1.2,0.4,2.2,1.3,2.9c0.9,0.8,2.2,1.2,3.9,1.2
			c1.7,0,3.2-0.4,4.5-1.1s2.3-1.8,2.9-3c0.5-1,0.7-2.5,0.7-4.4L337.9,1485.3L337.9,1485.3z"/>
		<path d="M346.9,1498.3v-3.6l16.5-18.9c-1.9,0.1-3.5,0.2-5,0.2h-10.6v-3.6H369v2.9l-14,16.5l-2.7,3c2-0.2,3.8-0.2,5.5-0.2h12v3.8
			L346.9,1498.3L346.9,1498.3z"/>
		<path d="M405,1488.8l4.3,0.6c-0.5,3-1.7,5.3-3.6,7c-2,1.7-4.3,2.5-7.2,2.5c-3.5,0-6.4-1.2-8.6-3.5s-3.2-5.6-3.2-10
			c0-2.8,0.5-5.2,1.4-7.3s2.3-3.7,4.2-4.7c1.9-1.1,4-1.6,6.2-1.6c2.8,0,5.1,0.7,6.9,2.1s2.9,3.4,3.4,6.1l-4.3,0.7
			c-0.4-1.7-1.1-3.1-2.2-3.9s-2.3-1.3-3.8-1.3c-2.2,0-4,0.8-5.4,2.4s-2.1,4.1-2.1,7.5c0,3.5,0.7,6,2,7.6s3.1,2.4,5.2,2.4
			c1.7,0,3.2-0.5,4.3-1.6C403.9,1492.7,404.7,1491.1,405,1488.8z"/>
		<path d="M413,1498.3v-35.8h4.4v35.8H413z"/>
		<path d="M424.2,1467.6v-5.1h4.4v5.1H424.2z M424.2,1498.3v-25.9h4.4v25.9H424.2z"/>
		<path d="M452.2,1488.8l4.3,0.6c-0.5,3-1.7,5.3-3.6,7c-2,1.7-4.3,2.5-7.2,2.5c-3.5,0-6.4-1.2-8.6-3.5s-3.2-5.6-3.2-10
			c0-2.8,0.5-5.2,1.4-7.3s2.3-3.7,4.2-4.7c1.9-1.1,4-1.6,6.2-1.6c2.8,0,5.1,0.7,6.9,2.1s2.9,3.4,3.4,6.1l-4.3,0.7
			c-0.4-1.7-1.1-3.1-2.2-3.9s-2.3-1.3-3.8-1.3c-2.2,0-4,0.8-5.4,2.4s-2.1,4.1-2.1,7.5c0,3.5,0.7,6,2,7.6s3.1,2.4,5.2,2.4
			c1.7,0,3.2-0.5,4.3-1.6C451.2,1492.7,451.9,1491.1,452.2,1488.8z"/>
		<path d="M460.3,1498.3v-35.8h4.4v20.4l10.4-10.6h5.7l-9.9,9.6l10.9,16.3h-5.4l-8.6-13.3l-3.1,3v10.3L460.3,1498.3L460.3,1498.3z"
			/>
		<path d="M499,1508.3l-0.5-4.1c1,0.3,1.8,0.4,2.5,0.4c1,0,1.8-0.2,2.3-0.5c0.6-0.3,1.1-0.8,1.4-1.4c0.3-0.4,0.7-1.5,1.3-3.3
			c0.1-0.2,0.2-0.6,0.4-1.1l-9.8-26h4.7l5.4,15c0.7,1.9,1.3,3.9,1.9,6c0.5-2,1.1-4,1.8-5.9l5.5-15.1h4.4l-9.9,26.4
			c-1.1,2.8-1.9,4.8-2.5,5.9c-0.8,1.4-1.7,2.5-2.7,3.2s-2.2,1-3.6,1C501,1508.9,500,1508.7,499,1508.3z"/>
		<path d="M554.9,1498.3v-3.3c-1.6,2.6-4.1,3.9-7.2,3.9c-2.1,0-4-0.6-5.7-1.7s-3.1-2.7-4-4.8s-1.4-4.4-1.4-7s0.4-4.9,1.3-7
			c0.9-2.1,2.2-3.7,3.9-4.8c1.7-1.1,3.7-1.7,5.8-1.7c1.6,0,3,0.3,4.2,1s2.2,1.5,3,2.6v-12.8h4.4v35.8L554.9,1498.3L554.9,1498.3z
			 M541,1485.4c0,3.3,0.7,5.8,2.1,7.4c1.4,1.6,3,2.5,5,2.5c1.9,0,3.5-0.8,4.9-2.4c1.3-1.6,2-4,2-7.2c0-3.6-0.7-6.2-2-7.8
			s-3-2.5-5-2.5s-3.6,0.8-4.9,2.4C541.7,1479.5,541,1482,541,1485.4z"/>
		<path d="M583.6,1490l4.5,0.6c-0.7,2.7-2,4.7-4,6.2c-1.9,1.5-4.4,2.2-7.4,2.2c-3.8,0-6.8-1.2-9-3.5s-3.3-5.6-3.3-9.8
			c0-4.4,1.1-7.8,3.4-10.2s5.2-3.6,8.7-3.6s6.3,1.2,8.5,3.5s3.3,5.7,3.3,10c0,0.3,0,0.7,0,1.2H569c0.2,2.8,1,5,2.4,6.5
			s3.2,2.3,5.4,2.3c1.6,0,3-0.4,4.1-1.3C582,1493.2,583,1491.9,583.6,1490z M569.2,1482.9h14.5c-0.2-2.2-0.8-3.8-1.7-4.9
			c-1.4-1.7-3.2-2.5-5.4-2.5c-2,0-3.7,0.7-5.1,2C570.1,1478.8,569.3,1480.6,569.2,1482.9z"/>
		<path d="M591.9,1490.6l4.3-0.7c0.2,1.7,0.9,3.1,2,4s2.7,1.4,4.7,1.4s3.5-0.4,4.5-1.2c1-0.8,1.5-1.8,1.5-2.9c0-1-0.4-1.8-1.3-2.3
			c-0.6-0.4-2.1-0.9-4.5-1.5c-3.2-0.8-5.5-1.5-6.7-2.1s-2.2-1.4-2.8-2.5s-1-2.2-1-3.5c0-1.2,0.3-2.2,0.8-3.2s1.2-1.8,2.2-2.4
			c0.7-0.5,1.6-0.9,2.8-1.3s2.5-0.5,3.8-0.5c2,0,3.8,0.3,5.4,0.9s2.7,1.4,3.4,2.4s1.2,2.3,1.5,4l-4.3,0.6c-0.2-1.3-0.8-2.4-1.7-3.1
			c-0.9-0.8-2.3-1.1-4-1.1c-2,0-3.5,0.3-4.3,1s-1.3,1.4-1.3,2.3c0,0.6,0.2,1.1,0.5,1.5c0.4,0.5,0.9,0.9,1.7,1.2
			c0.4,0.2,1.7,0.5,3.9,1.1c3.1,0.8,5.3,1.5,6.5,2s2.2,1.3,2.9,2.3s1,2.3,1,3.8s-0.4,2.8-1.3,4.1c-0.8,1.3-2.1,2.3-3.7,3
			s-3.4,1.1-5.5,1.1c-3.4,0-5.9-0.7-7.7-2.1C593.5,1495.4,592.4,1493.4,591.9,1490.6z"/>
		<path d="M618.6,1498.3v-35.8h4.4v35.8H618.6z"/>
		<path d="M629.8,1467.6v-5.1h4.4v5.1H629.8z M629.8,1498.3v-25.9h4.4v25.9H629.8z"/>
		<path d="M638.6,1498.3v-3.6l16.5-18.9c-1.9,0.1-3.5,0.2-5,0.2h-10.6v-3.6h21.2v2.9l-14,16.5l-2.7,3c2-0.2,3.8-0.2,5.5-0.2h12v3.8
			L638.6,1498.3L638.6,1498.3z"/>
		<path d="M682.8,1495.2c-1.6,1.4-3.2,2.4-4.7,2.9s-3.1,0.8-4.8,0.8c-2.8,0-5-0.7-6.6-2.1s-2.3-3.2-2.3-5.3c0-1.3,0.3-2.4,0.9-3.5
			c0.6-1.1,1.3-1.9,2.3-2.5c0.9-0.6,2-1.1,3.2-1.4c0.9-0.2,2.2-0.4,3.9-0.7c3.5-0.4,6.2-0.9,7.8-1.5c0-0.6,0-1,0-1.2
			c0-1.8-0.4-3.1-1.2-3.8c-1.1-1-2.8-1.5-5-1.5c-2.1,0-3.6,0.4-4.6,1.1s-1.7,2-2.2,3.8l-4.3-0.6c0.4-1.8,1-3.3,1.9-4.5
			c0.9-1.1,2.2-2,3.9-2.6s3.7-0.9,5.9-0.9s4,0.3,5.4,0.8s2.4,1.2,3,2c0.7,0.8,1.1,1.8,1.4,3c0.2,0.8,0.2,2.1,0.2,4.1v5.9
			c0,4.1,0.1,6.7,0.3,7.8s0.6,2.1,1.1,3.1h-4.6C683.2,1497.4,682.9,1496.4,682.8,1495.2z M682.5,1485.3c-1.6,0.7-4,1.2-7.2,1.7
			c-1.8,0.3-3.1,0.6-3.8,0.9s-1.3,0.8-1.7,1.4s-0.6,1.3-0.6,2.1c0,1.2,0.4,2.2,1.3,2.9s2.2,1.2,3.9,1.2s3.2-0.4,4.5-1.1
			s2.3-1.8,2.9-3c0.5-1,0.7-2.5,0.7-4.4L682.5,1485.3L682.5,1485.3z"/>
		<path d="M707.6,1498.3v-35.8h4.4v12.8c2-2.4,4.6-3.6,7.8-3.6c1.9,0,3.6,0.4,5,1.1c1.4,0.8,2.4,1.8,3,3.1c0.6,1.3,0.9,3.3,0.9,5.8
			v16.4h-4.4v-16.4c0-2.2-0.5-3.8-1.4-4.8s-2.3-1.5-4-1.5c-1.3,0-2.5,0.3-3.7,1s-2,1.6-2.5,2.8s-0.7,2.8-0.7,4.8v14.2L707.6,1498.3
			L707.6,1498.3z"/>
		<path d="M752.3,1495.2c-1.6,1.4-3.2,2.4-4.7,2.9c-1.5,0.6-3.1,0.8-4.8,0.8c-2.8,0-5-0.7-6.6-2.1s-2.3-3.2-2.3-5.3
			c0-1.3,0.3-2.4,0.9-3.5c0.6-1.1,1.3-1.9,2.3-2.5s2-1.1,3.2-1.4c0.9-0.2,2.2-0.4,3.9-0.7c3.5-0.4,6.2-0.9,7.8-1.5c0-0.6,0-1,0-1.2
			c0-1.8-0.4-3.1-1.2-3.8c-1.1-1-2.8-1.5-5-1.5c-2.1,0-3.6,0.4-4.6,1.1s-1.7,2-2.2,3.8l-4.3-0.6c0.4-1.8,1-3.3,1.9-4.5
			c0.9-1.1,2.2-2,3.9-2.6s3.7-0.9,5.9-0.9s4,0.3,5.4,0.8s2.4,1.2,3,2c0.7,0.8,1.1,1.8,1.4,3c0.2,0.8,0.2,2.1,0.2,4.1v5.9
			c0,4.1,0.1,6.7,0.3,7.8s0.6,2.1,1.1,3.1h-4.6C752.7,1497.4,752.5,1496.4,752.3,1495.2z M752,1485.3c-1.6,0.7-4,1.2-7.2,1.7
			c-1.8,0.3-3.1,0.6-3.8,0.9s-1.3,0.8-1.7,1.4s-0.6,1.3-0.6,2.1c0,1.2,0.4,2.2,1.3,2.9s2.2,1.2,3.9,1.2s3.2-0.4,4.5-1.1
			s2.3-1.8,2.9-3c0.5-1,0.7-2.5,0.7-4.4L752,1485.3L752,1485.3z"/>
		<path d="M780.1,1488.8l4.3,0.6c-0.5,3-1.7,5.3-3.6,7c-2,1.7-4.3,2.5-7.2,2.5c-3.5,0-6.4-1.2-8.6-3.5s-3.2-5.6-3.2-10
			c0-2.8,0.5-5.2,1.4-7.3s2.3-3.7,4.2-4.7c1.9-1.1,4-1.6,6.2-1.6c2.8,0,5.1,0.7,6.9,2.1c1.8,1.4,2.9,3.4,3.4,6.1l-4.3,0.7
			c-0.4-1.7-1.1-3.1-2.2-3.9c-1-0.9-2.3-1.3-3.8-1.3c-2.2,0-4,0.8-5.4,2.4s-2.1,4.1-2.1,7.5c0,3.5,0.7,6,2,7.6s3.1,2.4,5.2,2.4
			c1.7,0,3.2-0.5,4.3-1.6C779.1,1492.7,779.8,1491.1,780.1,1488.8z"/>
		<path d="M788.2,1467.6v-5.1h4.4v5.1H788.2z M788.2,1498.3v-25.9h4.4v25.9H788.2z"/>
		<path d="M816.2,1495.2c-1.6,1.4-3.2,2.4-4.7,2.9c-1.5,0.6-3.1,0.8-4.8,0.8c-2.8,0-5-0.7-6.6-2.1s-2.3-3.2-2.3-5.3
			c0-1.3,0.3-2.4,0.9-3.5c0.6-1.1,1.3-1.9,2.3-2.5s2-1.1,3.2-1.4c0.9-0.2,2.2-0.4,3.9-0.7c3.5-0.4,6.2-0.9,7.8-1.5c0-0.6,0-1,0-1.2
			c0-1.8-0.4-3.1-1.2-3.8c-1.1-1-2.8-1.5-5-1.5c-2.1,0-3.6,0.4-4.6,1.1s-1.7,2-2.2,3.8l-4.3-0.6c0.4-1.8,1-3.3,1.9-4.5
			c0.9-1.1,2.2-2,3.9-2.6s3.7-0.9,5.9-0.9s4,0.3,5.4,0.8s2.4,1.2,3,2c0.7,0.8,1.1,1.8,1.4,3c0.2,0.8,0.2,2.1,0.2,4.1v5.9
			c0,4.1,0.1,6.7,0.3,7.8s0.6,2.1,1.1,3.1h-4.6C816.7,1497.4,816.4,1496.4,816.2,1495.2z M815.9,1485.3c-1.6,0.7-4,1.2-7.2,1.7
			c-1.8,0.3-3.1,0.6-3.8,0.9s-1.3,0.8-1.7,1.4s-0.6,1.3-0.6,2.1c0,1.2,0.4,2.2,1.3,2.9s2.2,1.2,3.9,1.2s3.2-0.4,4.5-1.1
			s2.3-1.8,2.9-3c0.5-1,0.7-2.5,0.7-4.4L815.9,1485.3L815.9,1485.3z"/>
		<path d="M857.9,1495.2c-1.6,1.4-3.2,2.4-4.7,2.9c-1.5,0.6-3.1,0.8-4.8,0.8c-2.8,0-5-0.7-6.6-2.1s-2.3-3.2-2.3-5.3
			c0-1.3,0.3-2.4,0.9-3.5c0.6-1.1,1.3-1.9,2.3-2.5s2-1.1,3.2-1.4c0.9-0.2,2.2-0.4,3.9-0.7c3.5-0.4,6.2-0.9,7.8-1.5c0-0.6,0-1,0-1.2
			c0-1.8-0.4-3.1-1.2-3.8c-1.1-1-2.8-1.5-5-1.5c-2.1,0-3.6,0.4-4.6,1.1s-1.7,2-2.2,3.8l-4.3-0.6c0.4-1.8,1-3.3,1.9-4.5
			c0.9-1.1,2.2-2,3.9-2.6s3.7-0.9,5.9-0.9s4,0.3,5.4,0.8s2.4,1.2,3,2c0.7,0.8,1.1,1.8,1.4,3c0.2,0.8,0.2,2.1,0.2,4.1v5.9
			c0,4.1,0.1,6.7,0.3,7.8s0.6,2.1,1.1,3.1h-4.6C858.4,1497.4,858.1,1496.4,857.9,1495.2z M857.6,1485.3c-1.6,0.7-4,1.2-7.2,1.7
			c-1.8,0.3-3.1,0.6-3.8,0.9s-1.3,0.8-1.7,1.4s-0.6,1.3-0.6,2.1c0,1.2,0.4,2.2,1.3,2.9s2.2,1.2,3.9,1.2s3.2-0.4,4.5-1.1
			s2.3-1.8,2.9-3c0.5-1,0.7-2.5,0.7-4.4L857.6,1485.3L857.6,1485.3z"/>
		<path d="M872.9,1498.3h-4.1v-35.8h4.4v12.8c1.9-2.3,4.2-3.5,7.1-3.5c1.6,0,3.1,0.3,4.5,1c1.4,0.6,2.6,1.6,3.5,2.7
			c0.9,1.2,1.6,2.6,2.2,4.2c0.5,1.6,0.8,3.4,0.8,5.3c0,4.4-1.1,7.9-3.3,10.3s-4.8,3.6-7.9,3.6c-3.1,0-5.5-1.3-7.2-3.8V1498.3
			L872.9,1498.3z M872.8,1485.2c0,3.1,0.4,5.4,1.3,6.7c1.4,2.3,3.2,3.4,5.6,3.4c1.9,0,3.6-0.8,5-2.5s2.1-4.2,2.1-7.5
			c0-3.4-0.7-5.9-2-7.5s-3-2.4-4.9-2.4s-3.6,0.8-5,2.5C873.5,1479.6,872.8,1482,872.8,1485.2z"/>
		<path d="M913.5,1495.2c-1.6,1.4-3.2,2.4-4.7,2.9c-1.5,0.6-3.1,0.8-4.8,0.8c-2.8,0-5-0.7-6.6-2.1s-2.3-3.2-2.3-5.3
			c0-1.3,0.3-2.4,0.9-3.5c0.6-1.1,1.3-1.9,2.3-2.5s2-1.1,3.2-1.4c0.9-0.2,2.2-0.4,3.9-0.7c3.5-0.4,6.2-0.9,7.8-1.5c0-0.6,0-1,0-1.2
			c0-1.8-0.4-3.1-1.2-3.8c-1.1-1-2.8-1.5-5-1.5c-2.1,0-3.6,0.4-4.6,1.1s-1.7,2-2.2,3.8l-4.3-0.6c0.4-1.8,1-3.3,1.9-4.5
			c0.9-1.1,2.2-2,3.9-2.6s3.7-0.9,5.9-0.9s4,0.3,5.4,0.8s2.4,1.2,3,2c0.7,0.8,1.1,1.8,1.4,3c0.2,0.8,0.2,2.1,0.2,4.1v5.9
			c0,4.1,0.1,6.7,0.3,7.8s0.6,2.1,1.1,3.1h-4.6C914,1497.4,913.7,1496.4,913.5,1495.2z M913.2,1485.3c-1.6,0.7-4,1.2-7.2,1.7
			c-1.8,0.3-3.1,0.6-3.8,0.9s-1.3,0.8-1.7,1.4s-0.6,1.3-0.6,2.1c0,1.2,0.4,2.2,1.3,2.9s2.2,1.2,3.9,1.2s3.2-0.4,4.5-1.1
			s2.3-1.8,2.9-3c0.5-1,0.7-2.5,0.7-4.4L913.2,1485.3L913.2,1485.3z"/>
		<path d="M918.8,1508.4l0.8-3.7c0.9,0.2,1.6,0.3,2.1,0.3c0.9,0,1.6-0.3,2-0.9s0.7-2.1,0.7-4.5v-27.2h4.4v27.3
			c0,3.2-0.4,5.4-1.2,6.7c-1.1,1.6-2.8,2.4-5.3,2.4C921.1,1508.9,920,1508.7,918.8,1508.4z M924.4,1467.7v-5.1h4.4v5.1H924.4z"/>
		<path d="M933.9,1485.4c0-4.8,1.3-8.4,4-10.7c2.2-1.9,5-2.9,8.2-2.9c3.6,0,6.5,1.2,8.7,3.5s3.4,5.6,3.4,9.7c0,3.3-0.5,6-1.5,7.9
			s-2.5,3.4-4.4,4.5s-4,1.6-6.3,1.6c-3.6,0-6.6-1.2-8.8-3.5C935,1493.1,933.9,1489.8,933.9,1485.4z M938.4,1485.4
			c0,3.3,0.7,5.8,2.2,7.5s3.3,2.5,5.5,2.5s4-0.8,5.4-2.5c1.5-1.7,2.2-4.2,2.2-7.6c0-3.2-0.7-5.6-2.2-7.3s-3.3-2.5-5.4-2.5
			c-2.2,0-4,0.8-5.5,2.5C939.2,1479.6,938.4,1482.1,938.4,1485.4z"/>
	</g>
	<g class="st1">
		<path d="M227,907.4c17.5,14.1,43.1-11.6,44.6-26.8c0.3-0.1,0.8,18.2-12.8,27.3c-28.7,19.6-51.2-7.9-35.7-31.1
			c5.8-8.8,29.6-27.2,74.5-21.5c42.3,5.4,53.6,3,63.6,0.1c18.5-5.4,25.1-15.6,25.1-15.6c-14.7,26.2-60.9,24.6-84.7,20.4
			C226.1,846.8,209.1,892.8,227,907.4z M280.7,930.5c-10.3,27-23.5,44.6-32.5,50.3s-14.7,2-14.7,2s14.7-2.9,28.1-27.7
			c15.5-28.5,31.9-77.5,37.2-87c4.3-7.9,5.7-4.1,5.7-4.1C309.3,866.9,293.8,896.4,280.7,930.5z"/>
		<path d="M306,937.1c-2.2,10.5,3.5,14.5,9.5,12.1c10.1-3.9,19.6-26,26.6-25.8c-6.9,6.4-7.5,8.4-12.2,14.5c-6.3,8-12.8,15-20.5,14.1
			c-10.2-1.1-11.4-13.9-8.8-19.8c2.7-6.3,8.2-13.3,16.7-13.9c7.1-0.4,9.8,6.3,3,12c-4.1,3.4-10.1,5-14,5.7
			C306.3,936.3,306,936.9,306,937.1z M311.9,933.2c11-3.7,12.9-12,7.2-10.6c0,0-9,1.1-12.4,12C308,934.3,309.9,933.9,311.9,933.2z"
			/>
		<path d="M347.6,927.8c0.1,4.5-1.4,6.7-3.8,11.8c5.7-8.2,18.9-21.2,27.9-23.7c5.2-1.4,7.5,3.4,7.1,6.9c-0.7,5.3-15.8,26-17.7,33.6
			c-2.7,11.3,4.3,7.6,6.5,6c6.5-4.9,18.8-26.9,24.3-33.3c6.8-7.9,9.4-5.3,9.4-5.3c-10.7,2.6-23.8,37.2-35.7,42
			c-3.5,1.5-9,0.5-10.6-5.2c-3.1-11.4,17.5-37.8,18.2-41.7c0.7-4.5-12.5,3.5-21.7,14.1c-6.3,7.2-9.5,12.6-12.2,16.9
			c-0.5,1-3.7,1-5-1.4c-0.5-1-2.2-3.1,2.9-13.5c5.6-11.3,3.3-10.9,3.3-10.9C341.5,922.5,347.5,923.4,347.6,927.8z"/>
		<path d="M402.6,947.9c5.3-1.5,9.5-1.2,12.6,0.3c12.9-8.3,20.4-13.9,26.5-24.7c-1.4,8.7-11.7,17.3-24.9,25.8
			c5.8,3.9,7.2,12.6,5.8,19.7c-2.6,12.8-10.2,23.7-24.3,32.5c-10.6,6.7-24.9,8.3-30.3,4.5c-14.1-9.8,6.1-31.5,21.2-41.3
			c9.4-6.1,17-10.9,23.4-14.8c-2.3-1-5.3-1.4-9.2-0.4c-6.4,1.5-10.7,3.3-10.7,3.3S397.1,949.2,402.6,947.9z M390.8,965.8
			c-32.6,21.5-32.1,48.1-5.4,35.9c30.2-14,34.4-35.2,32.9-44.3c-0.4-2.4-1.5-5-3.8-6.7C407,955.6,398.7,960.5,390.8,965.8z
			 M415.8,921.7c0.7,0.4,1.5,1.1,1.9,2.3c2.3,6.9-5.8,17.5-15.5,22.8c-8.8,4.9-14.7,2.9-16-4.6c-2.2-12.1,12-21.5,18.5-23.2
			c2.9-0.8,5-1,6.8-1C415.8,918.1,417.1,920.4,415.8,921.7z M397.3,930.3c-7.1,7.5-8.6,16.6-3,16.2c5.7-0.4,11.8-4.6,17.3-11.3
			c4.3-5.4,4.1-11,2.9-13.2C412,922.1,404.1,923.3,397.3,930.3z"/>
		<path d="M443,915.9c6.1-0.1,11,3.5,11,13.2c0,2.9-0.7,6.8-1.8,10.6c1.9-0.8,3.9-2,6-3.7c8.2-6.5,10.1-13,14.3-12.6
			c-4.5,3.4-8.3,11.3-15.9,15.9c-1.5,1-3.1,1.6-4.9,2.2c-3,9.1-8.8,18.2-15.5,17.9c-9.5-0.3-10.2-12.8-5.7-21.6
			c0.5-1.1,1.1-2.2,1.6-3.1C426.6,924.2,435.5,916.1,443,915.9z M436.6,939.9c-1.4,2.4-2.4,4.9-3.1,7.3c-1.8,6.7,1.6,13.9,7.5,8.7
			c2.9-2.6,6.1-7.9,8.4-13.9C444.9,942.9,440.3,942.4,436.6,939.9z M441,923.4c3.7-0.5,4.1,3,3.8,5c0,0.1-3.9,4.3-7.2,9.8
			c3.1,2.4,7.6,3.4,12.5,2.2c2.9-8.2,3.7-17-1.1-20.9c-6.4-5.4-14,0.8-15.4,5.4c-0.7,2.6-0.7,5.2,0,7.3
			C437,926.7,439.9,923.6,441,923.4z"/>
		<path d="M518.2,923.6c4.9-1.1,7.6,1.8,2.4,11.6c-4.8,9.1,0.1,12.5,5.4,8.3c6.1-4.9,12.6-16,14.8-18.5c3.7-4.2,5.8-2.2,6.5,1.4
			c1.1,4.9-2.2,7.1-8.4,20.9c-5.7,12.5,1.6,14.3,9.1,5.6c12-14,15.1-27.9,23.8-29.2c-7.3,3.5-7.2,10.6-20.1,27.6
			c-3.5,4.6-10.2,12.6-17.3,6.8c-9-7.5,3.8-24.9,3.4-26.2c0,0-2.3,5.6-9.1,11.6c-7.2,6.4-13.6,3-15.5-1.2
			C511,937,516.5,931.4,518.2,923.6z"/>
		<path d="M576.5,927.8c0.1,4.5-1.4,6.7-3.8,11.8c5.7-8.2,18.9-21.2,27.9-23.7c5.2-1.4,7.5,3.4,7.1,6.9c-0.7,5.3-15.8,26-17.7,33.6
			c-2.7,11.3,4.3,7.6,6.5,6c6.5-4.9,18.8-26.9,24.3-33.3c6.8-7.9,9.4-5.3,9.4-5.3c-10.7,2.6-23.8,37.2-35.7,42
			c-3.5,1.5-9,0.5-10.6-5.2c-3.1-11.4,17.5-37.8,18.2-41.7c0.7-4.5-12.5,3.5-21.7,14.1c-6.3,7.2-9.5,12.6-12.2,16.9
			c-0.5,1-3.7,1-5-1.4c-0.5-1-2.2-3.1,2.9-13.5c5.6-11.3,3.3-10.9,3.3-10.9C570.4,922.5,576.4,923.4,576.5,927.8z"/>
		<path d="M645.5,955.6c7.7-11.4,17.3-30.9,23.9-32.4c-6.8,7.7-8.6,11.3-12.5,17.5c-7.5,12.1-11.6,20.3-15.9,19.6
			c-4.9-0.8-9.4-7.2-4.3-20.9c0.1-0.5,0.4-1.1,0.5-1.6c-5.6,6.8-10.9,13.3-16,7.5c-5.3-6-0.1-16.7,4.8-21.2
			c3.5-3.3,10.2-6.1,17.3-4.3c7.9,2,1.9,2,1.9,2s-10.1-2.2-17.3,9.4c-5.3,8.6-2.3,16.3,1.9,12.4c2.3-2.2,7.3-8.6,11.3-13.6
			c2-3.3,4.2-7.2,6.3-7.2c2-0.1,7.1,0.5,2.6,6.3C637.5,945,637.2,967.7,645.5,955.6z"/>
		<path d="M722.6,927.8c0.1,4.5-1.4,6.7-3.8,11.8c5.7-8.2,18.9-21.2,27.9-23.7c5.2-1.4,7.5,3.4,7.1,6.9c-0.7,5.3-15.8,26-17.7,33.6
			c-2.7,11.3,4.3,7.6,6.5,6c6.5-4.9,18.8-26.9,24.3-33.3c6.8-7.9,9.4-5.3,9.4-5.3c-10.7,2.6-23.8,37.2-35.7,42
			c-3.5,1.5-9,0.5-10.6-5.2c-3.1-11.4,17.5-37.8,18.2-41.7c0.7-4.5-12.5,3.5-21.7,14.1c-6.3,7.2-9.5,12.6-12.2,16.9
			c-0.5,1-3.7,1-5-1.4c-0.5-1-2.2-3.1,2.9-13.5c5.6-11.3,3.3-10.9,3.3-10.9C716.5,922.5,722.5,923.4,722.6,927.8z"/>
		<path d="M775.8,915.9c6.1-0.1,11,3.5,11,13.2c0,2.9-0.7,6.8-1.8,10.6c1.9-0.8,3.9-2,6-3.7c8.2-6.5,10.1-13,14.3-12.6
			c-4.5,3.4-8.3,11.3-15.9,15.9c-1.5,1-3.1,1.6-4.9,2.2c-3,9.1-8.8,18.2-15.5,17.9c-9.5-0.3-10.2-12.8-5.7-21.6
			c0.5-1.1,1.1-2.2,1.6-3.1C759.3,924.2,768.3,916.1,775.8,915.9z M769.4,939.9c-1.4,2.4-2.4,4.9-3.1,7.3c-1.8,6.7,1.6,13.9,7.5,8.7
			c2.9-2.6,6.1-7.9,8.4-13.9C777.7,942.9,773,942.4,769.4,939.9z M773.7,923.4c3.7-0.5,4.1,3,3.8,5c0,0.1-3.9,4.3-7.2,9.8
			c3.1,2.4,7.6,3.4,12.5,2.2c2.9-8.2,3.7-17-1.1-20.9c-6.4-5.4-14,0.8-15.4,5.4c-0.7,2.6-0.7,5.2,0,7.3
			C769.8,926.7,772.6,923.6,773.7,923.4z"/>
		<path d="M771.5,870.8c-3.4,2.3-6.3,6.8-2.6,10.5c6.5,6.5,25.3,5.8,47.6,3.5c5.7-10.6,8.8-13.5,8.8-13.5c1.4-2.2,5.8,2.7,4.5,5
			c-1.5,2.4-3,4.9-4.5,7.5c31-3.7,66.1-9.4,83.5-4.1c6.5,2,9,4.3,8.3,7.6c-0.3,1.8-2.2,2.9-3,1.1c-0.7-1.5,2.9-5-6.1-7.6
			c-17.9-5-52.7,0.8-83.6,4.5c-9,15.4-18.3,34.8-26.1,62.3c-5.6,19.7-0.5,28.7,8.4,17.4c10.1-12.6,19.7-39.8,30.4-41.6
			c-8.6,7.6-11.6,13.3-19.6,28.3c-11.3,21.2-17.7,22.4-22.2,18.8c-5.7-4.6-8.7-16.4,6.1-53.1c5.7-14,10.5-24.1,14.1-31
			c-22.4,2.3-41.3,2.7-48.1-4.5c-3.4-3.7-2-10.1,2.4-13C771.4,867.8,775.1,868.5,771.5,870.8z"/>
		<path d="M846.4,939.6c-6.3,8.3-11.1,13.5-16.4,11.8c-8.4-2.7-1.4-23.8,4.6-27.7c2.7-1.4,4.1,0.1,3.7,2.3
			c-0.5,3.4-4.2,8.4-5.7,14.4c-1.1,4.5-2.4,9.7,1,9.2c4.2-0.4,12-12.4,17.4-19c4.5-5.6,5.8-7.2,8.7-7.2
			C855.5,925.5,852.1,932.1,846.4,939.6z M839.9,918c-1.6-0.5-1.8-1.5-0.5-3.8c1.4-2.6,0.5-3.1,2.7-4.3c1.5-0.8,6.4-0.3,4.8,3.1
			C845.1,916.6,841.8,918.5,839.9,918z"/>
		<path d="M855.5,934c-3.5,4.8-6.1,10.6-4.5,17.4c0.7,3.3,5.7,5.6,11.6,1.8c11.3-7.3,21.5-25.4,30.2-29.8
			c-6.3,5.2-12.9,16-22.7,25.6c-9,8.7-15.6,10.9-21.2,6.3c-6.5-5.4-4.3-18.8,1.1-25.4c6.3-7.7,13.9-11.8,20.9-9.8
			c7.5,2,4.8,8.3,2.6,11.4c-2.2,3.1-5.3,6-8.3,3.5s1.1-5,1.9-4.8c0.8,0.3,3.5,0,5.4-2.2c2.6-2.9,0.4-5.2-2.9-4.6
			C867.6,923.7,861.9,925.5,855.5,934z"/>
		<path d="M901.6,939.6c-6.3,8.3-11.1,13.5-16.4,11.8c-8.4-2.7-1.4-23.8,4.6-27.7c2.7-1.4,4.1,0.1,3.7,2.3
			c-0.5,3.4-4.2,8.4-5.7,14.4c-1.1,4.5-2.4,9.7,1,9.2c4.2-0.4,12-12.4,17.4-19c4.5-5.6,5.8-7.2,8.7-7.2
			C910.7,925.5,907.3,932.1,901.6,939.6z M895.1,918c-1.6-0.5-1.8-1.5-0.5-3.8c1.4-2.6,0.5-3.1,2.7-4.3c1.5-0.8,6.4-0.3,4.8,3.1
			C900.3,916.6,897,918.5,895.1,918z"/>
		<path d="M930.6,955.6c7.7-11.4,17.3-30.9,23.9-32.4c-6.8,7.7-8.6,11.3-12.5,17.5c-7.5,12.1-11.6,20.3-15.9,19.6
			c-4.9-0.8-9.4-7.2-4.3-20.9c0.1-0.5,0.4-1.1,0.5-1.6c-5.6,6.8-10.9,13.3-16,7.5c-5.3-6-0.1-16.7,4.8-21.2
			c3.5-3.3,10.2-6.1,17.3-4.3c7.9,2,1.9,2,1.9,2s-10.1-2.2-17.3,9.4c-5.3,8.6-2.3,16.3,1.9,12.4c2.3-2.2,7.3-8.6,11.3-13.6
			c2-3.3,4.2-7.2,6.3-7.2c2-0.1,7.1,0.5,2.6,6.3C922.5,945,922.3,967.7,930.6,955.6z"/>
		<path d="M962.8,950.1c-1.8,1.8-4.3,1.2-4.8-1c-0.4-2.3,0.1-4.3,2.7-4.3C963.9,944.8,964.5,948.3,962.8,950.1z"/>
		<path d="M984.8,950.1c-1.8,1.8-4.3,1.2-4.8-1c-0.4-2.3,0.1-4.3,2.7-4.3C985.9,944.8,986.6,948.3,984.8,950.1z"/>
		<path d="M1006.8,950.1c-1.8,1.8-4.3,1.2-4.8-1c-0.4-2.3,0.1-4.3,2.7-4.3C1007.9,944.8,1008.6,948.3,1006.8,950.1z"/>
		<path d="M1028.8,950.1c-1.8,1.8-4.3,1.2-4.8-1c-0.4-2.3,0.1-4.3,2.7-4.3C1029.9,944.8,1030.6,948.3,1028.8,950.1z"/>
	</g>
</g>
<g>
	<path class="st2" d="M516.5,1090c69.7,0,139.3,0,209,0c0,95,0,190,0,285.1c-69.7,0-139.3,0-209,0C516.5,1280,516.5,1185,516.5,1090
		z M611.7,1205.4c0-0.8,0-1.5,0-2.2c0-13.4,0-26.8,0-40.2c0-4.2-1.2-7.9-3.8-11.2c-4.4-5.3-10-7.8-16.8-6.4
		c-9,1.8-14.3,8.7-14.3,17.9c0,21.2,0,42.4,0,63.6c0,1.2-0.3,1.9-1.3,2.6c-3.7,2.3-7.3,4.8-10.9,7.2c-11,7.6-16.3,18-15,31.3
		c0.7,7.2,3.2,13.9,5.8,20.6c6.7,17.3,16.5,32.6,29.6,45.9c0.5,0.6,0.9,1.5,0.9,2.3c0.1,5.7,0,11.3,0,17c0,3.4,1.4,4.8,4.8,4.8
		c8,0,16,0,24,0c18.8,0,37.6,0,56.4,0c3.5,0,4.8-1.3,4.8-4.7c0-5.8,0-11.6,0-17.3c0-0.9,0.3-2,0.8-2.8c11-17.5,16.9-36.5,17.4-57.2
		c0.3-11.6,0.1-23.2,0.1-34.8c0-2.3,0.1-4.6-0.3-6.9c-1.7-9.4-10.4-15.5-19.8-13.8c-2.7,0.5-5.3,1.7-8.1,2.6
		c-1.8-5.2-5.4-9.3-11.1-11.2c-5.7-1.9-11.2-0.9-16.1,2.4C632.2,1202.6,625.1,1200,611.7,1205.4z M549.3,1109.5
		c-1.7,0.2-2.9,1-3.5,2.4c-0.7,1.5-0.5,3,0.7,4.2c6.8,6.9,13.7,13.7,20.6,20.5c1.7,1.7,3.9,1.6,5.4,0c1.5-1.5,1.4-3.8-0.3-5.4
		c-6.7-6.7-13.5-13.5-20.2-20.1C551.2,1110.3,550.2,1110,549.3,1109.5z M640.1,1109.5c-0.9,0.4-1.9,0.7-2.6,1.4
		c-6.9,6.8-13.8,13.6-20.6,20.5c-1,1.1-1.5,2.3-0.9,3.8c1.1,2.8,4.1,3.3,6.4,1.1c4.3-4.3,8.7-8.6,13-12.9c2.5-2.4,4.9-4.9,7.4-7.4
		c1.2-1.2,1.4-2.7,0.8-4.2C643,1110.5,641.8,1109.8,640.1,1109.5z M598.3,1115.2c0-2.9,0-5.8,0-8.7c0-2.4-1.5-4-3.6-4
		c-2.1-0.1-3.8,1.7-3.8,4c0,5.8,0,11.7,0,17.5c0,2.4,1.7,4,3.8,4s3.6-1.6,3.6-4C598.3,1121.1,598.3,1118.2,598.3,1115.2z
		 M548.8,1162.4c2.9,0,5.8,0,8.7,0c2.4,0,4-1.4,4.1-3.5c0.1-2.2-1.5-3.9-3.9-3.9c-5.9-0.1-11.8-0.1-17.6,0c-2.4,0-4.1,1.8-4,3.9
		s1.7,3.5,4.1,3.5C543,1162.5,545.9,1162.4,548.8,1162.4z M640.3,1162.4c3,0,6.1,0,9.1,0c2.2,0,3.7-1.4,3.8-3.4
		c0.1-2.1-1.3-3.9-3.5-3.9c-6.1-0.1-12.2-0.1-18.3,0c-2.2,0-3.8,1.9-3.7,3.8c0.1,2.1,1.6,3.5,3.9,3.5
		C634.5,1162.5,637.4,1162.4,640.3,1162.4z"/>
	<path d="M611.7,1205.4c13.4-5.4,20.4-2.9,27,9.7c5-3.4,10.4-4.4,16.1-2.4c5.7,1.9,9.3,6,11.1,11.2c2.8-0.9,5.4-2.1,8.1-2.6
		c9.3-1.7,18,4.4,19.8,13.8c0.4,2.2,0.3,4.6,0.3,6.9c0,11.6,0.2,23.2-0.1,34.8c-0.5,20.6-6.4,39.7-17.4,57.2
		c-0.5,0.8-0.8,1.9-0.8,2.8c-0.1,5.8,0,11.6,0,17.3c0,3.4-1.4,4.7-4.8,4.7c-18.8,0-37.6,0-56.4,0c-8,0-16,0-24,0
		c-3.4,0-4.8-1.4-4.8-4.8c0-5.7,0-11.3,0-17c0-0.8-0.4-1.8-0.9-2.3c-13-13.2-22.9-28.5-29.6-45.9c-2.6-6.7-5.1-13.5-5.8-20.6
		c-1.3-13.3,3.9-23.8,15-31.3c3.6-2.5,7.2-4.9,10.9-7.2c1-0.7,1.3-1.4,1.3-2.6c0-21.2,0-42.4,0-63.6c0-9.2,5.3-16.1,14.3-17.9
		c6.8-1.4,12.4,1.1,16.8,6.4c2.7,3.2,3.8,7,3.8,11.2c0,13.4,0,26.8,0,40.2C611.7,1203.9,611.7,1204.6,611.7,1205.4z M576.7,1237.6
		c-3.4,2.3-6.7,4.3-9.7,6.5c-6.4,4.8-9.8,11.2-10.3,19.2c-0.3,5,1.2,9.6,2.7,14.3c6.2,20.5,17,38.2,32.3,53.2c1.2,1.2,1.7,2.4,1.7,4
		c0,4.8,0.1,9.7-0.1,14.5c0,1.7,0.4,2.2,2.1,2.2c21.7-0.1,43.4,0,65.1,0c2.6,0,5.1,0,7.8,0c0-5.6-0.1-10.9,0.1-16.2
		c0-1.4,0.5-2.9,1.2-4.1c10.3-15.9,16.2-33.3,16.8-52.2c0.5-13.6,0.3-27.1,0.2-40.7c0-6-4.9-9.6-8.8-9.8
		c-6.9-0.4-11.2,3.9-11.2,10.8c0,4.2,0,8.4,0,12.6c0,2.5-1.7,4-4.1,3.8c-2-0.2-3.3-1.7-3.3-4.1c0-7.3,0-14.6,0-21.9
		c0-1.1-0.1-2.1-0.4-3.1c-1.2-4.7-5.7-7.7-10.7-7.3c-4.6,0.4-8.4,4.3-8.8,9c-0.1,1.6-0.1,3.2-0.1,4.9c0,6.1,0,12.1,0,18.2
		c0,2.9-1.6,4.5-4.1,4.4c-2.1-0.2-3.4-1.7-3.4-4.4c0-10.2,0-20.3,0-30.4c0-2.2-0.4-4.3-1.6-6.2c-2.6-3.9-7-5.3-11.7-3.9
		c-3.8,1.2-6.6,5.1-6.7,9.5c0,9.7,0,19.3,0,28.9c0,1.1,0.1,2.2-0.1,3.4c-0.2,1.9-1.8,3.2-3.7,3.2c-2,0-3.5-1.4-3.7-3.4
		c0-0.5,0-1,0-1.5c0-20.8,0-41.5,0-62.2c0-8.5-0.1-17.1,0-25.6c0.1-6.5-5.3-10.9-10.8-10.3c-5.4,0.5-9.3,4.8-9.3,10.5
		c0,23.8,0,47.7,0,71.5c0,11.7,0,23.3,0,35c0,1-0.2,2-0.7,2.8c-0.8,1.3-2.6,1.8-4.2,1.3c-1.5-0.5-2.5-1.9-2.5-3.8
		c0-6.7,0-13.5,0-20.2C576.7,1245.8,576.7,1241.9,576.7,1237.6z"/>
	<path d="M549.3,1109.5c0.9,0.5,1.9,0.8,2.6,1.5c6.8,6.7,13.5,13.4,20.2,20.1c1.6,1.6,1.7,3.9,0.3,5.4c-1.5,1.6-3.7,1.6-5.4,0
		c-6.9-6.8-13.7-13.7-20.6-20.5c-1.2-1.2-1.4-2.6-0.7-4.2C546.4,1110.4,547.5,1109.7,549.3,1109.5z"/>
	<path d="M640.1,1109.5c1.7,0.2,2.9,0.9,3.5,2.4s0.5,3-0.8,4.2c-2.5,2.5-4.9,4.9-7.4,7.4c-4.3,4.3-8.6,8.6-13,12.9
		c-2.2,2.2-5.3,1.7-6.4-1.1c-0.6-1.5-0.2-2.8,0.9-3.8c6.8-6.9,13.7-13.7,20.6-20.5C638.2,1110.2,639.2,1110,640.1,1109.5z"/>
	<path d="M598.3,1115.2c0,2.9,0,5.8,0,8.7c0,2.4-1.5,4-3.6,4c-2.2,0-3.8-1.6-3.8-4c0-5.8,0-11.7,0-17.5c0-2.4,1.7-4.1,3.8-4
		s3.6,1.6,3.6,4C598.3,1109.4,598.3,1112.3,598.3,1115.2z"/>
	<path d="M548.8,1162.4c-2.9,0-5.8,0-8.7,0c-2.4,0-4-1.4-4.1-3.5s1.6-3.8,4-3.9c5.9-0.1,11.8-0.1,17.6,0c2.4,0,4,1.7,3.9,3.9
		c-0.1,2.1-1.6,3.5-4.1,3.5C554.7,1162.5,551.8,1162.4,548.8,1162.4z"/>
	<path d="M640.3,1162.4c-2.9,0-5.8,0-8.8,0c-2.3,0-3.8-1.4-3.9-3.5c-0.1-2,1.5-3.8,3.7-3.8c6.1-0.1,12.2-0.1,18.3,0
		c2.2,0,3.6,1.8,3.5,3.9s-1.5,3.4-3.8,3.4C646.4,1162.5,643.3,1162.4,640.3,1162.4z"/>
	<path class="st2" d="M576.7,1237.6c0,4.3,0,8.2,0,12.1c0,6.7,0,13.5,0,20.2c0,1.9,1,3.3,2.5,3.8c1.6,0.5,3.4,0.1,4.2-1.3
		c0.5-0.8,0.7-1.9,0.7-2.8c0-11.7,0-23.3,0-35c0-23.8,0-47.7,0-71.5c0-5.7,3.9-10,9.3-10.5c5.5-0.5,10.9,3.8,10.8,10.3
		c-0.1,8.5,0,17.1,0,25.6c0,20.8,0,41.5,0,62.2c0,0.5,0,1,0,1.5c0.2,2,1.7,3.4,3.7,3.4c1.9,0,3.5-1.3,3.7-3.2
		c0.1-1.1,0.1-2.2,0.1-3.4c0-9.7,0-19.3,0-28.9c0-4.4,2.8-8.3,6.7-9.5c4.7-1.4,9.1,0.1,11.7,3.9c1.3,1.9,1.7,4,1.6,6.2
		c0,10.2,0,20.3,0,30.4c0,2.7,1.3,4.2,3.4,4.4c2.5,0.2,4.1-1.5,4.1-4.4c0-6.1,0-12.1,0-18.2c0-1.6,0-3.3,0.1-4.9
		c0.3-4.7,4.1-8.5,8.8-9c5-0.5,9.5,2.6,10.7,7.3c0.3,1,0.4,2.1,0.4,3.1c0,7.3,0,14.6,0,21.9c0,2.4,1.3,3.9,3.3,4.1
		c2.4,0.2,4.1-1.4,4.1-3.8c0-4.2,0-8.4,0-12.6c0-6.9,4.3-11.2,11.2-10.8c4,0.2,8.8,3.9,8.8,9.8c0.1,13.6,0.2,27.2-0.2,40.7
		c-0.6,18.9-6.6,36.3-16.8,52.2c-0.7,1.2-1.2,2.7-1.2,4.1c-0.1,5.3-0.1,10.6-0.1,16.2c-2.7,0-5.3,0-7.8,0c-21.7,0-43.4,0-65.1,0
		c-1.7,0-2.2-0.5-2.1-2.2c0.1-4.8,0-9.7,0.1-14.5c0-1.6-0.5-2.9-1.7-4c-15.2-15-26-32.7-32.3-53.2c-1.4-4.7-3-9.3-2.7-14.3
		c0.5-7.9,3.9-14.4,10.3-19.2C570.1,1241.9,573.3,1239.9,576.7,1237.6z"/>
</g>
<g class="st4">
	<path d="M286,1498.3v-35.8h4.7v14.7h18.6v-14.7h4.7v35.8h-4.7v-16.9h-18.6v16.9H286z"/>
	<path d="M338.3,1495.2c-1.6,1.4-3.2,2.4-4.7,2.9c-1.5,0.6-3.1,0.8-4.9,0.8c-2.9,0-5-0.7-6.6-2.1s-2.3-3.2-2.3-5.3
		c0-1.3,0.3-2.4,0.9-3.5s1.3-1.9,2.3-2.5c0.9-0.6,2-1.1,3.2-1.4c0.9-0.2,2.2-0.4,3.9-0.7c3.5-0.4,6.2-0.9,7.8-1.5c0-0.6,0-1,0-1.2
		c0-1.8-0.4-3.1-1.2-3.8c-1.1-1-2.8-1.5-5-1.5c-2.1,0-3.6,0.4-4.6,1.1s-1.7,2-2.2,3.8l-4.3-0.6c0.4-1.8,1-3.3,1.9-4.5
		c0.9-1.1,2.2-2,3.9-2.6s3.6-0.9,5.9-0.9c2.2,0,4,0.3,5.4,0.8s2.4,1.2,3,2s1.1,1.8,1.4,3c0.1,0.8,0.2,2.1,0.2,4.1v5.9
		c0,4.1,0.1,6.7,0.3,7.8s0.6,2.1,1.1,3.1h-4.6C338.7,1497.4,338.4,1496.4,338.3,1495.2z M337.9,1485.3c-1.6,0.7-4,1.2-7.2,1.7
		c-1.8,0.3-3.1,0.6-3.8,0.9s-1.3,0.8-1.7,1.4c-0.4,0.6-0.6,1.3-0.6,2.1c0,1.2,0.4,2.2,1.3,2.9c0.9,0.8,2.2,1.2,3.9,1.2
		c1.7,0,3.2-0.4,4.5-1.1s2.3-1.8,2.9-3c0.5-1,0.7-2.5,0.7-4.4L337.9,1485.3L337.9,1485.3z"/>
	<path d="M346.9,1498.3v-3.6l16.5-18.9c-1.9,0.1-3.5,0.2-5,0.2h-10.6v-3.6H369v2.9l-14,16.5l-2.7,3c2-0.2,3.8-0.2,5.5-0.2h12v3.8
		L346.9,1498.3L346.9,1498.3z"/>
	<path d="M405,1488.8l4.3,0.6c-0.5,3-1.7,5.3-3.6,7c-2,1.7-4.3,2.5-7.2,2.5c-3.5,0-6.4-1.2-8.6-3.5s-3.2-5.6-3.2-10
		c0-2.8,0.5-5.2,1.4-7.3s2.3-3.7,4.2-4.7c1.9-1.1,4-1.6,6.2-1.6c2.8,0,5.1,0.7,6.9,2.1s2.9,3.4,3.4,6.1l-4.3,0.7
		c-0.4-1.7-1.1-3.1-2.2-3.9s-2.3-1.3-3.8-1.3c-2.2,0-4,0.8-5.4,2.4s-2.1,4.1-2.1,7.5c0,3.5,0.7,6,2,7.6s3.1,2.4,5.2,2.4
		c1.7,0,3.2-0.5,4.3-1.6C403.9,1492.7,404.7,1491.1,405,1488.8z"/>
	<path d="M413,1498.3v-35.8h4.4v35.8H413z"/>
	<path d="M424.2,1467.6v-5.1h4.4v5.1H424.2z M424.2,1498.3v-25.9h4.4v25.9H424.2z"/>
	<path d="M452.2,1488.8l4.3,0.6c-0.5,3-1.7,5.3-3.6,7c-2,1.7-4.3,2.5-7.2,2.5c-3.5,0-6.4-1.2-8.6-3.5s-3.2-5.6-3.2-10
		c0-2.8,0.5-5.2,1.4-7.3s2.3-3.7,4.2-4.7c1.9-1.1,4-1.6,6.2-1.6c2.8,0,5.1,0.7,6.9,2.1s2.9,3.4,3.4,6.1l-4.3,0.7
		c-0.4-1.7-1.1-3.1-2.2-3.9s-2.3-1.3-3.8-1.3c-2.2,0-4,0.8-5.4,2.4s-2.1,4.1-2.1,7.5c0,3.5,0.7,6,2,7.6s3.1,2.4,5.2,2.4
		c1.7,0,3.2-0.5,4.3-1.6C451.2,1492.7,451.9,1491.1,452.2,1488.8z"/>
	<path d="M460.3,1498.3v-35.8h4.4v20.4l10.4-10.6h5.7l-9.9,9.6l10.9,16.3h-5.4l-8.6-13.3l-3.1,3v10.3L460.3,1498.3L460.3,1498.3z"/>
	<path d="M499,1508.3l-0.5-4.1c1,0.3,1.8,0.4,2.5,0.4c1,0,1.8-0.2,2.3-0.5c0.6-0.3,1.1-0.8,1.4-1.4c0.3-0.4,0.7-1.5,1.3-3.3
		c0.1-0.2,0.2-0.6,0.4-1.1l-9.8-26h4.7l5.4,15c0.7,1.9,1.3,3.9,1.9,6c0.5-2,1.1-4,1.8-5.9l5.5-15.1h4.4l-9.9,26.4
		c-1.1,2.8-1.9,4.8-2.5,5.9c-0.8,1.4-1.7,2.5-2.7,3.2s-2.2,1-3.6,1C501,1508.9,500,1508.7,499,1508.3z"/>
	<path d="M554.9,1498.3v-3.3c-1.6,2.6-4.1,3.9-7.2,3.9c-2.1,0-4-0.6-5.7-1.7s-3.1-2.7-4-4.8s-1.4-4.4-1.4-7s0.4-4.9,1.3-7
		c0.9-2.1,2.2-3.7,3.9-4.8c1.7-1.1,3.7-1.7,5.8-1.7c1.6,0,3,0.3,4.2,1s2.2,1.5,3,2.6v-12.8h4.4v35.8L554.9,1498.3L554.9,1498.3z
		 M541,1485.4c0,3.3,0.7,5.8,2.1,7.4c1.4,1.6,3,2.5,5,2.5c1.9,0,3.5-0.8,4.9-2.4c1.3-1.6,2-4,2-7.2c0-3.6-0.7-6.2-2-7.8
		s-3-2.5-5-2.5s-3.6,0.8-4.9,2.4C541.7,1479.5,541,1482,541,1485.4z"/>
	<path d="M583.6,1490l4.5,0.6c-0.7,2.7-2,4.7-4,6.2c-1.9,1.5-4.4,2.2-7.4,2.2c-3.8,0-6.8-1.2-9-3.5s-3.3-5.6-3.3-9.8
		c0-4.4,1.1-7.8,3.4-10.2s5.2-3.6,8.7-3.6s6.3,1.2,8.5,3.5s3.3,5.7,3.3,10c0,0.3,0,0.7,0,1.2H569c0.2,2.8,1,5,2.4,6.5
		s3.2,2.3,5.4,2.3c1.6,0,3-0.4,4.1-1.3C582,1493.2,583,1491.9,583.6,1490z M569.2,1482.9h14.5c-0.2-2.2-0.8-3.8-1.7-4.9
		c-1.4-1.7-3.2-2.5-5.4-2.5c-2,0-3.7,0.7-5.1,2C570.1,1478.8,569.3,1480.6,569.2,1482.9z"/>
	<path d="M591.9,1490.6l4.3-0.7c0.2,1.7,0.9,3.1,2,4s2.7,1.4,4.7,1.4s3.5-0.4,4.5-1.2c1-0.8,1.5-1.8,1.5-2.9c0-1-0.4-1.8-1.3-2.3
		c-0.6-0.4-2.1-0.9-4.5-1.5c-3.2-0.8-5.5-1.5-6.7-2.1s-2.2-1.4-2.8-2.5s-1-2.2-1-3.5c0-1.2,0.3-2.2,0.8-3.2s1.2-1.8,2.2-2.4
		c0.7-0.5,1.6-0.9,2.8-1.3s2.5-0.5,3.8-0.5c2,0,3.8,0.3,5.4,0.9s2.7,1.4,3.4,2.4s1.2,2.3,1.5,4l-4.3,0.6c-0.2-1.3-0.8-2.4-1.7-3.1
		c-0.9-0.8-2.3-1.1-4-1.1c-2,0-3.5,0.3-4.3,1s-1.3,1.4-1.3,2.3c0,0.6,0.2,1.1,0.5,1.5c0.4,0.5,0.9,0.9,1.7,1.2
		c0.4,0.2,1.7,0.5,3.9,1.1c3.1,0.8,5.3,1.5,6.5,2s2.2,1.3,2.9,2.3s1,2.3,1,3.8s-0.4,2.8-1.3,4.1c-0.8,1.3-2.1,2.3-3.7,3
		s-3.4,1.1-5.5,1.1c-3.4,0-5.9-0.7-7.7-2.1C593.5,1495.4,592.4,1493.4,591.9,1490.6z"/>
	<path d="M618.6,1498.3v-35.8h4.4v35.8H618.6z"/>
	<path d="M629.8,1467.6v-5.1h4.4v5.1H629.8z M629.8,1498.3v-25.9h4.4v25.9H629.8z"/>
	<path d="M638.6,1498.3v-3.6l16.5-18.9c-1.9,0.1-3.5,0.2-5,0.2h-10.6v-3.6h21.2v2.9l-14,16.5l-2.7,3c2-0.2,3.8-0.2,5.5-0.2h12v3.8
		L638.6,1498.3L638.6,1498.3z"/>
	<path d="M682.8,1495.2c-1.6,1.4-3.2,2.4-4.7,2.9s-3.1,0.8-4.8,0.8c-2.8,0-5-0.7-6.6-2.1s-2.3-3.2-2.3-5.3c0-1.3,0.3-2.4,0.9-3.5
		c0.6-1.1,1.3-1.9,2.3-2.5c0.9-0.6,2-1.1,3.2-1.4c0.9-0.2,2.2-0.4,3.9-0.7c3.5-0.4,6.2-0.9,7.8-1.5c0-0.6,0-1,0-1.2
		c0-1.8-0.4-3.1-1.2-3.8c-1.1-1-2.8-1.5-5-1.5c-2.1,0-3.6,0.4-4.6,1.1s-1.7,2-2.2,3.8l-4.3-0.6c0.4-1.8,1-3.3,1.9-4.5
		c0.9-1.1,2.2-2,3.9-2.6s3.7-0.9,5.9-0.9s4,0.3,5.4,0.8s2.4,1.2,3,2c0.7,0.8,1.1,1.8,1.4,3c0.2,0.8,0.2,2.1,0.2,4.1v5.9
		c0,4.1,0.1,6.7,0.3,7.8s0.6,2.1,1.1,3.1h-4.6C683.2,1497.4,682.9,1496.4,682.8,1495.2z M682.5,1485.3c-1.6,0.7-4,1.2-7.2,1.7
		c-1.8,0.3-3.1,0.6-3.8,0.9s-1.3,0.8-1.7,1.4s-0.6,1.3-0.6,2.1c0,1.2,0.4,2.2,1.3,2.9s2.2,1.2,3.9,1.2s3.2-0.4,4.5-1.1
		s2.3-1.8,2.9-3c0.5-1,0.7-2.5,0.7-4.4L682.5,1485.3L682.5,1485.3z"/>
	<path d="M707.6,1498.3v-35.8h4.4v12.8c2-2.4,4.6-3.6,7.8-3.6c1.9,0,3.6,0.4,5,1.1c1.4,0.8,2.4,1.8,3,3.1c0.6,1.3,0.9,3.3,0.9,5.8
		v16.4h-4.4v-16.4c0-2.2-0.5-3.8-1.4-4.8s-2.3-1.5-4-1.5c-1.3,0-2.5,0.3-3.7,1s-2,1.6-2.5,2.8s-0.7,2.8-0.7,4.8v14.2L707.6,1498.3
		L707.6,1498.3z"/>
	<path d="M752.3,1495.2c-1.6,1.4-3.2,2.4-4.7,2.9c-1.5,0.6-3.1,0.8-4.8,0.8c-2.8,0-5-0.7-6.6-2.1s-2.3-3.2-2.3-5.3
		c0-1.3,0.3-2.4,0.9-3.5c0.6-1.1,1.3-1.9,2.3-2.5s2-1.1,3.2-1.4c0.9-0.2,2.2-0.4,3.9-0.7c3.5-0.4,6.2-0.9,7.8-1.5c0-0.6,0-1,0-1.2
		c0-1.8-0.4-3.1-1.2-3.8c-1.1-1-2.8-1.5-5-1.5c-2.1,0-3.6,0.4-4.6,1.1s-1.7,2-2.2,3.8l-4.3-0.6c0.4-1.8,1-3.3,1.9-4.5
		c0.9-1.1,2.2-2,3.9-2.6s3.7-0.9,5.9-0.9s4,0.3,5.4,0.8s2.4,1.2,3,2c0.7,0.8,1.1,1.8,1.4,3c0.2,0.8,0.2,2.1,0.2,4.1v5.9
		c0,4.1,0.1,6.7,0.3,7.8s0.6,2.1,1.1,3.1h-4.6C752.7,1497.4,752.5,1496.4,752.3,1495.2z M752,1485.3c-1.6,0.7-4,1.2-7.2,1.7
		c-1.8,0.3-3.1,0.6-3.8,0.9s-1.3,0.8-1.7,1.4s-0.6,1.3-0.6,2.1c0,1.2,0.4,2.2,1.3,2.9s2.2,1.2,3.9,1.2s3.2-0.4,4.5-1.1
		s2.3-1.8,2.9-3c0.5-1,0.7-2.5,0.7-4.4L752,1485.3L752,1485.3z"/>
	<path d="M780.1,1488.8l4.3,0.6c-0.5,3-1.7,5.3-3.6,7c-2,1.7-4.3,2.5-7.2,2.5c-3.5,0-6.4-1.2-8.6-3.5s-3.2-5.6-3.2-10
		c0-2.8,0.5-5.2,1.4-7.3s2.3-3.7,4.2-4.7c1.9-1.1,4-1.6,6.2-1.6c2.8,0,5.1,0.7,6.9,2.1c1.8,1.4,2.9,3.4,3.4,6.1l-4.3,0.7
		c-0.4-1.7-1.1-3.1-2.2-3.9c-1-0.9-2.3-1.3-3.8-1.3c-2.2,0-4,0.8-5.4,2.4s-2.1,4.1-2.1,7.5c0,3.5,0.7,6,2,7.6s3.1,2.4,5.2,2.4
		c1.7,0,3.2-0.5,4.3-1.6C779.1,1492.7,779.8,1491.1,780.1,1488.8z"/>
	<path d="M788.2,1467.6v-5.1h4.4v5.1H788.2z M788.2,1498.3v-25.9h4.4v25.9H788.2z"/>
	<path d="M816.2,1495.2c-1.6,1.4-3.2,2.4-4.7,2.9c-1.5,0.6-3.1,0.8-4.8,0.8c-2.8,0-5-0.7-6.6-2.1s-2.3-3.2-2.3-5.3
		c0-1.3,0.3-2.4,0.9-3.5c0.6-1.1,1.3-1.9,2.3-2.5s2-1.1,3.2-1.4c0.9-0.2,2.2-0.4,3.9-0.7c3.5-0.4,6.2-0.9,7.8-1.5c0-0.6,0-1,0-1.2
		c0-1.8-0.4-3.1-1.2-3.8c-1.1-1-2.8-1.5-5-1.5c-2.1,0-3.6,0.4-4.6,1.1s-1.7,2-2.2,3.8l-4.3-0.6c0.4-1.8,1-3.3,1.9-4.5
		c0.9-1.1,2.2-2,3.9-2.6s3.7-0.9,5.9-0.9s4,0.3,5.4,0.8s2.4,1.2,3,2c0.7,0.8,1.1,1.8,1.4,3c0.2,0.8,0.2,2.1,0.2,4.1v5.9
		c0,4.1,0.1,6.7,0.3,7.8s0.6,2.1,1.1,3.1h-4.6C816.7,1497.4,816.4,1496.4,816.2,1495.2z M815.9,1485.3c-1.6,0.7-4,1.2-7.2,1.7
		c-1.8,0.3-3.1,0.6-3.8,0.9s-1.3,0.8-1.7,1.4s-0.6,1.3-0.6,2.1c0,1.2,0.4,2.2,1.3,2.9s2.2,1.2,3.9,1.2s3.2-0.4,4.5-1.1
		s2.3-1.8,2.9-3c0.5-1,0.7-2.5,0.7-4.4L815.9,1485.3L815.9,1485.3z"/>
	<path d="M857.9,1495.2c-1.6,1.4-3.2,2.4-4.7,2.9c-1.5,0.6-3.1,0.8-4.8,0.8c-2.8,0-5-0.7-6.6-2.1s-2.3-3.2-2.3-5.3
		c0-1.3,0.3-2.4,0.9-3.5c0.6-1.1,1.3-1.9,2.3-2.5s2-1.1,3.2-1.4c0.9-0.2,2.2-0.4,3.9-0.7c3.5-0.4,6.2-0.9,7.8-1.5c0-0.6,0-1,0-1.2
		c0-1.8-0.4-3.1-1.2-3.8c-1.1-1-2.8-1.5-5-1.5c-2.1,0-3.6,0.4-4.6,1.1s-1.7,2-2.2,3.8l-4.3-0.6c0.4-1.8,1-3.3,1.9-4.5
		c0.9-1.1,2.2-2,3.9-2.6s3.7-0.9,5.9-0.9s4,0.3,5.4,0.8s2.4,1.2,3,2c0.7,0.8,1.1,1.8,1.4,3c0.2,0.8,0.2,2.1,0.2,4.1v5.9
		c0,4.1,0.1,6.7,0.3,7.8s0.6,2.1,1.1,3.1h-4.6C858.4,1497.4,858.1,1496.4,857.9,1495.2z M857.6,1485.3c-1.6,0.7-4,1.2-7.2,1.7
		c-1.8,0.3-3.1,0.6-3.8,0.9s-1.3,0.8-1.7,1.4s-0.6,1.3-0.6,2.1c0,1.2,0.4,2.2,1.3,2.9s2.2,1.2,3.9,1.2s3.2-0.4,4.5-1.1
		s2.3-1.8,2.9-3c0.5-1,0.7-2.5,0.7-4.4L857.6,1485.3L857.6,1485.3z"/>
	<path d="M872.9,1498.3h-4.1v-35.8h4.4v12.8c1.9-2.3,4.2-3.5,7.1-3.5c1.6,0,3.1,0.3,4.5,1c1.4,0.6,2.6,1.6,3.5,2.7
		c0.9,1.2,1.6,2.6,2.2,4.2c0.5,1.6,0.8,3.4,0.8,5.3c0,4.4-1.1,7.9-3.3,10.3s-4.8,3.6-7.9,3.6c-3.1,0-5.5-1.3-7.2-3.8V1498.3
		L872.9,1498.3z M872.8,1485.2c0,3.1,0.4,5.4,1.3,6.7c1.4,2.3,3.2,3.4,5.6,3.4c1.9,0,3.6-0.8,5-2.5s2.1-4.2,2.1-7.5
		c0-3.4-0.7-5.9-2-7.5s-3-2.4-4.9-2.4s-3.6,0.8-5,2.5C873.5,1479.6,872.8,1482,872.8,1485.2z"/>
	<path d="M913.5,1495.2c-1.6,1.4-3.2,2.4-4.7,2.9c-1.5,0.6-3.1,0.8-4.8,0.8c-2.8,0-5-0.7-6.6-2.1s-2.3-3.2-2.3-5.3
		c0-1.3,0.3-2.4,0.9-3.5c0.6-1.1,1.3-1.9,2.3-2.5s2-1.1,3.2-1.4c0.9-0.2,2.2-0.4,3.9-0.7c3.5-0.4,6.2-0.9,7.8-1.5c0-0.6,0-1,0-1.2
		c0-1.8-0.4-3.1-1.2-3.8c-1.1-1-2.8-1.5-5-1.5c-2.1,0-3.6,0.4-4.6,1.1s-1.7,2-2.2,3.8l-4.3-0.6c0.4-1.8,1-3.3,1.9-4.5
		c0.9-1.1,2.2-2,3.9-2.6s3.7-0.9,5.9-0.9s4,0.3,5.4,0.8s2.4,1.2,3,2c0.7,0.8,1.1,1.8,1.4,3c0.2,0.8,0.2,2.1,0.2,4.1v5.9
		c0,4.1,0.1,6.7,0.3,7.8s0.6,2.1,1.1,3.1h-4.6C914,1497.4,913.7,1496.4,913.5,1495.2z M913.2,1485.3c-1.6,0.7-4,1.2-7.2,1.7
		c-1.8,0.3-3.1,0.6-3.8,0.9s-1.3,0.8-1.7,1.4s-0.6,1.3-0.6,2.1c0,1.2,0.4,2.2,1.3,2.9s2.2,1.2,3.9,1.2s3.2-0.4,4.5-1.1
		s2.3-1.8,2.9-3c0.5-1,0.7-2.5,0.7-4.4L913.2,1485.3L913.2,1485.3z"/>
	<path d="M918.8,1508.4l0.8-3.7c0.9,0.2,1.6,0.3,2.1,0.3c0.9,0,1.6-0.3,2-0.9s0.7-2.1,0.7-4.5v-27.2h4.4v27.3c0,3.2-0.4,5.4-1.2,6.7
		c-1.1,1.6-2.8,2.4-5.3,2.4C921.1,1508.9,920,1508.7,918.8,1508.4z M924.4,1467.7v-5.1h4.4v5.1H924.4z"/>
	<path d="M933.9,1485.4c0-4.8,1.3-8.4,4-10.7c2.2-1.9,5-2.9,8.2-2.9c3.6,0,6.5,1.2,8.7,3.5s3.4,5.6,3.4,9.7c0,3.3-0.5,6-1.5,7.9
		s-2.5,3.4-4.4,4.5s-4,1.6-6.3,1.6c-3.6,0-6.6-1.2-8.8-3.5C935,1493.1,933.9,1489.8,933.9,1485.4z M938.4,1485.4
		c0,3.3,0.7,5.8,2.2,7.5s3.3,2.5,5.5,2.5s4-0.8,5.4-2.5c1.5-1.7,2.2-4.2,2.2-7.6c0-3.2-0.7-5.6-2.2-7.3s-3.3-2.5-5.4-2.5
		c-2.2,0-4,0.8-5.5,2.5C939.2,1479.6,938.4,1482.1,938.4,1485.4z"/>
</g>
<g>
	<g>
		<path d="M235.9,697.6c31.3-16.5,52.2,5.4,49.1,36.8c-1.4,14-5.6,32-14.5,47.8c12.3-2.4,23.1-9.6,29.9-19.2
			c-5.5,11.8-17.5,18.9-30.9,20.9c-3.7,6.2-8.2,12.3-13.7,17.3c-19.3,18.2-47.1,21.2-54-0.7c-4.8-15.4,1.8-35.7,12.4-53.7
			C209.8,724.3,220.8,705.7,235.9,697.6z M217.5,757.6c-2.7,4.5-5.1,8.7-6.6,12.8c-5.8,15.5-6.8,37.4,6.2,42.9
			c10,4.2,33.4-1.8,50.1-29.1C247.8,786.2,226.2,777.7,217.5,757.6z M235.5,718.5c3.4-4.4,6.8-0.4,3.1,10.3
			c-0.3,0-11,12.4-19.5,25.7c2.3,7.8,7.2,15.7,17.3,21.4c10.7,6.2,21.7,8,31.6,6.6c3.2-5.6,6.2-12,8.7-19.5
			c15.4-45.3,0-64.5-13.1-67.4c-23.4-5.2-44.7,15.9-46.1,37.8c-0.1,2.4-0.3,5.1-0.3,8.2C223,732.9,229.3,724.8,235.5,718.5z"/>
		<path d="M302.9,764.2c-0.6,2-0.6,4.9,1.3,8c2.5,4.4,5.2,8,6.3,11.4c14.1-6.9,17.5-11,24.7-20.5c-3.1,9.6-13,16.5-24.3,21.9
			c2.1,6.6,1.8,12-2.4,18.6c-7.2,11.4-22.6,15.1-27.5,9c-6.8-8.5,3.9-17.6,19.6-24.7c2.3-1,4.1-2,5.9-2.8c-0.4-2.7-1.6-5.4-3.4-8.3
			c-6.8-10.6-5.6-11.8-5.5-14.2c0.3-4.5,5.6-9.2,5.6-9.2c3.1-2.3,3.9,2.3,3.2,4.9C305,760.2,303.5,762.3,302.9,764.2z M304.8,787.5
			c-13.1,5.6-24.7,13.1-23.7,20.3c0.7,4.9,4.9,6.5,10.2,3.5c5.4-3,16.8-12.3,15.7-24.5C306.2,787,305.5,787.2,304.8,787.5z"/>
		<path d="M396.2,779.8c-6.5,8.6-11.6,14-17.1,12.3c-8.7-2.8-1.4-24.7,4.8-28.8c2.8-1.4,4.2,0.1,3.8,2.4c-0.6,3.5-4.4,8.7-5.9,14.9
			c-1.1,4.7-2.5,10,1,9.6c4.4-0.4,12.4-12.8,18.1-19.7c4.7-5.8,6.1-7.5,9-7.5C405.6,765.2,402.1,772.1,396.2,779.8z M389.4,757.4
			c-1.7-0.6-1.8-1.6-0.6-3.9c1.4-2.7,0.6-3.2,2.8-4.5c1.6-0.8,6.6-0.3,4.9,3.2C394.7,756,391.4,758,389.4,757.4z"/>
		<path d="M414.6,767.6c0.1,4.7-1.4,6.9-3.9,12.3c5.9-8.5,19.6-22,28.9-24.5c5.4-1.4,7.8,3.5,7.3,7.2c-0.7,5.5-16.4,26.9-18.3,34.8
			c-2.8,11.7,4.5,7.9,6.8,6.2c6.8-5.1,19.5-27.9,25.2-34.6c7.1-8.2,9.7-5.5,9.7-5.5c-11.1,2.7-24.7,38.6-37.1,43.6
			c-3.7,1.6-9.3,0.6-11-5.4c-3.2-11.8,18.2-39.2,18.9-43.3c0.7-4.7-13,3.7-22.6,14.7c-6.5,7.5-9.9,13.1-12.7,17.5
			c-0.6,1-3.8,1-5.2-1.4c-0.6-1-2.3-3.2,3-14c5.8-11.7,3.4-11.3,3.4-11.3C408.3,762.1,414.5,763.1,414.6,767.6z"/>
		<path d="M473.2,770.1c-1.3,5.8-11.7,26.5-6.2,29.5c4.4,2.4,17.6-8.6,26.7-23.3c-4.9-2.5-6.9-7.6-5.9-12.3c1.7-7.6,12-7.5,13.1-2.5
			c0.4,2.3,0.6,5.1-2.5,10.9c-0.4,0.8-1.1,1.7-1.8,2.8c0.3,0.1,0.7,0.3,1,0.3c5.8,1.4,12.3,1.4,21.6-12.6
			c-4.7,14.2-15.8,16.8-23.6,14.1c-6.1,9.4-17.8,24-28.9,25.8c-15.5,2.5,1.7-39.8,1.7-39.8S474.9,762.6,473.2,770.1z M495.2,773.9
			c2.3-3.9,3-5.9,3.5-8.3c1.8-6.6-4.8-6.1-6.3-2c-1.1,3-0.7,8.2,2.5,10.7C494.9,774.2,495.2,774.1,495.2,773.9z"/>
		<path d="M530.1,779.8c-6.5,8.6-11.6,14-17.1,12.3c-8.7-2.8-1.4-24.7,4.8-28.8c2.8-1.4,4.2,0.1,3.8,2.4c-0.6,3.5-4.4,8.7-5.9,14.9
			c-1.1,4.7-2.5,10,1,9.6c4.4-0.4,12.4-12.8,18.1-19.7c4.7-5.8,6.1-7.5,9-7.5C539.6,765.2,536.1,772.1,530.1,779.8z M523.4,757.4
			c-1.7-0.6-1.8-1.6-0.6-3.9c1.4-2.7,0.6-3.2,2.8-4.5c1.6-0.8,6.6-0.3,4.9,3.2C528.7,756,525.3,758,523.4,757.4z"/>
		<path d="M508.7,708.5c-3.5,2.4-6.5,7.1-2.7,10.9c6.8,6.8,26.2,6.1,49.4,3.7c5.9-11,9.2-14,9.2-14c1.4-2.3,6.1,2.8,4.7,5.2
			c-1.6,2.5-3.1,5.1-4.7,7.8c32.2-3.8,68.5-9.7,86.6-4.2c6.8,2.1,9.3,4.5,8.6,7.9c-0.3,1.8-2.3,3-3.1,1.1c-0.7-1.6,3-5.2-6.3-7.9
			c-18.6-5.2-54.7,0.8-86.7,4.7c-9.3,15.9-19,36.1-27.1,64.6c-5.8,20.5-0.6,29.8,8.7,18.1c10.4-13.1,20.5-41.3,31.6-43.2
			c-8.9,7.9-12,13.8-20.3,29.3c-11.7,22-18.3,23.3-23,19.5c-5.9-4.8-9-17.1,6.3-55.1c5.9-14.5,10.9-25,14.7-32.2
			c-23.3,2.4-42.9,2.8-49.9-4.7c-3.5-3.8-2.1-10.4,2.5-13.5C508.6,705.4,512.4,706.1,508.7,708.5z"/>
		<path d="M593.5,796.5c8-11.8,17.9-32,24.8-33.6c-7.1,8-8.9,11.7-13,18.2c-7.8,12.6-12,21-16.5,20.3c-5.1-0.8-9.7-7.5-4.5-21.7
			c0.1-0.6,0.4-1.1,0.6-1.7c-5.8,7.1-11.3,13.8-16.6,7.8c-5.5-6.2-0.1-17.3,4.9-22c3.7-3.4,10.6-6.3,17.9-4.5c8.2,2.1,2,2.1,2,2.1
			s-10.4-2.3-17.9,9.7c-5.5,8.9-2.4,16.9,2,12.8c2.4-2.3,7.6-8.9,11.7-14.1c2.1-3.4,4.4-7.5,6.5-7.5c2.1-0.1,7.3,0.6,2.7,6.5
			C585.1,785.5,584.9,809,593.5,796.5z"/>
		<path d="M622.2,769.3c0.1,3-3.2,9.7-3.8,11c0.4,0,1.6-2,4.7-5.8c3.9-4.9,8-8.2,11.1-7.8c4.5,1.6,4.8,5.2,3,9.6
			c-1.8,4.4-3.8,12.4,0.4,7.2c3.4-4.1,17.8-23,23.7-25.8c4.8-2.3,10.3,1.3,7.3,10.4c-1,3.4-4.2,9.4-9.7,17.6
			c-8.2,12.1-8.2,24.4,0.7,17.2c13.7-10.9,19.3-40.3,32.3-39.9c-10.6,4.8-14.7,18.5-19.3,26.4c-8.7,15.1-16.1,19.9-21.3,16.2
			c-5.4-3.7-6.6-10-0.3-20.3c8.7-14.1,15.9-31.2,9.4-25.7c-9.2,7.8-19.6,22.8-22.3,25.7c-2.4,2.5-5.1,2.5-6.9,0.7
			c-1.6-1.7-2.4-5.2,1-13.7c3.1-7.6-1-3.9-4.4-1c-6.1,5.5-14,21-15.8,24c-3.1,4.9-7.5-1.3-5.6-6.3c0.3-0.8,10.3-23,9.2-25.5
			C617,762.6,622,762.3,622.2,769.3z"/>
		<path d="M691.5,755.3c6.3-0.1,11.4,3.7,11.4,13.7c0,3-0.7,7.1-1.8,11c2-0.8,4.1-2.1,6.2-3.8c8.5-6.8,10.4-13.5,14.8-13.1
			c-4.7,3.5-8.6,11.7-16.5,16.5c-1.6,1-3.2,1.7-5.1,2.3c-3.1,9.4-9.2,18.9-16.1,18.6c-9.9-0.3-10.6-13.3-5.9-22.4
			c0.6-1.1,1.1-2.3,1.7-3.2C674.4,763.9,683.7,755.4,691.5,755.3z M684.9,780.1c-1.4,2.5-2.5,5.1-3.2,7.6c-1.8,6.9,1.7,14.4,7.8,9
			c3-2.7,6.3-8.2,8.7-14.4C693.5,783.2,688.7,782.8,684.9,780.1z M689.4,763.1c3.8-0.6,4.2,3.1,3.9,5.2c0,0.1-4.1,4.5-7.5,10.2
			c3.2,2.5,7.9,3.5,13,2.3c3-8.5,3.8-17.6-1.1-21.7c-6.6-5.6-14.5,0.8-15.9,5.6c-0.7,2.7-0.7,5.4,0,7.6
			C685.3,766.4,688.2,763.2,689.4,763.1z"/>
		<path d="M722.8,764.2c-0.6,2-0.6,4.9,1.3,8c2.5,4.4,5.2,8,6.3,11.4c14.1-6.9,17.5-11,24.7-20.5c-3.1,9.6-13,16.5-24.3,21.9
			c2.1,6.6,1.8,12-2.4,18.6c-7.2,11.4-22.6,15.1-27.5,9c-6.8-8.5,3.9-17.6,19.6-24.7c2.3-1,4.1-2,5.9-2.8c-0.4-2.7-1.6-5.4-3.4-8.3
			c-6.8-10.6-5.6-11.8-5.5-14.2c0.3-4.5,5.6-9.2,5.6-9.2c3.1-2.3,3.9,2.3,3.2,4.9C724.9,760.2,723.4,762.3,722.8,764.2z
			 M724.6,787.5c-13.1,5.6-24.7,13.1-23.7,20.3c0.7,4.9,4.9,6.5,10.2,3.5c5.4-3,16.8-12.3,15.7-24.5
			C726,787,725.3,787.2,724.6,787.5z"/>
		<path d="M823.1,796.5c8-11.8,17.9-32,24.8-33.6c-7.1,8-8.9,11.7-13,18.2c-7.8,12.6-12,21-16.5,20.3c-5.1-0.8-9.7-7.5-4.5-21.7
			c0.1-0.6,0.4-1.1,0.6-1.7c-5.8,7.1-11.3,13.8-16.6,7.8c-5.5-6.2-0.1-17.3,4.9-22c3.7-3.4,10.6-6.3,17.9-4.5c8.2,2.1,2,2.1,2,2.1
			s-10.4-2.3-17.9,9.7c-5.5,8.9-2.4,16.9,2,12.8c2.4-2.3,7.6-8.9,11.7-14.1c2.1-3.4,4.4-7.5,6.5-7.5c2.1-0.1,7.3,0.6,2.7,6.5
			C814.8,785.5,814.5,809,823.1,796.5z"/>
		<path d="M838.4,802.5c-0.4,4.1,0.1,7.3,3.8,2.1c11-15.4,24.4-36.5,35.7-41.5c-7.8,7.2-17.6,18.5-25.7,30.3
			c-11,16.2-12.6,17.2-15.7,15.5c-5.8-3-3-19.7,0.6-31.2c4.2-13.7,15.4-41,27.9-59.1c6.1-8.7,11.3-15.5,16.6-19
			c4.2-3,9.6-4.1,12.4,0.1c6.2,9.3-28.6,49.2-39.1,58.7c-2,1.8-3.4,3.1-4.5,3.9C841.8,783.1,839.3,795.1,838.4,802.5z M856.8,748.9
			c-1.7,3.5-3.2,6.9-4.7,10c5.5-5.6,15.7-16.4,21.6-24c13.5-17.3,17.8-26.1,18.8-30c2.4-9.9-7.6,0.4-10.4,3.5
			C877.4,713.7,868.3,725.1,856.8,748.9z"/>
		<path d="M931.2,770.1c-1.3,5.8-11.7,26.5-6.2,29.5c4.4,2.4,17.6-8.6,26.7-23.3c-4.9-2.5-6.9-7.6-5.9-12.3c1.7-7.6,12-7.5,13.1-2.5
			c0.4,2.3,0.6,5.1-2.5,10.9c-0.4,0.8-1.1,1.7-1.8,2.8c0.3,0.1,0.7,0.3,1,0.3c5.8,1.4,12.3,1.4,21.6-12.6
			c-4.7,14.2-15.8,16.8-23.6,14.1c-6.1,9.4-17.8,24-28.9,25.8c-15.5,2.5,1.7-39.8,1.7-39.8S932.9,762.6,931.2,770.1z M953.3,773.9
			c2.3-3.9,3-5.9,3.5-8.3c1.8-6.6-4.8-6.1-6.3-2c-1.1,3-0.7,8.2,2.5,10.7C953,774.2,953.3,774.1,953.3,773.9z"/>
		<path d="M988.2,779.8c-6.5,8.6-11.6,14-17.1,12.3c-8.7-2.8-1.4-24.7,4.8-28.8c2.8-1.4,4.2,0.1,3.8,2.4c-0.6,3.5-4.4,8.7-5.9,14.9
			c-1.1,4.7-2.5,10,1,9.6c4.4-0.4,12.4-12.8,18.1-19.7c4.7-5.8,6.1-7.5,9-7.5C997.7,765.2,994.2,772.1,988.2,779.8z M981.5,757.4
			c-1.7-0.6-1.8-1.6-0.6-3.9c1.4-2.7,0.6-3.2,2.8-4.5c1.6-0.8,6.6-0.3,4.9,3.2C986.8,756,983.4,758,981.5,757.4z"/>
		<path d="M1018.3,796.5c8-11.8,17.9-32,24.8-33.6c-7.1,8-8.9,11.7-13,18.2c-7.8,12.6-12,21-16.5,20.3c-5.1-0.8-9.7-7.5-4.5-21.7
			c0.1-0.6,0.4-1.1,0.6-1.7c-5.8,7.1-11.3,13.8-16.6,7.8c-5.5-6.2-0.1-17.3,4.9-22c3.7-3.4,10.6-6.3,17.9-4.5c8.2,2.1,2,2.1,2,2.1
			s-10.4-2.3-17.9,9.7c-5.5,8.9-2.4,16.9,2,12.8c2.4-2.3,7.6-8.9,11.7-14.1c2.1-3.4,4.4-7.5,6.5-7.5c2.1-0.1,7.3,0.6,2.7,6.5
			C1009.9,785.5,1009.7,809,1018.3,796.5z"/>
		<path d="M1044.2,770c-3.5,4.7-6.5,10.2-9.2,16.1c12-9.4,20.7-16.2,28.8-21.6c0,0-0.8,1.4-5.2,5.2c-4.5,3.9-14.2,11.6-25.4,20.6
			c-12,29.9-16.1,68.3-35.5,69.8c-11.8,1-17.8-12-11.7-24.8c6.2-13,23.6-28.6,39.6-41.7c5.2-14.5,14.8-33.1,17.2-31.9
			C1042.8,761.6,1048.3,763.6,1044.2,770z M992.3,829.2c-9.7,12.6-7.9,26.7,0.8,27.6c14.4,1.7,26.2-44,31-59.1
			C1012.3,807.8,1000.2,819,992.3,829.2z M1054.7,749.5c-1.8,3.8-6.2,5.2-8.2,4.8c-1.7-0.6-1.4-0.4-0.7-2.4c1.7-2.5,1-5.9,3.5-6.3
			C1049.6,745.6,1056.5,745.7,1054.7,749.5z"/>
		<path d="M1058.2,777.3c-2.3,10.9,3.7,15.1,9.9,12.6c10.4-4.1,20.3-26.9,27.6-26.8c-7.2,6.6-7.8,8.7-12.7,15.1
			c-6.5,8.3-13.3,15.5-21.3,14.7c-10.6-1.1-11.8-14.4-9.2-20.6c2.8-6.5,8.5-13.8,17.3-14.4c7.3-0.4,10.2,6.5,3.1,12.4
			c-4.2,3.5-10.4,5.2-14.5,5.9C1058.5,776.5,1058.2,777,1058.2,777.3z M1064.2,773.2c11.4-3.8,13.4-12.4,7.5-11
			c0,0-9.3,1.1-12.8,12.4C1060.3,774.3,1062.3,773.9,1064.2,773.2z"/>
		<path d="M307.8,865.9c3.5,0.4,6.2,5.6,3.4,11.7c-3.5,8.7-35.3,43.3-40.8,45.1c-0.1,0-0.3,0.1-0.4,0.1c-3.5,8.3-5.6,16.2-7.8,22.7
			c-1.7,5.6-6.9,41.6-0.1,26.5c4.2-9.4,19.2-37.1,27.6-39.2c-12.1,12.1-21,30.9-23.8,36.2c-3,5.6-4.4,11-7.3,10.3
			c-5.5-1.1-7.3-17.9-2.5-36.8c0.6-2.3,1.3-4.7,2.1-7.2c-1.7,3-3.9,6.5-6.6,9.7c-6.2,7.6-12.6,15.1-17.9,8.5
			c-5.8-6.6,1.1-19.3,5.5-23c3.8-3.2,10.2-6.3,17.8-4.9c2.4,0.6,3.8,1.1,4.4,1.4c6.6-16.6,17.1-35.8,26.1-47.2
			c9.3-11.6,15.7-14,19.3-14H307.8z M240.8,938.1c-5.9,9.4-3.2,18.1,1.6,14c6.8-5.9,12.7-14.8,18.6-24.4c-0.6,0-1.1,0.1-1.1,0.1
			s-0.8-0.3-2.3-0.3C253.9,927.5,246.4,928.9,240.8,938.1z M302,875.2c-14.1,13.1-24.1,29.8-30.9,45.1c0.8-0.8,1.7-1.7,2.5-2.4
			c11-10,31.5-33.8,34.8-40.5c2.3-4.5,1.7-5.9,0.3-5.9C306.9,871.5,303.4,873.9,302,875.2z"/>
		<path d="M284,946.5c-2.3,10.9,3.7,15.1,9.9,12.6c10.4-4.1,20.3-26.9,27.6-26.8c-7.2,6.6-7.8,8.7-12.7,15.1
			c-6.5,8.3-13.3,15.5-21.3,14.7c-10.6-1.1-11.8-14.4-9.2-20.6c2.8-6.5,8.5-13.8,17.3-14.4c7.3-0.4,10.2,6.5,3.1,12.4
			c-4.2,3.5-10.4,5.2-14.5,5.9C284.2,945.7,284,946.3,284,946.5z M290,942.5c11.4-3.8,13.4-12.4,7.5-11c0,0-9.3,1.1-12.8,12.4
			C286.1,943.6,288,943.2,290,942.5z"/>
		<path d="M377.2,936.8c0.1,4.7-1.4,6.9-3.9,12.3c5.9-8.5,19.6-22,28.9-24.5c5.4-1.4,7.8,3.5,7.3,7.2c-0.7,5.5-16.4,26.9-18.3,34.8
			c-2.8,11.7,4.5,7.9,6.8,6.2c6.8-5.1,19.5-27.9,25.2-34.6c7.1-8.2,9.7-5.5,9.7-5.5c-11.1,2.7-24.7,38.6-37.1,43.6
			c-3.7,1.6-9.3,0.6-11-5.4c-3.2-11.8,18.2-39.2,18.9-43.3c0.7-4.7-13,3.7-22.6,14.7c-6.5,7.5-9.9,13.1-12.7,17.5
			c-0.6,1-3.8,1-5.2-1.4c-0.6-1-2.3-3.2,3-14c5.8-11.7,3.4-11.3,3.4-11.3C370.8,931.3,377,932.3,377.2,936.8z"/>
		<path d="M429.6,932.4c5.1-1.1,7.9,1.8,2.5,12c-4.9,9.4,0.1,13,5.6,8.6c6.3-5.1,13.1-16.6,15.4-19.2c3.8-4.4,6.1-2.3,6.8,1.4
			c1.1,5.1-2.3,7.3-8.7,21.7c-5.9,13,1.7,14.8,9.4,5.8c12.4-14.5,15.7-28.9,24.7-30.3c-7.6,3.7-7.5,11-20.9,28.6
			c-3.7,4.8-10.6,13.1-17.9,7.1c-9.3-7.8,3.9-25.8,3.5-27.2c0,0-2.4,5.8-9.4,12c-7.5,6.6-14.1,3.1-16.1-1.3
			C422.2,946.4,428,940.6,429.6,932.4z"/>
		<path d="M478.6,946.5c-2.3,10.9,3.7,15.1,9.9,12.6c10.4-4.1,20.3-26.9,27.6-26.8c-7.2,6.6-7.8,8.7-12.7,15.1
			c-6.5,8.3-13.3,15.5-21.3,14.7c-10.6-1.1-11.8-14.4-9.2-20.6c2.8-6.5,8.5-13.8,17.3-14.4c7.3-0.4,10.2,6.5,3.1,12.4
			c-4.2,3.5-10.4,5.2-14.5,5.9C478.9,945.7,478.6,946.3,478.6,946.5z M484.7,942.5c11.4-3.8,13.4-12.4,7.5-11c0,0-9.3,1.1-12.8,12.4
			C480.7,943.6,482.7,943.2,484.7,942.5z"/>
		<path d="M517.5,933.4c-0.6,2-0.6,4.9,1.3,8c2.5,4.4,5.2,8,6.3,11.4c14.1-6.9,17.5-11,24.7-20.5c-3.1,9.6-13,16.5-24.3,21.9
			c2.1,6.6,1.8,12-2.4,18.6c-7.2,11.4-22.6,15.1-27.5,9c-6.8-8.5,3.9-17.6,19.6-24.7c2.3-1,4.1-2,5.9-2.8c-0.4-2.7-1.6-5.4-3.4-8.3
			c-6.8-10.6-5.6-11.8-5.5-14.2c0.3-4.5,5.6-9.2,5.6-9.2c3.1-2.3,3.9,2.3,3.2,4.9C519.6,929.5,518.1,931.6,517.5,933.4z
			 M519.4,956.7c-13.1,5.6-24.7,13.1-23.7,20.3c0.7,4.9,4.9,6.5,10.2,3.5c5.4-3,16.8-12.3,15.7-24.5
			C520.8,956.3,520.1,956.4,519.4,956.7z"/>
		<path d="M516.2,877.7c-3.5,2.4-6.5,7.1-2.7,10.9c6.8,6.8,26.2,6.1,49.4,3.7c5.9-11,9.2-14,9.2-14c1.4-2.3,6.1,2.8,4.7,5.2
			c-1.6,2.5-3.1,5.1-4.7,7.8c32.2-3.8,68.5-9.7,86.6-4.2c6.8,2.1,9.3,4.5,8.6,7.9c-0.3,1.8-2.3,3-3.1,1.1c-0.7-1.6,3-5.2-6.3-7.9
			c-18.6-5.2-54.7,0.8-86.7,4.7c-9.3,15.9-19,36.1-27.1,64.6c-5.8,20.5-0.6,29.8,8.7,18.1c10.4-13.1,20.5-41.3,31.6-43.2
			c-8.9,7.9-12,13.8-20.3,29.3c-11.7,22-18.3,23.3-23,19.5c-5.9-4.8-9-17.1,6.3-55.1c5.9-14.5,10.9-25,14.7-32.2
			c-23.3,2.4-42.9,2.8-49.9-4.7c-3.5-3.8-2.1-10.4,2.5-13.5C516.1,874.6,519.9,875.3,516.2,877.7z"/>
		<path d="M587.2,933.6c9.2,5.8,12.3,12.1,4.4,23.7c-8.3,12.1-9.6,31.6,2,22.3c6.8-5.5,11.8-14.9,20.3-29.2
			c8.2-13.8,10.2-16.1,13.8-18.1c-1.1,2.1-7.5,10.7-11.7,18.3c-9.4,17.2-19.3,33.7-27.9,33c-8.6-0.7-12.1-12.7-6.5-24
			c6.1-12.4,13-17.3,2-24.4c-14-9-6.6-16.2-3.2-18.2c4.1-2.4,10.2-1.4,10.2,4.7c0,4.5-3.1,8.3-5.5,10.4
			C585.6,932.6,586.3,933,587.2,933.6z M583.1,918.5c-3.9,1.7-6.1,7.2,1,13c2.4-2.8,4.1-5.8,4.5-7.5
			C589.6,920.2,586.3,917.1,583.1,918.5z"/>
		<path d="M645.9,965.7c8-11.8,17.9-32,24.8-33.6c-7.1,8-8.9,11.7-13,18.2c-7.8,12.6-12,21-16.5,20.3c-5.1-0.8-9.7-7.5-4.5-21.7
			c0.1-0.6,0.4-1.1,0.6-1.7c-5.8,7.1-11.3,13.8-16.6,7.8c-5.5-6.2-0.1-17.3,4.9-22c3.7-3.4,10.6-6.3,17.9-4.5c8.2,2.1,2,2.1,2,2.1
			s-10.4-2.3-17.9,9.7c-5.5,8.9-2.4,16.9,2,12.8c2.4-2.3,7.6-8.9,11.7-14.1c2.1-3.4,4.4-7.5,6.5-7.5c2.1-0.1,7.3,0.6,2.7,6.5
			C637.5,954.7,637.3,978.3,645.9,965.7z"/>
		<path d="M671.5,933.4c-0.6,2-0.6,4.9,1.3,8c2.5,4.4,5.2,8,6.3,11.4c14.1-6.9,17.5-11,24.7-20.5c-3.1,9.6-13,16.5-24.3,21.9
			c2.1,6.6,1.8,12-2.4,18.6c-7.2,11.4-22.6,15.1-27.5,9c-6.8-8.5,3.9-17.6,19.6-24.7c2.3-1,4.1-2,5.9-2.8c-0.4-2.7-1.6-5.4-3.4-8.3
			c-6.8-10.6-5.6-11.8-5.5-14.2c0.3-4.5,5.6-9.2,5.6-9.2c3.1-2.3,3.9,2.3,3.2,4.9C673.6,929.5,672.1,931.6,671.5,933.4z
			 M673.4,956.7c-13.1,5.6-24.7,13.1-23.7,20.3c0.7,4.9,4.9,6.5,10.2,3.5c5.4-3,16.8-12.3,15.7-24.5
			C674.8,956.3,674.1,956.4,673.4,956.7z"/>
		<path d="M758.7,939.4c-1.3,5.8-11.7,26.5-6.2,29.5c4.4,2.4,17.6-8.6,26.7-23.3c-4.9-2.5-6.9-7.6-5.9-12.3c1.7-7.6,12-7.5,13.1-2.5
			c0.4,2.3,0.6,5.1-2.5,10.9c-0.4,0.8-1.1,1.7-1.8,2.8c0.3,0.1,0.7,0.3,1,0.3c5.8,1.4,12.3,1.4,21.6-12.6
			c-4.7,14.2-15.8,16.8-23.6,14.1c-6.1,9.4-17.8,24-28.9,25.8c-15.5,2.5,1.7-39.8,1.7-39.8S760.4,931.9,758.7,939.4z M780.7,943.2
			c2.3-3.9,3-5.9,3.5-8.3c1.8-6.6-4.8-6.1-6.3-2c-1.1,3-0.7,8.2,2.5,10.7C780.4,943.4,780.7,943.3,780.7,943.2z"/>
		<path d="M815.7,949.1c-6.5,8.6-11.6,14-17.1,12.3c-8.7-2.8-1.4-24.7,4.8-28.8c2.8-1.4,4.2,0.1,3.8,2.4c-0.6,3.5-4.4,8.7-5.9,14.9
			c-1.1,4.7-2.5,10,1,9.6c4.4-0.4,12.4-12.8,18.1-19.7c4.7-5.8,6.1-7.5,9-7.5C825.1,934.4,821.6,941.3,815.7,949.1z M808.9,926.7
			c-1.7-0.6-1.8-1.6-0.6-3.9c1.4-2.7,0.6-3.2,2.8-4.5c1.6-0.8,6.6-0.3,4.9,3.2C814.3,925.3,810.9,927.2,808.9,926.7z"/>
		<path d="M895.9,865.9c3.5,0.4,6.2,5.6,3.4,11.7c-3.5,8.7-35.3,43.3-40.8,45.1c-0.1,0-0.3,0.1-0.4,0.1c-3.5,8.3-5.6,16.2-7.8,22.7
			c-1.7,5.6-6.9,41.6-0.1,26.5c4.2-9.4,19.2-37.1,27.6-39.2c-12.1,12.1-21,30.9-23.8,36.2c-3,5.6-4.4,11-7.3,10.3
			c-5.5-1.1-7.3-17.9-2.5-36.8c0.6-2.3,1.3-4.7,2.1-7.2c-1.7,3-3.9,6.5-6.6,9.7c-6.2,7.6-12.6,15.1-17.9,8.5
			c-5.8-6.6,1.1-19.3,5.5-23c3.8-3.2,10.2-6.3,17.8-4.9c2.4,0.6,3.8,1.1,4.4,1.4c6.6-16.6,17.1-35.8,26.1-47.2
			c9.3-11.6,15.7-14,19.3-14H895.9z M828.9,938.1c-5.9,9.4-3.2,18.1,1.6,14c6.8-5.9,12.7-14.8,18.6-24.4c-0.6,0-1.1,0.1-1.1,0.1
			s-0.8-0.3-2.3-0.3C842,927.5,834.6,928.9,828.9,938.1z M890.1,875.2c-14.1,13.1-24.1,29.8-30.9,45.1c0.8-0.8,1.7-1.7,2.5-2.4
			c11-10,31.5-33.8,34.8-40.5c2.3-4.5,1.7-5.9,0.3-5.9C895.1,871.5,891.5,873.9,890.1,875.2z"/>
		<path d="M895.2,965.7c8-11.8,17.9-32,24.8-33.6c-7.1,8-8.9,11.7-13,18.2c-7.8,12.6-12,21-16.5,20.3c-5.1-0.8-9.7-7.5-4.5-21.7
			c0.1-0.6,0.4-1.1,0.6-1.7c-5.8,7.1-11.3,13.8-16.6,7.8c-5.5-6.2-0.1-17.3,4.9-22c3.7-3.4,10.6-6.3,17.9-4.5c8.2,2.1,2,2.1,2,2.1
			s-10.4-2.3-17.9,9.7c-5.5,8.9-2.4,16.9,2,12.8c2.4-2.3,7.6-8.9,11.7-14.1c2.1-3.4,4.4-7.5,6.5-7.5c2.1-0.1,7.3,0.6,2.7,6.5
			C886.9,954.7,886.6,978.3,895.2,965.7z"/>
		<path d="M920.9,933.4c-0.6,2-0.6,4.9,1.3,8c2.5,4.4,5.2,8,6.3,11.4c14.1-6.9,17.5-11,24.7-20.5c-3.1,9.6-13,16.5-24.3,21.9
			c2.1,6.6,1.8,12-2.4,18.6c-7.2,11.4-22.6,15.1-27.5,9c-6.8-8.5,3.9-17.6,19.6-24.7c2.3-1,4.1-2,5.9-2.8c-0.4-2.7-1.6-5.4-3.4-8.3
			c-6.8-10.6-5.6-11.8-5.5-14.2c0.3-4.5,5.6-9.2,5.6-9.2c3.1-2.3,3.9,2.3,3.2,4.9C923,929.5,921.4,931.6,920.9,933.4z M922.7,956.7
			c-13.1,5.6-24.7,13.1-23.7,20.3c0.7,4.9,4.9,6.5,10.2,3.5c5.4-3,16.8-12.3,15.7-24.5C924.1,956.3,923.4,956.4,922.7,956.7z"/>
		<path d="M967.6,970.9c-1.7,0.4-2.5-2-2.5-3c0.3-3,3.5-6.6,6.2-4.8C974.2,965.4,969.5,970.4,967.6,970.9z M990.8,889.3
			c2.1-5.2,2.5-6.5,3.8-6.8c3-0.7,5.2,1.3,4.2,3.1c-5.4,11.8-9.2,23.7-12.4,33.1c-4.1,11.7-7.2,23.1-10.2,31.9
			c-1.1,3.4-6.3,3.4-4.2-3C978.6,927.4,985.5,902.1,990.8,889.3z"/>
	</g>
	<path d="M191.6,726.4c1.7-0.4,2.5,2,2.5,3c-0.3,3-3.5,6.6-6.2,4.8C184.9,731.9,189.6,727,191.6,726.4z M168.3,808.1
		c-2.1,5.2-2.5,6.5-3.8,6.8c-3,0.7-5.2-1.3-4.2-3.1c5.4-11.8,9.2-23.7,12.4-33.1c4.1-11.7,7.2-23.1,10.2-31.9c1.1-3.4,6.3-3.4,4.2,3
		C180.6,770,173.7,795.2,168.3,808.1z"/>
</g>
</svg>
